<?xml version="1.0" encoding="UTF-8"?>
<svg width="536px" height="547px" viewBox="0 0 536 547" version="1.1" xmlns="http://www.w3.org/2000/svg" xmlns:xlink="http://www.w3.org/1999/xlink">
    <!-- Generator: Sketch 52.6 (67491) - http://www.bohemiancoding.com/sketch -->
    <title>Cubo de fundo</title>
    <desc>Created with Sketch.</desc>
    <g id="Page-1" stroke="none" stroke-width="1" fill="none" fill-rule="evenodd" opacity="0.1">
        <g id="Cubo-de-fundo" transform="translate(268.000000, 273.500000) scale(-1, 1) translate(-268.000000, -273.500000) ">
            <path d="M275,119.372242 C304.530634,106.166162 332.584639,93.7608286 358.999697,82 C389.838232,92.3045591 422.396625,103.223576 457,114.750039 C431.00578,128.472925 403.329197,143.276997 373.910555,159 C338.872528,144.855957 305.882937,131.593288 275,119.372242" id="Fill-322" fill="#262626"></path>
            <path d="M73,122.786897 C108.349131,109.395262 141.784744,96.9837611 173.454491,85 C198.989942,95.4778745 226.261431,106.518697 255,118.237571 C222.891769,132.154456 188.65575,147.113298 152.452521,163 C124.239934,148.575456 97.882698,135.203927 73,122.786897" id="Fill-323" fill="#262626"></path>
            <path d="M183,84.0606279 C212.646004,73.223932 240.792744,62.9081742 267.598878,53 C293.508447,61.5976969 321.047,70.5329933 350,79.9729639 C323.229289,91.333555 294.908425,103.431936 265.036409,116 C236.094386,104.834576 208.892606,94.1669261 183,84.0606279" id="Fill-324" fill="#262626"></path>
            <path d="M162,166.825663 C198.274061,151.0042 232.473051,135.936163 264.606394,122 C295.50134,134.579896 328.666763,147.806719 364,161.957864 C331.935595,178.76111 297.596249,196.866134 260.973533,216 C225.612027,198.546855 192.63953,182.118093 162,166.825663" id="Fill-325" fill="#262626"></path>
            <path d="M277,47.9783803 C301.761568,38.5748124 325.464948,29.5257072 348.00457,21 C373.696059,28.2843336 400.728411,35.920616 429,43.9661645 C406.705069,53.8599467 383.191125,64.1132195 358.466064,75 C329.889599,65.368671 302.719609,56.4709037 277,47.9783803" id="Fill-326" fill="#262626"></path>
            <path d="M163,288 C164.306152,320.328874 165.586626,351.62256 166.786113,381.716349 C194.583694,402.213447 224.172853,423.919926 255.664203,447 C255.802472,414.744498 255.91457,381.399404 256,346.90682 C222.903243,325.995448 191.870651,306.506085 163,288" id="Fill-327" fill="#262626"></path>
            <path d="M72,131 C74.5713882,164.238759 77.1706233,196.434793 79.5878571,227.758711 C103.56477,242.536511 129.015096,258.155817 156,275 C154.447022,241.572065 152.921396,206.990508 151.314713,171.313537 C123.151277,157.021473 96.7864695,143.618083 72,131" id="Fill-328" fill="#262626"></path>
            <path d="M82,236 C84.4027979,265.896804 86.576432,295.143144 88.8357569,323.512035 C111.59256,340.225586 135.596055,358.111072 161,377 C159.706299,346.912207 158.283325,315.84347 156.835868,283.735792 C130.418802,266.83925 105.561816,250.943652 82,236" id="Fill-329" fill="#262626"></path>
            <path d="M159,174 C160.507289,209.776409 161.932913,244.409338 163.224589,277.900287 C192.65032,296.023678 224.044936,315.353964 257.519978,336 C257.675338,299.90901 257.906884,262.505765 258,223.851685 C222.706951,205.97896 189.655164,189.471919 159,174" id="Fill-330" fill="#262626"></path>
            <path d="M10,191 C13.1364804,219.319183 16.0940873,246.926888 19.1448471,273.867075 C38.3001705,288.038037 58.6070231,303.228211 80,319 C77.6597791,290.384199 75.3061803,261.160508 72.7172214,231.057574 C50.7222186,217.013446 29.8688355,203.605 10,191" id="Fill-331" fill="#262626"></path>
            <path d="M364,284 C362.348513,316.021715 360.729917,347.17481 359.140722,377.295893 C329.735887,399.016843 298.425413,422.141292 265,447 C265.084717,414.906273 265.310962,381.886812 265.501824,347.456404 C300.652976,324.836042 333.469423,303.738869 364,284" id="Fill-332" fill="#262626"></path>
            <path d="M461,120 C457.978559,153.072746 455.091858,185.161837 452.1266,216.163677 C427.007424,232.072004 400.404626,248.996859 372,267 C373.942035,233.681215 375.913902,199.436549 377.749041,163.942266 C407.343946,148.415448 435.025653,133.859834 461,120" id="Fill-333" fill="#262626"></path>
            <path d="M450,225 C447.277249,255.119148 444.529117,284.199309 441.982541,312.673768 C417.801764,330.63641 392.140419,349.725497 365,370 C366.536307,339.800392 368.375694,308.77519 370.085687,276.822946 C398.456346,258.432514 424.972189,241.288468 450,225" id="Fill-334" fill="#262626"></path>
            <path d="M368,169 C366.063388,204.737192 364.264326,239.433215 362.596357,272.980256 C331.901068,292.606763 299.030816,313.432163 264,336 C264.101796,299.9259 264.332203,262.539106 264.48018,223.899515 C301.35326,204.23208 335.843811,185.987644 368,169" id="Fill-335" fill="#262626"></path>
            <path d="M442,322 C439.393104,349.317797 436.985256,376.030382 434.609019,401.86855 C411.456142,421.564863 386.884734,442.275679 361,464 C362.591896,436.708126 364.112174,408.6555 365.771243,379.672124 C392.652703,359.394528 417.955109,340.191259 442,322" id="Fill-336" fill="#262626"></path>
            <path d="M368,77.1243222 C392.758124,66.2483129 416.297352,55.8924346 438.61521,46 C469.036591,54.5055843 500.966492,63.4094716 535,72.9140455 C513.093061,84.263941 490.291011,96.2886144 466.058665,109 C431.340457,97.7714353 398.77586,87.0351553 368,77.1243222" id="Fill-337" fill="#B2DD4C"></path>
            <path d="M1,87.0227273 C35.1002797,76.2185637 67.7520227,65.8765136 98.7949466,56 C120.348732,64.5806399 143.100893,73.4532181 167,82.9404806 C135.292477,94.2747299 101.762923,106.295548 66.4133374,119 C43.2796931,107.78458 21.4033448,97.126141 1,87.0227273" id="Fill-338" fill="#B2DD4C"></path>
            <path d="M108,55.4200116 C136.896072,45.8767648 164.407952,36.7570754 190.69522,28 C212.646045,35.4528842 235.675282,43.2683823 260,51.385043 C233.369781,61.4823679 205.353388,71.9484012 176.062823,83 C152.236672,73.317091 129.551377,64.2161925 108,55.4200116" id="Fill-339" fill="#9AC03E"></path>
            <path d="M200,23.4473455 C224.466344,15.4258591 247.932082,7.69979419 270.336942,0 C292.177797,6.40261629 315.133922,12.8885058 339,19.7297932 C316.661782,28.0799112 293.115682,36.8379686 268.517524,46 C244.520612,38.0786397 221.752162,30.5582794 200,23.4473455" id="Fill-340" fill="#829F3D"></path>
            <path d="M168,391 C169.292884,420.284551 170.401211,448.639698 171.492625,476.281848 C198.186009,498.469579 226.6364,522.150585 256.730877,547 C256.901504,518.119647 256.935331,488.035235 257,456.961666 C225.488276,433.573892 195.838026,411.568427 168,391" id="Fill-341" fill="#B2DD4C"></path>
            <path d="M0,93 C3.01460851,123.62582 6.33402639,153.582393 9.4776495,182.884312 C29.2690814,195.103845 50.0950922,208.235163 72,222 C69.4009955,190.92332 66.9374075,158.799998 64.1891998,125.857983 C41.3738032,114.261403 19.9588554,103.236953 0,93" id="Fill-342" fill="#B2DD4C"></path>
            <path d="M86,333 C88.1654041,360.309862 90.3138875,386.85699 92.3907042,412.696221 C114.70019,431.179806 138.162302,450.452048 163,471 C161.751322,443.777877 160.429484,415.739679 159.139997,386.773737 C133.262646,367.777177 109.026145,349.885333 86,333" id="Fill-343" fill="#9AC03E"></path>
            <path d="M19,282 C21.8402924,307.63495 24.6670834,332.670525 27.480873,357.16388 C46.3058109,372.525467 66.0728458,388.787607 87,406 C84.805774,380.296465 82.597547,353.940874 80.2643069,326.936705 C58.7780949,311.204858 38.3399909,296.261739 19,282" id="Fill-344" fill="#829F3D"></path>
            <path d="M358,386 C356.562191,415.260349 355.160302,443.806712 353.630476,471.477802 C325.916476,495.177503 296.428587,520.459932 265,547 C265.170254,518.154175 265.415793,487.989411 265.590476,457.055392 C298.325492,431.747338 329.184762,408.18983 358,386" id="Fill-345" fill="#B2DD4C"></path>
            <path d="M536,81 C531.976752,111.735585 528.257061,141.585406 524.632387,170.831683 C503.629482,184.109131 481.349341,198.240262 458,213 C460.880535,182.018787 463.952607,150.047041 467.112194,117.140906 C491.211174,104.335164 514.137936,92.3264597 536,81" id="Fill-346" fill="#B2DD4C"></path>
            <path d="M523,178 C519.551811,206.02979 516.087562,233.458817 512.825558,260.226553 C492.335153,275.266648 470.728139,291.264162 448,308 C450.734061,279.658073 453.506765,250.605835 456.368797,220.78526 C479.737293,205.729158 502.039867,191.573952 523,178" id="Fill-347" fill="#9AC03E"></path>
            <path d="M503.829176,345.400723 C484.480761,362.102093 464.257382,379.597013 443,398 C445.343773,372.016167 447.878688,345.257954 450.341133,317.616899 C472.260453,300.576517 493.14431,284.278732 513,269 C509.867835,295.002499 506.775552,320.451077 503.829176,345.400723 Z" id="Fill-348" fill="#829F3D"></path>
        </g>
    </g>
</svg>