<?xml version="1.0" encoding="UTF-8"?>
<svg width="327px" height="115px" viewBox="0 0 327 115" version="1.1" xmlns="http://www.w3.org/2000/svg" xmlns:xlink="http://www.w3.org/1999/xlink">
    <!-- Generator: Sketch 52.6 (67491) - http://www.bohemiancoding.com/sketch -->
    <title>icones</title>
    <desc>Created with Sketch.</desc>
    <g id="website" stroke="none" stroke-width="1" fill="none" fill-rule="evenodd">
        <g id="index" transform="translate(-569.000000, -2577.000000)">
            <g id="Footer" transform="translate(648.000000, 2328.500000) scale(-1, 1) translate(-648.000000, -2328.500000) translate(-1349.000000, 1896.000000)">
                <g id="icones" transform="translate(1749.000000, 681.000000)">
                    <g id="mysql" transform="translate(21.500000, 100.500000) scale(-1, 1) translate(-21.500000, -100.500000) translate(0.000000, 86.000000)" fill-rule="nonzero">
                        <path d="M10.0233694,26.5074439 L8.41466893,26.5074439 C8.35778156,23.8214734 8.20110812,21.2963229 7.9449595,18.9301473 L7.93065994,18.9301473 L5.48139412,26.5074439 L4.25660577,26.5074439 L1.82195037,18.9301473 L1.80796167,18.9301473 C1.62735202,21.2019218 1.51357727,23.7276874 1.46632655,26.5074439 L0,26.5074439 C0.0945014354,23.1271493 0.331998464,19.9581038 0.711558506,17 L2.70541445,17 L5.02598424,23.9859833 L5.0402838,23.9859833 L7.37515314,17 L9.28290087,17 C9.70069669,20.4648559 9.94751952,23.6342088 10.0233694,26.5074439 Z M17,19.4928635 C16.345018,23.0087636 15.4808273,25.5634337 14.4083603,27.1581038 C13.5727687,28.3856246 12.657286,29 11.660358,29 C11.3945728,29 11.0666155,28.9206662 10.6780405,28.7632287 L10.6780405,27.9154644 C10.8679759,27.942524 11.0908625,27.9578988 11.3470112,27.9578988 C11.8126794,27.9578988 12.1869549,27.8312108 12.4723243,27.5772197 C12.8136486,27.2678796 12.9843107,26.9201025 12.9843107,26.535426 C12.9843107,26.2715951 12.8512626,25.7322486 12.5857882,24.9155413 L10.8204144,19.4925561 L12.4008265,19.4925561 L13.6678918,23.5484177 C13.9526396,24.4693658 14.0713881,25.1123382 14.0238265,25.478565 C14.7167334,23.6480461 15.2007424,21.6520948 15.4764752,19.4922486 L17,19.4922486 L17,19.4928635 Z" id="Shape" fill="#5D87A1"></path>
                        <path d="M38,26.8143258 L33.7444539,26.8143258 L33.7444539,18.1292135 L35.1759965,18.1292135 L35.1759965,25.7452247 L38,25.7452247 L38,26.8143258 Z M32.6304851,27.0241573 L30.9850073,26.236236 C31.1309118,26.1199438 31.2704473,25.9941011 31.3960873,25.8483146 C32.0955022,25.0511236 32.4443412,23.872191 32.4443412,22.3106742 C32.4443412,19.4373596 31.2823166,18 28.9573988,18 C27.8173757,18 26.9280534,18.3646067 26.2920374,19.0941011 C25.5932015,19.8918539 25.2443625,21.066573 25.2443625,22.6196629 C25.2443625,24.1463483 25.553541,25.2662921 26.1721873,25.9766854 C26.738146,26.6202247 27.5912817,26.9424157 28.7321733,26.9424157 C29.1577279,26.9424157 29.5482539,26.8918539 29.9040407,26.7898876 L32.0462884,28 L32.6304851,27.0241573 Z M27.3000518,25.0764045 C26.9376067,24.5106742 26.7563841,23.6022472 26.7563841,22.3497191 C26.7563841,20.1629213 27.4410349,19.0682584 28.8117839,19.0682584 C29.5282789,19.0682584 30.0534191,19.3300562 30.3892309,19.8525281 C30.751097,20.4191011 30.9331881,21.319382 30.9331881,22.5544944 C30.9331881,24.7592697 30.2479583,25.8617978 28.8780778,25.8617978 C28.1612933,25.8620787 27.6361531,25.6011236 27.3000518,25.0764045 Z M24.6205052,24.4070225 C24.6205052,25.1435393 24.342013,25.7477528 23.7856076,26.2210674 C23.2286232,26.6924157 22.4817315,26.9286517 21.5458008,26.9286517 C20.6703742,26.9286517 19.8215809,26.6573034 19,26.1174157 L19.3847361,25.3716292 C20.0916778,25.7151685 20.7317467,25.8859551 21.3063902,25.8859551 C21.8457155,25.8859551 22.2672172,25.7699438 22.5729217,25.5398876 C22.8783368,25.3089888 23.0604278,24.9851124 23.0604278,24.5755618 C23.0604278,24.0595506 22.6895874,23.6185393 22.009279,23.2491573 C21.3819478,22.9148876 20.1272855,22.2160112 20.1272855,22.2160112 C19.4472666,21.7351124 19.1068229,21.2188202 19.1068229,20.3682584 C19.1068229,19.6643258 19.3607082,19.0960674 19.8687683,18.663764 C20.3774074,18.2297753 21.0336878,18.0134831 21.8381887,18.0134831 C22.6690334,18.0134831 23.4243205,18.2294944 24.1046288,18.6570225 L23.7595533,19.4030899 C23.1776725,19.1632022 22.6033185,19.0432584 22.0367808,19.0432584 C21.5779345,19.0432584 21.2235952,19.1502809 20.9772367,19.3651685 C20.7288518,19.5792135 20.57571,19.8530899 20.57571,20.1890449 C20.57571,20.7025281 20.9543668,21.1491573 21.6532027,21.5258427 C22.2889292,21.8606742 23.5748568,22.5716292 23.5748568,22.5716292 C24.2722452,23.0516854 24.6205052,23.5632022 24.6205052,24.4070225 Z" id="Shape" fill="#F8981D"></path>
                        <path d="M41.6577189,13.1483753 C40.732328,13.124413 40.0158464,13.2193163 39.4144971,13.4784876 C39.2408702,13.5491133 38.9648004,13.5491133 38.9406598,13.7726563 C39.0344369,13.8672444 39.0452692,14.0198464 39.1266665,14.1503779 C39.2653203,14.3859021 39.5070362,14.702772 39.7277063,14.8679858 C39.9700411,15.0571618 40.2133044,15.2444461 40.4683285,15.4093446 C40.9180252,15.6927934 41.4277639,15.8576919 41.8660093,16.1401948 C42.1213429,16.3044627 42.375129,16.5169704 42.6307721,16.6938501 C42.7564272,16.7881228 42.836896,16.9410401 43,17 L43,16.9640565 C42.9182932,16.858118 42.8950811,16.7048853 42.8149218,16.5869656 L42.4676681,16.2458181 C42.1321752,15.7867508 41.7152851,15.3860129 41.2655884,15.0568465 C40.895432,14.7970447 40.0857924,14.4439161 39.9356871,14.0094417 L39.9121655,13.9854794 C40.1665706,13.9612018 40.4683285,13.8672444 40.7100444,13.7950422 C41.1034129,13.6894189 41.4621179,13.7133812 41.8656998,13.6077579 C42.0513969,13.5604639 42.2355466,13.5011887 42.4218628,13.4428594 L42.4218628,13.3366055 C42.212644,13.124413 42.0634673,12.8425407 41.8434161,12.6420141 C41.2547561,12.1239869 40.6060539,11.6173104 39.9356871,11.1932407 C39.5766726,10.9570859 39.1149056,10.8051145 38.732679,10.6042725 C38.5949536,10.5333315 38.3628321,10.498334 38.2817443,10.3804142 C38.0743825,10.121243 37.9577028,9.78009549 37.807288,9.47331498 C37.4730331,8.82601754 37.1483726,8.10777908 36.859923,7.42327702 C36.6513231,6.96420977 36.5244301,6.50577311 36.2700249,6.08107284 C35.0784681,4.07895949 33.7844683,2.86634092 31.7956516,1.67610818 C31.3682386,1.42828754 30.8597378,1.32266423 30.3165736,1.19276334 L29.4490583,1.14609991 C29.2639801,1.06349302 29.0785924,0.839319388 28.9170359,0.733380792 C28.2571919,0.309626407 26.5583723,-0.608823386 26.0730837,0.603795188 C25.7604934,1.37027354 26.5354696,2.12382487 26.8016356,2.51258168 C26.9981651,2.78247287 27.2528797,3.08956868 27.3902956,3.3960339 C27.4716929,3.59624524 27.4945955,3.80875302 27.5759928,4.02031491 C27.761071,4.53865733 27.9340788,5.11532904 28.1773421,5.59898917 C28.3042352,5.84554864 28.4425796,6.10471985 28.6047551,6.32794761 C28.6976037,6.45847909 28.8591603,6.51617779 28.8944427,6.72900087 C28.7331957,6.96357919 28.7205064,7.31765372 28.6279673,7.61213779 C28.2120056,8.94299141 28.3744906,10.5916608 28.9640792,11.5697011 C29.1485383,11.8641851 29.5886406,12.5124285 30.1773007,12.2639772 C30.6984908,12.0521 30.583049,11.3808403 30.7328447,10.7921874 C30.7671987,10.6499901 30.7446056,10.5566632 30.8139325,10.4633364 L30.8139325,10.4863528 C30.9751795,10.8158344 31.1379741,11.1333349 31.2874603,11.4637625 C31.6461653,12.0404342 32.2707268,12.6413835 32.7909884,13.0408603 C33.0679867,13.2539986 33.2874188,13.6184778 33.6343631,13.748694 L33.6343631,13.7133812 L33.6114604,13.7133812 C33.541205,13.6077579 33.4384525,13.5604639 33.346223,13.4784876 C33.1376231,13.2662951 32.9067396,13.0071239 32.7448736,12.771915 C32.260204,12.1120058 31.8312435,11.3814709 31.4505643,10.6276043 C31.2642481,10.2618639 31.1036201,9.86207179 30.9535149,9.49696198 C30.8835689,9.35602582 30.8835689,9.14351804 30.7675082,9.07257701 C30.5935719,9.33143293 30.3400952,9.55560656 30.2132021,9.87279177 C29.993151,10.3800989 29.9702483,11.0040646 29.8885416,11.6529385 L29.8430458,11.6756397 C29.4747464,11.5813669 29.3466153,11.1932407 29.2067235,10.8637591 C28.8603982,10.0269703 28.8022131,8.6838202 29.102733,7.71839168 C29.1832018,7.47151692 29.531384,6.69400329 29.3924206,6.45879439 C29.3227842,6.23335958 29.0912817,6.10503515 28.9643887,5.92752494 C28.8152119,5.70429718 28.6517984,5.42179426 28.547808,5.17397362 C28.2705002,4.51469503 28.1309178,3.78416013 27.8322549,3.12519684 C27.6926725,2.81810102 27.4503377,2.50028524 27.2541177,2.21746702 C27.033757,1.89965123 26.7914222,1.67579289 26.6171764,1.29901723 C26.5596103,1.16943162 26.478832,0.957554429 26.5713711,0.81661826 C26.5939642,0.722030228 26.6410075,0.686717363 26.7332371,0.663070355 C26.8830328,0.534115337 27.3110648,0.698067927 27.46117,0.769008951 C27.889821,0.945573278 28.2482166,1.11047175 28.6059931,1.35766181 C28.7678591,1.47589685 28.941486,1.69975519 29.1491573,1.75871506 L29.3924206,1.75871506 C29.7616485,1.84069136 30.1779197,1.78141619 30.5254829,1.88798537 C31.1379741,2.088512 31.6928991,2.38268078 32.1905675,2.70018128 C33.704928,3.67853682 34.9537415,5.06866561 35.7968066,6.72900087 C35.935151,6.99952264 35.9939551,7.24734328 36.1202292,7.52953091 C36.363802,8.1071485 36.6649409,8.69611664 36.9066568,9.26143778 C37.1496106,9.81477777 37.381113,10.3797836 37.7280573,10.8394815 C37.9010651,11.0866715 38.5961915,11.2162571 38.9078533,11.3458427 C39.1384273,11.451466 39.4974418,11.5454235 39.7054227,11.6750091 C40.0987912,11.9218838 40.4906122,12.2053326 40.8604591,12.4768003 C41.0446088,12.6180518 41.623365,12.9125358 41.6577189,13.1483753 M29.8640915,2.91268906 C29.7044707,2.91099883 29.5453375,2.93093179 29.3908732,2.97196422 L29.3908732,2.99561123 L29.4131568,2.99561123 C29.5063149,3.18384142 29.6681809,3.3143729 29.7836227,3.47864078 C29.8767808,3.66750155 29.957559,3.85478586 30.0488601,4.04333134 L30.0711438,4.01999962 C30.2342478,3.90239517 30.3153356,3.71384969 30.3153356,3.43103147 C30.2450802,3.347794 30.2342478,3.2664483 30.1757532,3.18384142 C30.1076642,3.06592167 29.957559,3.00727709 29.8640915,2.91268906" id="Shape" fill="#5D87A1"></path>
                        <path d="M42.8095004,28 L43,28 L43,27.0002639 L42.7142506,27.0002639 L42.4811715,27.682502 L42.2279104,27.0002639 L41.9527443,27.0002639 L41.9527443,28 L42.1326606,28 L42.1326606,27.2393771 L42.1427517,27.2393771 L42.4080729,28 L42.5451637,28 L42.8095004,27.2393771 L42.8095004,28 Z M41.27492,28 L41.4764952,28 L41.4764952,27.1697018 L41.7403397,27.1697018 L41.7403397,27 L41,27 L41,27.1697018 L41.2744278,27.1697018 L41.27492,28 Z" id="Shape" fill="#F8981D"></path>
                    </g>
                    <g id="figma" transform="translate(172.000000, 100.500000) scale(-1, 1) translate(-172.000000, -100.500000) translate(163.000000, 86.000000)">
                        <path d="M4.73684211,29 C7.35157895,29 9.47368421,26.76 9.47368421,24 L9.47368421,19 L4.73684211,19 C2.12210526,19 0,21.24 0,24 C0,26.76 2.12210526,29 4.73684211,29 Z" id="path0_fill" fill="#0ACF83"></path>
                        <path d="M0,15 C0,12.24 2.12210526,10 4.73684211,10 L9.47368421,10 L9.47368421,20 L4.73684211,20 C2.12210526,20 0,17.76 0,15 Z" id="path1_fill" fill="#A259FF"></path>
                        <path d="M0,5 C0,2.24 2.12210526,0 4.73684211,0 L9.47368421,0 L9.47368421,10 L4.73684211,10 C2.12210526,10 0,7.76 0,5 Z" id="path1_fill_1_" fill="#F24E1E"></path>
                        <path d="M8.52631579,0 L13.2631579,0 C15.8778947,0 18,2.24 18,5 C18,7.76 15.8778947,10 13.2631579,10 L8.52631579,10 L8.52631579,0 Z" id="path2_fill" fill="#FF7262"></path>
                        <path d="M18,15 C18,17.76 15.8778947,20 13.2631579,20 C10.6484211,20 8.52631579,17.76 8.52631579,15 C8.52631579,12.24 10.6484211,10 13.2631579,10 C15.8778947,10 18,12.24 18,15 Z" id="path3_fill" fill="#1ABCFE"></path>
                    </g>
                    <g id="postgres" transform="translate(64.500000, 100.000000) scale(-1, 1) translate(-64.500000, -100.000000) translate(51.000000, 85.000000)">
                        <path d="M26.9285466,17.9706506 C26.7662632,17.4409477 26.3411548,17.0720129 25.7914,16.9834822 C25.5321695,16.9417805 25.235302,16.959555 24.8839875,17.0376033 C24.2716453,17.1737605 23.8173576,17.2256028 23.4858132,17.2356294 C24.7372453,14.9585563 25.7548202,12.361884 26.3406262,9.91754832 C27.2878959,5.96511455 26.7816986,4.1645348 26.1901837,3.35009805 C24.624757,1.1943701 22.3408432,0.0362929894 19.5855148,0.000857926372 C18.1156609,-0.0185117222 16.8253231,0.294251133 16.1521907,0.519166935 C15.5254703,0.399986627 14.8515978,0.333446187 14.1445286,0.321140763 C12.8190911,0.298352941 11.6480078,0.609748527 10.6473484,1.24974451 C10.0933648,1.0478444 9.20424222,0.763224508 8.17746952,0.581605567 C5.76256609,0.154333907 3.81622286,0.487263985 2.39256952,1.57116673 C0.668665512,2.8835174 -0.130487584,5.16366686 0.0173118638,8.34826496 C0.0642524611,9.35936062 0.589056796,12.4357166 1.41538046,15.3532414 C1.89028398,17.0301972 2.39669268,18.422761 2.92054551,19.4926493 C3.66345447,21.0097485 4.45837868,21.9031451 5.35077864,22.2239976 C5.85094974,22.4035656 6.75973661,22.5293544 7.71556981,21.6713929 C7.8367273,21.8295404 7.99837634,21.9866624 8.21288641,22.1326184 C8.48533217,22.3177695 8.8184624,22.4690806 9.15116974,22.5587507 C10.3501637,22.8817681 11.4732492,22.8009852 12.4314083,22.3481912 C12.4373287,22.5318611 12.4418748,22.7073273 12.4456808,22.8588663 C12.4520241,23.104633 12.4583674,23.3456142 12.4667195,23.5709857 C12.5234922,25.0948074 12.6196993,26.2796602 12.904726,27.1086812 C12.9203728,27.1542568 12.9414115,27.2237597 12.9636132,27.2974783 C13.1058093,27.7666795 13.3435783,28.5521757 13.9485199,29.167333 C14.5749232,29.8045944 15.3326332,30 16.0265929,30 C16.3746299,30 16.7067029,29.9507783 16.9979672,29.8835542 C18.0361579,29.6437124 19.2152761,29.2784236 20.0682417,27.9694911 C20.8746896,26.7321124 21.266707,24.8684104 21.3376466,21.9318577 C21.3468444,21.8487961 21.3553021,21.7694945 21.3634427,21.6939529 L21.3803583,21.5387678 L21.5703408,21.5567702 L21.6192901,21.5603023 C22.6767222,21.6122585 23.9697031,21.3705937 24.7637815,20.9730601 C25.391242,20.6592718 27.40197,19.5152092 26.9285466,17.9706506" id="Path" fill="#000000"></path>
                        <path d="M25.3488071,17.7102738 C22.1435036,18.3969129 21.9230986,17.2699742 21.9230986,17.2699742 C25.3073127,12.0552106 26.7221082,5.43583073 25.5013123,3.81576542 C22.1705558,-0.603459393 16.4049974,1.48656477 16.3087521,1.54073483 L16.2778199,1.54655475 C15.6445192,1.41001039 14.935882,1.3287553 14.1392984,1.31521278 C12.6890441,1.29059003 11.5888512,1.71007223 10.7540065,2.36749977 C10.7540065,2.36749977 0.468797835,-2.03258644 0.947222244,7.9013519 C1.04896422,10.0146558 3.86411303,23.8919282 7.22181387,19.700352 C8.44907648,18.1675855 9.63495253,16.8716452 9.63495253,16.8716452 C10.2238489,17.2779206 10.9289294,17.4851994 11.6680677,17.4107716 L11.7255131,17.360183 C11.707622,17.5504497 11.7158131,17.7365754 11.7484697,17.956949 C10.8834473,18.9605501 11.1376945,19.1367147 9.40851196,19.5063918 C7.65874393,19.8808815 8.68661813,20.5474866 9.35774875,20.7218605 C10.1713612,20.9330566 12.0535878,21.232335 13.3253626,19.3835019 L13.2747071,19.5944741 C13.6135597,19.8764047 13.8515324,21.4280859 13.8116547,22.8348286 C13.7717771,24.2414594 13.745156,25.207231 14.0121209,25.9615827 C14.2793014,26.7159343 14.5454041,28.4132255 16.8186475,27.9074518 C18.7180108,27.4847239 19.7023428,26.3893471 19.8393281,24.5621148 C19.9364356,23.2631526 20.1564095,23.4552101 20.170205,22.2937995 L20.3466368,21.7440406 C20.550013,19.9831779 20.3789701,19.4150638 21.5491106,19.6793107 L21.8336433,19.7052765 C22.6947857,19.7459041 23.8221385,19.5613453 24.4837847,19.242033 C25.908388,18.5555058 26.7533637,17.4090928 25.3485915,17.7102738 L25.3488071,17.7102738" id="Path" fill="#336791"></path>
                        <path d="M11.0210277,9.18546988 C10.735463,9.15071983 10.4768564,9.1828613 10.3460081,9.26950353 C10.2724859,9.31822814 10.2496833,9.37468533 10.2435032,9.41353459 C10.2270939,9.51648046 10.3095666,9.63032649 10.3602863,9.68901961 C10.503708,9.85522363 10.7131932,9.96944231 10.9205473,9.99459651 C10.9505955,9.99832305 10.9805372,10 11.0102657,10 C11.3560334,10 11.6704743,9.76457536 11.6981783,9.59082509 C11.7328084,9.37319471 11.3714838,9.22813885 11.0210277,9.18556305 M20.4813177,9.192364 C20.4540399,9.02178129 20.106887,8.97314984 19.777422,9.01321023 C19.4483833,9.05327061 19.1293606,9.18314079 19.1559991,9.35409616 C19.1773099,9.48704074 19.4518995,9.71398748 19.7768892,9.71398748 C19.8043802,9.71398748 19.8320842,9.7124037 19.8600014,9.70895664 C20.0769453,9.68268448 20.236137,9.56222383 20.3117903,9.49281689 C20.4268686,9.38698294 20.4935714,9.26903771 20.4813177,9.192364" id="Shape" fill="#FFFFFF" fill-rule="nonzero"></path>
                        <path d="M26.0416119,18.1350451 C25.9231366,17.7501578 25.5418008,17.6263519 24.908261,17.7668823 C23.0271785,18.1839838 22.35352,17.8950658 22.1323453,17.7200762 C23.5944808,15.3270182 24.7973079,12.4342465 25.4462056,9.73532154 C25.7535727,8.45685385 25.9233455,7.2695289 25.9372408,6.30175468 C25.9525987,5.23958262 25.7841841,4.45903264 25.4369073,3.98221694 C24.0367258,2.06002562 21.9816915,1.02894536 19.4941284,1.00065968 C17.7839679,0.980006651 16.3390709,1.4501999 16.0589719,1.58242422 C15.4691029,1.42483259 14.8260558,1.32807762 14.125965,1.31573069 C12.8421693,1.29339399 11.7324299,1.62361804 10.8136718,2.2967498 C10.4145752,2.13713776 9.3831924,1.75674031 8.12185894,1.53842428 C5.941245,1.16128192 4.20841333,1.44705705 2.97184057,2.38822927 C1.49633221,3.51135022 0.815151541,5.5189598 0.947104177,8.35516011 C0.991506291,9.30935272 1.49758591,12.2447774 2.29619711,15.0559471 C3.34743022,18.755983 4.49018392,20.8505823 5.69248869,21.2814899 C5.83321727,21.3318877 5.99546782,21.3671326 6.17443446,21.3671326 C6.61302287,21.3671326 7.15075859,21.1547655 7.71022522,20.4321338 C8.39261398,19.552646 9.09850134,18.694514 9.82700459,17.8588107 C10.299652,18.131341 10.8188956,18.2835449 11.3499449,18.2988101 C11.3509896,18.3137387 11.3523478,18.3286673 11.3536015,18.3434836 C11.262188,18.4605977 11.1726738,18.579408 11.0850993,18.6998606 C10.7171364,19.2017069 10.6405558,19.3062068 9.45611635,19.568186 C9.11918266,19.642941 8.22434947,19.841053 8.21118555,20.5149705 C8.19697687,21.251296 9.26900061,21.5605303 9.39113255,21.5933058 C9.81676599,21.7077954 10.2268326,21.7642545 10.6178846,21.7642545 C11.5689256,21.7642545 12.4058794,21.4284182 13.0747319,20.7786334 C13.0541502,23.4035891 13.1560139,25.9901571 13.4493813,26.7782274 C13.6896751,27.4234103 14.2766188,29.0001122 16.1306421,29 C16.4026965,29 16.7021234,28.9659898 17.0315349,28.8901124 C18.9665268,28.4445007 19.8068237,27.5256652 20.1318472,25.4999842 C20.305799,24.4173836 20.6042857,21.8322748 20.7447008,20.4456032 C21.0409935,20.5449398 21.4224338,20.5903989 21.8347989,20.5902867 C22.6948417,20.5902867 23.6872551,20.3939706 24.309616,20.0836139 C25.0087664,19.7347572 26.2704133,18.8787788 26.0416119,18.1350451 Z M21.4336127,8.76485344 C21.4272397,9.17421004 21.374793,9.5458524 21.319212,9.93377025 C21.2593475,10.350984 21.1974979,10.7823406 21.1819311,11.3059623 C21.1665732,11.8155535 21.2258108,12.3453487 21.2830634,12.857746 C21.3988223,13.8926425 21.5176111,14.9580697 21.0578141,16.009354 C20.9814361,15.8639564 20.9134002,15.7136799 20.8540868,15.5593648 C20.7969386,15.4105283 20.6728217,15.171447 20.5009594,14.8405494 C19.8324202,13.5524287 18.2668539,10.5359633 19.068286,9.30508742 C19.3070126,8.93872056 19.9128664,8.56202718 21.4336127,8.76485344 Z M19.5902459,1.82958715 C21.8191275,1.88245443 23.5822571,2.77827977 24.8305311,4.49203259 C25.7879452,5.80653084 24.7336823,11.7877168 21.6816377,16.9477201 C21.6509446,16.9057899 21.6200892,16.8639971 21.5890723,16.8223427 L21.5504164,16.7704857 C22.3391024,15.3711304 22.1848965,13.9865914 22.0476156,12.7590828 C21.9911988,12.2553284 21.9379162,11.7795229 21.9514981,11.3325643 C21.9654978,10.8588915 22.0237952,10.4525655 22.080212,10.0597089 C22.1494793,9.57559726 22.2200003,9.07464895 22.2005678,8.48412932 C22.2150899,8.42217022 22.2209405,8.34898665 22.2133138,8.26210921 C22.1636879,7.69583445 21.5619087,6.00105099 20.3353656,4.46711426 C19.6644235,3.62808476 18.6860099,2.68915744 17.3500809,2.05587257 C17.9246965,1.92791355 18.7104572,1.80859739 19.5902459,1.82958715 Z M7.11816221,19.9032366 C6.5017564,20.6995008 6.07612295,20.546848 5.9361257,20.4967868 C5.02405404,20.1699301 3.9657166,18.09879 3.03264535,14.8145087 C2.22525821,11.9726961 1.75344657,9.11505706 1.71604431,8.3137418 C1.59819588,5.77947986 2.16999063,4.01330874 3.41565276,3.06416714 C5.44289657,1.5196794 8.77587596,2.44412715 10.1151482,2.91297347 C10.0959247,2.93340201 10.0758654,2.95248362 10.0568508,2.9732489 C7.8591029,5.35777634 7.91123621,9.43181174 7.91666894,9.68088283 C7.91645998,9.77696434 7.92398222,9.91300498 7.93422083,10.100117 C7.97204098,10.7853712 8.04245751,12.060696 7.8544015,13.5049492 C7.67971836,14.8470596 8.06481528,16.1606599 8.91075391,17.1090158 C8.99757121,17.2061568 9.08882089,17.2986105 9.18416646,17.3860359 C8.80763653,17.8193006 7.98927945,18.7774218 7.11816221,19.9032366 Z M9.46666838,16.5366798 C8.78486086,15.7722931 8.47519529,14.7091108 8.61696863,13.6194388 C8.8154722,12.0938082 8.74223483,10.7650549 8.70284754,10.0511783 C8.69731034,9.95128043 8.69239998,9.86372953 8.68957914,9.79469901 C9.01063255,9.48883207 10.498469,8.63240464 11.5595228,8.89359817 C12.0436626,9.01268985 12.3387016,9.36693427 12.4613559,9.97619877 C13.0961494,13.1306129 12.5453542,14.4453357 12.1027958,15.5018955 C12.0115886,15.7195381 11.9253963,15.9252827 11.8518455,16.1380987 L11.7948018,16.3026495 C11.6504166,16.7186286 11.516061,17.105424 11.432794,17.4726888 C10.7079425,17.4704439 10.002837,17.1377505 9.46666838,16.5365676 L9.46666838,16.5366798 Z M9.57793485,20.7907558 C9.36626736,20.73396 9.17591289,20.6352968 9.06422851,20.5534704 C9.15752519,20.5063276 9.32353686,20.4421236 9.61147151,20.3783686 C11.0048621,20.0702568 11.2200817,19.8527265 11.6900128,19.2116967 C11.7977271,19.0646561 11.9198591,18.8980849 12.089005,18.6951464 L12.0892139,18.6949219 C12.3411045,18.391861 12.4563411,18.4432691 12.6652922,18.5364323 C12.8346471,18.6116363 12.999614,18.8397176 13.0664784,19.0906969 C13.0981344,19.2092273 13.1336561,19.4341658 13.0173748,19.6092676 C12.0357225,21.0859595 10.6052431,21.0669901 9.57793485,20.7907558 Z M16.8702246,28.0812767 C15.1656013,28.4736844 14.562046,27.5392468 14.1643076,26.4710136 C13.9076111,25.7813818 13.7814046,22.6715288 13.8709402,19.2371762 C13.8720894,19.1914926 13.8660298,19.1473804 13.8543286,19.1058499 C13.8438616,19.0238406 13.8279405,18.942742 13.8066877,18.8631767 C13.6735858,18.3634631 13.3491892,17.9454637 12.9600178,17.7721578 C12.8053939,17.7033518 12.5216383,17.5770764 12.1806301,17.6708008 C12.253345,17.3488828 12.3794471,16.9853221 12.5162056,16.5916798 L12.5735626,16.4261188 C12.6381285,16.2394557 12.7192016,16.046058 12.8048715,15.8413236 C13.2680117,14.7359373 13.9022828,13.2218679 13.2138934,9.80143369 C12.9560477,8.52027213 12.0949601,7.8946199 10.7896424,8.03997685 C10.0071205,8.12696653 9.29114943,8.46617016 8.93405196,8.66069031 C8.85726242,8.70244536 8.78705484,8.74285347 8.72144419,8.78213913 C8.82111388,7.49132452 9.1976438,5.07896038 10.6061833,3.55265629 C11.4930764,2.59184124 12.6741726,2.11727044 14.113219,2.14286225 C16.9486858,2.19269892 18.7669785,3.75604378 19.7931374,5.05886857 C20.6774186,6.1814283 21.1562301,7.31229415 21.3473159,7.92223211 C19.9102545,7.76520171 18.9328856,8.0699462 18.4374625,8.8309656 C17.3595882,10.4863512 19.0271226,13.6992448 19.8285546,15.2433958 C19.9755518,15.5263649 20.1023851,15.7709462 20.1422948,15.8748848 C20.4032747,16.5544145 20.7411487,17.0081078 20.9878155,17.3392298 C21.0634558,17.440699 21.1367976,17.5391377 21.1925876,17.6251172 C20.7573424,17.7599231 19.9755518,18.0714023 20.0468041,19.6283492 C19.9893425,20.4095726 19.5807386,24.06718 19.3731457,25.3594538 C19.0991063,27.0666964 18.5143565,27.7025629 16.8702246,28.081389 L16.8702246,28.0812767 Z M23.9854283,19.33337 C23.5403624,19.5552779 22.7955561,19.7217368 22.0880476,19.7575429 C21.3065704,19.7968286 20.9087275,19.6634818 20.8151174,19.5814309 C20.7712376,18.6111873 21.1073355,18.5098303 21.4630748,18.4025243 C21.5189692,18.3856876 21.5735055,18.3691876 21.6261612,18.3494325 C21.658862,18.3780549 21.6946971,18.4064529 21.7339799,18.4342896 C22.362087,18.8796767 23.4823785,18.9277175 25.064034,18.5769526 L25.081377,18.5732486 C24.8680379,18.7875238 24.5030002,19.0750948 23.9854283,19.33337 Z" id="Shape" fill="#FFFFFF" fill-rule="nonzero"></path>
                    </g>
                    <g id="docker" transform="translate(102.000000, 100.000000) scale(-1, 1) translate(-102.000000, -100.000000) translate(85.000000, 85.000000)">
                        <path d="M5.11536944,24.3322191 L5.11536944,22.043941 C5.11536944,21.7432566 5.29421587,21.5017302 5.59043028,21.5017302 L5.67240156,21.5017302 C5.9684829,21.5017302 6.14653091,21.7435364 6.14653091,22.043941 L6.14653091,26.8614642 C6.14653091,28.0362311 5.59428931,28.9710099 4.63192517,29.5665048 C4.19108362,29.8409988 3.68787266,29.9852336 3.17547114,29.9839666 L2.97094214,29.9839666 C1.85288579,29.9839666 0.964641784,29.4031562 0.397097111,28.3924372 C0.135547354,27.9291935 -0.00167577056,27.4001213 1.54456076e-05,26.8614642 L1.54456076e-05,26.6467895 C1.54456076e-05,25.4716031 0.552523179,24.5373837 1.5140889,23.94077 C1.95484865,23.6657111 2.45833851,23.5214359 2.97094214,23.5233082 L3.17547114,23.5233082 C3.93210866,23.5233082 4.57403961,23.8315446 5.11536944,24.3322191 Z M1.03104385,26.7539171 C1.03104385,27.6025463 1.42240349,28.2405566 2.12993808,28.6475294 C2.41603915,28.8119968 2.72662514,28.900384 3.0530465,28.900384 C3.84561298,28.900384 4.43351741,28.5073965 4.8389825,27.8015574 C5.02754306,27.4731821 5.11536944,27.1138992 5.11536944,26.7319601 C5.11536944,25.9963323 4.78402448,25.4222349 4.21993964,24.9958225 C3.87794906,24.7373738 3.49297679,24.6077299 3.07314011,24.6077299 C2.20924796,24.6077299 1.58754369,25.0664484 1.21441467,25.8812331 C1.0885302,26.1567439 1.03104385,26.449177 1.03104385,26.7539171 Z M9.72372573,23.5233082 L9.86664319,23.5233082 C11.061348,23.5233082 11.9699518,24.1323689 12.5457468,25.2283984 C12.7759584,25.6668382 12.8991814,26.1454158 12.8991814,26.6467895 L12.8991814,26.8614642 C12.8991814,28.0362311 12.3480044,28.9722685 11.3841765,29.5666446 C10.9379919,29.8417359 10.4450996,29.9839666 9.92798858,29.9839666 L9.72372573,29.9839666 C8.60566937,29.9839666 7.71715923,29.4031562 7.14988069,28.3924372 C6.8882035,27.92923 6.75084266,27.4001587 6.75239982,26.8614642 L6.75239982,26.6467895 C6.75239982,25.4714632 7.30716974,24.5403206 8.2663402,23.9410497 C8.71225865,23.662602 9.20555012,23.5233082 9.72372573,23.5233082 Z M7.78356129,26.7539171 C7.78356129,27.5776524 8.16813435,28.1836363 8.83015891,28.609769 C9.14101104,28.8097591 9.48340083,28.900384 9.84654958,28.900384 C10.6210185,28.900384 11.1934868,28.4876772 11.5918992,27.8007183 C11.7819235,27.4731821 11.8678869,27.1133398 11.8678869,26.7319601 C11.8678869,25.9659842 11.5168475,25.3808384 10.9167006,24.9568035 C10.587884,24.7242276 10.2218077,24.6077299 9.82579062,24.6077299 C8.96189847,24.6077299 8.3401942,25.0664484 7.96719825,25.8812331 C7.84104764,26.1567439 7.78356129,26.449177 7.78356129,26.7539171 Z M17.1857738,24.694299 C17.0300816,24.6176595 16.7386577,24.5922062 16.5704569,24.5854932 C15.70896,24.551369 15.0856589,25.0612738 14.7199818,25.8599754 C14.5936982,26.1354862 14.5360787,26.4270802 14.5360787,26.7319601 C14.5360787,27.6601658 14.9998286,28.3100636 15.7881368,28.7062677 C16.0761009,28.850876 16.4478992,28.8782872 16.7626104,28.8782872 C17.0393965,28.8782872 17.4306231,28.7001142 17.6762708,28.577463 L17.7188533,28.5562053 L17.909543,28.5562053 L17.9305681,28.5606806 C18.1650379,28.6120067 18.3420213,28.7682227 18.3420213,29.0333844 L18.3420213,29.1406518 C18.3420213,29.8004792 17.1946895,29.9515206 16.7568884,29.9836869 C15.2119426,30.095989 14.0564935,29.204285 13.6160309,27.6555507 C13.5395155,27.386613 13.5050503,27.1194933 13.5050503,26.8392275 L13.5050503,26.6248326 C13.5050503,25.4496461 14.0599533,24.5187832 15.0189907,23.9200717 C15.4649092,23.6417638 15.9580676,23.5019106 16.4761101,23.5019106 L16.680506,23.5019106 C17.2300862,23.5019106 17.7362855,23.6659584 18.1900551,23.9916765 L18.2273148,24.0188081 L18.2508682,24.0596452 C18.2998381,24.1449556 18.3420213,24.243692 18.3420213,24.3452254 L18.3420213,24.4524928 C18.3420213,24.7291225 18.1450773,24.8779263 17.9074138,24.9260358 L17.8877194,24.9296719 L17.8267733,24.9296719 C17.672944,24.9296719 17.3231023,24.7622677 17.1857738,24.694299 Z M20.5303618,25.4281088 C20.9309033,25.0065912 21.3327755,24.5859128 21.7393052,24.1713879 C21.8525479,24.0557293 22.2814334,23.5662431 22.4502996,23.5662431 L22.6350011,23.5662431 L22.6560262,23.5708583 C22.8912944,23.6221844 23.0674794,23.7786801 23.0674794,24.0444012 L23.0674794,24.1515287 C23.0674794,24.3327785 22.8654788,24.5433974 22.754099,24.6674472 C22.5172339,24.9313502 22.2678602,25.1865823 22.0254062,25.445031 L20.7796024,26.7741958 C21.3160086,27.3392027 21.8518826,27.9046292 22.3838975,28.4739716 C22.5314556,28.63112 22.6778814,28.7894384 22.8231624,28.9489131 C22.8743945,29.0055536 22.9499784,29.0760396 22.9929601,29.1544973 C23.0391355,29.22806 23.0674794,29.310993 23.0674794,29.3995201 L23.0674794,29.5114026 L23.0614913,29.5372755 C23.0036057,29.7845359 22.8543009,29.9839666 22.5936162,29.9839666 L22.5115119,29.9839666 C22.3409158,29.9839666 22.1482301,29.7811794 22.0313944,29.6652411 C21.7905372,29.4266516 21.5580635,29.1757549 21.3219968,28.9319908 L20.5303618,28.1152481 L20.5303618,29.4206379 C20.5303618,29.7213223 20.3512492,29.9629886 20.055434,29.9629886 L19.9742612,29.9629886 C19.6780468,29.9629886 19.4992003,29.7213223 19.4992003,29.4206379 L19.4992003,22.064919 C19.4992003,21.7642346 19.6781798,21.5236871 19.9742612,21.5236871 L20.055434,21.5236871 C20.3512492,21.5236871 20.5303618,21.7642346 20.5303618,22.064919 L20.5303618,25.4281088 Z M33.3818886,23.5662431 L33.4843527,23.5662431 C33.793608,23.5662431 34,23.7852532 34,24.108454 C34,24.557103 33.5918735,24.6719225 33.2388381,24.6719225 C32.7757536,24.6719225 32.3335611,24.9665932 32.0143255,25.2970663 C31.6163124,25.7094934 31.4421234,26.2377189 31.4421234,26.8183894 L31.4421234,29.4418956 C31.4421234,29.74258 31.26341,29.9839666 30.9670626,29.9839666 L30.8856236,29.9839666 C30.5892761,29.9839666 30.4106958,29.7427198 30.4106958,29.4418956 L30.4106958,26.6677675 C30.4106958,25.6025057 30.9041203,24.7328985 31.7267607,24.1229987 C32.217923,23.7586811 32.7805441,23.566383 33.3818886,23.566383 L33.3818886,23.5662431 Z M26.0531769,28.7654257 C26.4284351,28.9031811 26.856256,28.8834618 27.2412283,28.8129757 C27.4381722,28.7250081 27.9417101,28.4941104 28.1269439,28.5279549 L28.1558202,28.5331295 L28.1824342,28.5468351 C28.295544,28.6044546 28.4034639,28.685989 28.4612164,28.8069621 C28.5961497,29.0904445 28.5313445,29.3754653 28.2662685,29.5364363 L28.1780429,29.5900001 C27.1999765,30.1832574 26.1596332,30.1010237 25.1846273,29.5469253 C24.7184822,29.2820434 24.3618539,28.888916 24.098774,28.4096391 L24.0372955,28.2976167 C23.409337,27.1547364 23.4941027,25.9525582 24.2023027,24.865759 C24.4467527,24.4901133 24.7662544,24.199918 25.1397827,23.9729362 L25.2811033,23.8872062 C26.2022156,23.3283528 27.1894639,23.3666726 28.1354604,23.8571378 C28.644188,24.1209009 29.0563066,24.5140282 29.3402786,25.0310655 L29.3913776,25.1242077 C29.5976365,25.4998534 29.3304314,25.8271099 29.0545767,26.050875 C28.7344097,26.3104426 28.411182,26.6228746 28.104322,26.9011825 C27.4200747,27.5219909 26.736892,28.1441977 26.0531769,28.7654257 Z M25.1675943,28.1117518 C25.9327484,27.4222755 26.6981685,26.7321 27.4613265,26.0396868 C27.7221442,25.8033349 28.0081122,25.5580324 28.2668008,25.3095132 C28.0592112,25.0345618 27.7124301,24.8363899 27.4178125,24.7182139 C26.8229884,24.4800439 26.2365478,24.5600399 25.6910928,24.8909326 C24.9771708,25.3241978 24.6731052,26.0140937 24.6997193,26.8726524 C24.7103649,27.2108175 24.7968606,27.5366754 24.9675897,27.8243535 C25.0277375,27.925747 25.094938,28.0209871 25.1675943,28.1117518 Z M19.6028621,6.39576652 L22.6456467,6.39576652 L22.6456467,9.66483506 L24.184072,9.66483506 C24.8946672,9.66483506 25.625356,9.53183467 26.2981593,9.29226614 C26.6288389,9.17436989 26.9998388,9.01046194 27.325994,8.80417847 C26.8964432,8.21483709 26.6771434,7.47067822 26.6127374,6.73714818 C26.524911,5.73929561 26.7165322,4.44061879 27.3589954,3.65967853 L27.6788964,3.27088663 L28.0600096,3.59296855 C29.0195793,4.40313814 29.8266504,5.53538964 29.9689025,6.82609482 C31.1243516,6.46890975 32.4810029,6.55338108 33.4993897,7.17111266 L33.9172303,7.42452666 L33.6973982,7.87569308 C32.8360344,9.6423187 31.0351945,10.1897041 29.274675,10.0927859 C26.6402829,16.9888073 20.9048215,20.2535404 13.9507026,20.2535404 C10.3578055,20.2535404 7.06165511,18.842002 5.18456597,15.4919585 L5.15382674,15.4374157 L4.88036735,14.8525497 C4.24588834,13.3779375 4.03510504,11.7624932 4.1780225,10.1483076 L4.2210042,9.66483506 L6.82306013,9.66483506 L6.82306013,6.39576652 L9.8657117,6.39576652 L9.8657117,3.19788326 L15.951414,3.19788326 L15.951414,0 L19.6028621,0 L19.6028621,6.39576652 Z" id="Shape" fill="#364548" fill-rule="nonzero"></path>
                        <path d="M29.3063813,7.66279473 C29.5084515,5.96576678 28.3330696,4.63289629 27.6041404,4 C26.7640923,5.04932041 26.6335968,7.79937159 27.9514692,8.95721292 C27.2159493,9.66302616 25.6662168,10.3027584 24.0793128,10.3027584 L4.76268846,10.3027584 C4.60846655,12.0924991 4.89924735,13.7406784 5.5634561,15.151308 L5.78318937,15.5856765 C5.92232031,15.8406277 6.0743564,16.0870965 6.23860537,16.3239606 C7.03278232,16.3790755 7.76500689,16.3980169 8.43488361,16.3820663 L8.43514724,16.3820663 C9.75156969,16.3507348 10.8257187,16.182684 11.6397995,15.877914 C11.7594407,15.8377051 11.8870251,15.907339 11.9280644,16.0352451 C11.9691037,16.1631512 11.9087853,16.3031633 11.7917806,16.3515893 C11.6834298,16.3923202 11.5705974,16.4302029 11.4540742,16.4662341 L11.4536787,16.4662341 C10.8126692,16.6640498 10.1252613,16.7970662 9.23841934,16.8561688 C9.29114478,16.8571657 9.18358488,16.8647138 9.18332125,16.8647138 C9.15313593,16.86685 9.11517362,16.8715498 9.08485649,16.8732587 C8.73581407,16.8944787 8.35909079,16.8988936 7.97393145,16.8988936 C7.55265517,16.8988936 7.13783777,16.8903487 6.6739857,16.8647138 L6.66212247,16.8732587 C8.27156656,18.8277747 10.7881519,20 13.942715,20 C20.6188103,20 26.2815227,16.802478 28.7891447,9.6240042 C30.5681011,9.82125023 32.2778553,9.33105468 33.0555556,7.69070825 C31.8167713,6.91838678 30.2236721,7.16462389 29.3063813,7.66279473" id="Path" fill="#22A0C8"></path>
                        <path d="M29.1564637,7.7271834 C29.3592712,6.0003232 28.1796006,4.64402205 27.4480117,4 C26.6048984,5.06776653 26.4739268,7.86616115 27.7966078,9.0443563 C27.0584042,9.76257711 25.503017,10.4135553 23.9103227,10.4135553 L5.67126815,10.4135553 C5.592156,13.2026751 6.53700378,15.3198034 8.20867788,16.599732 L8.20907477,16.599732 C9.53030057,16.5678497 10.608369,16.3968447 11.4254202,16.0867171 C11.5454979,16.0458014 11.6735478,16.1166594 11.7147368,16.246814 C11.7559259,16.3769686 11.6953874,16.5194419 11.5779558,16.5687192 C11.4692097,16.6101662 11.3559655,16.6487147 11.2390172,16.6853794 L11.2386203,16.6853794 C10.5952718,16.8866725 9.8460877,17.0394176 8.95600987,17.0995591 C8.95574528,17.0995591 8.93444586,17.0770966 8.93418127,17.0770966 C11.2145427,18.3584744 14.5209807,18.353837 18.3118814,16.7587086 C22.5625057,14.9698229 26.5179809,11.561897 29.2777778,7.66399852 C29.2362373,7.68457708 29.1957551,7.7055904 29.1564637,7.7271834" id="Path" fill="#37B1D9"></path>
                        <path d="M4.72222222,13 C4.84190256,13.8921283 5.10099076,14.7274052 5.48501997,15.4882057 L5.70425857,15.8923933 C5.84305273,16.1296448 5.9947474,16.3589897 6.1586493,16.5793798 C6.95116986,16.6306653 7.68174598,16.6482905 8.35024614,16.6334482 C9.66370496,16.6042937 10.7354358,16.4479194 11.5476839,16.1643255 C11.6670557,16.1269104 11.7943528,16.191706 11.8352998,16.3107249 C11.8762467,16.4297438 11.8160641,16.5600276 11.6993228,16.6050888 C11.591216,16.6429897 11.4786375,16.6782401 11.3623766,16.7117678 L11.3619821,16.7117678 C10.7224156,16.8958389 9.98158119,17.0275643 9.0967358,17.0826928 C9.06635541,17.0845481 9.01335412,17.0849457 8.98271069,17.0866684 C8.6347171,17.1062815 8.26265592,17.1183408 7.87823216,17.1183408 C7.45803581,17.1183408 7.02823873,17.1102571 6.56569396,17.0865359 C8.17151474,18.9052478 10.6979535,20 13.8454148,20 C19.5479856,20 24.5093274,17.8189769 27.3888889,13 L4.72222222,13" id="Path" fill="#1B81A5"></path>
                        <path d="M6.61111111,13 C6.95297713,14.5916418 7.7745371,15.8411211 8.96724327,16.6920166 C10.2844562,16.6623921 11.3592503,16.5034972 12.1738199,16.215332 C12.2935329,16.1773138 12.4211939,16.2431538 12.4622578,16.3640912 C12.5033218,16.4850287 12.4429672,16.6174125 12.3258923,16.6632 C12.2174764,16.7017119 12.1045762,16.7375305 11.987983,16.7715987 L11.9875873,16.7715987 C11.3461929,16.9586368 10.5875458,17.0924855 9.70003941,17.1485027 C11.9733429,18.3388676 15.2602422,18.3217662 19.0393653,16.8397349 C21.3255943,15.9429215 23.5259611,14.6079353 25.5,13 L6.61111111,13" id="Path" fill="#1D91B4"></path>
                        <path d="M7.55555556,7.21422547 L10.1865032,7.21422547 L10.1865032,10 L7.55555556,10 L7.55555556,7.21422547 Z M7.77473481,7.44644363 L7.98236435,7.44644363 L7.98236435,9.76792241 L7.77473481,9.76792241 L7.77473481,7.44644363 Z M8.16503586,7.44644363 L8.38102898,7.44644363 L8.38102898,9.76792241 L8.16516861,9.76792241 L8.16516861,7.44644363 L8.16503586,7.44644363 Z M8.56356774,7.44644363 L8.77956087,7.44644363 L8.77956087,9.76792241 L8.56356774,9.76792241 L8.56356774,7.44644363 Z M8.96236513,7.44644363 L9.1782255,7.44644363 L9.1782255,9.76792241 L8.96236513,9.76792241 L8.96236513,7.44644363 Z M9.36102977,7.44644363 L9.57689014,7.44644363 L9.57689014,9.76792241 L9.36102977,9.76792241 L9.36102977,7.44644363 Z M9.75956165,7.44644363 L9.96732394,7.44644363 L9.96732394,9.76792241 L9.75956165,9.76792241 L9.75956165,7.44644363 Z M10.5911418,4 L13.2222222,4 L13.2222222,6.78563396 L10.5910091,6.78563396 L10.5910091,4 L10.5911418,4 Z M10.8104538,4.23221816 L11.0179506,4.23221816 L11.0179506,6.55355637 L10.8104538,6.55355637 L10.8104538,4.23221816 Z M11.2007549,4.23221816 L11.4166153,4.23221816 L11.4166153,6.55355637 L11.2008876,6.55355637 L11.2008876,4.23221816 L11.2007549,4.23221816 Z M11.5992868,4.23221816 L11.8151471,4.23221816 L11.8151471,6.55355637 L11.5992868,6.55355637 L11.5992868,4.23221816 Z M11.9979514,4.23221816 L12.2138118,4.23221816 L12.2138118,6.55355637 L11.9979514,6.55355637 L11.9979514,4.23221816 Z M12.396616,4.23221816 L12.6126092,4.23221816 L12.6126092,6.55355637 L12.396616,6.55355637 L12.396616,4.23221816 Z M12.7951479,4.23221816 L13.003043,4.23221816 L13.003043,6.55355637 L12.7951479,6.55355637 L12.7951479,4.23221816 Z" id="Shape" fill="#23A3C2" fill-rule="nonzero"></path>
                        <path d="M10.3890318,7 L13.2222222,7 L13.2222222,10 L10.3888889,10 L10.3888889,7 L10.3890318,7 Z M10.6251906,7.25007569 L10.8486265,7.25007569 L10.8486265,9.75007569 L10.6251906,9.75007569 L10.6251906,7.25007569 Z M11.0454731,7.25007569 L11.2779151,7.25007569 L11.2779151,9.75007569 L11.0456161,9.75007569 L11.0456161,7.25007569 L11.0454731,7.25007569 Z M11.4746188,7.25007569 L11.7070608,7.25007569 L11.7070608,9.75007569 L11.4746188,9.75007569 L11.4746188,7.25007569 Z M11.9039074,7.25007569 L12.1363494,7.25007569 L12.1363494,9.75007569 L11.9039074,9.75007569 L11.9039074,7.25007569 Z M12.333196,7.25007569 L12.5657809,7.25007569 L12.5657809,9.75007569 L12.333196,9.75007569 L12.333196,7.25007569 Z M12.7623416,7.25007569 L12.9862064,7.25007569 L12.9862064,9.75007569 L12.7623416,9.75007569 L12.7623416,7.25007569 Z" id="Shape" fill="#34BBDE" fill-rule="nonzero"></path>
                        <path d="M13.2222222,7 L16.0555556,7 L16.0555556,10 L13.2222222,10 L13.2222222,7 Z M13.4582618,7.25007569 L13.6817203,7.25007569 L13.6817203,9.75007569 L13.4582618,9.75007569 L13.4582618,7.25007569 Z M13.8785868,7.25007569 L14.1110522,7.25007569 L14.1110522,9.75007569 L13.8785868,9.75007569 L13.8785868,7.25007569 Z M14.3079187,7.25007569 L14.5403842,7.25007569 L14.5403842,9.75007569 L14.3079187,9.75007569 L14.3079187,7.25007569 Z M14.7372506,7.25007569 L14.9697161,7.25007569 L14.9697161,9.75007569 L14.7372506,9.75007569 L14.7372506,7.25007569 Z M15.1664396,7.25007569 L15.399191,7.25007569 L15.399191,9.75007569 L15.1664396,9.75007569 L15.1664396,7.25007569 Z M15.5957715,7.25007569 L15.819373,7.25007569 L15.819373,9.75007569 L15.5957715,9.75007569 L15.5957715,7.25007569 Z" id="Shape" fill="#23A3C2" fill-rule="nonzero"></path>
                        <path d="M13.2222222,4 L15.8532315,4 L15.8532315,6.78563396 L13.2222222,6.78563396 L13.2222222,4 Z M13.4414066,4.23221816 L13.6489083,4.23221816 L13.6489083,6.55355637 L13.4414066,6.55355637 L13.4414066,4.23221816 Z M13.8317168,4.23221816 L14.0475822,4.23221816 L14.0475822,6.55355637 L13.8317168,6.55355637 L13.8317168,4.23221816 Z M14.2303908,4.23221816 L14.4462562,4.23221816 L14.4462562,6.55355637 L14.2303908,6.55355637 L14.2303908,4.23221816 Z M14.6290648,4.23221816 L14.8449302,4.23221816 L14.8449302,6.55355637 L14.6290648,6.55355637 L14.6290648,4.23221816 Z M15.027606,4.23221816 L15.2437369,4.23221816 L15.2437369,6.55355637 L15.027606,6.55355637 L15.027606,4.23221816 Z M15.4262799,4.23221816 L15.6339143,4.23221816 L15.6339143,6.55355637 L15.4262799,6.55355637 L15.4262799,4.23221816 Z M16.2578796,7.21422547 L18.8888889,7.21422547 L18.8888889,10 L16.2578796,10 L16.2578796,7.21422547 Z M16.4771968,7.44644363 L16.6846984,7.44644363 L16.6846984,9.76792241 L16.4771968,9.76792241 L16.4771968,7.44644363 Z M16.867507,7.44644363 L17.0833724,7.44644363 L17.0833724,9.76792241 L16.867507,9.76792241 L16.867507,7.44644363 Z M17.2660482,7.44644363 L17.4819136,7.44644363 L17.4819136,9.76792241 L17.2660482,9.76792241 L17.2660482,7.44644363 Z M17.6647221,7.44644363 L17.8807203,7.44644363 L17.8807203,9.76792241 L17.6647221,9.76792241 L17.6647221,7.44644363 Z M18.0633961,7.44644363 L18.2793943,7.44644363 L18.2793943,9.76792241 L18.0633961,9.76792241 L18.0633961,7.44644363 Z M18.4620701,7.44644363 L18.6697045,7.44644363 L18.6697045,9.76792241 L18.4620701,9.76792241 L18.4620701,7.44644363 Z" id="Shape" fill="#34BBDE" fill-rule="nonzero"></path>
                        <path d="M17,3 L19.8333333,3 L19.8333333,6 L17,6 L17,3 Z M17.2361826,3.25008831 L17.4596411,3.25008831 L17.4596411,5.75006308 L17.2361826,5.75006308 L17.2361826,3.25008831 Z M17.6565076,3.25008831 L17.888973,3.25008831 L17.888973,5.75006308 L17.6565076,5.75006308 L17.6565076,3.25008831 Z M18.0856965,3.25008831 L18.3181619,3.25008831 L18.3181619,5.75006308 L18.0856965,5.75006308 L18.0856965,3.25008831 Z M18.5150284,3.25008831 L18.7476368,3.25008831 L18.7476368,5.75006308 L18.5150284,5.75006308 L18.5150284,3.25008831 Z M18.9443603,3.25008831 L19.1769687,3.25008831 L19.1769687,5.75006308 L18.9443603,5.75006308 L18.9443603,3.25008831 Z M19.3736923,3.25008831 L19.5972937,3.25008831 L19.5972937,5.75006308 L19.3736923,5.75006308 L19.3736923,3.25008831 Z" id="Shape" fill="#23A3C2" fill-rule="nonzero"></path>
                        <path d="M17,0 L19.8333333,0 L19.8333333,3 L17,3 L17,0 Z M17.2361826,0.249899092 L17.4596411,0.249899092 L17.4596411,2.74979818 L17.2361826,2.74979818 L17.2361826,0.24974773 L17.2361826,0.249899092 Z M17.6565076,0.249899092 L17.888973,0.249899092 L17.888973,2.74979818 L17.6565076,2.74979818 L17.6565076,0.24974773 L17.6565076,0.249899092 Z M18.0856965,0.249899092 L18.3181619,0.249899092 L18.3181619,2.74979818 L18.0856965,2.74979818 L18.0856965,0.24974773 L18.0856965,0.249899092 Z M18.5150284,0.249899092 L18.7476368,0.249899092 L18.7476368,2.74979818 L18.5150284,2.74979818 L18.5150284,0.24974773 L18.5150284,0.249899092 Z M18.9443603,0.249899092 L19.1769687,0.249899092 L19.1769687,2.74979818 L18.9443603,2.74979818 L18.9443603,0.24974773 L18.9443603,0.249899092 Z M19.3736923,0.249899092 L19.5972937,0.249899092 L19.5972937,2.74979818 L19.3736923,2.74979818 L19.3736923,0.24974773 L19.3736923,0.249899092 Z" id="Shape" fill="#34BBDE" fill-rule="nonzero"></path>
                        <path d="M18.8888889,7 L21.7222222,7 L21.7222222,10 L18.8888889,10 L18.8888889,7 Z M19.1247855,7.25007569 L19.34853,7.25007569 L19.34853,9.75007569 L19.1249285,9.75007569 L19.1249285,7.25007569 L19.1247855,7.25007569 Z M19.5451105,7.25007569 L19.7777189,7.25007569 L19.7777189,9.75007569 L19.5452535,9.75007569 L19.5452535,7.25007569 L19.5451105,7.25007569 Z M19.9745854,7.25007569 L20.2071938,7.25007569 L20.2071938,9.75007569 L19.9745854,9.75007569 L19.9745854,7.25007569 Z M20.4037743,7.25007569 L20.6363827,7.25007569 L20.6363827,9.75007569 L20.4037743,9.75007569 L20.4037743,7.25007569 Z M20.8332492,7.25007569 L21.0657147,7.25007569 L21.0657147,9.75007569 L20.8332492,9.75007569 L20.8332492,7.25007569 Z M21.2624382,7.25007569 L21.4860396,7.25007569 L21.4860396,9.75007569 L21.2624382,9.75007569 L21.2624382,7.25007569 Z" id="Shape" fill="#23A3C2" fill-rule="nonzero"></path>
                        <path d="M12.2651799,14.0000894 C12.6056107,13.9952808 12.9221368,14.1848503 13.0936409,14.4962597 C13.2651449,14.8076692 13.2650784,15.1927132 13.0934668,15.5040562 C12.9218552,15.8153992 12.6052636,16.0048461 12.2648344,15.9999057 C11.7482611,15.992409 11.3332389,15.5468282 11.3333333,14.9998171 C11.3334278,14.452806 11.748604,14.0073859 12.2651799,14.0000894" id="Path" fill="#D3ECEC"></path>
                        <path d="M12.9279864,14.7480398 C12.9948295,14.7480398 13.0585978,14.7630697 13.1174197,14.7904113 C13.0339722,14.8483508 12.9933556,14.9659998 13.0183147,15.0774763 C13.0432738,15.1889528 13.1276121,15.2665813 13.2241013,15.2668909 C13.3049814,15.2668909 13.3751666,15.2133269 13.4115293,15.1340203 C13.4999248,15.3887029 13.4385656,15.6825709 13.2604371,15.8576473 C13.0823085,16.0327238 12.8293721,16.047766 12.637601,15.8946877 C12.4458298,15.7416094 12.3603992,15.456471 12.4272348,15.1925567 C12.4940704,14.9286425 12.6974277,14.7481222 12.9279864,14.7480398 M0,12.6884647 L34,12.6884647 C33.2597797,12.4639756 31.6578185,12.1604997 31.9219823,11 C30.5757627,12.8630673 27.3294617,12.3071211 26.5100992,11.3885387 C25.5978248,12.9711546 20.2864737,12.3694792 19.9160294,11.1365482 C18.7722106,12.7420287 15.2280568,12.7420287 14.084238,11.1365482 C13.7135263,12.3694792 8.40230884,12.9711546 7.4899008,11.3883789 C6.67067201,12.3071211 3.42450467,12.8630673 2.07828504,11.0001599 C2.34244889,12.1604997 0.74048764,12.4639756 0,12.6886246" id="Shape" fill="#364548" fill-rule="nonzero"></path>
                        <path d="M15.1111111,19.9857327 C13.2607598,19.2088909 12.2452531,18.1527487 11.6801717,17 C10.9927812,17.1735048 10.1666827,17.2844994 9.20665927,17.3321377 C8.84506182,17.3500322 8.46460554,17.3592213 8.06556376,17.3592213 C7.60529912,17.3592213 7.12029936,17.3471304 6.61111111,17.3233113 C8.30799531,18.8237949 10.3954485,19.9789618 14.2606875,20 C14.5460297,20 14.8291854,19.9951636 15.1111111,19.9857327" id="Path" fill="#BDD9D7"></path>
                        <path d="M12.2776553,17 C12.0482202,16.7110227 11.8256449,16.3478409 11.6619902,16 C11.0458351,16.1632955 10.3051016,16.2676136 9.44444444,16.3125 C10.0356103,16.6101136 10.8809555,16.8859091 12.2777778,17" id="Path" fill="#D3ECEC"></path>
                    </g>
                    <g id="github" transform="translate(141.500000, 100.000000) scale(-1, 1) translate(-141.500000, -100.000000) translate(127.000000, 85.000000)" fill="#000000">
                        <path d="M14.5,0 C6.48859574,0 0,6.81470601 0,15.2287553 C0,22.3856223 4.67578723,28.3254849 10.9842128,30 C10.9114043,29.8094786 10.875617,29.5424893 10.875617,29.2767961 L10.875617,26.6872597 L9.06280851,26.6872597 C8.08421277,26.6872597 7.17719149,26.2310451 6.77859574,25.3924915 C6.30719149,24.4787661 6.23438298,23.0699443 5.03859574,22.1938048 C4.67578723,21.8892297 4.96578723,21.5846546 5.36438298,21.6222405 C6.12578723,21.8503478 6.74157447,22.3843263 7.32157447,23.1827019 C7.90157447,23.9823735 8.15578723,24.172895 9.24297872,24.172895 C9.75017021,24.172895 10.5473617,24.1353091 11.2729787,24.0199594 C11.6715745,22.9532985 12.3601702,22.0019873 13.194383,21.5457727 C8.33719149,20.9366225 6.01719149,18.4235538 6.01719149,14.9967598 C6.01719149,13.5114702 6.63297872,12.1026483 7.64859574,10.8843479 C7.32280851,9.7036333 6.88719149,7.26703244 7.79421277,6.31572126 C9.96982979,6.31572126 11.2742128,7.80101093 11.6,8.18075777 C12.6871915,7.79971487 13.8842128,7.57160755 15.1157872,7.57160755 C16.384383,7.57160755 17.544383,7.79971487 18.6315745,8.18075777 C18.9573617,7.79971487 20.2629787,6.31572126 22.4373617,6.31572126 C23.3073617,7.22944658 22.908766,9.7036333 22.5459574,10.8843479 C23.5615745,12.0650624 24.1415745,13.5114702 24.1415745,14.9967598 C24.1415745,18.4235538 21.8573617,20.9366225 17.0371915,21.4693049 C18.3785957,22.1925087 19.3214043,24.2480667 19.3214043,25.7709422 L19.3214043,29.2392103 C19.3214043,29.3532639 19.285617,29.4673176 19.285617,29.5813712 C24.94,27.5258133 29,21.8918218 29,15.2287553 C29,6.81470601 22.5114043,0 14.5,0 Z" id="Path"></path>
                    </g>
                    <g id="sketch" transform="translate(205.000000, 100.000000) scale(-1, 1) translate(-205.000000, -100.000000) translate(189.000000, 85.000000)">
                        <g id="a-link" transform="translate(0.000000, 11.000000)" fill="#EA6C00">
                            <polygon id="a" points="6.57024242 0 16.2207475 19 0 0"></polygon>
                        </g>
                        <g id="b-link" transform="translate(23.500000, 20.500000) scale(-1, 1) translate(-23.500000, -20.500000) translate(15.000000, 11.000000)" fill="#EA6C00">
                            <polygon id="b" points="6.57024242 0 16.2207475 19 0 0"></polygon>
                        </g>
                        <g id="c-link" transform="translate(6.787879, 11.000000)" fill="#FDAD00">
                            <polygon id="c" points="0 0 19.1217438 0 9.56087188 19"></polygon>
                        </g>
                        <g id="d-link" transform="translate(6.787879, 0.000000)" fill="#FDD231">
                            <polygon id="d" points="9.39602926 0 0.494545455 0.998516129 0 10.8158387"></polygon>
                        </g>
                        <g id="e-link" transform="translate(20.212121, 5.500000) scale(-1, 1) translate(-20.212121, -5.500000) translate(15.212121, 0.000000)" fill="#FDD231">
                            <polygon id="e" points="9.39602926 0 0.494545455 0.998516129 0 10.8158387"></polygon>
                        </g>
                        <g id="f-link" transform="translate(28.500000, 6.000000) scale(-1, 1) translate(-28.500000, -6.000000) translate(25.000000, 1.000000)" fill="#FDAD00">
                            <polygon id="f" points="0 9.88107143 6.66181818 0 6.18375758 9.88107143"></polygon>
                        </g>
                        <g id="g-link" transform="translate(0.000000, 1.000000)" fill="#FDAD00">
                            <polygon id="g" points="0 9.88107143 6.66181818 0 6.18375758 9.88107143"></polygon>
                        </g>
                        <g id="h-link" transform="translate(6.787879, 0.000000)" fill="#FEEEB7">
                            <polygon id="h" points="9.56087188 0 0 10.8158387 19.1217438 10.8158387"></polygon>
                        </g>
                    </g>
                    <g id="vscode" transform="translate(239.500000, 100.000000) scale(-1, 1) translate(-239.500000, -100.000000) translate(225.000000, 85.000000)">
                        <path d="M0.281681814,10.4602198 C0.281681814,10.4602198 -0.439423629,9.91701283 0.425902902,9.19169021 L2.44199354,7.30773533 C2.44199354,7.30773533 3.01887789,6.67347052 3.62881291,7.22609729 L22.2333333,21.9460647 L22.2333333,29.0046157 C22.2333333,29.0046157 22.2243195,30.1130091 20.863233,29.990552 L0.281681814,10.4602198 Z" id="Path" fill="#2489CA"></path>
                        <path d="M4.93537788,15 L0.215553122,19.5668504 C0.215553122,19.5668504 -0.269441402,19.9508309 0.215553122,20.6369601 L2.40690033,22.7582951 C2.40690033,22.7582951 2.92738226,23.3531502 3.69627601,22.6764632 L8.7,18.6383729 L4.93537788,15 Z" id="Path" fill="#1070B3"></path>
                        <path d="M13.0120362,15 L21.2666667,7.98385101 L21.2130835,0.964562803 C21.2130835,0.964562803 20.8605625,-0.567374874 19.6845527,0.22998613 L8.7,11.3585088 L13.0120362,15 Z" id="Path" fill="#0877B9"></path>
                        <path d="M20.5497354,29.6124531 C21.0433984,30.1479302 21.6416018,29.9725153 21.6416018,29.9725153 L28.2653977,26.513456 C29.1133366,25.9010425 28.9942767,25.1409111 28.9942767,25.1409111 L28.9942767,4.48503401 C28.9942767,3.57718482 28.1172988,3.26328443 28.1172988,3.26328443 L22.3762885,0.330469931 C21.1218037,-0.49121052 20.3,0.478187765 20.3,0.478187765 C20.3,0.478187765 21.3570196,-0.328105412 21.8739138,1.19831221 L21.8739138,28.5107242 C21.8739138,28.698449 21.8361631,28.8830963 21.7606617,29.0492788 C21.6096589,29.3724116 21.2815182,29.6740022 20.4945613,29.5478265 L20.5497354,29.6124531 Z" id="Path" fill="#3C99D4"></path>
                    </g>
                    <g id="typescript" transform="translate(276.500000, 100.000000) scale(-1, 1) translate(-276.500000, -100.000000) translate(262.000000, 85.000000)">
                        <polyline id="Path" fill="#007ACC" points="0 15 0 0 29 0 29 30 0 30"></polyline>
                        <path d="M6.76666667,15.4125931 L6.76666667,16.6456378 L10.5425863,16.6456378 L10.5425863,27.8413807 L13.2220369,27.8413807 L13.2220369,16.6456378 L16.9979565,16.6456378 L16.9979565,15.4352872 C16.9979565,14.754465 16.9979565,14.2022425 16.9689109,14.1871131 C16.9689109,14.1644191 14.6670523,14.1568544 11.8714195,14.1568544 L6.78845082,14.1795484 L6.78845082,15.4201578 L6.76666667,15.4125931 Z M23.7365207,14.1492897 C24.4771818,14.3308423 25.0435698,14.6788181 25.5518666,15.2310405 C25.8205378,15.5336282 26.2199139,16.0631565 26.2489595,16.199321 C26.2489595,16.2447091 24.9927401,17.129778 24.2302948,17.6214829 C24.2012492,17.644177 24.0850671,17.5155772 23.9688849,17.3188953 C23.591293,16.7591081 23.2064396,16.517038 22.6037448,16.4716499 C21.7323787,16.4111323 21.151468,16.8877079 21.151468,17.6820004 C21.151468,17.9240706 21.1950363,18.060235 21.2821729,18.256917 C21.4782303,18.672975 21.8412995,18.9226098 22.966814,19.4370088 C25.0435698,20.3674658 25.9439813,20.9802058 26.4885851,21.85771 C27.1058028,22.8411198 27.2437691,24.3843168 26.8298702,25.5417146 C26.3651416,26.805018 25.2323657,27.6598281 23.6130771,27.9397217 C23.1047803,28.030498 21.9429589,28.0153686 21.3983551,27.9170276 C20.2365337,27.6900869 19.1255419,27.0849116 18.4429719,26.3057484 C18.1743007,26.0031607 17.6587424,25.1937388 17.6877879,25.1407859 L17.9637205,24.9592334 L19.0529281,24.3011052 L19.8734645,23.8018356 L20.0622604,24.0665998 C20.3018861,24.4599637 20.8392285,24.9894921 21.151468,25.1710447 C22.0954479,25.677879 23.3589287,25.6097968 23.9834077,25.0197509 C24.2520789,24.7625514 24.3682611,24.4902225 24.3682611,24.1119879 C24.3682611,23.7640122 24.3174314,23.6051536 24.1504195,23.3403894 C23.9180553,23.007543 23.4533267,22.7352142 22.1462776,22.1300389 C20.6431712,21.464346 20.0041694,21.0407233 19.4087359,20.3901599 C19.0674509,19.9967959 18.7552114,19.384056 18.6099837,18.8772217 C18.5010629,18.4384696 18.464756,17.3642834 18.5664154,16.933096 C18.8786549,15.4201578 19.9751238,14.361101 21.5435827,14.0585134 C22.0518796,13.9526077 23.2500079,13.9979958 23.7510434,14.1341603 L23.7365207,14.1492897 Z" id="Shape" fill="#FFFFFF" fill-rule="nonzero"></path>
                    </g>
                    <g id="javascript" transform="translate(312.500000, 100.000000) scale(-1, 1) translate(-312.500000, -100.000000) translate(298.000000, 85.000000)">
                        <polygon id="Path" fill="#F7DF1E" points="0 0 29 0 29 30 0 30"></polygon>
                        <path d="M7.7334479,25.4288839 L9.97776658,24.0430971 C10.4108204,24.8263425 10.8046932,25.4890796 11.7495067,25.4890796 C12.6551391,25.4890796 13.2262432,25.1276717 13.2262432,23.7217807 L13.2262432,14.1608336 L15.9823215,14.1608336 L15.9823215,23.7615215 C15.9823215,26.6739414 14.3089923,27.9996493 11.8676227,27.9996493 C9.66282876,27.9996493 8.38302865,26.834658 7.73333333,25.4286501 M17.4793359,25.1275548 L19.7234255,23.8019637 C20.3142346,24.786251 21.082046,25.5093007 22.4403228,25.5093007 C23.5824163,25.5093007 24.3105883,24.9267466 24.3105883,24.1232801 C24.3105883,23.1592139 23.5624821,22.8176763 22.3025017,22.2554602 L21.6136253,21.9538973 C19.6251291,21.0904689 18.306148,20.0057775 18.306148,17.7160032 C18.306148,15.6069329 19.8810662,14 22.3420264,14 C24.094176,14 25.3541564,14.6227625 26.2596743,16.2496827 L24.1136519,17.6558075 C23.6410734,16.7921453 23.1294283,16.4507247 22.3419118,16.4507247 C21.5346903,16.4507247 21.0228161,16.9729662 21.0228161,17.6558075 C21.0228161,18.4993655 21.5346903,18.8410199 22.7158504,19.3632614 L23.4048413,19.6644737 C25.7476855,20.6889694 27.0666667,21.7333356 27.0666667,24.0831886 C27.0666667,26.6142132 25.1176953,28 22.4993235,28 C19.940067,28 18.2863283,26.7547088 17.4792214,25.1276717" id="Shape" fill="#000000" fill-rule="nonzero"></path>
                    </g>
                    <g id="react" transform="translate(132.500000, 28.500000) scale(-1, 1) translate(-132.500000, -28.500000) translate(102.000000, 0.000000)" fill="#61DAFB">
                        <path d="M61,28.5065232 C61,24.2664225 55.9394619,20.2481117 48.180799,17.7562371 C49.9712597,9.4586862 49.1754994,2.85717556 45.6691806,0.743648432 C44.8609865,0.247882811 43.9160212,0.0130464637 42.8840196,0.0130464637 L42.8840196,2.92240787 C43.4559723,2.92240787 43.9160212,3.03982605 44.3014676,3.26161593 C45.9924582,4.2792401 46.7260497,8.15403983 46.154097,13.137789 C46.0173257,14.3641566 45.7935181,15.6557565 45.5199755,16.9734493 C43.0829596,16.347219 40.4221362,15.8644999 37.6245414,15.5513848 C35.9459845,13.137789 34.2052589,10.9459831 32.4520995,9.0281529 C36.5055035,5.07507439 40.3102324,2.90936141 42.8964533,2.90936141 L42.8964533,0 C39.4771708,0 35.0010192,2.55710689 30.4751325,6.99290455 C25.9492458,2.58319982 21.4730942,0.0521858549 18.0538117,0.0521858549 L18.0538117,2.96154726 C20.6275989,2.96154726 24.4447615,5.11421378 28.4981655,9.04119936 C26.7574399,10.9590295 25.0167142,13.137789 23.3630249,15.5513848 C20.5529963,15.8644999 17.8921728,16.347219 15.455157,16.9864958 C15.1691806,15.6818494 14.9578068,14.4163424 14.8086017,13.2030213 C14.2242152,8.21927214 14.945373,4.34447242 16.6239299,3.31380179 C16.9969425,3.07896544 17.4818589,2.97459373 18.0538117,2.97459373 L18.0538117,0.0652323186 C17.0093763,0.0652323186 16.0644109,0.300068666 15.2437831,0.795834287 C11.7498981,2.90936141 10.9665715,9.49782559 12.769466,17.7692836 C5.03567061,20.2742046 0,24.279469 0,28.5065232 C0,32.7466239 5.06053812,36.7649348 12.819201,39.2568093 C11.0287403,47.5543603 11.8245006,54.1558709 15.3308194,56.269398 C16.1390135,56.7651637 17.0839788,57 18.1284142,57 C21.5476967,57 26.0238483,54.4428931 30.549735,50.0070954 C35.0756217,54.4168002 39.5517733,56.9478141 42.9710558,56.9478141 C44.0154912,56.9478141 44.9604566,56.7129778 45.7810844,56.2172122 C49.2749694,54.1036851 50.058296,47.5152209 48.2554015,39.2437629 C55.9643294,36.7518883 61,32.7335775 61,28.5065232 Z M44.8112515,19.8045319 C44.3512026,21.4875257 43.7792499,23.2227054 43.1326947,24.9578851 C42.6229107,23.914168 42.0882593,22.8704509 41.5038728,21.8267338 C40.9319201,20.7830167 40.3226661,19.7653925 39.7134121,18.7738613 C41.4790053,19.047837 43.1824297,19.3870451 44.8112515,19.8045319 Z M39.1165919,33.6990158 C38.1467591,35.4602884 37.1520587,37.1302358 36.1200571,38.6827649 C34.2674276,38.852369 32.3899307,38.9436942 30.5,38.9436942 C28.6225031,38.9436942 26.7450061,38.852369 24.9048104,38.6958114 C23.8728088,37.1432822 22.8656747,35.4863813 21.8958418,33.7381552 C20.9508765,32.0290684 20.0929474,30.2938888 19.3096209,28.5456626 C20.0805137,26.7974365 20.9508765,25.0492103 21.8834081,23.3401236 C22.8532409,21.578851 23.8479413,19.9089036 24.8799429,18.3563745 C26.7325724,18.1867704 28.6100693,18.0954452 30.5,18.0954452 C32.3774969,18.0954452 34.2549939,18.1867704 36.0951896,18.343328 C37.1271912,19.8958572 38.1343253,21.5527581 39.1041582,23.3009842 C40.0491235,25.010071 40.9070526,26.7452506 41.6903791,28.4934768 C40.9070526,30.2417029 40.0491235,31.989929 39.1165919,33.6990158 Z M43.1326947,32.0029755 C43.8041174,33.7512016 44.3760701,35.4994278 44.8485528,37.1954681 C43.2197309,37.6129549 41.5038728,37.9652094 39.7258459,38.2391852 C40.3350999,37.2346075 40.9443539,36.2039368 41.5163066,35.1471733 C42.0882593,34.1034562 42.6229107,33.0466926 43.1326947,32.0029755 Z M30.5248675,45.9235523 C29.3685283,44.6710918 28.2121892,43.2751202 27.0682837,41.7486839 C28.1873216,41.8008698 29.3312271,41.8400092 30.4875662,41.8400092 C31.6563392,41.8400092 32.8126784,41.8139162 33.94415,41.7486839 C32.8251121,43.2751202 31.6687729,44.6710918 30.5248675,45.9235523 Z M21.2741541,38.2391852 C19.5085609,37.9652094 17.8051366,37.6260014 16.1763147,37.2085145 C16.6363636,35.5255207 17.2083163,33.790341 17.8548716,32.0551614 C18.3646555,33.0988785 18.899307,34.1425956 19.4836934,35.1863127 C20.0680799,36.2300298 20.6649001,37.2476539 21.2741541,38.2391852 Z M30.4626987,11.0894942 C31.6190379,12.3419547 32.7753771,13.7379263 33.9192825,15.2643626 C32.8002446,15.2121767 31.6563392,15.1730373 30.5,15.1730373 C29.3312271,15.1730373 28.1748879,15.1991302 27.0434162,15.2643626 C28.1624541,13.7379263 29.3187933,12.3419547 30.4626987,11.0894942 Z M21.2617203,18.7738613 C20.6524664,19.778439 20.0432124,20.8091096 19.4712597,21.8658732 C18.899307,22.9095903 18.3646555,23.9533074 17.8548716,24.9970245 C17.1834488,23.2487984 16.6114961,21.5005722 16.1390135,19.8045319 C17.7678353,19.4000916 19.4836934,19.047837 21.2617203,18.7738613 Z M10.0091724,35.1080339 C5.60762332,33.1380179 2.76029352,30.554818 2.76029352,28.5065232 C2.76029352,26.4582284 5.60762332,23.8619821 10.0091724,21.9050126 C11.0784753,21.4222934 12.2472483,20.9917601 13.4533225,20.5873198 C14.1620465,23.1444266 15.0945781,25.8059052 16.2509172,28.5326162 C15.1070118,31.2462806 14.186914,33.8947127 13.4906237,36.4387732 C12.259682,36.0343328 11.0909091,35.590753 10.0091724,35.1080339 Z M16.6985324,53.7514305 C15.0075418,52.7338064 14.2739503,48.8590066 14.845903,43.8752575 C14.9826743,42.6488899 15.2064819,41.35729 15.4800245,40.0395972 C17.9170404,40.6658274 20.5778638,41.1485466 23.3754586,41.4616617 C25.0540155,43.8752575 26.7947411,46.0670634 28.5479005,47.9848936 C24.4944965,51.9379721 20.6897676,54.1036851 18.1035467,54.1036851 C17.5440277,54.0906386 17.071545,53.9732204 16.6985324,53.7514305 Z M46.1913983,43.8100252 C46.7757848,48.7937743 46.054627,52.668574 44.3760701,53.6992447 C44.0030575,53.934081 43.5181411,54.0384527 42.9461883,54.0384527 C40.3724011,54.0384527 36.5552385,51.8857862 32.5018345,47.9588006 C34.2425601,46.0409705 35.9832858,43.862211 37.6369751,41.4486152 C40.4470037,41.1355001 43.1078272,40.652781 45.544843,40.0135042 C45.8308194,41.3311971 46.054627,42.5967041 46.1913983,43.8100252 Z M50.9783938,35.1080339 C49.9090909,35.590753 48.740318,36.0212863 47.5342438,36.4257267 C46.8255198,33.8686198 45.8929882,31.2071412 44.736649,28.4804303 C45.8805544,25.7667659 46.8006523,23.1183337 47.4969425,20.5742733 C48.7278842,20.9787137 49.8966572,21.4222934 50.9908276,21.9050126 C55.3923767,23.8750286 58.2397065,26.4582284 58.2397065,28.5065232 C58.2272727,30.554818 55.3799429,33.1510643 50.9783938,35.1080339 Z" id="Shape" fill-rule="nonzero"></path>
                        <ellipse id="Oval" cx="30.5" cy="29" rx="5.71875" ry="6"></ellipse>
                    </g>
                    <g id="node" transform="translate(205.000000, 28.500000) scale(-1, 1) translate(-205.000000, -28.500000) translate(181.000000, 0.000000)" fill="#B2DD4C" fill-rule="nonzero">
                        <path d="M23.9999998,57 C23.2546583,57 22.5590061,56.7905371 21.9130433,56.4239777 L15.3043478,52.2870921 C14.3105588,51.71107 14.8074535,51.5016074 15.1055898,51.396876 C16.4472049,50.9255857 16.695652,50.820854 18.0869567,49.9830036 C18.2360246,49.8782725 18.4347826,49.9306383 18.583851,50.0353694 L23.6521738,53.2296736 C23.8509319,53.3344049 24.0993789,53.3344049 24.2484474,53.2296736 L44.0745341,41.1332109 C44.2732922,41.0284792 44.3726709,40.8190169 44.3726709,40.5571887 L44.3726709,16.4166285 C44.3726709,16.1547999 44.2732922,15.9453375 44.0745341,15.8406064 L24.2484474,3.79650894 C24.0496894,3.69177777 23.8012423,3.69177777 23.6521738,3.79650894 L3.82608664,15.8406064 C3.62732908,15.9453375 3.52795029,16.2071657 3.52795029,16.4166285 L3.52795029,40.5571887 C3.52795029,40.7666511 3.62732908,41.0284792 3.82608664,41.1332109 L9.24223588,44.4322462 C12.1739131,46.0032151 14.0124224,44.170418 14.0124224,42.3376204 L14.0124224,18.5112538 C14.0124224,18.1970602 14.2608696,17.8828663 14.6086955,17.8828663 L17.1428572,17.8828663 C17.4409939,17.8828663 17.7391303,18.1446944 17.7391303,18.5112538 L17.7391303,42.3376204 C17.7391303,46.4745061 15.6024846,48.8833253 11.8757763,48.8833253 C10.7329193,48.8833253 9.83850941,48.8833253 7.30434776,47.5741844 L2.08695651,44.4322462 C0.795031089,43.6467613 0,42.1805235 0,40.609554 L0,16.4689939 C0,14.8980249 0.795031089,13.4317867 2.08695651,12.6463022 L21.9130433,0.549838991 C23.1552795,-0.183279664 24.8447205,-0.183279664 26.0869568,0.549838991 L45.9130434,12.6463022 C47.2049689,13.4317867 48,14.8980249 48,16.4689939 L48,40.609554 C48,42.1805235 47.2049689,43.6467613 45.9130434,44.4322462 L26.0869568,56.5287089 C25.4409936,56.8429029 24.6956522,57 23.9999998,57 Z M30.1118014,40.4000918 C21.4161489,40.4000918 19.6273292,36.2108404 19.6273292,32.6499768 C19.6273292,32.335783 19.8757764,32.0215894 20.2236023,32.0215894 L22.8074535,32.0215894 C23.1055899,32.0215894 23.354037,32.2310517 23.354037,32.5452457 C23.7515526,35.3206247 24.8944101,36.6821313 30.1614906,36.6821313 C34.3354039,36.6821313 36.1242236,35.6871841 36.1242236,33.3307302 C36.1242236,31.9692236 35.6273293,30.9742764 29.1180122,30.293523 C23.7018634,29.7175009 20.3229816,28.4607254 20.3229816,23.9049148 C20.3229816,19.663298 23.7018634,17.1497472 29.3664598,17.1497472 C35.7267081,17.1497472 38.8571428,19.4538356 39.2546584,24.4809369 C39.2546584,24.6380338 39.2049688,24.7951309 39.1055901,24.9522278 C39.0062113,25.056959 38.8571428,25.1616901 38.7080745,25.1616901 L36.1242236,25.1616901 C35.8757766,25.1616901 35.6273293,24.9522278 35.5776398,24.6903996 C34.9813667,21.8102894 33.4409936,20.8677076 29.3664598,20.8677076 C24.7950309,20.8677076 24.2484474,22.5434082 24.2484474,23.8001835 C24.2484474,25.3187872 24.8944101,25.7900782 31.0559008,26.6279285 C37.167702,27.4657786 40.0496895,28.6701883 40.0496895,33.1736331 C39.9999999,37.7818097 36.4223604,40.4000918 30.1118014,40.4000918 Z" id="Shape"></path>
                    </g>
                </g>
            </g>
        </g>
    </g>
</svg>