<?xml version="1.0" encoding="UTF-8"?>
<svg width="34px" height="30px" viewBox="0 0 34 30" version="1.1" xmlns="http://www.w3.org/2000/svg" xmlns:xlink="http://www.w3.org/1999/xlink">
    <!-- Generator: Sketch 52.6 (67491) - http://www.bohemiancoding.com/sketch -->
    <title>docker</title>
    <desc>Created with Sketch.</desc>
    <g id="website" stroke="none" stroke-width="1" fill="none" fill-rule="evenodd">
        <g id="index" transform="translate(-777.000000, -2662.000000)">
            <g id="Footer" transform="translate(648.000000, 2328.500000) scale(-1, 1) translate(-648.000000, -2328.500000) translate(-1349.000000, 1896.000000)">
                <g id="icones" transform="translate(1749.000000, 681.000000)">
                    <g id="docker" transform="translate(102.000000, 100.000000) scale(-1, 1) translate(-102.000000, -100.000000) translate(85.000000, 85.000000)">
                        <path d="M5.11536944,24.3322191 L5.11536944,22.043941 C5.11536944,21.7432566 5.29421587,21.5017302 5.59043028,21.5017302 L5.67240156,21.5017302 C5.9684829,21.5017302 6.14653091,21.7435364 6.14653091,22.043941 L6.14653091,26.8614642 C6.14653091,28.0362311 5.59428931,28.9710099 4.63192517,29.5665048 C4.19108362,29.8409988 3.68787266,29.9852336 3.17547114,29.9839666 L2.97094214,29.9839666 C1.85288579,29.9839666 0.964641784,29.4031562 0.397097111,28.3924372 C0.135547354,27.9291935 -0.00167577056,27.4001213 1.54456076e-05,26.8614642 L1.54456076e-05,26.6467895 C1.54456076e-05,25.4716031 0.552523179,24.5373837 1.5140889,23.94077 C1.95484865,23.6657111 2.45833851,23.5214359 2.97094214,23.5233082 L3.17547114,23.5233082 C3.93210866,23.5233082 4.57403961,23.8315446 5.11536944,24.3322191 Z M1.03104385,26.7539171 C1.03104385,27.6025463 1.42240349,28.2405566 2.12993808,28.6475294 C2.41603915,28.8119968 2.72662514,28.900384 3.0530465,28.900384 C3.84561298,28.900384 4.43351741,28.5073965 4.8389825,27.8015574 C5.02754306,27.4731821 5.11536944,27.1138992 5.11536944,26.7319601 C5.11536944,25.9963323 4.78402448,25.4222349 4.21993964,24.9958225 C3.87794906,24.7373738 3.49297679,24.6077299 3.07314011,24.6077299 C2.20924796,24.6077299 1.58754369,25.0664484 1.21441467,25.8812331 C1.0885302,26.1567439 1.03104385,26.449177 1.03104385,26.7539171 Z M9.72372573,23.5233082 L9.86664319,23.5233082 C11.061348,23.5233082 11.9699518,24.1323689 12.5457468,25.2283984 C12.7759584,25.6668382 12.8991814,26.1454158 12.8991814,26.6467895 L12.8991814,26.8614642 C12.8991814,28.0362311 12.3480044,28.9722685 11.3841765,29.5666446 C10.9379919,29.8417359 10.4450996,29.9839666 9.92798858,29.9839666 L9.72372573,29.9839666 C8.60566937,29.9839666 7.71715923,29.4031562 7.14988069,28.3924372 C6.8882035,27.92923 6.75084266,27.4001587 6.75239982,26.8614642 L6.75239982,26.6467895 C6.75239982,25.4714632 7.30716974,24.5403206 8.2663402,23.9410497 C8.71225865,23.662602 9.20555012,23.5233082 9.72372573,23.5233082 Z M7.78356129,26.7539171 C7.78356129,27.5776524 8.16813435,28.1836363 8.83015891,28.609769 C9.14101104,28.8097591 9.48340083,28.900384 9.84654958,28.900384 C10.6210185,28.900384 11.1934868,28.4876772 11.5918992,27.8007183 C11.7819235,27.4731821 11.8678869,27.1133398 11.8678869,26.7319601 C11.8678869,25.9659842 11.5168475,25.3808384 10.9167006,24.9568035 C10.587884,24.7242276 10.2218077,24.6077299 9.82579062,24.6077299 C8.96189847,24.6077299 8.3401942,25.0664484 7.96719825,25.8812331 C7.84104764,26.1567439 7.78356129,26.449177 7.78356129,26.7539171 Z M17.1857738,24.694299 C17.0300816,24.6176595 16.7386577,24.5922062 16.5704569,24.5854932 C15.70896,24.551369 15.0856589,25.0612738 14.7199818,25.8599754 C14.5936982,26.1354862 14.5360787,26.4270802 14.5360787,26.7319601 C14.5360787,27.6601658 14.9998286,28.3100636 15.7881368,28.7062677 C16.0761009,28.850876 16.4478992,28.8782872 16.7626104,28.8782872 C17.0393965,28.8782872 17.4306231,28.7001142 17.6762708,28.577463 L17.7188533,28.5562053 L17.909543,28.5562053 L17.9305681,28.5606806 C18.1650379,28.6120067 18.3420213,28.7682227 18.3420213,29.0333844 L18.3420213,29.1406518 C18.3420213,29.8004792 17.1946895,29.9515206 16.7568884,29.9836869 C15.2119426,30.095989 14.0564935,29.204285 13.6160309,27.6555507 C13.5395155,27.386613 13.5050503,27.1194933 13.5050503,26.8392275 L13.5050503,26.6248326 C13.5050503,25.4496461 14.0599533,24.5187832 15.0189907,23.9200717 C15.4649092,23.6417638 15.9580676,23.5019106 16.4761101,23.5019106 L16.680506,23.5019106 C17.2300862,23.5019106 17.7362855,23.6659584 18.1900551,23.9916765 L18.2273148,24.0188081 L18.2508682,24.0596452 C18.2998381,24.1449556 18.3420213,24.243692 18.3420213,24.3452254 L18.3420213,24.4524928 C18.3420213,24.7291225 18.1450773,24.8779263 17.9074138,24.9260358 L17.8877194,24.9296719 L17.8267733,24.9296719 C17.672944,24.9296719 17.3231023,24.7622677 17.1857738,24.694299 Z M20.5303618,25.4281088 C20.9309033,25.0065912 21.3327755,24.5859128 21.7393052,24.1713879 C21.8525479,24.0557293 22.2814334,23.5662431 22.4502996,23.5662431 L22.6350011,23.5662431 L22.6560262,23.5708583 C22.8912944,23.6221844 23.0674794,23.7786801 23.0674794,24.0444012 L23.0674794,24.1515287 C23.0674794,24.3327785 22.8654788,24.5433974 22.754099,24.6674472 C22.5172339,24.9313502 22.2678602,25.1865823 22.0254062,25.445031 L20.7796024,26.7741958 C21.3160086,27.3392027 21.8518826,27.9046292 22.3838975,28.4739716 C22.5314556,28.63112 22.6778814,28.7894384 22.8231624,28.9489131 C22.8743945,29.0055536 22.9499784,29.0760396 22.9929601,29.1544973 C23.0391355,29.22806 23.0674794,29.310993 23.0674794,29.3995201 L23.0674794,29.5114026 L23.0614913,29.5372755 C23.0036057,29.7845359 22.8543009,29.9839666 22.5936162,29.9839666 L22.5115119,29.9839666 C22.3409158,29.9839666 22.1482301,29.7811794 22.0313944,29.6652411 C21.7905372,29.4266516 21.5580635,29.1757549 21.3219968,28.9319908 L20.5303618,28.1152481 L20.5303618,29.4206379 C20.5303618,29.7213223 20.3512492,29.9629886 20.055434,29.9629886 L19.9742612,29.9629886 C19.6780468,29.9629886 19.4992003,29.7213223 19.4992003,29.4206379 L19.4992003,22.064919 C19.4992003,21.7642346 19.6781798,21.5236871 19.9742612,21.5236871 L20.055434,21.5236871 C20.3512492,21.5236871 20.5303618,21.7642346 20.5303618,22.064919 L20.5303618,25.4281088 Z M33.3818886,23.5662431 L33.4843527,23.5662431 C33.793608,23.5662431 34,23.7852532 34,24.108454 C34,24.557103 33.5918735,24.6719225 33.2388381,24.6719225 C32.7757536,24.6719225 32.3335611,24.9665932 32.0143255,25.2970663 C31.6163124,25.7094934 31.4421234,26.2377189 31.4421234,26.8183894 L31.4421234,29.4418956 C31.4421234,29.74258 31.26341,29.9839666 30.9670626,29.9839666 L30.8856236,29.9839666 C30.5892761,29.9839666 30.4106958,29.7427198 30.4106958,29.4418956 L30.4106958,26.6677675 C30.4106958,25.6025057 30.9041203,24.7328985 31.7267607,24.1229987 C32.217923,23.7586811 32.7805441,23.566383 33.3818886,23.566383 L33.3818886,23.5662431 Z M26.0531769,28.7654257 C26.4284351,28.9031811 26.856256,28.8834618 27.2412283,28.8129757 C27.4381722,28.7250081 27.9417101,28.4941104 28.1269439,28.5279549 L28.1558202,28.5331295 L28.1824342,28.5468351 C28.295544,28.6044546 28.4034639,28.685989 28.4612164,28.8069621 C28.5961497,29.0904445 28.5313445,29.3754653 28.2662685,29.5364363 L28.1780429,29.5900001 C27.1999765,30.1832574 26.1596332,30.1010237 25.1846273,29.5469253 C24.7184822,29.2820434 24.3618539,28.888916 24.098774,28.4096391 L24.0372955,28.2976167 C23.409337,27.1547364 23.4941027,25.9525582 24.2023027,24.865759 C24.4467527,24.4901133 24.7662544,24.199918 25.1397827,23.9729362 L25.2811033,23.8872062 C26.2022156,23.3283528 27.1894639,23.3666726 28.1354604,23.8571378 C28.644188,24.1209009 29.0563066,24.5140282 29.3402786,25.0310655 L29.3913776,25.1242077 C29.5976365,25.4998534 29.3304314,25.8271099 29.0545767,26.050875 C28.7344097,26.3104426 28.411182,26.6228746 28.104322,26.9011825 C27.4200747,27.5219909 26.736892,28.1441977 26.0531769,28.7654257 Z M25.1675943,28.1117518 C25.9327484,27.4222755 26.6981685,26.7321 27.4613265,26.0396868 C27.7221442,25.8033349 28.0081122,25.5580324 28.2668008,25.3095132 C28.0592112,25.0345618 27.7124301,24.8363899 27.4178125,24.7182139 C26.8229884,24.4800439 26.2365478,24.5600399 25.6910928,24.8909326 C24.9771708,25.3241978 24.6731052,26.0140937 24.6997193,26.8726524 C24.7103649,27.2108175 24.7968606,27.5366754 24.9675897,27.8243535 C25.0277375,27.925747 25.094938,28.0209871 25.1675943,28.1117518 Z M19.6028621,6.39576652 L22.6456467,6.39576652 L22.6456467,9.66483506 L24.184072,9.66483506 C24.8946672,9.66483506 25.625356,9.53183467 26.2981593,9.29226614 C26.6288389,9.17436989 26.9998388,9.01046194 27.325994,8.80417847 C26.8964432,8.21483709 26.6771434,7.47067822 26.6127374,6.73714818 C26.524911,5.73929561 26.7165322,4.44061879 27.3589954,3.65967853 L27.6788964,3.27088663 L28.0600096,3.59296855 C29.0195793,4.40313814 29.8266504,5.53538964 29.9689025,6.82609482 C31.1243516,6.46890975 32.4810029,6.55338108 33.4993897,7.17111266 L33.9172303,7.42452666 L33.6973982,7.87569308 C32.8360344,9.6423187 31.0351945,10.1897041 29.274675,10.0927859 C26.6402829,16.9888073 20.9048215,20.2535404 13.9507026,20.2535404 C10.3578055,20.2535404 7.06165511,18.842002 5.18456597,15.4919585 L5.15382674,15.4374157 L4.88036735,14.8525497 C4.24588834,13.3779375 4.03510504,11.7624932 4.1780225,10.1483076 L4.2210042,9.66483506 L6.82306013,9.66483506 L6.82306013,6.39576652 L9.8657117,6.39576652 L9.8657117,3.19788326 L15.951414,3.19788326 L15.951414,0 L19.6028621,0 L19.6028621,6.39576652 Z" id="Shape" fill="#364548" fill-rule="nonzero"></path>
                        <path d="M29.3063813,7.66279473 C29.5084515,5.96576678 28.3330696,4.63289629 27.6041404,4 C26.7640923,5.04932041 26.6335968,7.79937159 27.9514692,8.95721292 C27.2159493,9.66302616 25.6662168,10.3027584 24.0793128,10.3027584 L4.76268846,10.3027584 C4.60846655,12.0924991 4.89924735,13.7406784 5.5634561,15.151308 L5.78318937,15.5856765 C5.92232031,15.8406277 6.0743564,16.0870965 6.23860537,16.3239606 C7.03278232,16.3790755 7.76500689,16.3980169 8.43488361,16.3820663 L8.43514724,16.3820663 C9.75156969,16.3507348 10.8257187,16.182684 11.6397995,15.877914 C11.7594407,15.8377051 11.8870251,15.907339 11.9280644,16.0352451 C11.9691037,16.1631512 11.9087853,16.3031633 11.7917806,16.3515893 C11.6834298,16.3923202 11.5705974,16.4302029 11.4540742,16.4662341 L11.4536787,16.4662341 C10.8126692,16.6640498 10.1252613,16.7970662 9.23841934,16.8561688 C9.29114478,16.8571657 9.18358488,16.8647138 9.18332125,16.8647138 C9.15313593,16.86685 9.11517362,16.8715498 9.08485649,16.8732587 C8.73581407,16.8944787 8.35909079,16.8988936 7.97393145,16.8988936 C7.55265517,16.8988936 7.13783777,16.8903487 6.6739857,16.8647138 L6.66212247,16.8732587 C8.27156656,18.8277747 10.7881519,20 13.942715,20 C20.6188103,20 26.2815227,16.802478 28.7891447,9.6240042 C30.5681011,9.82125023 32.2778553,9.33105468 33.0555556,7.69070825 C31.8167713,6.91838678 30.2236721,7.16462389 29.3063813,7.66279473" id="Path" fill="#22A0C8"></path>
                        <path d="M29.1564637,7.7271834 C29.3592712,6.0003232 28.1796006,4.64402205 27.4480117,4 C26.6048984,5.06776653 26.4739268,7.86616115 27.7966078,9.0443563 C27.0584042,9.76257711 25.503017,10.4135553 23.9103227,10.4135553 L5.67126815,10.4135553 C5.592156,13.2026751 6.53700378,15.3198034 8.20867788,16.599732 L8.20907477,16.599732 C9.53030057,16.5678497 10.608369,16.3968447 11.4254202,16.0867171 C11.5454979,16.0458014 11.6735478,16.1166594 11.7147368,16.246814 C11.7559259,16.3769686 11.6953874,16.5194419 11.5779558,16.5687192 C11.4692097,16.6101662 11.3559655,16.6487147 11.2390172,16.6853794 L11.2386203,16.6853794 C10.5952718,16.8866725 9.8460877,17.0394176 8.95600987,17.0995591 C8.95574528,17.0995591 8.93444586,17.0770966 8.93418127,17.0770966 C11.2145427,18.3584744 14.5209807,18.353837 18.3118814,16.7587086 C22.5625057,14.9698229 26.5179809,11.561897 29.2777778,7.66399852 C29.2362373,7.68457708 29.1957551,7.7055904 29.1564637,7.7271834" id="Path" fill="#37B1D9"></path>
                        <path d="M4.72222222,13 C4.84190256,13.8921283 5.10099076,14.7274052 5.48501997,15.4882057 L5.70425857,15.8923933 C5.84305273,16.1296448 5.9947474,16.3589897 6.1586493,16.5793798 C6.95116986,16.6306653 7.68174598,16.6482905 8.35024614,16.6334482 C9.66370496,16.6042937 10.7354358,16.4479194 11.5476839,16.1643255 C11.6670557,16.1269104 11.7943528,16.191706 11.8352998,16.3107249 C11.8762467,16.4297438 11.8160641,16.5600276 11.6993228,16.6050888 C11.591216,16.6429897 11.4786375,16.6782401 11.3623766,16.7117678 L11.3619821,16.7117678 C10.7224156,16.8958389 9.98158119,17.0275643 9.0967358,17.0826928 C9.06635541,17.0845481 9.01335412,17.0849457 8.98271069,17.0866684 C8.6347171,17.1062815 8.26265592,17.1183408 7.87823216,17.1183408 C7.45803581,17.1183408 7.02823873,17.1102571 6.56569396,17.0865359 C8.17151474,18.9052478 10.6979535,20 13.8454148,20 C19.5479856,20 24.5093274,17.8189769 27.3888889,13 L4.72222222,13" id="Path" fill="#1B81A5"></path>
                        <path d="M6.61111111,13 C6.95297713,14.5916418 7.7745371,15.8411211 8.96724327,16.6920166 C10.2844562,16.6623921 11.3592503,16.5034972 12.1738199,16.215332 C12.2935329,16.1773138 12.4211939,16.2431538 12.4622578,16.3640912 C12.5033218,16.4850287 12.4429672,16.6174125 12.3258923,16.6632 C12.2174764,16.7017119 12.1045762,16.7375305 11.987983,16.7715987 L11.9875873,16.7715987 C11.3461929,16.9586368 10.5875458,17.0924855 9.70003941,17.1485027 C11.9733429,18.3388676 15.2602422,18.3217662 19.0393653,16.8397349 C21.3255943,15.9429215 23.5259611,14.6079353 25.5,13 L6.61111111,13" id="Path" fill="#1D91B4"></path>
                        <path d="M7.55555556,7.21422547 L10.1865032,7.21422547 L10.1865032,10 L7.55555556,10 L7.55555556,7.21422547 Z M7.77473481,7.44644363 L7.98236435,7.44644363 L7.98236435,9.76792241 L7.77473481,9.76792241 L7.77473481,7.44644363 Z M8.16503586,7.44644363 L8.38102898,7.44644363 L8.38102898,9.76792241 L8.16516861,9.76792241 L8.16516861,7.44644363 L8.16503586,7.44644363 Z M8.56356774,7.44644363 L8.77956087,7.44644363 L8.77956087,9.76792241 L8.56356774,9.76792241 L8.56356774,7.44644363 Z M8.96236513,7.44644363 L9.1782255,7.44644363 L9.1782255,9.76792241 L8.96236513,9.76792241 L8.96236513,7.44644363 Z M9.36102977,7.44644363 L9.57689014,7.44644363 L9.57689014,9.76792241 L9.36102977,9.76792241 L9.36102977,7.44644363 Z M9.75956165,7.44644363 L9.96732394,7.44644363 L9.96732394,9.76792241 L9.75956165,9.76792241 L9.75956165,7.44644363 Z M10.5911418,4 L13.2222222,4 L13.2222222,6.78563396 L10.5910091,6.78563396 L10.5910091,4 L10.5911418,4 Z M10.8104538,4.23221816 L11.0179506,4.23221816 L11.0179506,6.55355637 L10.8104538,6.55355637 L10.8104538,4.23221816 Z M11.2007549,4.23221816 L11.4166153,4.23221816 L11.4166153,6.55355637 L11.2008876,6.55355637 L11.2008876,4.23221816 L11.2007549,4.23221816 Z M11.5992868,4.23221816 L11.8151471,4.23221816 L11.8151471,6.55355637 L11.5992868,6.55355637 L11.5992868,4.23221816 Z M11.9979514,4.23221816 L12.2138118,4.23221816 L12.2138118,6.55355637 L11.9979514,6.55355637 L11.9979514,4.23221816 Z M12.396616,4.23221816 L12.6126092,4.23221816 L12.6126092,6.55355637 L12.396616,6.55355637 L12.396616,4.23221816 Z M12.7951479,4.23221816 L13.003043,4.23221816 L13.003043,6.55355637 L12.7951479,6.55355637 L12.7951479,4.23221816 Z" id="Shape" fill="#23A3C2" fill-rule="nonzero"></path>
                        <path d="M10.3890318,7 L13.2222222,7 L13.2222222,10 L10.3888889,10 L10.3888889,7 L10.3890318,7 Z M10.6251906,7.25007569 L10.8486265,7.25007569 L10.8486265,9.75007569 L10.6251906,9.75007569 L10.6251906,7.25007569 Z M11.0454731,7.25007569 L11.2779151,7.25007569 L11.2779151,9.75007569 L11.0456161,9.75007569 L11.0456161,7.25007569 L11.0454731,7.25007569 Z M11.4746188,7.25007569 L11.7070608,7.25007569 L11.7070608,9.75007569 L11.4746188,9.75007569 L11.4746188,7.25007569 Z M11.9039074,7.25007569 L12.1363494,7.25007569 L12.1363494,9.75007569 L11.9039074,9.75007569 L11.9039074,7.25007569 Z M12.333196,7.25007569 L12.5657809,7.25007569 L12.5657809,9.75007569 L12.333196,9.75007569 L12.333196,7.25007569 Z M12.7623416,7.25007569 L12.9862064,7.25007569 L12.9862064,9.75007569 L12.7623416,9.75007569 L12.7623416,7.25007569 Z" id="Shape" fill="#34BBDE" fill-rule="nonzero"></path>
                        <path d="M13.2222222,7 L16.0555556,7 L16.0555556,10 L13.2222222,10 L13.2222222,7 Z M13.4582618,7.25007569 L13.6817203,7.25007569 L13.6817203,9.75007569 L13.4582618,9.75007569 L13.4582618,7.25007569 Z M13.8785868,7.25007569 L14.1110522,7.25007569 L14.1110522,9.75007569 L13.8785868,9.75007569 L13.8785868,7.25007569 Z M14.3079187,7.25007569 L14.5403842,7.25007569 L14.5403842,9.75007569 L14.3079187,9.75007569 L14.3079187,7.25007569 Z M14.7372506,7.25007569 L14.9697161,7.25007569 L14.9697161,9.75007569 L14.7372506,9.75007569 L14.7372506,7.25007569 Z M15.1664396,7.25007569 L15.399191,7.25007569 L15.399191,9.75007569 L15.1664396,9.75007569 L15.1664396,7.25007569 Z M15.5957715,7.25007569 L15.819373,7.25007569 L15.819373,9.75007569 L15.5957715,9.75007569 L15.5957715,7.25007569 Z" id="Shape" fill="#23A3C2" fill-rule="nonzero"></path>
                        <path d="M13.2222222,4 L15.8532315,4 L15.8532315,6.78563396 L13.2222222,6.78563396 L13.2222222,4 Z M13.4414066,4.23221816 L13.6489083,4.23221816 L13.6489083,6.55355637 L13.4414066,6.55355637 L13.4414066,4.23221816 Z M13.8317168,4.23221816 L14.0475822,4.23221816 L14.0475822,6.55355637 L13.8317168,6.55355637 L13.8317168,4.23221816 Z M14.2303908,4.23221816 L14.4462562,4.23221816 L14.4462562,6.55355637 L14.2303908,6.55355637 L14.2303908,4.23221816 Z M14.6290648,4.23221816 L14.8449302,4.23221816 L14.8449302,6.55355637 L14.6290648,6.55355637 L14.6290648,4.23221816 Z M15.027606,4.23221816 L15.2437369,4.23221816 L15.2437369,6.55355637 L15.027606,6.55355637 L15.027606,4.23221816 Z M15.4262799,4.23221816 L15.6339143,4.23221816 L15.6339143,6.55355637 L15.4262799,6.55355637 L15.4262799,4.23221816 Z M16.2578796,7.21422547 L18.8888889,7.21422547 L18.8888889,10 L16.2578796,10 L16.2578796,7.21422547 Z M16.4771968,7.44644363 L16.6846984,7.44644363 L16.6846984,9.76792241 L16.4771968,9.76792241 L16.4771968,7.44644363 Z M16.867507,7.44644363 L17.0833724,7.44644363 L17.0833724,9.76792241 L16.867507,9.76792241 L16.867507,7.44644363 Z M17.2660482,7.44644363 L17.4819136,7.44644363 L17.4819136,9.76792241 L17.2660482,9.76792241 L17.2660482,7.44644363 Z M17.6647221,7.44644363 L17.8807203,7.44644363 L17.8807203,9.76792241 L17.6647221,9.76792241 L17.6647221,7.44644363 Z M18.0633961,7.44644363 L18.2793943,7.44644363 L18.2793943,9.76792241 L18.0633961,9.76792241 L18.0633961,7.44644363 Z M18.4620701,7.44644363 L18.6697045,7.44644363 L18.6697045,9.76792241 L18.4620701,9.76792241 L18.4620701,7.44644363 Z" id="Shape" fill="#34BBDE" fill-rule="nonzero"></path>
                        <path d="M17,3 L19.8333333,3 L19.8333333,6 L17,6 L17,3 Z M17.2361826,3.25008831 L17.4596411,3.25008831 L17.4596411,5.75006308 L17.2361826,5.75006308 L17.2361826,3.25008831 Z M17.6565076,3.25008831 L17.888973,3.25008831 L17.888973,5.75006308 L17.6565076,5.75006308 L17.6565076,3.25008831 Z M18.0856965,3.25008831 L18.3181619,3.25008831 L18.3181619,5.75006308 L18.0856965,5.75006308 L18.0856965,3.25008831 Z M18.5150284,3.25008831 L18.7476368,3.25008831 L18.7476368,5.75006308 L18.5150284,5.75006308 L18.5150284,3.25008831 Z M18.9443603,3.25008831 L19.1769687,3.25008831 L19.1769687,5.75006308 L18.9443603,5.75006308 L18.9443603,3.25008831 Z M19.3736923,3.25008831 L19.5972937,3.25008831 L19.5972937,5.75006308 L19.3736923,5.75006308 L19.3736923,3.25008831 Z" id="Shape" fill="#23A3C2" fill-rule="nonzero"></path>
                        <path d="M17,0 L19.8333333,0 L19.8333333,3 L17,3 L17,0 Z M17.2361826,0.249899092 L17.4596411,0.249899092 L17.4596411,2.74979818 L17.2361826,2.74979818 L17.2361826,0.24974773 L17.2361826,0.249899092 Z M17.6565076,0.249899092 L17.888973,0.249899092 L17.888973,2.74979818 L17.6565076,2.74979818 L17.6565076,0.24974773 L17.6565076,0.249899092 Z M18.0856965,0.249899092 L18.3181619,0.249899092 L18.3181619,2.74979818 L18.0856965,2.74979818 L18.0856965,0.24974773 L18.0856965,0.249899092 Z M18.5150284,0.249899092 L18.7476368,0.249899092 L18.7476368,2.74979818 L18.5150284,2.74979818 L18.5150284,0.24974773 L18.5150284,0.249899092 Z M18.9443603,0.249899092 L19.1769687,0.249899092 L19.1769687,2.74979818 L18.9443603,2.74979818 L18.9443603,0.24974773 L18.9443603,0.249899092 Z M19.3736923,0.249899092 L19.5972937,0.249899092 L19.5972937,2.74979818 L19.3736923,2.74979818 L19.3736923,0.24974773 L19.3736923,0.249899092 Z" id="Shape" fill="#34BBDE" fill-rule="nonzero"></path>
                        <path d="M18.8888889,7 L21.7222222,7 L21.7222222,10 L18.8888889,10 L18.8888889,7 Z M19.1247855,7.25007569 L19.34853,7.25007569 L19.34853,9.75007569 L19.1249285,9.75007569 L19.1249285,7.25007569 L19.1247855,7.25007569 Z M19.5451105,7.25007569 L19.7777189,7.25007569 L19.7777189,9.75007569 L19.5452535,9.75007569 L19.5452535,7.25007569 L19.5451105,7.25007569 Z M19.9745854,7.25007569 L20.2071938,7.25007569 L20.2071938,9.75007569 L19.9745854,9.75007569 L19.9745854,7.25007569 Z M20.4037743,7.25007569 L20.6363827,7.25007569 L20.6363827,9.75007569 L20.4037743,9.75007569 L20.4037743,7.25007569 Z M20.8332492,7.25007569 L21.0657147,7.25007569 L21.0657147,9.75007569 L20.8332492,9.75007569 L20.8332492,7.25007569 Z M21.2624382,7.25007569 L21.4860396,7.25007569 L21.4860396,9.75007569 L21.2624382,9.75007569 L21.2624382,7.25007569 Z" id="Shape" fill="#23A3C2" fill-rule="nonzero"></path>
                        <path d="M12.2651799,14.0000894 C12.6056107,13.9952808 12.9221368,14.1848503 13.0936409,14.4962597 C13.2651449,14.8076692 13.2650784,15.1927132 13.0934668,15.5040562 C12.9218552,15.8153992 12.6052636,16.0048461 12.2648344,15.9999057 C11.7482611,15.992409 11.3332389,15.5468282 11.3333333,14.9998171 C11.3334278,14.452806 11.748604,14.0073859 12.2651799,14.0000894" id="Path" fill="#D3ECEC"></path>
                        <path d="M12.9279864,14.7480398 C12.9948295,14.7480398 13.0585978,14.7630697 13.1174197,14.7904113 C13.0339722,14.8483508 12.9933556,14.9659998 13.0183147,15.0774763 C13.0432738,15.1889528 13.1276121,15.2665813 13.2241013,15.2668909 C13.3049814,15.2668909 13.3751666,15.2133269 13.4115293,15.1340203 C13.4999248,15.3887029 13.4385656,15.6825709 13.2604371,15.8576473 C13.0823085,16.0327238 12.8293721,16.047766 12.637601,15.8946877 C12.4458298,15.7416094 12.3603992,15.456471 12.4272348,15.1925567 C12.4940704,14.9286425 12.6974277,14.7481222 12.9279864,14.7480398 M0,12.6884647 L34,12.6884647 C33.2597797,12.4639756 31.6578185,12.1604997 31.9219823,11 C30.5757627,12.8630673 27.3294617,12.3071211 26.5100992,11.3885387 C25.5978248,12.9711546 20.2864737,12.3694792 19.9160294,11.1365482 C18.7722106,12.7420287 15.2280568,12.7420287 14.084238,11.1365482 C13.7135263,12.3694792 8.40230884,12.9711546 7.4899008,11.3883789 C6.67067201,12.3071211 3.42450467,12.8630673 2.07828504,11.0001599 C2.34244889,12.1604997 0.74048764,12.4639756 0,12.6886246" id="Shape" fill="#364548" fill-rule="nonzero"></path>
                        <path d="M15.1111111,19.9857327 C13.2607598,19.2088909 12.2452531,18.1527487 11.6801717,17 C10.9927812,17.1735048 10.1666827,17.2844994 9.20665927,17.3321377 C8.84506182,17.3500322 8.46460554,17.3592213 8.06556376,17.3592213 C7.60529912,17.3592213 7.12029936,17.3471304 6.61111111,17.3233113 C8.30799531,18.8237949 10.3954485,19.9789618 14.2606875,20 C14.5460297,20 14.8291854,19.9951636 15.1111111,19.9857327" id="Path" fill="#BDD9D7"></path>
                        <path d="M12.2776553,17 C12.0482202,16.7110227 11.8256449,16.3478409 11.6619902,16 C11.0458351,16.1632955 10.3051016,16.2676136 9.44444444,16.3125 C10.0356103,16.6101136 10.8809555,16.8859091 12.2777778,17" id="Path" fill="#D3ECEC"></path>
                    </g>
                </g>
            </g>
        </g>
    </g>
</svg>