<?xml version="1.0" encoding="UTF-8"?>
<svg width="18px" height="29px" viewBox="0 0 18 29" version="1.1" xmlns="http://www.w3.org/2000/svg" xmlns:xlink="http://www.w3.org/1999/xlink">
    <!-- Generator: Sketch 52.6 (67491) - http://www.bohemiancoding.com/sketch -->
    <title>figma</title>
    <desc>Created with Sketch.</desc>
    <g id="website" stroke="none" stroke-width="1" fill="none" fill-rule="evenodd">
        <g id="index" transform="translate(-715.000000, -2663.000000)">
            <g id="Footer" transform="translate(648.000000, 2328.500000) scale(-1, 1) translate(-648.000000, -2328.500000) translate(-1349.000000, 1896.000000)">
                <g id="icones" transform="translate(1749.000000, 681.000000)">
                    <g id="figma" transform="translate(172.000000, 100.500000) scale(-1, 1) translate(-172.000000, -100.500000) translate(163.000000, 86.000000)">
                        <path d="M4.73684211,29 C7.35157895,29 9.47368421,26.76 9.47368421,24 L9.47368421,19 L4.73684211,19 C2.12210526,19 0,21.24 0,24 C0,26.76 2.12210526,29 4.73684211,29 Z" id="path0_fill" fill="#0ACF83"></path>
                        <path d="M0,15 C0,12.24 2.12210526,10 4.73684211,10 L9.47368421,10 L9.47368421,20 L4.73684211,20 C2.12210526,20 0,17.76 0,15 Z" id="path1_fill" fill="#A259FF"></path>
                        <path d="M0,5 C0,2.24 2.12210526,0 4.73684211,0 L9.47368421,0 L9.47368421,10 L4.73684211,10 C2.12210526,10 0,7.76 0,5 Z" id="path1_fill_1_" fill="#F24E1E"></path>
                        <path d="M8.52631579,0 L13.2631579,0 C15.8778947,0 18,2.24 18,5 C18,7.76 15.8778947,10 13.2631579,10 L8.52631579,10 L8.52631579,0 Z" id="path2_fill" fill="#FF7262"></path>
                        <path d="M18,15 C18,17.76 15.8778947,20 13.2631579,20 C10.6484211,20 8.52631579,17.76 8.52631579,15 C8.52631579,12.24 10.6484211,10 13.2631579,10 C15.8778947,10 18,12.24 18,15 Z" id="path3_fill" fill="#1ABCFE"></path>
                    </g>
                </g>
            </g>
        </g>
    </g>
</svg>