<?xml version="1.0" encoding="UTF-8"?>
<svg width="29px" height="30px" viewBox="0 0 29 30" version="1.1" xmlns="http://www.w3.org/2000/svg" xmlns:xlink="http://www.w3.org/1999/xlink">
    <!-- Generator: Sketch 52.6 (67491) - http://www.bohemiancoding.com/sketch -->
    <title>github</title>
    <desc>Created with Sketch.</desc>
    <g id="website" stroke="none" stroke-width="1" fill="none" fill-rule="evenodd">
        <g id="index" transform="translate(-740.000000, -2662.000000)" fill="#000000">
            <g id="Footer" transform="translate(648.000000, 2328.500000) scale(-1, 1) translate(-648.000000, -2328.500000) translate(-1349.000000, 1896.000000)">
                <g id="icones" transform="translate(1749.000000, 681.000000)">
                    <g id="github" transform="translate(141.500000, 100.000000) scale(-1, 1) translate(-141.500000, -100.000000) translate(127.000000, 85.000000)">
                        <path d="M14.5,0 C6.48859574,0 0,6.81470601 0,15.2287553 C0,22.3856223 4.67578723,28.3254849 10.9842128,30 C10.9114043,29.8094786 10.875617,29.5424893 10.875617,29.2767961 L10.875617,26.6872597 L9.06280851,26.6872597 C8.08421277,26.6872597 7.17719149,26.2310451 6.77859574,25.3924915 C6.30719149,24.4787661 6.23438298,23.0699443 5.03859574,22.1938048 C4.67578723,21.8892297 4.96578723,21.5846546 5.36438298,21.6222405 C6.12578723,21.8503478 6.74157447,22.3843263 7.32157447,23.1827019 C7.90157447,23.9823735 8.15578723,24.172895 9.24297872,24.172895 C9.75017021,24.172895 10.5473617,24.1353091 11.2729787,24.0199594 C11.6715745,22.9532985 12.3601702,22.0019873 13.194383,21.5457727 C8.33719149,20.9366225 6.01719149,18.4235538 6.01719149,14.9967598 C6.01719149,13.5114702 6.63297872,12.1026483 7.64859574,10.8843479 C7.32280851,9.7036333 6.88719149,7.26703244 7.79421277,6.31572126 C9.96982979,6.31572126 11.2742128,7.80101093 11.6,8.18075777 C12.6871915,7.79971487 13.8842128,7.57160755 15.1157872,7.57160755 C16.384383,7.57160755 17.544383,7.79971487 18.6315745,8.18075777 C18.9573617,7.79971487 20.2629787,6.31572126 22.4373617,6.31572126 C23.3073617,7.22944658 22.908766,9.7036333 22.5459574,10.8843479 C23.5615745,12.0650624 24.1415745,13.5114702 24.1415745,14.9967598 C24.1415745,18.4235538 21.8573617,20.9366225 17.0371915,21.4693049 C18.3785957,22.1925087 19.3214043,24.2480667 19.3214043,25.7709422 L19.3214043,29.2392103 C19.3214043,29.3532639 19.285617,29.4673176 19.285617,29.5813712 C24.94,27.5258133 29,21.8918218 29,15.2287553 C29,6.81470601 22.5114043,0 14.5,0 Z" id="Path"></path>
                    </g>
                </g>
            </g>
        </g>
    </g>
</svg>