<?xml version="1.0" encoding="UTF-8"?>
<svg width="29px" height="30px" viewBox="0 0 29 30" version="1.1" xmlns="http://www.w3.org/2000/svg" xmlns:xlink="http://www.w3.org/1999/xlink">
    <!-- Generator: Sketch 52.6 (67491) - http://www.bohemiancoding.com/sketch -->
    <title>javascript</title>
    <desc>Created with Sketch.</desc>
    <g id="website" stroke="none" stroke-width="1" fill="none" fill-rule="evenodd">
        <g id="index" transform="translate(-569.000000, -2662.000000)">
            <g id="Footer" transform="translate(648.000000, 2328.500000) scale(-1, 1) translate(-648.000000, -2328.500000) translate(-1349.000000, 1896.000000)">
                <g id="icones" transform="translate(1749.000000, 681.000000)">
                    <g id="javascript" transform="translate(312.500000, 100.000000) scale(-1, 1) translate(-312.500000, -100.000000) translate(298.000000, 85.000000)">
                        <polygon id="Path" fill="#F7DF1E" points="0 0 29 0 29 30 0 30"></polygon>
                        <path d="M7.7334479,25.4288839 L9.97776658,24.0430971 C10.4108204,24.8263425 10.8046932,25.4890796 11.7495067,25.4890796 C12.6551391,25.4890796 13.2262432,25.1276717 13.2262432,23.7217807 L13.2262432,14.1608336 L15.9823215,14.1608336 L15.9823215,23.7615215 C15.9823215,26.6739414 14.3089923,27.9996493 11.8676227,27.9996493 C9.66282876,27.9996493 8.38302865,26.834658 7.73333333,25.4286501 M17.4793359,25.1275548 L19.7234255,23.8019637 C20.3142346,24.786251 21.082046,25.5093007 22.4403228,25.5093007 C23.5824163,25.5093007 24.3105883,24.9267466 24.3105883,24.1232801 C24.3105883,23.1592139 23.5624821,22.8176763 22.3025017,22.2554602 L21.6136253,21.9538973 C19.6251291,21.0904689 18.306148,20.0057775 18.306148,17.7160032 C18.306148,15.6069329 19.8810662,14 22.3420264,14 C24.094176,14 25.3541564,14.6227625 26.2596743,16.2496827 L24.1136519,17.6558075 C23.6410734,16.7921453 23.1294283,16.4507247 22.3419118,16.4507247 C21.5346903,16.4507247 21.0228161,16.9729662 21.0228161,17.6558075 C21.0228161,18.4993655 21.5346903,18.8410199 22.7158504,19.3632614 L23.4048413,19.6644737 C25.7476855,20.6889694 27.0666667,21.7333356 27.0666667,24.0831886 C27.0666667,26.6142132 25.1176953,28 22.4993235,28 C19.940067,28 18.2863283,26.7547088 17.4792214,25.1276717" id="Shape" fill="#000000" fill-rule="nonzero"></path>
                    </g>
                </g>
            </g>
        </g>
    </g>
</svg>