<?xml version="1.0" encoding="UTF-8"?>
<svg width="43px" height="29px" viewBox="0 0 43 29" version="1.1" xmlns="http://www.w3.org/2000/svg" xmlns:xlink="http://www.w3.org/1999/xlink">
    <title>MySQL</title>
    <desc>Logo MySQL</desc>
    <g id="website" stroke="none" stroke-width="1" fill="none" fill-rule="evenodd">
        <g id="index" transform="translate(-853.000000, -2663.000000)" fill-rule="nonzero">
            <g id="Footer" transform="translate(648.000000, 2328.500000) scale(-1, 1) translate(-648.000000, -2328.500000) translate(-1349.000000, 1896.000000)">
                <g id="icones" transform="translate(1749.000000, 681.000000)">
                    <g id="mysql" transform="translate(21.500000, 100.500000) scale(-1, 1) translate(-21.500000, -100.500000) translate(0.000000, 86.000000)">
                        <path d="M10.0233694,26.5074439 L8.41466893,26.5074439 C8.35778156,23.8214734 8.20110812,21.2963229 7.9449595,18.9301473 L7.93065994,18.9301473 L5.48139412,26.5074439 L4.25660577,26.5074439 L1.82195037,18.9301473 L1.80796167,18.9301473 C1.62735202,21.2019218 1.51357727,23.7276874 1.46632655,26.5074439 L0,26.5074439 C0.0945014354,23.1271493 0.331998464,19.9581038 0.711558506,17 L2.70541445,17 L5.02598424,23.9859833 L5.0402838,23.9859833 L7.37515314,17 L9.28290087,17 C9.70069669,20.4648559 9.94751952,23.6342088 10.0233694,26.5074439 Z M17,19.4928635 C16.345018,23.0087636 15.4808273,25.5634337 14.4083603,27.1581038 C13.5727687,28.3856246 12.657286,29 11.660358,29 C11.3945728,29 11.0666155,28.9206662 10.6780405,28.7632287 L10.6780405,27.9154644 C10.8679759,27.942524 11.0908625,27.9578988 11.3470112,27.9578988 C11.8126794,27.9578988 12.1869549,27.8312108 12.4723243,27.5772197 C12.8136486,27.2678796 12.9843107,26.9201025 12.9843107,26.535426 C12.9843107,26.2715951 12.8512626,25.7322486 12.5857882,24.9155413 L10.8204144,19.4925561 L12.4008265,19.4925561 L13.6678918,23.5484177 C13.9526396,24.4693658 14.0713881,25.1123382 14.0238265,25.478565 C14.7167334,23.6480461 15.2007424,21.6520948 15.4764752,19.4922486 L17,19.4922486 L17,19.4928635 Z" id="Shape" fill="#5D87A1"></path>
                        <path d="M38,26.8143258 L33.7444539,26.8143258 L33.7444539,18.1292135 L35.1759965,18.1292135 L35.1759965,25.7452247 L38,25.7452247 L38,26.8143258 Z M32.6304851,27.0241573 L30.9850073,26.236236 C31.1309118,26.1199438 31.2704473,25.9941011 31.3960873,25.8483146 C32.0955022,25.0511236 32.4443412,23.872191 32.4443412,22.3106742 C32.4443412,19.4373596 31.2823166,18 28.9573988,18 C27.8173757,18 26.9280534,18.3646067 26.2920374,19.0941011 C25.5932015,19.8918539 25.2443625,21.066573 25.2443625,22.6196629 C25.2443625,24.1463483 25.553541,25.2662921 26.1721873,25.9766854 C26.738146,26.6202247 27.5912817,26.9424157 28.7321733,26.9424157 C29.1577279,26.9424157 29.5482539,26.8918539 29.9040407,26.7898876 L32.0462884,28 L32.6304851,27.0241573 Z M27.3000518,25.0764045 C26.9376067,24.5106742 26.7563841,23.6022472 26.7563841,22.3497191 C26.7563841,20.1629213 27.4410349,19.0682584 28.8117839,19.0682584 C29.5282789,19.0682584 30.0534191,19.3300562 30.3892309,19.8525281 C30.751097,20.4191011 30.9331881,21.319382 30.9331881,22.5544944 C30.9331881,24.7592697 30.2479583,25.8617978 28.8780778,25.8617978 C28.1612933,25.8620787 27.6361531,25.6011236 27.3000518,25.0764045 Z M24.6205052,24.4070225 C24.6205052,25.1435393 24.342013,25.7477528 23.7856076,26.2210674 C23.2286232,26.6924157 22.4817315,26.9286517 21.5458008,26.9286517 C20.6703742,26.9286517 19.8215809,26.6573034 19,26.1174157 L19.3847361,25.3716292 C20.0916778,25.7151685 20.7317467,25.8859551 21.3063902,25.8859551 C21.8457155,25.8859551 22.2672172,25.7699438 22.5729217,25.5398876 C22.8783368,25.3089888 23.0604278,24.9851124 23.0604278,24.5755618 C23.0604278,24.0595506 22.6895874,23.6185393 22.009279,23.2491573 C21.3819478,22.9148876 20.1272855,22.2160112 20.1272855,22.2160112 C19.4472666,21.7351124 19.1068229,21.2188202 19.1068229,20.3682584 C19.1068229,19.6643258 19.3607082,19.0960674 19.8687683,18.663764 C20.3774074,18.2297753 21.0336878,18.0134831 21.8381887,18.0134831 C22.6690334,18.0134831 23.4243205,18.2294944 24.1046288,18.6570225 L23.7595533,19.4030899 C23.1776725,19.1632022 22.6033185,19.0432584 22.0367808,19.0432584 C21.5779345,19.0432584 21.2235952,19.1502809 20.9772367,19.3651685 C20.7288518,19.5792135 20.57571,19.8530899 20.57571,20.1890449 C20.57571,20.7025281 20.9543668,21.1491573 21.6532027,21.5258427 C22.2889292,21.8606742 23.5748568,22.5716292 23.5748568,22.5716292 C24.2722452,23.0516854 24.6205052,23.5632022 24.6205052,24.4070225 Z" id="Shape" fill="#F8981D"></path>
                        <path d="M41.6577189,13.1483753 C40.732328,13.124413 40.0158464,13.2193163 39.4144971,13.4784876 C39.2408702,13.5491133 38.9648004,13.5491133 38.9406598,13.7726563 C39.0344369,13.8672444 39.0452692,14.0198464 39.1266665,14.1503779 C39.2653203,14.3859021 39.5070362,14.702772 39.7277063,14.8679858 C39.9700411,15.0571618 40.2133044,15.2444461 40.4683285,15.4093446 C40.9180252,15.6927934 41.4277639,15.8576919 41.8660093,16.1401948 C42.1213429,16.3044627 42.375129,16.5169704 42.6307721,16.6938501 C42.7564272,16.7881228 42.836896,16.9410401 43,17 L43,16.9640565 C42.9182932,16.858118 42.8950811,16.7048853 42.8149218,16.5869656 L42.4676681,16.2458181 C42.1321752,15.7867508 41.7152851,15.3860129 41.2655884,15.0568465 C40.895432,14.7970447 40.0857924,14.4439161 39.9356871,14.0094417 L39.9121655,13.9854794 C40.1665706,13.9612018 40.4683285,13.8672444 40.7100444,13.7950422 C41.1034129,13.6894189 41.4621179,13.7133812 41.8656998,13.6077579 C42.0513969,13.5604639 42.2355466,13.5011887 42.4218628,13.4428594 L42.4218628,13.3366055 C42.212644,13.124413 42.0634673,12.8425407 41.8434161,12.6420141 C41.2547561,12.1239869 40.6060539,11.6173104 39.9356871,11.1932407 C39.5766726,10.9570859 39.1149056,10.8051145 38.732679,10.6042725 C38.5949536,10.5333315 38.3628321,10.498334 38.2817443,10.3804142 C38.0743825,10.121243 37.9577028,9.78009549 37.807288,9.47331498 C37.4730331,8.82601754 37.1483726,8.10777908 36.859923,7.42327702 C36.6513231,6.96420977 36.5244301,6.50577311 36.2700249,6.08107284 C35.0784681,4.07895949 33.7844683,2.86634092 31.7956516,1.67610818 C31.3682386,1.42828754 30.8597378,1.32266423 30.3165736,1.19276334 L29.4490583,1.14609991 C29.2639801,1.06349302 29.0785924,0.839319388 28.9170359,0.733380792 C28.2571919,0.309626407 26.5583723,-0.608823386 26.0730837,0.603795188 C25.7604934,1.37027354 26.5354696,2.12382487 26.8016356,2.51258168 C26.9981651,2.78247287 27.2528797,3.08956868 27.3902956,3.3960339 C27.4716929,3.59624524 27.4945955,3.80875302 27.5759928,4.02031491 C27.761071,4.53865733 27.9340788,5.11532904 28.1773421,5.59898917 C28.3042352,5.84554864 28.4425796,6.10471985 28.6047551,6.32794761 C28.6976037,6.45847909 28.8591603,6.51617779 28.8944427,6.72900087 C28.7331957,6.96357919 28.7205064,7.31765372 28.6279673,7.61213779 C28.2120056,8.94299141 28.3744906,10.5916608 28.9640792,11.5697011 C29.1485383,11.8641851 29.5886406,12.5124285 30.1773007,12.2639772 C30.6984908,12.0521 30.583049,11.3808403 30.7328447,10.7921874 C30.7671987,10.6499901 30.7446056,10.5566632 30.8139325,10.4633364 L30.8139325,10.4863528 C30.9751795,10.8158344 31.1379741,11.1333349 31.2874603,11.4637625 C31.6461653,12.0404342 32.2707268,12.6413835 32.7909884,13.0408603 C33.0679867,13.2539986 33.2874188,13.6184778 33.6343631,13.748694 L33.6343631,13.7133812 L33.6114604,13.7133812 C33.541205,13.6077579 33.4384525,13.5604639 33.346223,13.4784876 C33.1376231,13.2662951 32.9067396,13.0071239 32.7448736,12.771915 C32.260204,12.1120058 31.8312435,11.3814709 31.4505643,10.6276043 C31.2642481,10.2618639 31.1036201,9.86207179 30.9535149,9.49696198 C30.8835689,9.35602582 30.8835689,9.14351804 30.7675082,9.07257701 C30.5935719,9.33143293 30.3400952,9.55560656 30.2132021,9.87279177 C29.993151,10.3800989 29.9702483,11.0040646 29.8885416,11.6529385 L29.8430458,11.6756397 C29.4747464,11.5813669 29.3466153,11.1932407 29.2067235,10.8637591 C28.8603982,10.0269703 28.8022131,8.6838202 29.102733,7.71839168 C29.1832018,7.47151692 29.531384,6.69400329 29.3924206,6.45879439 C29.3227842,6.23335958 29.0912817,6.10503515 28.9643887,5.92752494 C28.8152119,5.70429718 28.6517984,5.42179426 28.547808,5.17397362 C28.2705002,4.51469503 28.1309178,3.78416013 27.8322549,3.12519684 C27.6926725,2.81810102 27.4503377,2.50028524 27.2541177,2.21746702 C27.033757,1.89965123 26.7914222,1.67579289 26.6171764,1.29901723 C26.5596103,1.16943162 26.478832,0.957554429 26.5713711,0.81661826 C26.5939642,0.722030228 26.6410075,0.686717363 26.7332371,0.663070355 C26.8830328,0.534115337 27.3110648,0.698067927 27.46117,0.769008951 C27.889821,0.945573278 28.2482166,1.11047175 28.6059931,1.35766181 C28.7678591,1.47589685 28.941486,1.69975519 29.1491573,1.75871506 L29.3924206,1.75871506 C29.7616485,1.84069136 30.1779197,1.78141619 30.5254829,1.88798537 C31.1379741,2.088512 31.6928991,2.38268078 32.1905675,2.70018128 C33.704928,3.67853682 34.9537415,5.06866561 35.7968066,6.72900087 C35.935151,6.99952264 35.9939551,7.24734328 36.1202292,7.52953091 C36.363802,8.1071485 36.6649409,8.69611664 36.9066568,9.26143778 C37.1496106,9.81477777 37.381113,10.3797836 37.7280573,10.8394815 C37.9010651,11.0866715 38.5961915,11.2162571 38.9078533,11.3458427 C39.1384273,11.451466 39.4974418,11.5454235 39.7054227,11.6750091 C40.0987912,11.9218838 40.4906122,12.2053326 40.8604591,12.4768003 C41.0446088,12.6180518 41.623365,12.9125358 41.6577189,13.1483753 M29.8640915,2.91268906 C29.7044707,2.91099883 29.5453375,2.93093179 29.3908732,2.97196422 L29.3908732,2.99561123 L29.4131568,2.99561123 C29.5063149,3.18384142 29.6681809,3.3143729 29.7836227,3.47864078 C29.8767808,3.66750155 29.957559,3.85478586 30.0488601,4.04333134 L30.0711438,4.01999962 C30.2342478,3.90239517 30.3153356,3.71384969 30.3153356,3.43103147 C30.2450802,3.347794 30.2342478,3.2664483 30.1757532,3.18384142 C30.1076642,3.06592167 29.957559,3.00727709 29.8640915,2.91268906" id="Shape" fill="#5D87A1"></path>
                        <path d="M42.8095004,28 L43,28 L43,27.0002639 L42.7142506,27.0002639 L42.4811715,27.682502 L42.2279104,27.0002639 L41.9527443,27.0002639 L41.9527443,28 L42.1326606,28 L42.1326606,27.2393771 L42.1427517,27.2393771 L42.4080729,28 L42.5451637,28 L42.8095004,27.2393771 L42.8095004,28 Z M41.27492,28 L41.4764952,28 L41.4764952,27.1697018 L41.7403397,27.1697018 L41.7403397,27 L41,27 L41,27.1697018 L41.2744278,27.1697018 L41.27492,28 Z" id="Shape" fill="#F8981D"></path>
                    </g>
                </g>
            </g>
        </g>
    </g>
</svg>