<?xml version="1.0" encoding="UTF-8"?>
<svg width="30px" height="30px" viewBox="0 0 48 57" version="1.1" xmlns="http://www.w3.org/2000/svg" xmlns:xlink="http://www.w3.org/1999/xlink">
    <title>Node.js</title>
    <desc>Node Logo</desc>
    <g id="website" stroke="none" stroke-width="1" fill="none" fill-rule="evenodd">
        <g id="index" transform="translate(-667.000000, -2577.000000)" fill="#B2DD4C" fill-rule="nonzero">
            <g id="Footer" transform="translate(648.000000, 2328.500000) scale(-1, 1) translate(-648.000000, -2328.500000) translate(-1349.000000, 1896.000000)">
                <g id="icones" transform="translate(1749.000000, 681.000000)">
                    <g id="node" transform="translate(205.000000, 28.500000) scale(-1, 1) translate(-205.000000, -28.500000) translate(181.000000, 0.000000)">
                        <path d="M23.9999998,57 C23.2546583,57 22.5590061,56.7905371 21.9130433,56.4239777 L15.3043478,52.2870921 C14.3105588,51.71107 14.8074535,51.5016074 15.1055898,51.396876 C16.4472049,50.9255857 16.695652,50.820854 18.0869567,49.9830036 C18.2360246,49.8782725 18.4347826,49.9306383 18.583851,50.0353694 L23.6521738,53.2296736 C23.8509319,53.3344049 24.0993789,53.3344049 24.2484474,53.2296736 L44.0745341,41.1332109 C44.2732922,41.0284792 44.3726709,40.8190169 44.3726709,40.5571887 L44.3726709,16.4166285 C44.3726709,16.1547999 44.2732922,15.9453375 44.0745341,15.8406064 L24.2484474,3.79650894 C24.0496894,3.69177777 23.8012423,3.69177777 23.6521738,3.79650894 L3.82608664,15.8406064 C3.62732908,15.9453375 3.52795029,16.2071657 3.52795029,16.4166285 L3.52795029,40.5571887 C3.52795029,40.7666511 3.62732908,41.0284792 3.82608664,41.1332109 L9.24223588,44.4322462 C12.1739131,46.0032151 14.0124224,44.170418 14.0124224,42.3376204 L14.0124224,18.5112538 C14.0124224,18.1970602 14.2608696,17.8828663 14.6086955,17.8828663 L17.1428572,17.8828663 C17.4409939,17.8828663 17.7391303,18.1446944 17.7391303,18.5112538 L17.7391303,42.3376204 C17.7391303,46.4745061 15.6024846,48.8833253 11.8757763,48.8833253 C10.7329193,48.8833253 9.83850941,48.8833253 7.30434776,47.5741844 L2.08695651,44.4322462 C0.795031089,43.6467613 0,42.1805235 0,40.609554 L0,16.4689939 C0,14.8980249 0.795031089,13.4317867 2.08695651,12.6463022 L21.9130433,0.549838991 C23.1552795,-0.183279664 24.8447205,-0.183279664 26.0869568,0.549838991 L45.9130434,12.6463022 C47.2049689,13.4317867 48,14.8980249 48,16.4689939 L48,40.609554 C48,42.1805235 47.2049689,43.6467613 45.9130434,44.4322462 L26.0869568,56.5287089 C25.4409936,56.8429029 24.6956522,57 23.9999998,57 Z M30.1118014,40.4000918 C21.4161489,40.4000918 19.6273292,36.2108404 19.6273292,32.6499768 C19.6273292,32.335783 19.8757764,32.0215894 20.2236023,32.0215894 L22.8074535,32.0215894 C23.1055899,32.0215894 23.354037,32.2310517 23.354037,32.5452457 C23.7515526,35.3206247 24.8944101,36.6821313 30.1614906,36.6821313 C34.3354039,36.6821313 36.1242236,35.6871841 36.1242236,33.3307302 C36.1242236,31.9692236 35.6273293,30.9742764 29.1180122,30.293523 C23.7018634,29.7175009 20.3229816,28.4607254 20.3229816,23.9049148 C20.3229816,19.663298 23.7018634,17.1497472 29.3664598,17.1497472 C35.7267081,17.1497472 38.8571428,19.4538356 39.2546584,24.4809369 C39.2546584,24.6380338 39.2049688,24.7951309 39.1055901,24.9522278 C39.0062113,25.056959 38.8571428,25.1616901 38.7080745,25.1616901 L36.1242236,25.1616901 C35.8757766,25.1616901 35.6273293,24.9522278 35.5776398,24.6903996 C34.9813667,21.8102894 33.4409936,20.8677076 29.3664598,20.8677076 C24.7950309,20.8677076 24.2484474,22.5434082 24.2484474,23.8001835 C24.2484474,25.3187872 24.8944101,25.7900782 31.0559008,26.6279285 C37.167702,27.4657786 40.0496895,28.6701883 40.0496895,33.1736331 C39.9999999,37.7818097 36.4223604,40.4000918 30.1118014,40.4000918 Z" id="Shape"></path>
                    </g>
                </g>
            </g>
        </g>
    </g>
</svg>