<?xml version="1.0" encoding="UTF-8"?>
<svg width="27px" height="30px" viewBox="0 0 27 30" version="1.1" xmlns="http://www.w3.org/2000/svg" xmlns:xlink="http://www.w3.org/1999/xlink">
    <!-- Generator: Sketch 52.6 (67491) - http://www.bohemiancoding.com/sketch -->
    <title>postgres</title>
    <desc>Created with Sketch.</desc>
    <g id="website" stroke="none" stroke-width="1" fill="none" fill-rule="evenodd">
        <g id="index" transform="translate(-818.000000, -2662.000000)">
            <g id="Footer" transform="translate(648.000000, 2328.500000) scale(-1, 1) translate(-648.000000, -2328.500000) translate(-1349.000000, 1896.000000)">
                <g id="icones" transform="translate(1749.000000, 681.000000)">
                    <g id="postgres" transform="translate(64.500000, 100.000000) scale(-1, 1) translate(-64.500000, -100.000000) translate(51.000000, 85.000000)">
                        <path d="M26.9285466,17.9706506 C26.7662632,17.4409477 26.3411548,17.0720129 25.7914,16.9834822 C25.5321695,16.9417805 25.235302,16.959555 24.8839875,17.0376033 C24.2716453,17.1737605 23.8173576,17.2256028 23.4858132,17.2356294 C24.7372453,14.9585563 25.7548202,12.361884 26.3406262,9.91754832 C27.2878959,5.96511455 26.7816986,4.1645348 26.1901837,3.35009805 C24.624757,1.1943701 22.3408432,0.0362929894 19.5855148,0.000857926372 C18.1156609,-0.0185117222 16.8253231,0.294251133 16.1521907,0.519166935 C15.5254703,0.399986627 14.8515978,0.333446187 14.1445286,0.321140763 C12.8190911,0.298352941 11.6480078,0.609748527 10.6473484,1.24974451 C10.0933648,1.0478444 9.20424222,0.763224508 8.17746952,0.581605567 C5.76256609,0.154333907 3.81622286,0.487263985 2.39256952,1.57116673 C0.668665512,2.8835174 -0.130487584,5.16366686 0.0173118638,8.34826496 C0.0642524611,9.35936062 0.589056796,12.4357166 1.41538046,15.3532414 C1.89028398,17.0301972 2.39669268,18.422761 2.92054551,19.4926493 C3.66345447,21.0097485 4.45837868,21.9031451 5.35077864,22.2239976 C5.85094974,22.4035656 6.75973661,22.5293544 7.71556981,21.6713929 C7.8367273,21.8295404 7.99837634,21.9866624 8.21288641,22.1326184 C8.48533217,22.3177695 8.8184624,22.4690806 9.15116974,22.5587507 C10.3501637,22.8817681 11.4732492,22.8009852 12.4314083,22.3481912 C12.4373287,22.5318611 12.4418748,22.7073273 12.4456808,22.8588663 C12.4520241,23.104633 12.4583674,23.3456142 12.4667195,23.5709857 C12.5234922,25.0948074 12.6196993,26.2796602 12.904726,27.1086812 C12.9203728,27.1542568 12.9414115,27.2237597 12.9636132,27.2974783 C13.1058093,27.7666795 13.3435783,28.5521757 13.9485199,29.167333 C14.5749232,29.8045944 15.3326332,30 16.0265929,30 C16.3746299,30 16.7067029,29.9507783 16.9979672,29.8835542 C18.0361579,29.6437124 19.2152761,29.2784236 20.0682417,27.9694911 C20.8746896,26.7321124 21.266707,24.8684104 21.3376466,21.9318577 C21.3468444,21.8487961 21.3553021,21.7694945 21.3634427,21.6939529 L21.3803583,21.5387678 L21.5703408,21.5567702 L21.6192901,21.5603023 C22.6767222,21.6122585 23.9697031,21.3705937 24.7637815,20.9730601 C25.391242,20.6592718 27.40197,19.5152092 26.9285466,17.9706506" id="Path" fill="#000000"></path>
                        <path d="M25.3488071,17.7102738 C22.1435036,18.3969129 21.9230986,17.2699742 21.9230986,17.2699742 C25.3073127,12.0552106 26.7221082,5.43583073 25.5013123,3.81576542 C22.1705558,-0.603459393 16.4049974,1.48656477 16.3087521,1.54073483 L16.2778199,1.54655475 C15.6445192,1.41001039 14.935882,1.3287553 14.1392984,1.31521278 C12.6890441,1.29059003 11.5888512,1.71007223 10.7540065,2.36749977 C10.7540065,2.36749977 0.468797835,-2.03258644 0.947222244,7.9013519 C1.04896422,10.0146558 3.86411303,23.8919282 7.22181387,19.700352 C8.44907648,18.1675855 9.63495253,16.8716452 9.63495253,16.8716452 C10.2238489,17.2779206 10.9289294,17.4851994 11.6680677,17.4107716 L11.7255131,17.360183 C11.707622,17.5504497 11.7158131,17.7365754 11.7484697,17.956949 C10.8834473,18.9605501 11.1376945,19.1367147 9.40851196,19.5063918 C7.65874393,19.8808815 8.68661813,20.5474866 9.35774875,20.7218605 C10.1713612,20.9330566 12.0535878,21.232335 13.3253626,19.3835019 L13.2747071,19.5944741 C13.6135597,19.8764047 13.8515324,21.4280859 13.8116547,22.8348286 C13.7717771,24.2414594 13.745156,25.207231 14.0121209,25.9615827 C14.2793014,26.7159343 14.5454041,28.4132255 16.8186475,27.9074518 C18.7180108,27.4847239 19.7023428,26.3893471 19.8393281,24.5621148 C19.9364356,23.2631526 20.1564095,23.4552101 20.170205,22.2937995 L20.3466368,21.7440406 C20.550013,19.9831779 20.3789701,19.4150638 21.5491106,19.6793107 L21.8336433,19.7052765 C22.6947857,19.7459041 23.8221385,19.5613453 24.4837847,19.242033 C25.908388,18.5555058 26.7533637,17.4090928 25.3485915,17.7102738 L25.3488071,17.7102738" id="Path" fill="#336791"></path>
                        <path d="M11.0210277,9.18546988 C10.735463,9.15071983 10.4768564,9.1828613 10.3460081,9.26950353 C10.2724859,9.31822814 10.2496833,9.37468533 10.2435032,9.41353459 C10.2270939,9.51648046 10.3095666,9.63032649 10.3602863,9.68901961 C10.503708,9.85522363 10.7131932,9.96944231 10.9205473,9.99459651 C10.9505955,9.99832305 10.9805372,10 11.0102657,10 C11.3560334,10 11.6704743,9.76457536 11.6981783,9.59082509 C11.7328084,9.37319471 11.3714838,9.22813885 11.0210277,9.18556305 M20.4813177,9.192364 C20.4540399,9.02178129 20.106887,8.97314984 19.777422,9.01321023 C19.4483833,9.05327061 19.1293606,9.18314079 19.1559991,9.35409616 C19.1773099,9.48704074 19.4518995,9.71398748 19.7768892,9.71398748 C19.8043802,9.71398748 19.8320842,9.7124037 19.8600014,9.70895664 C20.0769453,9.68268448 20.236137,9.56222383 20.3117903,9.49281689 C20.4268686,9.38698294 20.4935714,9.26903771 20.4813177,9.192364" id="Shape" fill="#FFFFFF" fill-rule="nonzero"></path>
                        <path d="M26.0416119,18.1350451 C25.9231366,17.7501578 25.5418008,17.6263519 24.908261,17.7668823 C23.0271785,18.1839838 22.35352,17.8950658 22.1323453,17.7200762 C23.5944808,15.3270182 24.7973079,12.4342465 25.4462056,9.73532154 C25.7535727,8.45685385 25.9233455,7.2695289 25.9372408,6.30175468 C25.9525987,5.23958262 25.7841841,4.45903264 25.4369073,3.98221694 C24.0367258,2.06002562 21.9816915,1.02894536 19.4941284,1.00065968 C17.7839679,0.980006651 16.3390709,1.4501999 16.0589719,1.58242422 C15.4691029,1.42483259 14.8260558,1.32807762 14.125965,1.31573069 C12.8421693,1.29339399 11.7324299,1.62361804 10.8136718,2.2967498 C10.4145752,2.13713776 9.3831924,1.75674031 8.12185894,1.53842428 C5.941245,1.16128192 4.20841333,1.44705705 2.97184057,2.38822927 C1.49633221,3.51135022 0.815151541,5.5189598 0.947104177,8.35516011 C0.991506291,9.30935272 1.49758591,12.2447774 2.29619711,15.0559471 C3.34743022,18.755983 4.49018392,20.8505823 5.69248869,21.2814899 C5.83321727,21.3318877 5.99546782,21.3671326 6.17443446,21.3671326 C6.61302287,21.3671326 7.15075859,21.1547655 7.71022522,20.4321338 C8.39261398,19.552646 9.09850134,18.694514 9.82700459,17.8588107 C10.299652,18.131341 10.8188956,18.2835449 11.3499449,18.2988101 C11.3509896,18.3137387 11.3523478,18.3286673 11.3536015,18.3434836 C11.262188,18.4605977 11.1726738,18.579408 11.0850993,18.6998606 C10.7171364,19.2017069 10.6405558,19.3062068 9.45611635,19.568186 C9.11918266,19.642941 8.22434947,19.841053 8.21118555,20.5149705 C8.19697687,21.251296 9.26900061,21.5605303 9.39113255,21.5933058 C9.81676599,21.7077954 10.2268326,21.7642545 10.6178846,21.7642545 C11.5689256,21.7642545 12.4058794,21.4284182 13.0747319,20.7786334 C13.0541502,23.4035891 13.1560139,25.9901571 13.4493813,26.7782274 C13.6896751,27.4234103 14.2766188,29.0001122 16.1306421,29 C16.4026965,29 16.7021234,28.9659898 17.0315349,28.8901124 C18.9665268,28.4445007 19.8068237,27.5256652 20.1318472,25.4999842 C20.305799,24.4173836 20.6042857,21.8322748 20.7447008,20.4456032 C21.0409935,20.5449398 21.4224338,20.5903989 21.8347989,20.5902867 C22.6948417,20.5902867 23.6872551,20.3939706 24.309616,20.0836139 C25.0087664,19.7347572 26.2704133,18.8787788 26.0416119,18.1350451 Z M21.4336127,8.76485344 C21.4272397,9.17421004 21.374793,9.5458524 21.319212,9.93377025 C21.2593475,10.350984 21.1974979,10.7823406 21.1819311,11.3059623 C21.1665732,11.8155535 21.2258108,12.3453487 21.2830634,12.857746 C21.3988223,13.8926425 21.5176111,14.9580697 21.0578141,16.009354 C20.9814361,15.8639564 20.9134002,15.7136799 20.8540868,15.5593648 C20.7969386,15.4105283 20.6728217,15.171447 20.5009594,14.8405494 C19.8324202,13.5524287 18.2668539,10.5359633 19.068286,9.30508742 C19.3070126,8.93872056 19.9128664,8.56202718 21.4336127,8.76485344 Z M19.5902459,1.82958715 C21.8191275,1.88245443 23.5822571,2.77827977 24.8305311,4.49203259 C25.7879452,5.80653084 24.7336823,11.7877168 21.6816377,16.9477201 C21.6509446,16.9057899 21.6200892,16.8639971 21.5890723,16.8223427 L21.5504164,16.7704857 C22.3391024,15.3711304 22.1848965,13.9865914 22.0476156,12.7590828 C21.9911988,12.2553284 21.9379162,11.7795229 21.9514981,11.3325643 C21.9654978,10.8588915 22.0237952,10.4525655 22.080212,10.0597089 C22.1494793,9.57559726 22.2200003,9.07464895 22.2005678,8.48412932 C22.2150899,8.42217022 22.2209405,8.34898665 22.2133138,8.26210921 C22.1636879,7.69583445 21.5619087,6.00105099 20.3353656,4.46711426 C19.6644235,3.62808476 18.6860099,2.68915744 17.3500809,2.05587257 C17.9246965,1.92791355 18.7104572,1.80859739 19.5902459,1.82958715 Z M7.11816221,19.9032366 C6.5017564,20.6995008 6.07612295,20.546848 5.9361257,20.4967868 C5.02405404,20.1699301 3.9657166,18.09879 3.03264535,14.8145087 C2.22525821,11.9726961 1.75344657,9.11505706 1.71604431,8.3137418 C1.59819588,5.77947986 2.16999063,4.01330874 3.41565276,3.06416714 C5.44289657,1.5196794 8.77587596,2.44412715 10.1151482,2.91297347 C10.0959247,2.93340201 10.0758654,2.95248362 10.0568508,2.9732489 C7.8591029,5.35777634 7.91123621,9.43181174 7.91666894,9.68088283 C7.91645998,9.77696434 7.92398222,9.91300498 7.93422083,10.100117 C7.97204098,10.7853712 8.04245751,12.060696 7.8544015,13.5049492 C7.67971836,14.8470596 8.06481528,16.1606599 8.91075391,17.1090158 C8.99757121,17.2061568 9.08882089,17.2986105 9.18416646,17.3860359 C8.80763653,17.8193006 7.98927945,18.7774218 7.11816221,19.9032366 Z M9.46666838,16.5366798 C8.78486086,15.7722931 8.47519529,14.7091108 8.61696863,13.6194388 C8.8154722,12.0938082 8.74223483,10.7650549 8.70284754,10.0511783 C8.69731034,9.95128043 8.69239998,9.86372953 8.68957914,9.79469901 C9.01063255,9.48883207 10.498469,8.63240464 11.5595228,8.89359817 C12.0436626,9.01268985 12.3387016,9.36693427 12.4613559,9.97619877 C13.0961494,13.1306129 12.5453542,14.4453357 12.1027958,15.5018955 C12.0115886,15.7195381 11.9253963,15.9252827 11.8518455,16.1380987 L11.7948018,16.3026495 C11.6504166,16.7186286 11.516061,17.105424 11.432794,17.4726888 C10.7079425,17.4704439 10.002837,17.1377505 9.46666838,16.5365676 L9.46666838,16.5366798 Z M9.57793485,20.7907558 C9.36626736,20.73396 9.17591289,20.6352968 9.06422851,20.5534704 C9.15752519,20.5063276 9.32353686,20.4421236 9.61147151,20.3783686 C11.0048621,20.0702568 11.2200817,19.8527265 11.6900128,19.2116967 C11.7977271,19.0646561 11.9198591,18.8980849 12.089005,18.6951464 L12.0892139,18.6949219 C12.3411045,18.391861 12.4563411,18.4432691 12.6652922,18.5364323 C12.8346471,18.6116363 12.999614,18.8397176 13.0664784,19.0906969 C13.0981344,19.2092273 13.1336561,19.4341658 13.0173748,19.6092676 C12.0357225,21.0859595 10.6052431,21.0669901 9.57793485,20.7907558 Z M16.8702246,28.0812767 C15.1656013,28.4736844 14.562046,27.5392468 14.1643076,26.4710136 C13.9076111,25.7813818 13.7814046,22.6715288 13.8709402,19.2371762 C13.8720894,19.1914926 13.8660298,19.1473804 13.8543286,19.1058499 C13.8438616,19.0238406 13.8279405,18.942742 13.8066877,18.8631767 C13.6735858,18.3634631 13.3491892,17.9454637 12.9600178,17.7721578 C12.8053939,17.7033518 12.5216383,17.5770764 12.1806301,17.6708008 C12.253345,17.3488828 12.3794471,16.9853221 12.5162056,16.5916798 L12.5735626,16.4261188 C12.6381285,16.2394557 12.7192016,16.046058 12.8048715,15.8413236 C13.2680117,14.7359373 13.9022828,13.2218679 13.2138934,9.80143369 C12.9560477,8.52027213 12.0949601,7.8946199 10.7896424,8.03997685 C10.0071205,8.12696653 9.29114943,8.46617016 8.93405196,8.66069031 C8.85726242,8.70244536 8.78705484,8.74285347 8.72144419,8.78213913 C8.82111388,7.49132452 9.1976438,5.07896038 10.6061833,3.55265629 C11.4930764,2.59184124 12.6741726,2.11727044 14.113219,2.14286225 C16.9486858,2.19269892 18.7669785,3.75604378 19.7931374,5.05886857 C20.6774186,6.1814283 21.1562301,7.31229415 21.3473159,7.92223211 C19.9102545,7.76520171 18.9328856,8.0699462 18.4374625,8.8309656 C17.3595882,10.4863512 19.0271226,13.6992448 19.8285546,15.2433958 C19.9755518,15.5263649 20.1023851,15.7709462 20.1422948,15.8748848 C20.4032747,16.5544145 20.7411487,17.0081078 20.9878155,17.3392298 C21.0634558,17.440699 21.1367976,17.5391377 21.1925876,17.6251172 C20.7573424,17.7599231 19.9755518,18.0714023 20.0468041,19.6283492 C19.9893425,20.4095726 19.5807386,24.06718 19.3731457,25.3594538 C19.0991063,27.0666964 18.5143565,27.7025629 16.8702246,28.081389 L16.8702246,28.0812767 Z M23.9854283,19.33337 C23.5403624,19.5552779 22.7955561,19.7217368 22.0880476,19.7575429 C21.3065704,19.7968286 20.9087275,19.6634818 20.8151174,19.5814309 C20.7712376,18.6111873 21.1073355,18.5098303 21.4630748,18.4025243 C21.5189692,18.3856876 21.5735055,18.3691876 21.6261612,18.3494325 C21.658862,18.3780549 21.6946971,18.4064529 21.7339799,18.4342896 C22.362087,18.8796767 23.4823785,18.9277175 25.064034,18.5769526 L25.081377,18.5732486 C24.8680379,18.7875238 24.5030002,19.0750948 23.9854283,19.33337 Z" id="Shape" fill="#FFFFFF" fill-rule="nonzero"></path>
                    </g>
                </g>
            </g>
        </g>
    </g>
</svg>