<?xml version="1.0" encoding="UTF-8"?>
<svg width="30px" height="30px" viewBox="0 0 61 57" version="1.1" xmlns="http://www.w3.org/2000/svg" xmlns:xlink="http://www.w3.org/1999/xlink">
    <title>React JS</title>
    <desc>Logo React JS</desc>
    <g id="website" stroke="none" stroke-width="1" fill="none" fill-rule="evenodd">
        <g id="index" transform="translate(-733.000000, -2577.000000)" fill="#61DAFB">
            <g id="Footer" transform="translate(648.000000, 2328.500000) scale(-1, 1) translate(-648.000000, -2328.500000) translate(-1349.000000, 1896.000000)">
                <g id="icones" transform="translate(1749.000000, 681.000000)">
                    <g id="react" transform="translate(132.500000, 28.500000) scale(-1, 1) translate(-132.500000, -28.500000) translate(102.000000, 0.000000)">
                        <path d="M61,28.5065232 C61,24.2664225 55.9394619,20.2481117 48.180799,17.7562371 C49.9712597,9.4586862 49.1754994,2.85717556 45.6691806,0.743648432 C44.8609865,0.247882811 43.9160212,0.0130464637 42.8840196,0.0130464637 L42.8840196,2.92240787 C43.4559723,2.92240787 43.9160212,3.03982605 44.3014676,3.26161593 C45.9924582,4.2792401 46.7260497,8.15403983 46.154097,13.137789 C46.0173257,14.3641566 45.7935181,15.6557565 45.5199755,16.9734493 C43.0829596,16.347219 40.4221362,15.8644999 37.6245414,15.5513848 C35.9459845,13.137789 34.2052589,10.9459831 32.4520995,9.0281529 C36.5055035,5.07507439 40.3102324,2.90936141 42.8964533,2.90936141 L42.8964533,0 C39.4771708,0 35.0010192,2.55710689 30.4751325,6.99290455 C25.9492458,2.58319982 21.4730942,0.0521858549 18.0538117,0.0521858549 L18.0538117,2.96154726 C20.6275989,2.96154726 24.4447615,5.11421378 28.4981655,9.04119936 C26.7574399,10.9590295 25.0167142,13.137789 23.3630249,15.5513848 C20.5529963,15.8644999 17.8921728,16.347219 15.455157,16.9864958 C15.1691806,15.6818494 14.9578068,14.4163424 14.8086017,13.2030213 C14.2242152,8.21927214 14.945373,4.34447242 16.6239299,3.31380179 C16.9969425,3.07896544 17.4818589,2.97459373 18.0538117,2.97459373 L18.0538117,0.0652323186 C17.0093763,0.0652323186 16.0644109,0.300068666 15.2437831,0.795834287 C11.7498981,2.90936141 10.9665715,9.49782559 12.769466,17.7692836 C5.03567061,20.2742046 0,24.279469 0,28.5065232 C0,32.7466239 5.06053812,36.7649348 12.819201,39.2568093 C11.0287403,47.5543603 11.8245006,54.1558709 15.3308194,56.269398 C16.1390135,56.7651637 17.0839788,57 18.1284142,57 C21.5476967,57 26.0238483,54.4428931 30.549735,50.0070954 C35.0756217,54.4168002 39.5517733,56.9478141 42.9710558,56.9478141 C44.0154912,56.9478141 44.9604566,56.7129778 45.7810844,56.2172122 C49.2749694,54.1036851 50.058296,47.5152209 48.2554015,39.2437629 C55.9643294,36.7518883 61,32.7335775 61,28.5065232 Z M44.8112515,19.8045319 C44.3512026,21.4875257 43.7792499,23.2227054 43.1326947,24.9578851 C42.6229107,23.914168 42.0882593,22.8704509 41.5038728,21.8267338 C40.9319201,20.7830167 40.3226661,19.7653925 39.7134121,18.7738613 C41.4790053,19.047837 43.1824297,19.3870451 44.8112515,19.8045319 Z M39.1165919,33.6990158 C38.1467591,35.4602884 37.1520587,37.1302358 36.1200571,38.6827649 C34.2674276,38.852369 32.3899307,38.9436942 30.5,38.9436942 C28.6225031,38.9436942 26.7450061,38.852369 24.9048104,38.6958114 C23.8728088,37.1432822 22.8656747,35.4863813 21.8958418,33.7381552 C20.9508765,32.0290684 20.0929474,30.2938888 19.3096209,28.5456626 C20.0805137,26.7974365 20.9508765,25.0492103 21.8834081,23.3401236 C22.8532409,21.578851 23.8479413,19.9089036 24.8799429,18.3563745 C26.7325724,18.1867704 28.6100693,18.0954452 30.5,18.0954452 C32.3774969,18.0954452 34.2549939,18.1867704 36.0951896,18.343328 C37.1271912,19.8958572 38.1343253,21.5527581 39.1041582,23.3009842 C40.0491235,25.010071 40.9070526,26.7452506 41.6903791,28.4934768 C40.9070526,30.2417029 40.0491235,31.989929 39.1165919,33.6990158 Z M43.1326947,32.0029755 C43.8041174,33.7512016 44.3760701,35.4994278 44.8485528,37.1954681 C43.2197309,37.6129549 41.5038728,37.9652094 39.7258459,38.2391852 C40.3350999,37.2346075 40.9443539,36.2039368 41.5163066,35.1471733 C42.0882593,34.1034562 42.6229107,33.0466926 43.1326947,32.0029755 Z M30.5248675,45.9235523 C29.3685283,44.6710918 28.2121892,43.2751202 27.0682837,41.7486839 C28.1873216,41.8008698 29.3312271,41.8400092 30.4875662,41.8400092 C31.6563392,41.8400092 32.8126784,41.8139162 33.94415,41.7486839 C32.8251121,43.2751202 31.6687729,44.6710918 30.5248675,45.9235523 Z M21.2741541,38.2391852 C19.5085609,37.9652094 17.8051366,37.6260014 16.1763147,37.2085145 C16.6363636,35.5255207 17.2083163,33.790341 17.8548716,32.0551614 C18.3646555,33.0988785 18.899307,34.1425956 19.4836934,35.1863127 C20.0680799,36.2300298 20.6649001,37.2476539 21.2741541,38.2391852 Z M30.4626987,11.0894942 C31.6190379,12.3419547 32.7753771,13.7379263 33.9192825,15.2643626 C32.8002446,15.2121767 31.6563392,15.1730373 30.5,15.1730373 C29.3312271,15.1730373 28.1748879,15.1991302 27.0434162,15.2643626 C28.1624541,13.7379263 29.3187933,12.3419547 30.4626987,11.0894942 Z M21.2617203,18.7738613 C20.6524664,19.778439 20.0432124,20.8091096 19.4712597,21.8658732 C18.899307,22.9095903 18.3646555,23.9533074 17.8548716,24.9970245 C17.1834488,23.2487984 16.6114961,21.5005722 16.1390135,19.8045319 C17.7678353,19.4000916 19.4836934,19.047837 21.2617203,18.7738613 Z M10.0091724,35.1080339 C5.60762332,33.1380179 2.76029352,30.554818 2.76029352,28.5065232 C2.76029352,26.4582284 5.60762332,23.8619821 10.0091724,21.9050126 C11.0784753,21.4222934 12.2472483,20.9917601 13.4533225,20.5873198 C14.1620465,23.1444266 15.0945781,25.8059052 16.2509172,28.5326162 C15.1070118,31.2462806 14.186914,33.8947127 13.4906237,36.4387732 C12.259682,36.0343328 11.0909091,35.590753 10.0091724,35.1080339 Z M16.6985324,53.7514305 C15.0075418,52.7338064 14.2739503,48.8590066 14.845903,43.8752575 C14.9826743,42.6488899 15.2064819,41.35729 15.4800245,40.0395972 C17.9170404,40.6658274 20.5778638,41.1485466 23.3754586,41.4616617 C25.0540155,43.8752575 26.7947411,46.0670634 28.5479005,47.9848936 C24.4944965,51.9379721 20.6897676,54.1036851 18.1035467,54.1036851 C17.5440277,54.0906386 17.071545,53.9732204 16.6985324,53.7514305 Z M46.1913983,43.8100252 C46.7757848,48.7937743 46.054627,52.668574 44.3760701,53.6992447 C44.0030575,53.934081 43.5181411,54.0384527 42.9461883,54.0384527 C40.3724011,54.0384527 36.5552385,51.8857862 32.5018345,47.9588006 C34.2425601,46.0409705 35.9832858,43.862211 37.6369751,41.4486152 C40.4470037,41.1355001 43.1078272,40.652781 45.544843,40.0135042 C45.8308194,41.3311971 46.054627,42.5967041 46.1913983,43.8100252 Z M50.9783938,35.1080339 C49.9090909,35.590753 48.740318,36.0212863 47.5342438,36.4257267 C46.8255198,33.8686198 45.8929882,31.2071412 44.736649,28.4804303 C45.8805544,25.7667659 46.8006523,23.1183337 47.4969425,20.5742733 C48.7278842,20.9787137 49.8966572,21.4222934 50.9908276,21.9050126 C55.3923767,23.8750286 58.2397065,26.4582284 58.2397065,28.5065232 C58.2272727,30.554818 55.3799429,33.1510643 50.9783938,35.1080339 Z" id="Shape" fill-rule="nonzero"></path>
                        <ellipse id="Oval" cx="30.5" cy="29" rx="5.71875" ry="6"></ellipse>
                    </g>
                </g>
            </g>
        </g>
    </g>
</svg>