<?xml version="1.0" encoding="UTF-8"?>
<svg width="32px" height="30px" viewBox="0 0 32 30" version="1.1" xmlns="http://www.w3.org/2000/svg" xmlns:xlink="http://www.w3.org/1999/xlink">
    <!-- Generator: Sketch 52.6 (67491) - http://www.bohemiancoding.com/sketch -->
    <title>sketch</title>
    <desc>Created with Sketch.</desc>
    <g id="website" stroke="none" stroke-width="1" fill="none" fill-rule="evenodd">
        <g id="index" transform="translate(-675.000000, -2662.000000)">
            <g id="Footer" transform="translate(648.000000, 2328.500000) scale(-1, 1) translate(-648.000000, -2328.500000) translate(-1349.000000, 1896.000000)">
                <g id="icones" transform="translate(1749.000000, 681.000000)">
                    <g id="sketch" transform="translate(205.000000, 100.000000) scale(-1, 1) translate(-205.000000, -100.000000) translate(189.000000, 85.000000)">
                        <g id="a-link" transform="translate(0.000000, 11.000000)" fill="#EA6C00">
                            <polygon id="a" points="6.57024242 0 16.2207475 19 0 0"></polygon>
                        </g>
                        <g id="b-link" transform="translate(23.500000, 20.500000) scale(-1, 1) translate(-23.500000, -20.500000) translate(15.000000, 11.000000)" fill="#EA6C00">
                            <polygon id="b" points="6.57024242 0 16.2207475 19 0 0"></polygon>
                        </g>
                        <g id="c-link" transform="translate(6.787879, 11.000000)" fill="#FDAD00">
                            <polygon id="c" points="0 0 19.1217438 0 9.56087188 19"></polygon>
                        </g>
                        <g id="d-link" transform="translate(6.787879, 0.000000)" fill="#FDD231">
                            <polygon id="d" points="9.39602926 0 0.494545455 0.998516129 0 10.8158387"></polygon>
                        </g>
                        <g id="e-link" transform="translate(20.212121, 5.500000) scale(-1, 1) translate(-20.212121, -5.500000) translate(15.212121, 0.000000)" fill="#FDD231">
                            <polygon id="e" points="9.39602926 0 0.494545455 0.998516129 0 10.8158387"></polygon>
                        </g>
                        <g id="f-link" transform="translate(28.500000, 6.000000) scale(-1, 1) translate(-28.500000, -6.000000) translate(25.000000, 1.000000)" fill="#FDAD00">
                            <polygon id="f" points="0 9.88107143 6.66181818 0 6.18375758 9.88107143"></polygon>
                        </g>
                        <g id="g-link" transform="translate(0.000000, 1.000000)" fill="#FDAD00">
                            <polygon id="g" points="0 9.88107143 6.66181818 0 6.18375758 9.88107143"></polygon>
                        </g>
                        <g id="h-link" transform="translate(6.787879, 0.000000)" fill="#FEEEB7">
                            <polygon id="h" points="9.56087188 0 0 10.8158387 19.1217438 10.8158387"></polygon>
                        </g>
                    </g>
                </g>
            </g>
        </g>
    </g>
</svg>