<?xml version="1.0" encoding="UTF-8"?>
<svg width="29px" height="30px" viewBox="0 0 29 30" version="1.1" xmlns="http://www.w3.org/2000/svg" xmlns:xlink="http://www.w3.org/1999/xlink">
    <!-- Generator: Sketch 52.6 (67491) - http://www.bohemiancoding.com/sketch -->
    <title>typescript</title>
    <desc>Created with Sketch.</desc>
    <g id="website" stroke="none" stroke-width="1" fill="none" fill-rule="evenodd">
        <g id="index" transform="translate(-605.000000, -2662.000000)">
            <g id="Footer" transform="translate(648.000000, 2328.500000) scale(-1, 1) translate(-648.000000, -2328.500000) translate(-1349.000000, 1896.000000)">
                <g id="icones" transform="translate(1749.000000, 681.000000)">
                    <g id="typescript" transform="translate(276.500000, 100.000000) scale(-1, 1) translate(-276.500000, -100.000000) translate(262.000000, 85.000000)">
                        <polyline id="Path" fill="#007ACC" points="0 15 0 0 29 0 29 30 0 30"></polyline>
                        <path d="M6.76666667,15.4125931 L6.76666667,16.6456378 L10.5425863,16.6456378 L10.5425863,27.8413807 L13.2220369,27.8413807 L13.2220369,16.6456378 L16.9979565,16.6456378 L16.9979565,15.4352872 C16.9979565,14.754465 16.9979565,14.2022425 16.9689109,14.1871131 C16.9689109,14.1644191 14.6670523,14.1568544 11.8714195,14.1568544 L6.78845082,14.1795484 L6.78845082,15.4201578 L6.76666667,15.4125931 Z M23.7365207,14.1492897 C24.4771818,14.3308423 25.0435698,14.6788181 25.5518666,15.2310405 C25.8205378,15.5336282 26.2199139,16.0631565 26.2489595,16.199321 C26.2489595,16.2447091 24.9927401,17.129778 24.2302948,17.6214829 C24.2012492,17.644177 24.0850671,17.5155772 23.9688849,17.3188953 C23.591293,16.7591081 23.2064396,16.517038 22.6037448,16.4716499 C21.7323787,16.4111323 21.151468,16.8877079 21.151468,17.6820004 C21.151468,17.9240706 21.1950363,18.060235 21.2821729,18.256917 C21.4782303,18.672975 21.8412995,18.9226098 22.966814,19.4370088 C25.0435698,20.3674658 25.9439813,20.9802058 26.4885851,21.85771 C27.1058028,22.8411198 27.2437691,24.3843168 26.8298702,25.5417146 C26.3651416,26.805018 25.2323657,27.6598281 23.6130771,27.9397217 C23.1047803,28.030498 21.9429589,28.0153686 21.3983551,27.9170276 C20.2365337,27.6900869 19.1255419,27.0849116 18.4429719,26.3057484 C18.1743007,26.0031607 17.6587424,25.1937388 17.6877879,25.1407859 L17.9637205,24.9592334 L19.0529281,24.3011052 L19.8734645,23.8018356 L20.0622604,24.0665998 C20.3018861,24.4599637 20.8392285,24.9894921 21.151468,25.1710447 C22.0954479,25.677879 23.3589287,25.6097968 23.9834077,25.0197509 C24.2520789,24.7625514 24.3682611,24.4902225 24.3682611,24.1119879 C24.3682611,23.7640122 24.3174314,23.6051536 24.1504195,23.3403894 C23.9180553,23.007543 23.4533267,22.7352142 22.1462776,22.1300389 C20.6431712,21.464346 20.0041694,21.0407233 19.4087359,20.3901599 C19.0674509,19.9967959 18.7552114,19.384056 18.6099837,18.8772217 C18.5010629,18.4384696 18.464756,17.3642834 18.5664154,16.933096 C18.8786549,15.4201578 19.9751238,14.361101 21.5435827,14.0585134 C22.0518796,13.9526077 23.2500079,13.9979958 23.7510434,14.1341603 L23.7365207,14.1492897 Z" id="Shape" fill="#FFFFFF" fill-rule="nonzero"></path>
                    </g>
                </g>
            </g>
        </g>
    </g>
</svg>