<?xml version="1.0" encoding="UTF-8"?>
<svg width="29px" height="30px" viewBox="0 0 29 30" version="1.1" xmlns="http://www.w3.org/2000/svg" xmlns:xlink="http://www.w3.org/1999/xlink">
    <!-- Generator: Sketch 52.6 (67491) - http://www.bohemiancoding.com/sketch -->
    <title>vscode</title>
    <desc>Created with Sketch.</desc>
    <g id="website" stroke="none" stroke-width="1" fill="none" fill-rule="evenodd">
        <g id="index" transform="translate(-642.000000, -2662.000000)">
            <g id="Footer" transform="translate(648.000000, 2328.500000) scale(-1, 1) translate(-648.000000, -2328.500000) translate(-1349.000000, 1896.000000)">
                <g id="icones" transform="translate(1749.000000, 681.000000)">
                    <g id="vscode" transform="translate(239.500000, 100.000000) scale(-1, 1) translate(-239.500000, -100.000000) translate(225.000000, 85.000000)">
                        <path d="M0.281681814,10.4602198 C0.281681814,10.4602198 -0.439423629,9.91701283 0.425902902,9.19169021 L2.44199354,7.30773533 C2.44199354,7.30773533 3.01887789,6.67347052 3.62881291,7.22609729 L22.2333333,21.9460647 L22.2333333,29.0046157 C22.2333333,29.0046157 22.2243195,30.1130091 20.863233,29.990552 L0.281681814,10.4602198 Z" id="Path" fill="#2489CA"></path>
                        <path d="M4.93537788,15 L0.215553122,19.5668504 C0.215553122,19.5668504 -0.269441402,19.9508309 0.215553122,20.6369601 L2.40690033,22.7582951 C2.40690033,22.7582951 2.92738226,23.3531502 3.69627601,22.6764632 L8.7,18.6383729 L4.93537788,15 Z" id="Path" fill="#1070B3"></path>
                        <path d="M13.0120362,15 L21.2666667,7.98385101 L21.2130835,0.964562803 C21.2130835,0.964562803 20.8605625,-0.567374874 19.6845527,0.22998613 L8.7,11.3585088 L13.0120362,15 Z" id="Path" fill="#0877B9"></path>
                        <path d="M20.5497354,29.6124531 C21.0433984,30.1479302 21.6416018,29.9725153 21.6416018,29.9725153 L28.2653977,26.513456 C29.1133366,25.9010425 28.9942767,25.1409111 28.9942767,25.1409111 L28.9942767,4.48503401 C28.9942767,3.57718482 28.1172988,3.26328443 28.1172988,3.26328443 L22.3762885,0.330469931 C21.1218037,-0.49121052 20.3,0.478187765 20.3,0.478187765 C20.3,0.478187765 21.3570196,-0.328105412 21.8739138,1.19831221 L21.8739138,28.5107242 C21.8739138,28.698449 21.8361631,28.8830963 21.7606617,29.0492788 C21.6096589,29.3724116 21.2815182,29.6740022 20.4945613,29.5478265 L20.5497354,29.6124531 Z" id="Path" fill="#3C99D4"></path>
                    </g>
                </g>
            </g>
        </g>
    </g>
</svg>