<?xml version="1.0" encoding="UTF-8"?>
<svg width="840px" height="375px" viewBox="0 0 840 375" version="1.1" xmlns="http://www.w3.org/2000/svg" xmlns:xlink="http://www.w3.org/1999/xlink">
    <!-- Generator: Sketch 52.6 (67491) - http://www.bohemiancoding.com/sketch -->
    <title>Group 7</title>
    <desc>Created with Sketch.</desc>
    <g id="website" stroke="none" stroke-width="1" fill="none" fill-rule="evenodd">
        <g id="index" transform="translate(-83.000000, -252.000000)">
            <g id="Group-6" transform="translate(83.000000, 180.000000)">
                <g id="Group-7" transform="translate(0.000000, 72.000000)">
                    <g id="Ilustração">
                        <polygon id="Path" fill="#E7E6E7" points="458 313 381 313 392.13165 262 446.867284 262"></polygon>
                        <path d="M475.289917,318 L365.709548,318 C359.89532,318 359,311 359,311 L482,311 C482,311 481.10468,318 475.289917,318 Z" id="Path" fill="#BBBDBF"></path>
                        <path d="M565,251.428421 C565,258.371296 559.291436,264 552.244385,264 L288.757748,264 C281.710697,264 276,258.371296 276,251.428421 L276,100.573155 C276,93.6297552 281.710164,88 288.757748,88 L552.244385,88 C559.291436,88 565,93.6297552 565,100.573155 L565,251.428421 Z" id="Path" fill="#FFFFFF"></path>
                        <path d="M276,247 L276,272.195251 C276,279.267968 281.710164,285 288.757748,285 L552.244385,285 C559.291436,285 565,279.267968 565,272.195251 L565,247 L276,247 Z" id="Path" fill="#BBBDBF"></path>
                        <rect id="Rectangle" fill="#B3D451" x="285" y="99" width="271" height="138"></rect>
                        <circle id="Oval" fill="#FFFFFF" cx="420" cy="266" r="9"></circle>
                        <g id="Group" opacity="0.1" transform="translate(368.000000, 87.000000)" fill="#FFFFFF">
                            <path d="M183.697336,0.10242236 L0.258333906,0.10242236 L121.517488,149.558292 L183.697336,149.558292 C190.765416,149.558292 196.491015,145.297205 196.491015,140.037236 L196.491015,123.879845 L196.491015,121.301335 L196.491015,9.62400621 C196.491015,4.36509317 190.765416,0.10242236 183.697336,0.10242236 Z" id="Path"></path>
                        </g>
                        <path d="M232.335235,330 C228.834324,330 226,327.17034 226,323.675845 L226,196.324155 C226,192.832313 228.834324,190 232.335235,190 L317.66317,190 C321.162486,190 324,192.832313 324,196.324155 L324,323.675845 C324,327.17034 321.163018,330 317.66317,330 L232.335235,330 Z" id="Path" fill="#FFFFFF"></path>
                        <g id="Group" opacity="0.2" transform="translate(472.000000, 160.000000)">
                            <path d="M35.5037918,15.2995582 C39.2928413,13.6168569 42.8924257,12.0361859 46.2817184,10.5376367 C50.2385835,11.85063 54.416122,13.2419165 58.8560504,14.7106032 C55.5207551,16.4591551 51.9695972,18.3454702 48.1949174,20.3488744 C43.6992193,18.5466592 39.4663541,16.8567476 35.5037918,15.2995582" id="Fill-322" fill="#262626"></path>
                            <path d="M10.0016449,15.9268623 C14.5027238,14.226805 18.7601504,12.6511749 22.7927257,11.129846 C26.0442082,12.4600038 29.516744,13.8616274 33.1760862,15.349329 C29.0876779,17.1160665 24.7283339,19.0150795 20.1185009,21.0318835 C16.526133,19.2006992 13.170011,17.5031943 10.0016449,15.9268623" id="Fill-323" fill="#262626"></path>
                            <path d="M23.9536981,10.6899483 C27.7151477,9.28692089 31.2863725,7.95133937 34.6875028,6.66852771 C37.974878,7.78167183 41.4689367,8.93852497 45.1424587,10.1607183 C41.7458229,11.6315744 38.1525055,13.1979523 34.3623798,14.8251399 C30.6902504,13.3795521 27.2389211,11.9984111 23.9536981,10.6899483" id="Fill-324" fill="#262626"></path>
                            <path d="M21.2414285,21.5835104 C25.8713918,19.545458 30.2364963,17.6044588 34.3379449,15.8092627 C38.2813266,17.4297504 42.5145082,19.1335724 47.0243862,20.9564615 C42.9317367,23.1209829 38.5487174,25.4531937 33.8742523,27.9179353 C29.3607661,25.6696969 25.1522092,23.553415 21.2414285,21.5835104" id="Fill-325" fill="#262626"></path>
                            <path d="M35.6722404,6.30973096 C38.8495954,5.11631539 41.8911661,3.96788502 44.7834055,2.88587958 C48.0800862,3.81034114 51.5488238,4.77946886 55.1765779,5.80053691 C52.3157367,7.05616603 49.2984743,8.35741843 46.1258037,9.73906989 C42.4589285,8.51674895 38.9725294,7.38752502 35.6722404,6.30973096" id="Fill-326" fill="#262626"></path>
                            <path d="M21.409244,36.8928313 C21.5766798,41.0257896 21.7408238,45.0264086 21.8945862,48.8736312 C25.4579614,51.4940024 29.2509991,54.2689824 33.2878789,57.219564 C33.3056037,53.0959856 33.3199734,48.8331126 33.3309247,44.4235432 C29.0882477,41.7502107 25.1101762,39.2586694 21.409244,36.8928313" id="Fill-327" fill="#262626"></path>
                            <path d="M9.58783483,16.6695326 C9.91517339,20.8962261 10.2460569,24.9903248 10.5537715,28.9735239 C13.6060404,30.8526924 16.8458753,32.8388683 20.2810624,34.9808013 C20.0833679,30.730052 19.8891551,26.3326063 19.6846238,21.795866 C16.0994092,19.9784644 12.7431605,18.2740682 9.58783483,16.6695326" id="Fill-328" fill="#262626"></path>
                            <path d="M10.6571449,30.143075 C10.9677715,33.9586485 11.2487725,37.6912067 11.5408513,41.3117806 C14.4827835,43.4448442 17.5858844,45.7274756 20.8700312,48.1381712 C20.7027854,44.2982228 20.5188275,40.3330816 20.3317046,36.2353457 C16.9165844,34.078928 13.7031468,32.0502556 10.6571449,30.143075" id="Fill-329" fill="#262626"></path>
                            <path d="M20.8081211,22.3685498 C20.9997386,26.9403211 21.1809743,31.3659703 21.3451816,35.6456888 C25.0859945,37.9616283 29.0771064,40.4317937 33.3326972,43.0700953 C33.3524477,38.4581244 33.3818835,33.6784642 33.3937211,28.7389629 C28.907012,26.4550553 24.7052285,24.3456647 20.8081211,22.3685498" id="Fill-330" fill="#262626"></path>
                            <path d="M1.75418257,24.5202456 C2.15488899,28.0962809 2.53274312,31.5824734 2.92249816,34.9843746 C5.36971927,36.7738279 7.96405596,38.6919836 10.6971523,40.6835832 C10.3981734,37.0700921 10.0974854,33.3798391 9.76672848,29.5785588 C6.95671927,27.8051214 4.29255963,26.1119555 1.75418257,24.5202456" id="Fill-331" fill="#262626"></path>
                            <path d="M46.6790064,36.2852441 C46.4692211,40.3994427 46.2636138,44.4020397 46.0617413,48.272042 C42.3264991,51.0627827 38.3491871,54.033847 34.1032184,57.2277316 C34.1139798,53.1042807 34.1427193,48.8618904 34.1669642,44.4382192 C38.6321504,41.5319209 42.8007633,38.821324 46.6790064,36.2852441" id="Fill-332" fill="#262626"></path>
                            <path d="M59.1962395,15.476819 C58.8115487,19.713977 58.4440129,23.8251127 58.0664753,27.7969539 C54.8682936,29.8350701 51.4812165,32.0034199 47.8647303,34.3099158 C48.1119908,30.0412362 48.3630496,25.6539361 48.5967,21.1065398 C52.364733,19.1173011 55.8891771,17.2524896 59.1962395,15.476819" id="Fill-333" fill="#262626"></path>
                            <path d="M57.9640513,28.9574441 C57.617722,32.8030715 57.2681642,36.5160405 56.944244,40.1516732 C53.8684899,42.4451521 50.6044101,44.882456 47.1521945,47.4711142 C47.3476101,43.6152136 47.5815771,39.6539009 47.7990854,35.5742229 C51.4077854,33.2261237 54.780556,31.0371636 57.9640513,28.9574441" id="Fill-334" fill="#262626"></path>
                            <path d="M47.4337019,21.74182 C47.1868211,26.3105284 46.9574753,30.7461318 46.7448413,35.0348473 C42.8317816,37.5439361 38.641456,40.2062935 34.1757,43.0914074 C34.1886771,38.479628 34.2180496,33.7000315 34.2369138,28.760275 C38.9375229,26.2459539 43.3344055,23.9135517 47.4337019,21.74182" id="Fill-335" fill="#262626"></path>
                            <path d="M56.853088,41.2142808 C56.5189762,44.7108103 56.2103753,48.1298761 55.9058257,51.4370212 C52.9384459,53.9580422 49.7892605,56.608914 46.4717532,59.3895091 C46.6757779,55.8962976 46.8706238,52.3057139 47.0832578,48.5959992 C50.5285101,46.0005772 53.7713835,43.5426631 56.853088,41.2142808" id="Fill-336" fill="#262626"></path>
                            <path d="M47.2749386,10.2457116 C50.4405826,8.850086 53.4503753,7.5212044 56.304,6.25179259 C60.1937642,7.34324172 64.276412,8.48580169 68.628033,9.70544266 C65.8269496,11.161878 62.9114146,12.7049019 59.8129981,14.3360456 C55.3738294,12.8951796 51.2100275,11.5174843 47.2749386,10.2457116" id="Fill-337" fill="#B2DD4C"></path>
                            <path d="M0.796475229,11.4180064 C5.11961009,10.0082153 9.25910366,8.65872348 13.1946358,7.3699776 C15.9271624,8.48963022 18.8116156,9.64737668 21.8414753,10.8853308 C17.8216871,12.3642906 13.5709073,13.932838 9.08938902,15.59059 C6.15657247,14.1271357 3.38315229,12.7363596 0.796475229,11.4180064" id="Fill-338" fill="#B2DD4C"></path>
                            <path d="M14.3227541,6.99376105 C18.0136844,5.79473031 21.5278101,4.6489161 24.8855146,3.54866135 C27.6893202,4.48505516 30.6308725,5.46700843 33.7378981,6.48680031 C30.336388,7.75544643 26.7578202,9.07041771 23.0165009,10.4589605 C19.9731578,9.24238237 17.0755376,8.09892908 14.3227541,6.99376105" id="Fill-339" fill="#9AC03E"></path>
                            <path d="M25.8643652,3.23172315 C29.0250715,2.19910571 32.0565138,1.20451829 34.9509055,0.213312743 C37.7724358,1.03753072 40.7380431,1.87246857 43.8212037,2.75315732 C40.9354211,3.82807998 37.8935972,4.95551727 34.7158624,6.13495871 C31.6158,5.11523064 28.6744376,4.14712387 25.8643652,3.23172315" id="Fill-340" fill="#829F3D"></path>
                            <path d="M21.9529513,50.1672265 C22.1174753,53.8887458 22.2585138,57.4921551 22.3974,61.0049559 C25.7942257,63.824602 29.4146367,66.8340154 33.2442633,69.9919118 C33.2659762,66.3217585 33.2702807,62.4985918 33.2785101,58.5497218 C29.2685339,55.5775728 25.4954367,52.7810893 21.9529513,50.1672265" id="Fill-341" fill="#B2DD4C"></path>
                            <path d="M0.417544954,12.1876041 C0.805084402,16.0711977 1.23180826,19.8699257 1.63593303,23.5856384 C4.18019725,25.1351708 6.85746055,26.8003246 9.67342018,28.5458137 C9.33930822,24.6050474 9.02260456,20.5315589 8.66931196,16.3542535 C5.73630551,14.8837164 2.98333211,13.4857299 0.417544954,12.1876041" id="Fill-342" fill="#B2DD4C"></path>
                            <path d="M11.631311,42.5138741 C11.9067413,46.0094466 12.1800193,49.4073916 12.4441816,52.7147282 C15.2818541,55.0805662 18.2661358,57.5473497 21.4253862,60.1774199 C21.2665596,56.6930778 21.0984275,53.1042807 20.9344101,49.3967355 C17.6429202,46.9652383 14.5601395,44.6751412 11.631311,42.5138741" id="Fill-343" fill="#9AC03E"></path>
                            <path d="M3.02498532,36.1164699 C3.38454496,39.4077267 3.74239541,42.62203 4.0986,45.766718 C6.48169541,47.7389835 8.98405321,49.8268705 11.6332734,52.0367599 C11.3555009,48.7366975 11.075956,45.3529181 10.7805854,41.8858682 C8.06059268,39.8660651 5.47328257,37.9475266 3.02498532,36.1164699" id="Fill-344" fill="#829F3D"></path>
                            <path d="M46.0031862,49.5544708 C45.8182156,53.270375 45.6378661,56.8956069 45.4410578,60.4096839 C41.8757202,63.4194163 38.0821762,66.6301463 34.0389661,70.0005898 C34.0608688,66.3373279 34.0924569,62.5065679 34.1149294,58.5781167 C38.3262082,55.3641324 42.2961771,52.3724579 46.0031862,49.5544708" id="Fill-345" fill="#B2DD4C"></path>
                            <path d="M68.8806743,10.5224503 C68.3714037,14.4348216 67.9005578,18.2344429 67.4417395,21.9572384 C64.7831504,23.6473415 61.9628862,25.4461109 59.0072807,27.3248966 C59.3719046,23.3812589 59.7607734,19.3115351 60.1607202,15.1228717 C63.2112165,13.4928126 66.1133312,11.9642096 68.8806743,10.5224503" id="Fill-346" fill="#B2DD4C"></path>
                            <path d="M67.2963963,23.0421152 C66.8614431,26.6176401 66.4244642,30.1165306 66.0129963,33.5310659 C63.4283449,35.4496044 60.7028449,37.4902729 57.8359266,39.6251232 C58.1808,36.0097816 58.5305477,32.3038317 58.8915633,28.4998714 C61.839256,26.579291 64.6524936,24.7736302 67.2963963,23.0421152" id="Fill-347" fill="#9AC03E"></path>
                            <path d="M64.6995275,44.1951078 C62.1812174,46.3075612 59.5490257,48.5203858 56.7822523,50.8480662 C57.0873082,47.5615313 57.4172422,44.1770499 57.737744,40.6809032 C60.5906725,38.5255703 63.3088294,36.4641639 65.8931642,34.5316513 C65.4854945,37.8205471 65.0830156,41.0393809 64.6995275,44.1951078 Z" id="Fill-348" fill="#829F3D"></path>
                        </g>
                        <rect id="Rectangle" fill="#B3D451" x="233" y="204" width="85" height="112"></rect>
                        <path d="M282,197.499141 C282,198.881511 280.954594,200 279.666132,200 L272.332799,200 C271.042201,200 270,198.881511 270,197.499141 C270,196.119061 271.042201,195 272.332799,195 L279.666132,195 C280.955128,194.999428 282,196.118489 282,197.499141 Z" id="Path" fill="#E6E6E6"></path>
                        <path d="M314.537777,330 L317.65477,330 C321.158725,330 324,327.169257 324,323.676858 L324,196.324203 C324,192.831804 321.159257,190 317.65477,190 L232.214257,190 C231.433944,190 230.689294,190.146445 230,190.403785 L314.537777,330 Z" id="Path" fill="#FFFFFF" opacity="0.1"></path>
                        <path d="M238,349.424904 C238,352.504501 235.484801,355 232.381017,355 L186.615255,355 C183.512536,355 181,352.504501 181,349.424904 L181,262.575096 C181,259.497613 183.513069,257 186.615255,257 L232.381017,257 C235.484801,257 238,259.497613 238,262.575096 L238,349.424904 Z" id="Path" fill="#FFFFFF"></path>
                        <rect id="Rectangle" fill="#B3D451" x="184" y="270" width="50" height="71"></rect>
                        <path d="M215,264.000461 C215,265.105627 213.955376,266 212.667204,266 L205.334409,266 C204.044624,266 203,265.106089 203,264.000461 C203,262.895295 204.044624,262 205.334409,262 L212.667204,262 C213.955376,262 215,262.894834 215,264.000461 Z" id="Path" fill="#E6E6E6"></path>
                        <path d="M236.368107,351 C236.768754,350.236489 237,349.371459 237,348.451439 L237,261.576696 C237,258.49833 234.460596,256 231.328018,256 L185.121831,256 C182.856695,256 180.907237,257.310764 180,259.197334 C193.958315,281.930234 204.427051,298.979909 211.406209,310.346359 C216.953297,319.380502 225.27393,332.931715 236.368107,351 Z" id="Path" fill="#FFFFFF" opacity="0.1"></path>
                        <path d="M694,347 L694,216.278647 C694,210.050141 688.924544,205 682.659153,205 L493.342445,205 C487.077586,205 482,210.050141 482,216.278647 L482,347 L694,347 Z" id="Path" fill="#FFFFFF"></path>
                        <path d="M715.128631,354 L469.869244,354 C464.784584,354 464,347 464,347 L721,347 C721,347 720.21754,354 715.128631,354 Z" id="Path" fill="#BBBDBF"></path>
                        <rect id="Rectangle" fill="#E7E6E7" x="464" y="344" width="257" height="4"></rect>
                        <rect id="Rectangle" fill="#E6E6E6" x="568" y="344" width="50" height="2"></rect>
                        <rect id="Rectangle" fill="#B3D451" x="490" y="215" width="196" height="122"></rect>
                        <path d="M695,345 L695,216.286409 C695,210.053616 689.915005,205 683.636521,205 L553,205 L638.119652,344.99947 L695,345 Z" id="Path" fill="#FFFFFF" opacity="0.1"></path>
                        <polygon id="Path" fill="#B3D451" points="85.6324387 25.5118817 98 58 1 19"></polygon>
                        <polygon id="Path" fill="#FFFFFF" points="0 20.4788271 100 0 84.5790536 27"></polygon>
                        <polygon id="Path" fill="#A0CC3A" points="99 59 80.44333 39.2302676 2 20"></polygon>
                        <polygon id="Path" fill="#FFFFFF" points="1 19 66.3198212 75 79 38.2012446"></polygon>
                        <g id="Group" transform="translate(89.000000, 65.000000)" fill="#E6E6E6">
                            <path d="M21.8011605,3.1489956 C21.933917,3.22923951 22.0795571,3.28824239 22.2352799,3.32777432 C24.1179579,3.79330701 26.0381662,4.33141325 27.9415698,4.92970242 C28.7885228,5.19462534 29.679728,4.68779062 29.9323575,3.79566713 C30.184987,2.90354363 29.708856,1.96244775 28.8563015,1.69811486 C26.8924012,1.08035474 24.9100158,0.525137674 22.9657209,0.0448542576 C22.1053242,-0.167556099 21.2438071,0.394741316 21.0427118,1.30220556 C20.8774663,2.04387172 21.2045963,2.78730797 21.8011605,3.1489956 Z" id="Path"></path>
                            <path d="M18.8596418,136.503585 C18.1334633,135.994312 17.9780577,135.022014 18.5134072,134.330469 C19.049328,133.637836 20.0731768,133.49093 20.7959272,134.000203 C24.0040248,136.250037 27.5840675,138.156546 31.3246579,139.602751 C32.1651052,139.925943 32.5621894,140.832406 32.2233823,141.627329 C31.8845752,142.422252 30.9321444,142.805839 30.0968392,142.482646 C27.9045916,141.63549 25.7569088,140.638708 23.7143533,139.520048 C22.0368868,138.601072 20.4034138,137.586334 18.8596418,136.503585 Z M9.56330049,127.996658 C6.84770157,124.744601 4.64574107,121.176425 3.01798148,117.39442 C2.67574632,116.600585 3.07625859,115.690858 3.9104211,115.365489 C4.74401227,115.04012 5.69872841,115.420987 6.03982089,116.21591 C7.54988358,119.726956 9.59586711,123.039407 12.1194944,126.062944 C12.679983,126.735445 12.5622861,127.713184 11.8578187,128.246941 C11.3178985,128.656101 10.590006,128.687114 10.0266606,128.378613 C9.852972,128.283396 9.695281,128.154989 9.56330049,127.996658 Z M41.1374943,143.894573 C41.2591906,143.043609 42.0819263,142.44728 42.9755086,142.563173 C44.541563,142.76612 46.1304712,142.89235 47.6970969,142.941319 C50.1035986,143.01586 52.5558079,142.886909 54.984592,142.564261 C55.8770317,142.444016 56.702624,143.035991 56.8283197,143.8875 C56.9534441,144.737921 56.3312503,145.524138 55.4382393,145.643295 C52.824911,145.99206 50.1847295,146.128084 47.5925409,146.048102 C45.9139317,145.998045 44.2124687,145.860933 42.5350022,145.644383 C42.3190341,145.616634 42.1190636,145.549711 41.9413756,145.452862 C41.3831723,145.146536 41.0460792,144.539326 41.1374943,143.894573 Z M0.089842524,105.364477 C-0.189544784,101.331644 0.183542971,97.2019616 1.19710756,93.0934993 C1.4045055,92.2561369 2.28266151,91.7387024 3.16024619,91.9340325 C4.03668817,92.1304509 4.58175052,92.9678133 4.37549527,93.8046316 C3.43506274,97.6143857 3.08939951,101.434478 3.34821842,105.159353 C3.40706687,106.015759 2.7260246,106.756816 1.82615751,106.812858 C1.49306385,106.834078 1.17539648,106.758448 0.906293368,106.610999 C0.449218018,106.360171 0.128122585,105.904219 0.089842524,105.364477 Z M65.7150072,141.535377 C65.3687726,140.74263 65.7624288,139.831815 66.5948773,139.503726 C70.229769,138.062962 73.7978134,136.180937 77.1990254,133.908795 C77.9383448,133.415845 78.9559087,133.586691 79.4729752,134.289118 C79.9900417,134.991545 79.8117823,135.961666 79.074177,136.454072 C75.4792794,138.85462 71.7026943,140.847097 67.8495491,142.374372 C67.3627638,142.566981 66.8325564,142.518013 66.4080477,142.28514 C66.1075207,142.120823 65.8589859,141.863466 65.7150072,141.535377 Z M123.691587,171.227736 C124.233793,167.564888 124.584598,163.631624 124.736004,159.537308 C124.768,158.679814 125.522745,158.007857 126.424327,158.03887 C127.32705,158.068796 128.030946,158.788089 127.998951,159.646671 C127.843545,163.849806 127.482456,167.890801 126.924253,171.66138 C126.797986,172.512345 125.972393,173.10432 125.079382,172.984619 C124.866271,172.955782 124.669157,172.889947 124.493755,172.793098 C123.933266,172.486228 123.595601,171.875209 123.691587,171.227736 Z M86.4805117,128.565237 C85.8326074,127.967821 85.8166097,126.984097 86.4439457,126.366549 C89.2492456,123.607986 91.8322927,120.570847 94.1210975,117.340011 C94.6250231,116.62779 95.6317315,116.442254 96.3870486,116.920513 C97.1355094,117.400949 97.3320518,118.366718 96.8269836,119.078939 C94.4324801,122.46049 91.7283081,125.640182 88.7887422,128.530415 C88.2585348,129.052202 87.4363705,129.14361 86.8033212,128.797022 C86.6890523,128.733907 86.5799256,128.656645 86.4805117,128.565237 Z M124.646303,147.766898 C124.461188,143.969658 124.124095,140.013543 123.64588,136.009547 C123.543609,135.157494 124.186943,134.388143 125.083382,134.290206 C125.978678,134.192269 126.787701,134.805464 126.889401,135.659149 C127.376757,139.732246 127.719564,143.756917 127.908107,147.623801 C127.950387,148.480207 127.253918,149.208206 126.352908,149.247381 C126.03067,149.260984 125.725001,149.186987 125.464468,149.043346 C124.99768,148.788165 124.673157,148.317523 124.646303,147.766898 Z M5.77071778,81.6212535 C6.03639282,81.1462584 6.31006669,80.6745279 6.59288206,80.2066061 C8.4423232,77.1428064 10.643141,74.2427794 13.1342017,71.5826983 C13.7335417,70.9428424 14.7625326,70.8906093 15.4390041,71.4575564 C16.1114762,72.0294004 16.1703247,73.0120362 15.5704133,73.6518921 C13.2290448,76.1525533 11.1602075,78.879014 9.42332117,81.756189 C9.15821746,82.1952738 8.90111258,82.6370791 8.65086383,83.0843253 C8.22749778,83.8411616 7.23792965,84.1278997 6.4420472,83.7241811 C6.42604956,83.7165638 6.41119461,83.7094906 6.39576832,83.700785 C5.63530921,83.28292 5.35535055,82.3639433 5.77071778,81.6212535 Z M121.882712,124.317486 C121.22738,120.679666 120.446924,116.915072 119.567054,113.12545 L119.473353,112.736422 C119.266527,111.901236 119.811018,111.064961 120.688031,110.867999 C121.566758,110.670492 122.445486,111.187927 122.651169,112.025289 L122.754583,112.453492 C123.646451,116.290995 124.435477,120.105102 125.100522,123.791346 C125.253071,124.637414 124.656016,125.440499 123.767576,125.587405 C123.377348,125.651064 122.996833,125.576523 122.678594,125.402412 C122.272368,125.179333 121.968413,124.792482 121.882712,124.317486 Z M100.044223,107.180666 C101.71769,103.610858 103.044922,99.9169963 103.99164,96.2019147 C104.20418,95.3678169 105.086335,94.8552793 105.963348,95.0571386 C106.83979,95.2600861 107.377425,96.0996249 107.164885,96.9337227 C106.173032,100.830532 104.779523,104.705033 103.026639,108.446776 C102.659265,109.230817 101.693693,109.583934 100.870958,109.232993 C100.818965,109.211773 100.768687,109.187289 100.720123,109.160628 C100.003086,108.769424 99.6997022,107.915195 100.044223,107.180666 Z M22.3591249,65.6411795 C21.8500572,64.9333117 22.0391722,63.9664547 22.784205,63.4816659 C26.4145259,61.1137639 30.2825261,59.2447971 34.2825068,57.922646 C35.1338096,57.6429811 36.0645293,58.0706399 36.3587715,58.8824298 C36.6552992,59.6942197 36.2039373,60.5794625 35.3514917,60.8613038 C31.6263276,62.092047 28.0188604,63.8364159 24.6279327,66.0470745 C24.0931545,66.3952953 23.418397,66.399104 22.8916177,66.1107336 C22.6853624,65.99865 22.501961,65.8419506 22.3591249,65.6411795 Z M115.10257,102.03407 C113.31312,98.7841902 111.108874,95.4717391 108.55268,92.1913895 C108.016188,91.5003887 108.167594,90.5270025 108.892059,90.015009 C109.615381,89.5046478 110.639229,89.6482889 111.17515,90.3382015 C113.832472,93.749678 116.12699,97.198697 117.994714,100.590042 C118.412938,101.350687 118.104984,102.290339 117.307387,102.688617 C116.793178,102.945974 116.201836,102.91496 115.733905,102.658692 C115.473372,102.516683 115.251691,102.30503 115.10257,102.03407 Z M45.4185763,57.2425271 C45.3774395,56.3855772 46.0744794,55.6586661 46.9760606,55.6205795 C51.1365889,55.4432045 55.4502375,55.7821757 59.7981668,56.6271555 C60.6791795,56.7990895 61.2505237,57.6206732 61.0711217,58.4613002 C60.8900056,59.3041035 60.0284185,59.8460223 59.1445491,59.6740882 C55.0600095,58.8786211 51.0148926,58.5608696 47.122896,58.7262745 C46.8006579,58.740421 46.4967028,58.6642476 46.2367412,58.5216947 C45.7688103,58.2654259 45.4442868,57.7947836 45.4185763,57.2425271 Z M100.614424,83.2557152 C97.7702728,80.4313174 94.7330071,77.7554576 91.587186,75.3048531 C90.8890034,74.760758 90.7867328,73.7808426 91.3575057,73.1170466 C91.9282785,72.4527064 92.9555554,72.3580339 93.6548807,72.8983203 C96.902401,75.4283627 100.037367,78.1907337 102.97179,81.1065395 C103.595698,81.7262638 103.573987,82.711076 102.923226,83.3041397 C102.387305,83.7927371 101.592565,83.8651018 100.980656,83.5304833 C100.848104,83.4575745 100.724694,83.3661665 100.614424,83.2557152 Z M105.703958,84.7367422 C105.874219,80.846462 105.617685,76.968696 104.941785,73.2084546 C104.788665,72.3623866 105.38572,71.5593022 106.274731,71.4145729 C107.163743,71.2676672 108.007047,71.8373348 108.159024,72.6844909 C108.874347,76.6580177 109.145164,80.7566863 108.966334,84.8662368 C108.928625,85.7237307 108.168166,86.3902473 107.267156,86.3537929 C106.995767,86.3439992 106.743233,86.2710904 106.522123,86.1497572 C106.011913,85.8706364 105.677676,85.336335 105.703958,84.7367422 Z M69.8743929,61.0985293 C70.2234842,60.3068708 71.1804857,59.9347098 72.0112202,60.2666078 C75.7889479,61.77756 79.6300949,63.6780843 83.3198357,65.8522884 C84.0865796,66.3038874 84.3242587,67.2614948 83.8500431,67.9927586 C83.3758274,68.7218461 82.3616914,68.9541747 81.6029464,68.4976789 C78.056613,66.41053 74.3691576,64.5840027 70.7474068,63.1345332 C70.6834163,63.1089608 70.6222824,63.0795796 70.5640053,63.0480221 C69.8606806,62.6617146 69.5521548,61.8297931 69.8743929,61.0985293 Z M101.61142,62.0996643 C100.155063,58.6386752 98.3016229,55.148849 96.0990911,51.7270347 C95.6271608,50.9957709 95.8688394,50.0381635 96.6372973,49.5898291 C97.4057552,49.1414947 98.4107497,49.3711028 98.88268,50.1018226 C101.180626,53.6727189 103.118626,57.3197886 104.642401,60.9434621 C104.977208,61.7405615 104.570411,62.6459358 103.733963,62.9647755 C103.251178,63.1492238 102.730683,63.0986229 102.311888,62.8690148 C102.004505,62.7008894 101.752542,62.4364592 101.61142,62.0996643 Z M88.9635735,42.2255015 C86.442803,39.2982697 83.634075,36.400419 80.6145209,33.614652 C79.967188,33.0172355 79.950619,32.0340556 80.5779549,31.4175958 C81.2058622,30.8000479 82.2388524,30.7864455 82.8867568,31.3827737 C85.9948691,34.2512433 88.8881561,37.2361491 91.4883435,40.2547889 C92.0596877,40.9196732 91.9579884,41.8985003 91.2603772,42.4425954 C90.7215996,42.863181 89.9828516,42.9012676 89.4115074,42.588957 C89.2446749,42.497005 89.092126,42.3762158 88.9635735,42.2255015 Z M71.3307492,25.8776192 C68.144934,23.4727187 64.7722893,21.1624908 61.3088008,19.0084182 C60.5534838,18.5399523 60.3409438,17.5758157 60.8340138,16.856522 C61.3265125,16.1377723 62.3377917,15.9424422 63.0931087,16.404923 C66.6400135,18.6101406 70.0937891,20.9774985 73.3584497,23.4411612 C74.0646312,23.9738304 74.1834708,24.9521134 73.6241248,25.6240709 C73.1150571,26.236722 72.2209035,26.3858041 71.5318624,26.0087461 C71.4633011,25.9701154 71.3958825,25.9260437 71.3307492,25.8776192 Z M38.6492904,5.95666424 C38.9966676,5.16391763 39.9525265,4.78958018 40.7849749,5.12039002 C44.6078389,6.64004772 48.4524139,8.37625528 52.2118587,10.2805882 C53.0248815,10.6843068 53.3099822,11.6250473 52.8871875,12.3824277 C52.4632501,13.1403522 51.4748247,13.4292667 50.6789422,13.0255482 C47.0091985,11.1663751 43.2566099,9.47206287 39.5263037,7.98940364 C39.4617418,7.96383117 39.4000366,7.93390594 39.3400455,7.90126023 C38.6378635,7.51658497 38.3287663,6.6868399 38.6492904,5.95666424 Z" id="Shape" fill-rule="nonzero"></path>
                            <path d="M119.888559,190.780772 C119.905305,190.789969 119.92205,190.798591 119.940656,190.807788 C120.805225,191.233143 121.877563,190.929072 122.337756,190.12722 C122.951761,189.057509 123.898197,187.148584 124.917817,184.13546 C125.211795,183.269805 124.692062,182.348394 123.75803,182.075362 C122.824619,181.804629 121.829807,182.286315 121.536449,183.15197 C120.803364,185.316683 119.976008,187.246301 119.207572,188.585595 C118.757922,189.370777 119.063063,190.341047 119.888559,190.780772 Z" id="Path"></path>
                        </g>
                        <polygon id="Path" fill="#FFFFFF" points="839 28.0742266 704 11 732.486488 45"></polygon>
                        <polygon id="Path" fill="#B3D451" points="733.466605 44.8946117 715 89 840 28"></polygon>
                        <polygon id="Path" fill="#A0CC3A" points="715 89 742.733991 63.4772081 840 28"></polygon>
                        <polygon id="Path" fill="#FFFFFF" points="839 28 758.208357 108 742 63.6632829"></polygon>
                        <path d="M513.20331,271.937059 C513.196915,271.938117 513.190521,271.938646 513.183594,271.939174 C509.465258,272.317215 505.606246,272.597969 501.712598,272.773506 C500.871736,272.811575 500.16036,272.167056 500.122527,271.332724 C500.083628,270.500507 500.742249,269.799414 501.574052,269.756059 C505.410684,269.581578 509.21268,269.305583 512.874532,268.933359 C513.710598,268.848762 514.458741,269.452569 514.543999,270.281614 C514.627659,271.105371 514.029784,271.841889 513.20331,271.937059 Z M524.51338,270.433358 C523.713016,270.5243 522.972866,269.979182 522.838051,269.181332 C522.698973,268.358103 523.259015,267.580345 524.088686,267.441818 C527.859776,266.816334 531.586637,266.063426 535.164296,265.204244 C535.991304,265.013373 536.804456,265.507204 537.001617,266.317215 C537.199843,267.128283 536.69735,267.944638 535.880467,268.140796 C532.231404,269.016369 528.433672,269.784081 524.590646,270.421726 C524.564535,270.425956 524.539491,270.430186 524.51338,270.433358 Z M490.404658,272.990285 C490.344977,272.997687 490.283165,273.000859 490.220287,272.999802 C486.486498,272.98394 482.623223,272.878723 478.739699,272.688381 C477.899903,272.646612 477.253004,271.938117 477.294568,271.105371 C477.336131,270.271568 478.052836,269.629693 478.889967,269.670933 C482.728198,269.85916 486.545646,269.962791 490.235207,269.97971 C491.076069,269.98394 491.754407,270.662297 491.750144,271.496629 C491.746947,272.270158 491.159196,272.904102 490.404658,272.990285 Z M546.671527,265.077878 C545.968678,265.158244 545.281814,264.741607 545.051616,264.049503 C544.788913,263.25694 545.223199,262.402517 546.02303,262.142383 C549.634792,260.96332 553.182611,259.630398 556.566307,258.181685 C557.338962,257.852288 558.233643,258.203892 558.567217,258.969489 C558.900258,259.735615 558.544837,260.624406 557.772714,260.954861 C554.305891,262.440056 550.672814,263.804173 546.974195,265.012316 C546.873483,265.044568 546.771706,265.065717 546.671527,265.077878 Z M467.602277,271.890531 C467.5005,271.902163 467.396591,271.903221 467.290018,271.895819 C463.579675,271.565893 459.742511,271.156129 455.884564,270.673929 C455.050097,270.56977 454.458616,269.814747 454.563591,268.987289 C454.669631,268.15983 455.430563,267.571885 456.263965,267.676573 C460.085676,268.152957 463.886606,268.560077 467.561246,268.884716 C468.398378,268.960324 469.016502,269.692611 468.942434,270.5243 C468.877957,271.250771 468.304594,271.809636 467.602277,271.890531 Z M567.589696,256.084752 C566.995551,256.153486 566.389683,255.866916 566.082219,255.314396 C565.675643,254.585281 565.941543,253.666352 566.677963,253.261347 C569.975335,251.451513 573.186915,249.463497 576.224249,247.355461 C576.913244,246.877491 577.861745,247.045098 578.344521,247.727685 C578.826231,248.412387 578.658911,249.353522 577.969383,249.831492 C574.846259,252.000332 571.54196,254.043864 568.151869,255.904984 C567.971761,256.003857 567.781528,256.062545 567.589696,256.084752 Z M444.946967,269.07823 C444.811619,269.093563 444.673074,269.091448 444.53293,269.069242 C440.841771,268.487641 437.042439,267.832019 433.240977,267.120352 C432.414502,266.964906 431.87098,266.175516 432.026576,265.354931 C432.182706,264.535932 432.978274,263.997159 433.804216,264.151018 C437.578502,264.857927 441.347993,265.508791 445.009845,266.085104 C445.840049,266.215699 446.406485,266.990814 446.274867,267.814042 C446.165097,268.498745 445.608786,269.003151 444.946967,269.07823 Z M586.253311,243.108193 C585.773199,243.163181 585.27497,242.990816 584.931804,242.603258 C584.378157,241.975659 584.441035,241.021834 585.073547,240.471429 C587.868959,238.041397 590.573784,235.415208 593.114487,232.667411 C593.682522,232.051444 594.645943,232.012318 595.265132,232.575941 C595.884855,233.139036 595.925886,234.094447 595.358384,234.709357 C592.743613,237.538049 589.958858,240.240375 587.080851,242.743371 C586.839463,242.953276 586.550117,243.074354 586.253311,243.108193 Z M601.6803,226.458036 C601.30836,226.500334 600.919901,226.407806 600.595919,226.167235 C599.921311,225.668645 599.784365,224.722752 600.286324,224.053383 C600.66679,223.547919 601.035533,223.048272 601.395217,222.557613 C603.287956,219.962618 605.022433,217.350705 606.54856,214.796951 C606.977517,214.079468 607.911097,213.841011 608.634728,214.268223 C609.357294,214.693849 609.596551,215.620708 609.167061,216.337663 C607.594042,218.970197 605.80841,221.658776 603.860786,224.330965 C603.492043,224.834313 603.114774,225.342949 602.726315,225.860574 C602.465744,226.20689 602.083147,226.412036 601.6803,226.458036 Z M613.20032,207.00245 C612.94561,207.03153 612.679178,206.997692 612.427132,206.889831 C611.654477,206.560434 611.296392,205.671643 611.628367,204.906046 C613.034066,201.658601 614.237276,198.328676 615.417041,194.427195 C615.658429,193.628288 616.506751,193.17464 617.312443,193.415211 C618.118136,193.654196 618.574802,194.496987 618.333414,195.295366 C617.119546,199.310523 615.878502,202.742493 614.426444,206.098326 C614.203706,206.614364 613.725725,206.942175 613.20032,207.00245 Z M620.030057,185.445702 C619.849416,185.466322 619.661315,185.45469 619.474812,185.406576 C618.660593,185.197728 618.171423,184.372913 618.381904,183.565547 C619.321346,179.960683 620.263985,176.409749 621.453874,172.598152 C621.702722,171.801889 622.554241,171.356171 623.358335,171.602558 C624.16243,171.850003 624.611635,172.695438 624.362787,173.492759 C623.192614,177.24038 622.259567,180.753774 621.330249,184.322156 C621.167192,184.943939 620.636458,185.375381 620.030057,185.445702 Z M626.923739,163.902171 C626.676489,163.931251 626.418582,163.898999 626.1708,163.799069 C625.393882,163.481833 625.023007,162.598329 625.342727,161.826916 C626.794785,158.32674 628.390717,154.934424 630.222709,151.456983 C630.612234,150.71888 631.532493,150.432838 632.277439,150.818281 C633.021852,151.20478 633.310132,152.116835 632.92114,152.856525 C631.132843,156.250956 629.574212,159.561847 628.157855,162.976898 C627.939913,163.503511 627.456071,163.840839 626.923739,163.902171 Z M637.425452,143.85071 C637.095076,143.887721 636.749246,143.819515 636.44498,143.629702 C635.732539,143.188743 635.515662,142.256068 635.961671,141.548102 C637.904498,138.465092 640.058341,135.278451 642.362984,132.074362 C642.852155,131.39389 643.802787,131.237387 644.487519,131.722759 C645.171186,132.206544 645.331045,133.150852 644.840809,133.829209 C642.5724,136.984126 640.453727,140.11948 638.542871,143.149617 C638.287629,143.55568 637.869862,143.799952 637.425452,143.85071 Z M650.747623,125.48536 C650.338915,125.531888 649.913156,125.41504 649.576385,125.126883 C648.941209,124.581765 648.870871,123.627412 649.421854,122.99664 C651.871969,120.184867 654.591715,117.412749 657.506489,114.75748 C658.126745,114.192799 659.089633,114.234568 659.657135,114.848949 C660.226235,115.462802 660.185204,116.41927 659.566015,116.981836 C656.736499,119.559911 654.098814,122.247962 651.724366,124.971966 C651.46486,125.270168 651.114235,125.443591 650.747623,125.48536 Z M667.497185,110.13693 C666.978707,110.197205 666.442644,109.989944 666.104807,109.546341 C665.599651,108.878559 665.733933,107.932665 666.405876,107.430374 C669.388858,105.202316 672.587649,103.017086 675.914329,100.934957 C676.625171,100.491883 677.567278,100.70073 678.014352,101.406053 C678.463025,102.112433 678.249346,103.045637 677.539036,103.490825 C674.282695,105.528541 671.152643,107.665658 668.237335,109.844544 C668.012999,110.01215 667.756691,110.107321 667.497185,110.13693 Z M686.77626,98.0216683 C686.174122,98.0909316 685.562925,97.7959017 685.259191,97.2333356 C684.862207,96.4984044 685.140895,95.5831771 685.882644,95.1892751 C689.18641,93.4323137 692.658562,91.7266388 696.201585,90.1161348 C696.968911,89.7687609 697.869454,90.1034454 698.219547,90.8616406 C698.568041,91.6193071 698.232868,92.5165576 697.468206,92.8639316 C693.983799,94.4469417 690.569196,96.1245941 687.318717,97.851418 C687.145535,97.9444741 686.960631,97.9999905 686.77626,98.0216683 Z M707.526576,88.5669633 C706.857297,88.6441575 706.193346,88.2692897 705.935972,87.61684 C705.629575,86.840668 706.014836,85.9640378 706.798681,85.6600195 C708.241681,85.0985109 709.629796,84.5782431 710.951302,84.0955149 C711.737812,83.8025999 712.614909,84.2065477 712.905853,84.9906505 C713.196265,85.7731672 712.792353,86.6418665 712.003179,86.9294942 C710.700323,87.4058777 709.331924,87.9198008 707.90864,88.4728498 C707.783417,88.5214927 707.655529,88.5521589 707.526576,88.5669633 Z" id="Shape" fill="#E6E6E6" fill-rule="nonzero"></path>
                        <polygon id="Path" fill="#FFFFFF" points="830 172 741 240.979601 777.165676 244"></polygon>
                        <polygon id="Path" fill="#B3D451" points="777 244.276342 793.350678 281 830 172"></polygon>
                        <polygon id="Path" fill="#A0CC3A" points="794 281 794.679739 248.406615 830 172"></polygon>
                        <polygon id="Path" fill="#FFFFFF" points="829.653491 172 830 267 794 248.453709"></polygon>
                        <g id="Group" transform="translate(587.000000, 268.000000)" fill="#E6E6E6">
                            <path d="M6.64032525,87.1353725 C6.21110677,87.235022 5.74126487,87.1527716 5.36336018,86.8696403 C3.7763743,85.6796452 2.25566872,84.4506339 0.844004956,83.2158229 C0.212203906,82.6637959 0.15501041,81.7121162 0.714651442,81.088911 C1.27429247,80.468342 2.24016768,80.4098177 2.87036518,80.9628991 C4.22536997,82.1470945 5.68514041,83.3270719 7.21012214,84.470142 C7.88254661,84.9731351 8.01296916,85.9184878 7.50250384,86.5807093 C7.28014408,86.8701675 6.97226134,87.0568128 6.64032525,87.1353725 Z" id="Path"></path>
                            <path d="M83.6639289,103.985112 C82.8936875,104.16543 82.1009964,103.731507 81.8577904,102.975435 C81.6017559,102.182457 82.04701,101.335699 82.8503915,101.083675 C84.2337258,100.650279 85.6042316,100.157831 86.9260963,99.6216212 C89.0716542,98.7495557 91.2054526,97.7425151 93.2670911,96.6305525 C94.0095375,96.2282635 94.9353238,96.4992681 95.3404889,97.2295043 C95.744585,97.9597406 95.4730496,98.8750403 94.7327412,99.2731113 C92.5727513,100.438853 90.3373943,101.492819 88.0886743,102.407064 C86.689839,102.975435 85.2386209,103.496882 83.7751088,103.955059 C83.738227,103.966659 83.7018797,103.976149 83.6639289,103.985112 Z M72.2722673,106.34454 C72.2129358,106.358248 72.1509316,106.36932 72.089462,106.376702 C68.2799475,106.80219 64.2796099,106.921347 60.199629,106.731011 C59.3572276,106.690941 58.7056494,105.984958 58.7462728,105.155599 C58.7858272,104.323604 59.5042202,103.679309 60.3434145,103.720962 C64.2614363,103.905498 68.0971421,103.791613 71.7457665,103.38247 C72.5828227,103.289147 73.3397011,103.882299 73.4348454,104.709549 C73.523041,105.47511 73.0136447,106.171076 72.2722673,106.34454 Z M104.054212,93.0574038 C103.49564,93.1881609 102.885754,93.0020429 102.505177,92.5285757 C101.981349,91.8779536 102.090925,90.9304919 102.75159,90.4127359 C104.188376,89.2860104 105.586143,88.0960154 106.935802,86.8511867 C105.429529,86.7910806 103.932342,86.6945945 102.448518,86.5654191 C101.608255,86.4916046 100.988213,85.7608412 101.061977,84.9325371 C101.13574,84.104233 101.878187,83.4884093 102.717915,83.56486 C105.092782,83.7720678 107.506668,83.8885893 109.934986,83.9144243 C110.315029,83.5189896 110.690796,83.1182823 111.061217,82.7144116 C111.626203,82.0954243 112.591544,82.0463904 113.216931,82.6063261 C113.593766,82.9416548 113.761071,83.4188128 113.712964,83.8817351 C113.872785,83.8769899 114.032606,83.8711901 114.191893,83.8664449 C115.035363,83.8379736 115.740928,84.4907046 115.770326,85.3221722 C115.798656,86.1525852 115.141733,86.8459142 114.295055,86.8786035 C113.271986,86.9123472 112.247849,86.9302736 111.225849,86.9334371 C109.151382,89.0139513 106.948631,90.9705626 104.650735,92.7705817 C104.469533,92.9139928 104.265881,93.0078426 104.054212,93.0574038 Z M49.0447592,105.358062 C48.8443147,105.404987 48.6326453,105.412368 48.4172343,105.373352 C44.611996,104.684241 40.7447535,103.745215 36.9218761,102.584219 C36.116891,102.338522 35.6636192,101.495455 35.9121704,100.700367 C36.1596525,99.905807 37.0154169,99.4597565 37.821471,99.7043988 C41.5299614,100.832179 45.2806788,101.742206 48.968323,102.4097 C49.7984305,102.559965 50.3463121,103.345035 50.1950433,104.162794 C50.0811909,104.770709 49.6156251,105.224668 49.0447592,105.358062 Z M131.311456,84.733238 C129.620239,85.1286728 127.885192,85.4692739 126.102038,85.7555687 C125.268723,85.8900165 124.48405,85.3337716 124.347213,84.512849 C124.212514,83.6924536 124.773224,82.9316371 125.608142,82.7829536 C127.321275,82.5066765 128.985231,82.180311 130.55244,81.8149293 C132.652029,81.3219539 134.707253,80.757273 136.715974,80.1245774 C137.525236,79.8667539 138.378862,80.3085864 138.635965,81.1015649 C138.893069,81.8945435 138.448884,82.7413012 137.644968,82.9949067 C135.564621,83.6502739 133.432961,84.2349901 131.311456,84.733238 Z M148.36367,78.7953893 C147.677883,78.9556722 146.949334,78.6298339 146.633968,77.9760484 C146.271564,77.2247223 146.595483,76.3268217 147.357706,75.9688214 C150.755641,74.3749557 154.122574,72.5216846 157.365499,70.463842 C158.073202,70.0125191 159.0193,70.2144545 159.475244,70.9151649 C159.932258,71.6132391 159.728072,72.5464652 159.018231,72.9956791 C155.666799,75.1247 152.185479,77.0396588 148.669415,78.6894128 C148.56946,78.7368649 148.467367,78.7711359 148.36367,78.7953893 Z M91.4155185,84.7527461 C91.1942277,84.8049435 90.958505,84.8075797 90.7211787,84.7543278 C86.6989258,83.8400826 82.8797901,82.6353246 79.3722786,81.1753794 C78.594554,80.8521774 78.2310813,79.9690397 78.5592758,79.2024235 C78.8874702,78.4358072 79.782789,78.0767525 80.5594446,78.3999545 C83.9055313,79.7929394 87.5552247,80.943391 91.4085697,81.8191472 C92.2301249,82.0057925 92.7416592,82.8140612 92.5540432,83.6254933 C92.41881,84.2017736 91.9639346,84.6246252 91.4155185,84.7527461 Z M167.947899,66.4008814 C167.400018,66.5290023 166.800822,66.3518475 166.417573,65.8947249 C165.879847,65.2535933 165.972853,64.3040226 166.623362,63.7746672 C169.518315,61.4162942 172.361955,58.830678 175.074637,56.0889968 C175.664745,55.4953174 176.631155,55.4831907 177.234627,56.0631617 C177.838098,56.6452417 177.849323,57.5979759 177.260818,58.1937643 C174.472234,61.0118962 171.547348,63.6707997 168.567407,66.0977148 C168.381394,66.250089 168.168121,66.3497386 167.947899,66.4008814 Z M26.789006,98.6214348 C26.4800542,98.6936675 26.144911,98.6715232 25.830614,98.5376026 C22.1798516,96.9753716 18.6210264,95.2164777 15.2540934,93.3089003 C14.5223373,92.8944846 14.26951,91.9739125 14.6901762,91.2531667 C15.1108424,90.5313664 16.0430429,90.2825061 16.7747989,90.6963945 C20.0433805,92.548611 23.4990436,94.2568893 27.0445059,95.7737771 C27.8190234,96.1038333 28.1739438,96.9917162 27.8388006,97.7546417 C27.6399596,98.2075464 27.2422778,98.5154583 26.789006,98.6214348 Z M119.626344,76.0626713 C119.23668,76.1538849 118.812272,76.0948333 118.448799,75.8649539 C117.738959,75.4152128 117.533169,74.4835684 117.989648,73.782858 C120.066253,70.5940719 121.857425,67.2534388 123.31185,63.853227 C123.63951,63.0855562 124.535363,62.7280832 125.313088,63.0512852 C126.089744,63.3744872 126.454285,64.2586794 126.125556,65.0242412 C124.604316,68.5836814 122.730294,72.0772159 120.559079,75.4120493 C120.337254,75.7537049 119.997834,75.9756757 119.626344,76.0626713 Z M184.245373,49.9892835 C183.803861,50.0926238 183.318518,50.0003557 182.936337,49.6987707 C182.278879,49.1783786 182.173044,48.2303896 182.700614,47.580822 C185.074412,44.6635678 187.360013,41.5728496 189.497019,38.3967174 C189.961516,37.7039157 190.909752,37.5135797 191.613178,37.974393 C192.316605,38.4336246 192.507963,39.3689597 192.041328,40.0617614 C189.856216,43.3132899 187.514489,46.4772954 185.084033,49.4657278 C184.862742,49.737787 184.565015,49.9144145 184.245373,49.9892835 Z M70.1438141,75.6893809 C69.7284931,75.7869214 69.2741522,75.7120525 68.9005237,75.4468475 C65.5490917,73.0747661 62.6065665,70.3330849 60.1520568,67.2982548 C59.6260905,66.6476328 59.7345978,65.7006983 60.3931248,65.1808333 C61.0516517,64.6630774 62.0132508,64.7685267 62.5397517,65.4196759 C64.8189392,68.2372806 67.5594164,70.7886258 70.6815398,73.0004243 C71.3673273,73.485491 71.5228722,74.4255713 71.031115,75.1015012 C70.8087553,75.4088858 70.4891131,75.6081849 70.1438141,75.6893809 Z M128.578462,54.9506719 C128.366793,55.0007603 128.140157,55.0055055 127.911383,54.9591078 C127.085552,54.7866983 126.558516,53.9873928 126.73277,53.1738516 C127.536686,49.4193301 127.909245,45.6895893 127.843499,42.089551 C127.827998,41.257029 128.503095,40.570027 129.342824,40.5568458 C130.186295,40.5420829 130.882772,41.2037771 130.897204,42.0352446 C130.968295,45.8625261 130.572752,49.8189829 129.720729,53.7965296 C129.595117,54.3844093 129.135965,54.820442 128.578462,54.9506719 Z M55.8400949,57.9380499 C55.1238399,58.1057142 54.3690995,57.7403325 54.0777868,57.048058 C53.10817,54.7350281 52.3240311,52.3502928 51.7499581,49.9587032 C51.40359,48.5177388 51.1277784,47.0509394 50.929472,45.6015391 C50.8177576,44.7779803 51.4014519,44.0161093 52.2385082,43.9080238 C53.0744953,43.7967748 53.8442022,44.3751641 53.9569856,45.1992501 C54.14086,46.5511099 54.397429,47.9177325 54.7213473,49.2632652 C55.2590731,51.4993171 55.9929672,53.7300965 56.9000453,55.8944429 C57.2234291,56.6636954 56.8530077,57.5441968 56.074214,57.8626536 C55.9967088,57.8953429 55.9181346,57.9195962 55.8400949,57.9380499 Z M127.982474,32.1926093 C127.201542,32.3755638 126.401902,31.9263499 126.167783,31.1565701 C125.086452,27.5839487 123.480758,24.2390977 121.394532,21.2195577 C120.920414,20.5325557 121.100012,19.5951116 121.797559,19.1258623 C122.490829,18.6597765 123.444945,18.8348223 123.920132,19.5239333 C126.182215,22.7997151 127.923677,26.4234794 129.095342,30.2950496 C129.33641,31.0927733 128.878327,31.9316223 128.067997,32.1694104 C128.039668,32.1778464 128.011338,32.1857551 127.982474,32.1926093 Z M52.8393071,35.4024852 C52.6575708,35.4451922 52.4635405,35.4557371 52.2663031,35.4267386 C51.4319195,35.3065264 50.8546394,34.5420191 50.9759751,33.7184603 C51.5666182,29.7330049 52.7382831,25.8993965 54.4588986,22.3225571 C54.8213023,21.5696493 55.7326566,21.2517197 56.4927421,21.6070838 C57.2549657,21.9645568 57.5794186,22.8624574 57.2180839,23.6143107 C55.6278909,26.9201455 54.5454907,30.4658774 53.9986781,34.1555475 C53.9056718,34.7829707 53.4315538,35.2643467 52.8393071,35.4024852 Z M115.132111,13.4020757 C114.680977,13.5075249 114.188151,13.4105116 113.804367,13.0957455 C110.901931,10.7220823 107.710854,8.70747391 104.319868,7.10833565 C103.558713,6.74980812 103.237468,5.84979855 103.600406,5.09899971 C103.966016,4.34872812 104.876302,4.03079855 105.637456,4.39038058 C109.255079,6.09602261 112.659428,8.24507884 115.753756,10.7769159 C116.403197,11.3073258 116.494065,12.2568965 115.954201,12.8975009 C115.734514,13.1600696 115.44427,13.3287884 115.132111,13.4020757 Z M62.7209535,14.9606159 C62.2398867,15.0729194 61.7123168,14.9532345 61.3242563,14.5957614 C60.7084908,14.0273899 60.6758851,13.0741284 61.2510272,12.4662133 C63.9840211,9.5827029 67.1745629,7.10464493 70.7344572,5.1000542 C71.4683513,4.6861658 72.3994828,4.93924406 72.8169419,5.66104435 C73.23547,6.38389913 72.9810391,7.3044713 72.248214,7.71677797 C68.9555791,9.57110348 66.0061051,11.8609345 63.4831771,14.5230014 C63.2688351,14.7481357 63.0026448,14.8941829 62.7209535,14.9606159 Z M94.2639684,3.69441536 C94.0699381,3.73975855 93.8652174,3.74819449 93.6562207,3.71286899 C89.8141006,3.06910116 86.0954543,3.08017333 82.6023749,3.74344928 C81.7744055,3.90162319 80.9736965,3.36594087 80.8149445,2.54923623 C80.6540544,1.7314771 81.174141,0.956424928 82.0250947,0.785069855 C85.8784397,0.0527246377 89.9637658,0.0390162319 94.166686,0.742362899 C94.9989315,0.882083188 95.5585725,1.65977159 95.4174596,2.47963971 C95.3116249,3.09440899 94.8423175,3.55891304 94.2639684,3.69441536 Z" id="Shape" fill-rule="nonzero"></path>
                            <path d="M197.153464,30.7679896 C196.803889,30.8497128 196.422777,30.8106965 196.080151,30.6293238 C195.336635,30.2349435 195.057082,29.3217528 195.456902,28.5899348 C196.386965,26.8821838 197.218141,25.2561559 197.996935,23.6195832 C198.353993,22.8645664 199.263209,22.5408371 200.027571,22.8956739 C200.791933,23.2484017 201.119593,24.1463023 200.761465,24.8992101 C199.958618,26.5853441 199.104457,28.2593513 198.147134,30.0145545 C197.932258,30.4105165 197.56344,30.672558 197.153464,30.7679896 Z" id="Path"></path>
                        </g>
                        <polygon id="Path" fill="#FFFFFF" points="521 23 432 91.979076 468.165361 95"></polygon>
                        <polygon id="Path" fill="#B3D451" points="468 95.2763425 484.350678 132 521 23"></polygon>
                        <polygon id="Path" fill="#A0CC3A" points="485 132 485.679739 99.4066149 521 23"></polygon>
                        <polygon id="Path" fill="#FFFFFF" points="520.652968 23 521 118 485 99.4541329"></polygon>
                        <g id="Group" transform="translate(278.000000, 120.000000)" fill="#E6E6E6">
                            <path d="M6.45805439,86.9687626 C6.02883591,87.0684122 5.55899401,86.9861617 5.18108932,86.7030304 C3.59410344,85.5130354 2.07339786,84.2840241 0.661734095,83.049213 C0.0299330447,82.4971861 -0.0272604514,81.5455064 0.53238058,80.9223012 C1.09202161,80.3017322 2.05789682,80.2432078 2.68809432,80.7962893 C4.04309911,81.9804846 5.50286955,83.160462 7.02785128,84.3035322 C7.70027574,84.8065252 7.8306983,85.751878 7.32023298,86.4140994 C7.09787322,86.7035577 6.78999047,86.8907301 6.45805439,86.9687626 Z" id="Path"></path>
                            <path d="M83.4821926,103.818502 C82.7119512,103.998821 81.91926,103.564897 81.676054,102.808826 C81.4200196,102.015847 81.8652736,101.169089 82.6686552,100.917066 C84.0519895,100.483669 85.4224953,99.9912209 86.7443599,99.4550113 C88.8899178,98.5829458 91.0237163,97.5759052 93.0853547,96.4639426 C93.8278011,96.0616536 94.7535875,96.3326583 95.1587526,97.0628945 C95.5628487,97.7931307 95.2913132,98.7084304 94.5510049,99.1065014 C92.391015,100.272243 90.155658,101.326209 87.906938,102.240454 C86.5081027,102.808826 85.0568845,103.330272 83.5933725,103.788449 C83.5559561,103.800049 83.5196089,103.810066 83.4821926,103.818502 Z M72.0899965,106.178457 C72.0306649,106.192166 71.9686607,106.203238 71.9071911,106.210619 C68.0976766,106.636107 64.097339,106.755265 60.0173581,106.564929 C59.1749567,106.524858 58.5233785,105.818875 58.5640019,104.989517 C58.6035563,104.157522 59.3219494,103.513227 60.1611437,103.554879 C64.0791654,103.739415 67.9148713,103.62553 71.5634956,103.216387 C72.4005518,103.123064 73.1574302,103.716217 73.2525746,104.543466 C73.3407701,105.308501 72.8313739,106.004993 72.0899965,106.178457 Z M103.871941,92.8913212 C103.313369,93.0220783 102.703483,92.8359603 102.322906,92.362493 C101.799078,91.711871 101.908654,90.7644093 102.569319,90.2466533 C104.006105,89.1199278 105.403872,87.9299328 106.753531,86.6851041 C105.247258,86.624998 103.750071,86.5285119 102.266247,86.3993365 C101.425984,86.325522 100.805942,85.5947586 100.879706,84.7664545 C100.953469,83.9381504 101.695916,83.3223267 102.535645,83.3987774 C104.910511,83.6059852 107.324397,83.7225067 109.752715,83.7483417 C110.132758,83.352907 110.508525,82.9521997 110.878946,82.548329 C111.443932,81.9293417 112.409273,81.8803078 113.03466,82.4402435 C113.411496,82.7755722 113.5788,83.2527301 113.530693,83.7156525 C113.690514,83.7109072 113.850335,83.7051075 114.009622,83.7003623 C114.853092,83.671891 115.558657,84.324622 115.588056,85.1560896 C115.616385,85.9865026 114.959462,86.6798316 114.112784,86.7125209 C113.089715,86.7462646 112.065578,86.764191 111.043578,86.7673545 C108.969111,88.8478687 106.76636,90.80448 104.468464,92.6044991 C104.287262,92.7473829 104.084145,92.84176 103.871941,92.8913212 Z M48.8624883,105.191979 C48.6620438,105.238904 48.4503744,105.246286 48.2349634,105.207269 C44.4297251,104.518158 40.5624827,103.579132 36.7396052,102.418136 C35.9346201,102.172439 35.4813483,101.329372 35.7298995,100.534285 C35.9773816,99.7397243 36.833146,99.2936739 37.6392001,99.5383162 C41.3476906,100.666096 45.098408,101.576123 48.7860522,102.243617 C49.6161596,102.393883 50.1640413,103.178952 50.0127725,103.996712 C49.8994545,104.604099 49.4333543,105.058586 48.8624883,105.191979 Z M131.129185,84.5671554 C129.437968,84.9625901 127.702921,85.3031913 125.919767,85.5894861 C125.086452,85.7239339 124.301779,85.167689 124.164942,84.3467664 C124.030243,83.526371 124.590953,82.7655545 125.425871,82.616871 C127.139004,82.3405939 128.80296,82.0142284 130.370169,81.6488467 C132.469758,81.1558713 134.524982,80.5911904 136.533704,79.9584948 C137.342965,79.7006713 138.196591,80.1425038 138.453695,80.9354823 C138.710798,81.7284609 138.266613,82.5752186 137.462697,82.8288241 C135.38235,83.4841913 133.25069,84.0683803 131.129185,84.5671554 Z M148.181934,78.6293067 C147.496147,78.7895896 146.767598,78.4637513 146.452232,77.8099658 C146.089828,77.0586397 146.413746,76.1607391 147.17597,75.8027388 C150.573905,74.208873 153.940838,72.355602 157.183763,70.2977594 C157.891465,69.8464365 158.837564,70.0483719 159.293508,70.7490823 C159.750521,71.4471565 159.546335,72.3803826 158.836494,72.8295965 C155.485063,74.9586174 152.003743,76.8735762 148.487679,78.5233301 C148.387189,78.5707823 148.285096,78.6050533 148.181934,78.6293067 Z M91.2337821,84.5866635 C91.0124914,84.6388609 90.7767687,84.6414971 90.5394424,84.5882452 C86.5171895,83.674 82.6980537,82.469242 79.1905423,81.0092968 C78.4128177,80.6860948 78.049345,79.8029571 78.3775394,79.0363409 C78.7057339,78.2697246 79.6010526,77.9106699 80.3777082,78.2338719 C83.723795,79.6268568 87.3734884,80.7773084 91.2268334,81.6530646 C92.0483885,81.8397099 92.5599229,82.6479786 92.3723068,83.4594107 C92.2370736,84.035691 91.7816637,84.4585426 91.2337821,84.5866635 Z M167.765629,66.2347988 C167.217747,66.3629197 166.618552,66.1857649 166.235302,65.7286423 C165.697576,65.0875107 165.790582,64.13794 166.441091,63.6085846 C169.336044,61.2502116 172.179684,58.6645954 174.892366,55.9229142 C175.482474,55.3292348 176.448884,55.3171081 177.052356,55.8970791 C177.655827,56.4791591 177.667052,57.4318933 177.078547,58.0276817 C174.289963,60.8458136 171.365077,63.5047171 168.385136,65.9316322 C168.199123,66.0840064 167.98585,66.1831287 167.765629,66.2347988 Z M26.6067351,98.4548249 C26.2977833,98.5270577 25.9626401,98.5049133 25.6483431,98.3709928 C21.9975807,96.8087617 18.4387555,95.0498678 15.0718225,93.1422904 C14.3400665,92.7278748 14.0872392,91.8073026 14.5079053,91.0865568 C14.9285715,90.3647565 15.860772,90.1158962 16.5925281,90.5297846 C19.8611097,92.3820012 23.3167728,94.0902794 26.862235,95.6071672 C27.6367525,95.9372235 27.9916729,96.8251064 27.6565297,97.5880319 C27.4576888,98.0409365 27.0600069,98.3488484 26.6067351,98.4548249 Z M119.444073,75.8960614 C119.054409,75.9872751 118.630001,75.9282235 118.266529,75.6983441 C117.556688,75.2486029 117.350898,74.3169586 117.807377,73.6162481 C119.883982,70.427462 121.675154,67.086829 123.129579,63.6866171 C123.457239,62.9189464 124.353092,62.5614733 125.130817,62.8846754 C125.907473,63.2078774 126.272014,64.0920696 125.943285,64.8576313 C124.422045,68.4170716 122.548023,71.9106061 120.376808,75.2454394 C120.154983,75.5870951 119.815564,75.8090658 119.444073,75.8960614 Z M184.063637,49.8226736 C183.622125,49.9260139 183.136782,49.8337458 182.754601,49.5321609 C182.097143,49.0117687 181.991308,48.0637797 182.518878,47.4142122 C184.892675,44.496958 187.178277,41.4062397 189.315283,38.2301075 C189.779779,37.5373058 190.728016,37.3469699 191.431442,37.8077832 C192.134869,38.2670148 192.326226,39.2023499 191.859592,39.8951516 C189.674479,43.14668 187.332753,46.3106855 184.902297,49.299118 C184.680471,49.5717043 184.382745,49.7478046 184.063637,49.8226736 Z M69.9615432,75.522771 C69.5462222,75.6203116 69.0918813,75.5454426 68.7182528,75.2802377 C65.3668208,72.9081562 62.4242956,70.1664751 59.969786,67.1316449 C59.4438196,66.4810229 59.5523269,65.5340884 60.2108539,65.0142235 C60.8693809,64.4964675 61.8309799,64.6019168 62.3574808,65.2530661 C64.6366684,68.0706707 67.3771455,70.6220159 70.499269,72.8338145 C71.1850564,73.3188812 71.3406013,74.2589614 70.8488442,74.9348913 C70.6264844,75.2428032 70.3068422,75.4421023 69.9615432,75.522771 Z M128.396192,54.784062 C128.184522,54.8341504 127.957886,54.8388957 127.729112,54.792498 C126.903281,54.6200884 126.376246,53.8207829 126.550499,53.0072417 C127.354415,49.2527203 127.726974,45.5229794 127.661228,41.9229412 C127.645727,41.0904191 128.320824,40.4034171 129.160553,40.3902359 C130.004024,40.375473 130.700502,41.0371672 130.714934,41.8686348 C130.786025,45.6959162 130.390481,49.652373 129.538458,53.6299197 C129.412846,54.2183267 128.953695,54.6538322 128.396192,54.784062 Z M55.657824,57.77144 C54.941569,57.9391043 54.1868287,57.5737226 53.895516,56.8814481 C52.9258991,54.5684183 52.1417603,52.1836829 51.5676872,49.7920933 C51.2213192,48.351129 50.9455075,46.8843296 50.7472011,45.4349293 C50.6354867,44.6113704 51.2191811,43.8494994 52.0562373,43.7414139 C52.8922245,43.6301649 53.6619313,44.2085542 53.7747148,45.0326403 C53.9585892,46.3845 54.2151581,47.7511226 54.5390764,49.0966554 C55.0768022,51.3327072 55.8106963,53.5634867 56.7177745,55.727833 C57.0411583,56.4970855 56.6707368,57.377587 55.8919432,57.6960438 C55.814438,57.728733 55.7358637,57.7529864 55.657824,57.77144 Z M127.800203,32.0259994 C127.019272,32.2089539 126.219632,31.75974 125.985512,30.9899603 C124.904181,27.4173388 123.298487,24.0724878 121.212261,21.0529478 C120.738143,20.3659458 120.917741,19.4285017 121.615288,18.9592525 C122.308559,18.4931667 123.262674,18.6682125 123.737862,19.3573235 C125.999944,22.6331052 127.741406,26.2568696 128.913071,30.1284397 C129.154139,30.9261635 128.696057,31.7650125 127.885726,32.0028006 C127.857397,32.0117638 127.829067,32.0191452 127.800203,32.0259994 Z M52.6575708,35.2358754 C52.4758344,35.2785823 52.2818042,35.2891272 52.0845668,35.2601287 C51.2501832,35.1399165 50.672903,34.3754093 50.7942387,33.5518504 C51.3848819,29.5663951 52.5565468,25.7327867 54.2771623,22.1559472 C54.639566,21.4030394 55.5509203,21.0851099 56.3110058,21.4404739 C57.0732294,21.797947 57.3976822,22.6958475 57.0363476,23.4477009 C55.4461546,26.7535357 54.3637543,30.2992675 53.8169417,33.9889377 C53.723401,34.6163609 53.2492829,35.0977368 52.6575708,35.2358754 Z M114.94984,13.235993 C114.498707,13.3414423 114.00588,13.244429 113.622096,12.9296629 C110.71966,10.5559997 107.528583,8.5413913 104.137597,6.94225304 C103.376442,6.58372551 103.055197,5.68371594 103.418135,4.9329171 C103.783746,4.18264551 104.694031,3.86471594 105.455185,4.22429797 C109.072808,5.92994 112.477157,8.07899623 115.571486,10.6108333 C116.220926,11.1412432 116.311794,12.0908139 115.77193,12.7314183 C115.552243,12.993987 115.261999,13.1627058 114.94984,13.235993 Z M62.5386826,14.7945333 C62.0576158,14.9068368 61.5300459,14.7871519 61.1419854,14.4296788 C60.5262199,13.8613072 60.4936143,12.9080458 61.0687563,12.3001307 C63.8017502,9.41662029 66.9922921,6.93856232 70.5521863,4.93397159 C71.2860804,4.52008319 72.2172119,4.77316145 72.634671,5.49496174 C73.0531991,6.21781652 72.7987682,7.1383887 72.0659431,7.55069536 C68.7733082,9.40502087 65.8238343,11.6948519 63.3009062,14.3569188 C63.0865643,14.5815258 62.820374,14.7281003 62.5386826,14.7945333 Z M94.0816975,3.52780551 C93.8876672,3.5731487 93.6829466,3.58158464 93.4739498,3.54625913 C89.6318297,2.9024913 85.9131834,2.91356348 82.420104,3.57683942 C81.5921346,3.73501333 80.7914257,3.19933101 80.6326736,2.38262638 C80.4717835,1.56486725 80.9918702,0.789815072 81.8428239,0.61846 C85.6961688,-0.113885217 89.7814949,-0.127593623 93.9844151,0.575753043 C94.8166607,0.715473333 95.3763017,1.49316174 95.2351888,2.31302986 C95.1298886,2.92832638 94.6600467,3.39283043 94.0816975,3.52780551 Z" id="Shape" fill-rule="nonzero"></path>
                            <path d="M196.971193,30.601907 C196.621618,30.6836301 196.240506,30.6446139 195.89788,30.4632412 C195.154364,30.0688609 194.874811,29.1556701 195.274631,28.4238522 C196.204694,26.7161012 197.03587,25.0900733 197.814664,23.4535006 C198.171722,22.6984838 199.080939,22.3747545 199.8453,22.7295913 C200.609662,23.0823191 200.937322,23.9802197 200.579194,24.7331275 C199.776347,26.4192614 198.922186,28.0932687 197.964864,29.8484719 C197.749987,30.2439067 197.381704,30.5059481 196.971193,30.601907 Z" id="Path"></path>
                        </g>
                        <circle id="Oval" fill="#E6E6E6" cx="276" cy="323" r="4"></circle>
                        <circle id="Oval" fill="#E6E6E6" cx="209" cy="348" r="4"></circle>
                    </g>
                    <g id="Group" opacity="0.3" transform="translate(192.000000, 294.000000)">
                        <path d="M16.4655266,7.09544727 C18.222767,6.31506408 19.8921395,5.58199925 21.4639853,4.88701994 C23.2990532,5.49594433 25.2364624,6.14117868 27.2955596,6.82230871 C25.748756,7.63323135 24.1018422,8.50804414 22.351266,9.43715912 C20.2663046,8.60134922 18.3032367,7.81762207 16.4655266,7.09544727" id="Fill-322" fill="#262626"></path>
                        <path d="M4.63844402,7.38637091 C6.72590091,6.59793856 8.70035963,5.86721154 10.5705395,5.16166771 C12.0784734,5.77855248 13.6889248,6.42858082 15.386011,7.1185294 C13.4899376,7.93788589 11.4682128,8.81858759 9.33031926,9.75391699 C7.66429358,8.9046721 6.10783118,8.11742345 4.63844402,7.38637091" id="Fill-323" fill="#262626"></path>
                        <path d="M11.1089615,4.95765718 C12.8534018,4.30697781 14.509622,3.68757768 16.0869578,3.09265053 C17.6115376,3.60889129 19.2319706,4.14540288 20.935633,4.71221718 C19.3603817,5.39435335 17.6939156,6.12078947 15.9361761,6.87542721 C14.2331596,6.20500966 12.6325431,5.5644805 11.1089615,4.95765718" id="Fill-324" fill="#262626"></path>
                        <path d="M9.85109727,10.0097439 C11.9983266,9.06456025 14.0227229,8.16438671 15.924844,7.33183197 C17.7536587,8.08336251 19.7168734,8.87354082 21.808411,9.71893868 C19.9103706,10.7227747 17.877666,11.8043797 15.7097982,12.9474483 C13.6165872,11.904787 11.6647927,10.9233229 9.85109727,10.0097439" id="Fill-325" fill="#262626"></path>
                        <path d="M16.5436477,2.92625204 C18.0172037,2.37278395 19.4277872,1.84017856 20.7691156,1.33837893 C22.298011,1.76711473 23.9067009,2.21656527 25.5891376,2.69010408 C24.2623706,3.27242483 22.8630605,3.8759042 21.3916771,4.51667009 C19.6910973,3.94979661 18.0742165,3.42609856 16.5436477,2.92625204" id="Fill-326" fill="#262626"></path>
                        <path d="M9.92892476,17.1097189 C10.0065761,19.0264532 10.0827009,20.8818127 10.154011,22.6660318 C11.8065908,23.8812765 13.5656807,25.1682237 15.4378569,26.5366094 C15.4460771,24.6242252 15.4527413,22.6472406 15.4578202,20.6022229 C13.4902018,19.3624166 11.6452991,18.2069191 9.92892476,17.1097189" id="Fill-327" fill="#262626"></path>
                        <path d="M4.44653209,7.73079774 C4.59834128,9.69100339 4.75179449,11.5897159 4.89450273,13.4369966 C6.3100477,14.308495 7.81257983,15.2296201 9.4057101,16.2229803 C9.31402567,14.2516183 9.22395598,12.2122232 9.12910091,10.1082277 C7.46639267,9.2653748 5.90987155,8.47493016 4.44653209,7.73079774" id="Fill-328" fill="#262626"></path>
                        <path d="M4.94244402,13.9793971 C5.08650273,15.7489384 5.21682203,17.4799799 5.35227888,19.1590866 C6.71665321,20.1483335 8.15577247,21.2069452 9.67885503,22.324949 C9.60129176,20.5441033 9.51597797,18.7051972 9.42919632,16.804798 C7.84537247,15.8047203 6.35508257,14.8638866 4.94244402,13.9793971" id="Fill-329" fill="#262626"></path>
                        <path d="M9.65014311,10.3738202 C9.73900919,12.4940619 9.82306054,14.5465369 9.89921466,16.5313339 C11.6340844,17.6053929 13.4850349,18.7509768 15.4586422,19.9745369 C15.4678018,17.8356519 15.4814532,15.6189979 15.4869431,13.3282147 C13.4061505,12.2690112 11.4574973,11.2907431 9.65014311,10.3738202" id="Fill-330" fill="#262626"></path>
                        <path d="M0.813533946,11.3717081 C0.999368807,13.0301592 1.1746055,14.6469442 1.35536147,16.2246375 C2.49030459,17.0545289 3.69347523,17.9441083 4.96099818,18.8677487 C4.82234128,17.1919268 4.68289176,15.4805051 4.52949727,13.7175925 C3.22630459,12.8951288 1.99075229,12.1098924 0.813533946,11.3717081" id="Fill-331" fill="#262626"></path>
                        <path d="M21.6482349,16.8279393 C21.5509431,18.7359734 21.455589,20.5922503 21.361967,22.387034 C19.6296807,23.6812905 17.7851303,25.0591754 15.8159853,26.5403972 C15.8209761,24.6280722 15.8343046,22.6605868 15.8455486,20.6090292 C17.9163596,19.2611807 19.8496294,18.0040923 21.6482349,16.8279393" id="Fill-332" fill="#262626"></path>
                        <path d="M27.4533284,7.17765517 C27.2749211,9.14271398 27.1044697,11.0493276 26.9293798,12.8913409 C25.4461651,13.8365542 23.8753468,14.8421658 22.1981358,15.911845 C22.3128073,13.9321675 22.4292404,11.8974776 22.5376,9.78854019 C24.2850936,8.86599473 25.9196183,8.00115461 27.4533284,7.17765517" id="Fill-333" fill="#262626"></path>
                        <path d="M26.8818789,13.4295393 C26.7212624,15.2130187 26.5591486,16.9349753 26.4089248,18.6210658 C24.9824881,19.6847082 23.4687119,20.815052 21.8676844,22.0155892 C21.9583119,20.2273455 22.0668183,18.3902149 22.1676918,16.4981903 C23.8412918,15.4092168 25.4054752,14.3940469 26.8818789,13.4295393" id="Fill-334" fill="#262626"></path>
                        <path d="M21.9982385,10.0831629 C21.8837431,12.2019842 21.7773798,14.2590756 21.678767,16.2480451 C19.8640147,17.4116805 17.9206752,18.646397 15.8496,19.9844208 C15.8556183,17.8456246 15.8692404,15.6290001 15.877989,13.3380986 C18.0579817,12.1720366 20.0971156,11.0903428 21.9982385,10.0831629" id="Fill-335" fill="#262626"></path>
                        <path d="M26.3666495,19.1138693 C26.2116991,20.7354483 26.0685798,22.3211019 25.9273395,23.8548504 C24.5511633,25.0240196 23.0906716,26.2534094 21.5521174,27.5429608 C21.6467376,25.9229206 21.7371009,24.2577224 21.8357137,22.537275 C23.4335119,21.333601 24.9374532,20.1936988 26.3666495,19.1138693" id="Fill-336" fill="#262626"></path>
                        <path d="M21.9246092,4.75163436 C23.392734,4.10438771 24.7885798,3.4880948 26.112,2.89938207 C27.9159486,3.40556138 29.8093505,3.93544426 31.8274936,4.50107486 C30.5284404,5.17652313 29.1763082,5.8921284 27.7393615,6.64860088 C25.6806165,5.98037317 23.749578,5.34144201 21.9246092,4.75163436" id="Fill-337" fill="#B2DD4C"></path>
                        <path d="M0.369379817,5.29530734 C2.37431193,4.64149116 4.29407706,4.01563987 6.11925139,3.41796063 C7.3865101,3.93721981 8.72422753,4.47414571 10.1293798,5.04826934 C8.26513027,5.73416376 6.29375412,6.46160602 4.21536882,7.23041856 C2.85522202,6.55171511 1.56899817,5.90671749 0.369379817,5.29530734" id="Fill-338" fill="#B2DD4C"></path>
                        <path d="M6.64243669,3.24348339 C8.35417247,2.68741116 9.98391193,2.15601906 11.5411082,1.64575599 C12.8414239,2.08002558 14.205622,2.5354242 15.6465615,3.00837116 C14.0690495,3.59672878 12.4094239,4.20657053 10.6743193,4.85053241 C9.26291375,4.28632226 7.9190899,3.75602508 6.64243669,3.24348339" id="Fill-339" fill="#9AC03E"></path>
                        <path d="M11.9950679,1.49877016 C13.4609027,1.01987511 14.866789,0.558617179 16.2091156,0.0989276489 C17.5176514,0.481173668 18.8930055,0.868391223 20.3228771,1.27682658 C18.9845431,1.77534144 17.5738422,2.29821091 16.1001101,2.84519824 C14.6624,2.37228088 13.2982899,1.92330382 11.9950679,1.49877016" id="Fill-340" fill="#829F3D"></path>
                        <path d="M10.1810789,23.2659601 C10.2573798,24.9918821 10.322789,26.6630285 10.3872,28.2921535 C11.9625395,29.5998154 13.6415706,30.9954854 15.4176294,32.4600171 C15.4276991,30.757917 15.4296954,28.9848542 15.4335119,27.1534942 C13.5738128,25.7751062 11.8239706,24.4781863 10.1810789,23.2659601" id="Fill-341" fill="#B2DD4C"></path>
                        <path d="M0.193644037,5.65222219 C0.373372476,7.45330909 0.571273395,9.21503799 0.758693578,10.9382671 C1.9386422,11.6568908 3.18027156,12.4291361 4.48622385,13.2386382 C4.33127338,11.4110365 4.18439632,9.52188238 4.02055047,7.58458132 C2.6603156,6.9025931 1.38357431,6.25425154 0.193644037,5.65222219" id="Fill-342" fill="#B2DD4C"></path>
                        <path d="M5.39423118,19.7165793 C5.52196696,21.3377144 5.6487046,22.9135729 5.77121466,24.4474102 C7.08723669,25.5446104 8.47125139,26.688626 9.93641101,27.9083687 C9.8627523,26.2924419 9.78477797,24.6280722 9.70871193,22.908631 C8.18222385,21.7809801 6.75252845,20.7189061 5.39423118,19.7165793" id="Fill-343" fill="#9AC03E"></path>
                        <path d="M1.40289174,16.7496672 C1.56964404,18.2760471 1.73560367,19.7667386 1.9008,21.2251446 C3.00600367,22.1398184 4.16651743,23.1081139 5.39514128,24.1329901 C5.26631926,22.6025264 5.13667524,21.0332374 4.99969176,19.4253302 C3.73824588,18.4886099 2.53833395,17.5988529 1.40289174,16.7496672" id="Fill-344" fill="#829F3D"></path>
                        <path d="M21.334811,22.9817836 C21.2490275,24.7051014 21.1653872,26.3863684 21.0741137,28.0160853 C19.4206239,29.4119032 17.6612991,30.9009374 15.7861872,32.4640416 C15.796345,30.7651376 15.8109945,28.9885532 15.8214165,27.1666628 C17.7744734,25.6761194 19.6156183,24.2886761 21.334811,22.9817836" id="Fill-345" fill="#B2DD4C"></path>
                        <path d="M31.9446605,4.87997693 C31.7084771,6.69441003 31.4901137,8.45655323 31.2773284,10.1830671 C30.0443596,10.966883 28.736411,11.8010949 27.3656954,12.6724158 C27.5347963,10.8434824 27.7151413,8.95607423 27.9006239,7.01350571 C29.3153468,6.2575363 30.661255,5.54861893 31.9446605,4.87997693" id="Fill-346" fill="#B2DD4C"></path>
                        <path d="M31.2099229,10.6861984 C31.0082055,12.3444128 30.8055486,13.9670866 30.6147229,15.5506392 C29.416044,16.4403962 28.152044,17.3867932 26.8224587,18.3768687 C26.9824,16.7001886 27.1446018,14.9814871 27.3120294,13.2173317 C28.6790752,12.3266277 29.9837651,11.4892198 31.2099229,10.6861984" id="Fill-347" fill="#9AC03E"></path>
                        <path d="M30.005578,20.4962819 C28.837666,21.4759704 27.6169395,22.5022079 26.3337982,23.5817118 C26.4752734,22.0575218 26.6282863,20.4879072 26.7769248,18.8665058 C28.100022,17.8669312 29.3606165,16.9109166 30.5591486,16.0146789 C30.3700844,17.5399639 30.1834275,19.0327564 30.005578,20.4962819 Z" id="Fill-348" fill="#829F3D"></path>
                    </g>
                    <g id="Group" opacity="0.3" transform="translate(565.000000, 256.000000)">
                        <path d="M26.7564808,11.5301018 C29.6119963,10.2619791 32.3247266,9.07074878 34.8789762,7.9414074 C37.8609615,8.93090953 41.0092514,9.97941536 44.3552844,11.0862517 C41.8417285,12.4040009 39.1654936,13.8255717 36.3208073,15.3353836 C32.932745,13.9771925 29.7427596,12.7036359 26.7564808,11.5301018" id="Fill-322" fill="#262626"></path>
                        <path d="M7.53747153,12.0028527 C10.929589,10.7216502 14.1380844,9.53421875 17.1771266,8.38771003 C19.6275192,9.39014777 22.2445027,10.4464438 25.0022679,11.5676103 C21.9211486,12.8990646 18.6358459,14.3302048 15.1617688,15.8501151 C12.4544771,14.4700922 9.92522567,13.1908131 7.53747153,12.0028527" id="Fill-323" fill="#262626"></path>
                        <path d="M18.0520624,8.05619292 C20.886778,6.99883893 23.5781358,5.99231373 26.1413064,5.02555712 C28.6187486,5.86444834 31.2519523,6.73627969 34.0204037,7.65735292 C31.4606202,8.7658242 28.7526129,9.94628288 25.8962862,11.1725692 C23.1288844,10.0831407 20.5278825,9.04228082 18.0520624,8.05619292" id="Fill-324" fill="#262626"></path>
                        <path d="M16.0080331,16.2658339 C19.4972808,14.7299104 22.7869248,13.2671284 25.8778715,11.914227 C28.8496954,13.1354641 32.0399192,14.4195038 35.4386679,15.7932754 C32.3543523,17.4245088 29.0512073,19.182117 25.528422,21.0396034 C22.1269541,19.3452788 18.9552881,17.7503997 16.0080331,16.2658339" id="Fill-325" fill="#262626"></path>
                        <path d="M26.8834275,4.75515956 C29.277956,3.85577392 31.5701541,2.99029016 33.7498129,2.17486577 C36.2342679,2.87156144 38.848389,3.60191856 41.5823486,4.37141912 C39.4263523,5.31769034 37.1524734,6.29834433 34.7614752,7.3395889 C31.9980331,6.4184195 29.3706018,5.56741016 26.8834275,4.75515956" id="Fill-326" fill="#262626"></path>
                        <path d="M16.1345027,27.8032932 C16.2606862,30.9179864 16.384389,33.9329456 16.5002679,36.8323018 C19.1857101,38.8070743 22.0442312,40.8983635 25.0865175,43.1219903 C25.0998752,40.014366 25.1107046,36.801766 25.1189578,33.4786123 C21.921578,31.4639269 18.923611,29.5862436 16.1345027,27.8032932" id="Fill-327" fill="#262626"></path>
                        <path d="M7.22561465,12.5625463 C7.47230459,15.7478805 7.72166605,18.8332883 7.95356694,21.8351195 C10.2538275,23.2513045 12.6954422,24.7481326 15.2842789,26.362343 C15.1352917,23.1588797 14.9889285,19.8448627 14.834789,16.42587 C12.1328881,15.056234 9.60354127,13.7717615 7.22561465,12.5625463" id="Fill-328" fill="#262626"></path>
                        <path d="M8.03147153,22.7165203 C8.26556694,25.592025 8.4773358,28.4049674 8.69745319,31.1335158 C10.9145615,32.741042 13.2531303,34.461286 15.7281394,36.2780421 C15.6020991,33.3841679 15.4634642,30.3959455 15.322444,27.3077967 C12.7487303,25.6826704 10.3270092,24.1538158 8.03147153,22.7165203" id="Fill-329" fill="#262626"></path>
                        <path d="M15.6814825,16.8574578 C15.8258899,20.3028507 15.9624734,23.6381225 16.0862238,26.8634176 C18.9053871,28.6087634 21.9131817,30.4703373 25.1202936,32.4586225 C25.135178,28.9829344 25.1573615,25.3808715 25.1662825,21.6583488 C21.7849945,19.9371431 18.6184331,18.3474575 15.6814825,16.8574578" id="Fill-330" fill="#262626"></path>
                        <path d="M1.32199266,18.4790256 C1.62397431,21.1740088 1.90873394,23.8012843 2.20246238,26.3650359 C4.04674496,27.7136095 6.00189725,29.1591761 8.06162204,30.6600917 C7.83630459,27.936881 7.60969911,25.1558208 7.36043306,22.2910878 C5.24274496,20.9545843 3.23497248,19.6785752 1.32199266,18.4790256" id="Fill-331" fill="#262626"></path>
                        <path d="M35.1783817,27.3454014 C35.0202825,30.4459568 34.8653321,33.4624067 34.7131963,36.3789302 C31.8982312,38.4820971 28.9008367,40.7211601 25.7009762,43.1281455 C25.7090862,40.0206174 25.730745,36.8234536 25.7490165,33.4896725 C29.1140844,31.2994186 32.2556477,29.25665 35.1783817,27.3454014" id="Fill-332" fill="#262626"></path>
                        <path d="M44.6116587,11.6636897 C44.3217468,14.8569102 44.0447633,17.9551574 43.7602422,20.948429 C41.3500183,22.4844006 38.7974385,24.1185194 36.0719706,25.8567482 C36.2583119,22.6397722 36.4475156,19.3334011 36.6236,15.9063778 C39.4632771,14.4072414 42.1193798,13.0018762 44.6116587,11.6636897" id="Fill-333" fill="#262626"></path>
                        <path d="M43.6830532,21.8230014 C43.4220514,24.7211554 43.1586165,27.5193349 42.9145027,30.259232 C40.5965431,31.9876508 38.1366569,33.8244596 35.5349871,35.7753325 C35.6822569,32.8694364 35.8585798,29.8840992 36.0224991,26.8095593 C38.7420991,25.0399773 41.2838973,23.3903262 43.6830532,21.8230014" id="Fill-334" fill="#262626"></path>
                        <path d="M35.7471376,16.3851397 C35.5610825,19.8282243 35.3882422,23.1709979 35.2279963,26.4030734 C32.2790238,28.2939808 29.1210973,30.3003951 25.7556,32.4746838 C25.7653798,28.9991399 25.7875156,25.3971252 25.8017321,21.6744102 C29.3442202,19.7795595 32.6578129,18.0218071 35.7471376,16.3851397" id="Fill-335" fill="#262626"></path>
                        <path d="M42.8458055,31.0600377 C42.594011,33.6951034 42.3614422,36.2717907 42.1319266,38.7641319 C39.8956404,40.6640318 37.5223413,42.6617903 35.0221908,44.7573112 C35.1759486,42.124746 35.322789,39.4187989 35.4830348,36.6230718 C38.0794569,34.6671016 40.5233615,32.8147606 42.8458055,31.0600377" id="Fill-336" fill="#262626"></path>
                        <path d="M35.6274899,7.72140583 C38.0131927,6.66963003 40.2814422,5.66815404 42.432,4.71149586 C45.3634165,5.53403724 48.4401945,6.39509693 51.7196771,7.31424665 C49.6087156,8.41185009 47.4115009,9.57470865 45.0764624,10.8039764 C41.7310018,9.71810639 38.5930642,8.67984326 35.6274899,7.72140583" id="Fill-337" fill="#B2DD4C"></path>
                        <path d="M0.600242202,8.60487442 C3.85825688,7.54242313 6.97787522,6.5254148 9.9437835,5.55418602 C12.0030789,6.39798219 14.1768697,7.27048677 16.4602422,8.20343768 C13.4308367,9.31801611 10.2273504,10.5001098 6.84997433,11.7494302 C4.63973578,10.6465371 2.54962202,9.59841592 0.600242202,8.60487442" id="Fill-338" fill="#B2DD4C"></path>
                        <path d="M10.7939596,5.2706605 C13.5755303,4.36704313 16.2238569,3.50353097 18.7543009,2.67435348 C20.8673138,3.38004157 23.0841358,4.12006433 25.4256624,4.88860313 C22.8622055,5.84468426 20.1653138,6.83567712 17.3457688,7.88211517 C15.0522348,6.96527367 12.8685211,6.10354075 10.7939596,5.2706605" id="Fill-339" fill="#9AC03E"></path>
                        <path d="M19.4919853,2.4355015 C21.8739669,1.65729705 24.1585321,0.907752915 26.3398129,0.160757429 C28.4661835,0.78190721 30.7011339,1.41113574 33.0246752,2.0748432 C30.8498825,2.88492984 28.5574936,3.73459273 26.1626789,4.62344715 C23.8264,3.85495643 21.6097211,3.12536871 19.4919853,2.4355015" id="Fill-340" fill="#829F3D"></path>
                        <path d="M16.5442532,37.8071852 C16.6682422,40.6118085 16.7745321,43.3274213 16.8792,45.9747494 C19.4391266,48.0997001 22.1675523,50.3676638 25.0536477,52.7475277 C25.070011,49.9816151 25.073255,47.100388 25.0794569,44.124428 C22.0574459,41.8845476 19.2139523,39.7770528 16.5442532,37.8071852" id="Fill-341" fill="#B2DD4C"></path>
                        <path d="M0.31467156,9.18486107 C0.606730274,12.1116273 0.928319267,14.9744367 1.23287706,17.774684 C3.15029358,18.9424475 5.16794129,20.1973461 7.29011376,21.5127871 C7.03831924,18.5429343 6.79964401,15.4730589 6.53339452,12.3249446 C4.32301285,11.2167138 2.24830825,10.1631587 0.31467156,9.18486107" id="Fill-342" fill="#B2DD4C"></path>
                        <path d="M8.76562567,32.0394414 C8.97319631,34.6737858 9.17914497,37.234556 9.37822382,39.7270415 C11.5167596,41.5099919 13.7657835,43.3690172 16.1466679,45.3510991 C16.0269725,42.7252181 15.9002642,40.0206174 15.7766569,37.2265253 C13.2961138,35.3940926 10.9728587,33.6682224 8.76562567,32.0394414" id="Fill-343" fill="#9AC03E"></path>
                        <path d="M2.27969908,27.2182092 C2.55067156,29.6985766 2.82035596,32.1209502 3.0888,34.4908599 C4.88475596,35.977205 6.77059083,37.550685 8.76710459,39.2161089 C8.55776879,36.7291054 8.34709726,34.1790107 8.12449911,31.5661615 C6.07464955,30.0439911 4.12479266,28.598136 2.27969908,27.2182092" id="Fill-344" fill="#829F3D"></path>
                        <path d="M34.6690679,37.3453983 C34.5296697,40.1457898 34.3937541,42.8778487 34.2454348,45.5261386 C31.5585138,47.7943427 28.699611,50.2140233 25.6525541,52.7540676 C25.6690606,49.9933485 25.6928661,47.106399 25.7098018,44.1458271 C28.8835192,41.723694 31.8753798,39.4690987 34.6690679,37.3453983" id="Fill-345" fill="#B2DD4C"></path>
                        <path d="M51.9100734,7.92996251 C51.5262752,10.8784163 51.1714348,13.741899 50.8256587,16.547484 C48.8220844,17.8211849 46.6966679,19.1767792 44.469255,20.5926757 C44.744044,17.6206589 45.0371046,14.5536206 45.3385138,11.3969468 C47.6374385,10.1684965 49.8245394,9.01650577 51.9100734,7.92996251" id="Fill-346" fill="#B2DD4C"></path>
                        <path d="M50.7161248,17.3650724 C50.3883339,20.0596708 50.0590165,22.6965158 49.7489248,25.2697888 C47.8010715,26.7156439 45.7470715,28.253539 43.5864954,29.8624117 C43.8464,27.1378065 44.109978,24.3449166 44.3820477,21.4781639 C46.6034973,20.03077 48.7236183,18.6699822 50.7161248,17.3650724" id="Fill-347" fill="#9AC03E"></path>
                        <path d="M48.7590642,33.3064581 C46.8612073,34.8984519 44.8775266,36.5660878 42.792422,38.3202818 C43.0223192,35.8434729 43.2709652,33.2928492 43.5125027,30.658072 C45.6625358,29.0337631 47.7110018,27.4802395 49.6586165,26.0238532 C49.3513871,28.5024413 49.0480697,30.9282291 48.7590642,33.3064581 Z" id="Fill-348" fill="#829F3D"></path>
                    </g>
                    <g id="Group" opacity="0.3" transform="translate(253.000000, 237.000000)">
                        <path d="M23.1546468,9.97797273 C25.625766,8.88055886 27.9733211,7.84968644 30.1837294,6.87237179 C32.7642936,7.72867171 35.4887752,8.63603252 38.3843807,9.59387163 C36.2091881,10.7342316 33.8932156,11.9644371 31.4314679,13.271005 C28.4994908,12.0956473 25.7389266,10.993531 23.1546468,9.97797273" id="Fill-322" fill="#262626"></path>
                        <path d="M6.5228119,10.3870841 C9.45829816,9.2783511 12.2348807,8.25076622 14.8648211,7.25859522 C16.9853532,8.12608942 19.2500504,9.04019177 21.636578,10.010432 C18.9702247,11.162652 16.1271743,12.4011388 13.1207615,13.7164458 C10.7779128,12.5221951 8.5891376,11.4151267 6.5228119,10.3870841" id="Fill-323" fill="#262626"></path>
                        <path d="M15.621977,6.97170541 C18.0750963,6.05668754 20.404156,5.18565611 22.6222844,4.34903981 C24.7662248,5.07500337 27.0449587,5.82947281 29.440734,6.62655541 C27.2255367,7.5858094 24.8820688,8.60736019 22.4102477,9.66856951 C20.0153807,8.72579483 17.7645137,7.82505071 15.621977,6.97170541" id="Fill-324" fill="#262626"></path>
                        <path d="M13.8531055,14.0762024 C16.8726468,12.7470379 19.7194541,11.4811688 22.3943119,10.3103887 C24.9660826,11.3672285 27.7268532,12.4784168 30.668078,13.6672575 C27.9989587,15.0789019 25.1404679,16.5999089 22.0919037,18.2073491 C19.1483257,16.7411067 16.4036147,15.3609228 13.8531055,14.0762024" id="Fill-325" fill="#262626"></path>
                        <path d="M23.2645046,4.11504193 C25.3366927,3.33672743 27.3203257,2.5877511 29.2065688,1.88209538 C31.356578,2.48500509 33.6187982,3.11704491 35.9847248,3.78295886 C34.1189587,4.60184741 32.1511789,5.45049028 30.0820459,6.35156732 C27.6906055,5.55440149 25.416867,4.8179511 23.2645046,4.11504193" id="Fill-326" fill="#262626"></path>
                        <path d="M13.9625504,24.0605422 C14.0717477,26.7559498 14.1787982,29.3650491 14.279078,31.8741073 C16.6030183,33.5830451 19.0767385,35.3928146 21.7094863,37.317107 C21.7210459,34.6278167 21.7304174,31.8476821 21.7375596,28.971876 C18.9705963,27.2283983 16.3762018,25.60348 13.9625504,24.0605422" id="Fill-327" fill="#262626"></path>
                        <path d="M6.25293576,10.8714343 C6.46641743,13.6279735 6.68221101,16.2980379 6.88289447,18.8957765 C8.87350458,20.1213212 10.9864404,21.4166532 13.2267798,22.8135661 C13.0978486,20.0413382 12.9711881,17.1734389 12.8377982,14.2146952 C10.4996147,13.0294333 8.31075687,11.9178705 6.25293576,10.8714343" id="Fill-328" fill="#262626"></path>
                        <path d="M6.9503119,19.6585272 C7.15289447,22.1469447 7.33615598,24.5812218 7.52664218,26.9424656 C9.44529358,28.333594 11.469055,29.8222667 13.6108899,31.3944595 C13.5018165,28.8901453 13.381844,26.3041836 13.2598073,23.6317472 C11.032555,22.2253879 8.93683486,20.9023406 6.9503119,19.6585272" id="Fill-329" fill="#262626"></path>
                        <path d="M13.5705137,14.5881846 C13.6954817,17.5697746 13.8136789,20.4560676 13.9207706,23.2471883 C16.3604312,24.7575837 18.9633303,26.3685611 21.7387156,28.0891926 C21.7515963,25.0813855 21.7707936,21.9642158 21.7785137,18.7428019 C18.8523991,17.2532969 16.1121055,15.8776074 13.5705137,14.5881846" id="Fill-330" fill="#262626"></path>
                        <path d="M1.14403211,15.9914645 C1.40536239,18.3236614 1.65178899,20.5972653 1.90597706,22.8158965 C3.50199083,23.9829313 5.19394954,25.2339024 6.97640369,26.5327716 C6.78141743,24.176147 6.58531653,21.7694603 6.36960553,19.2903644 C4.53699083,18.1337748 2.79949541,17.0295362 1.14403211,15.9914645" id="Fill-331" fill="#262626"></path>
                        <path d="M30.4428303,23.6642897 C30.3060137,26.3474626 30.171922,28.957852 30.040266,31.4817665 C27.6042385,33.3018148 25.0103394,35.2394654 22.2412294,37.3224336 C22.2482477,34.6332266 22.2669908,31.8664502 22.2828027,28.9814473 C25.1948807,27.0860353 27.9135413,25.3182548 30.4428303,23.6642897" id="Fill-332" fill="#262626"></path>
                        <path d="M38.6062431,10.0935776 C38.3553578,12.8569415 38.1156606,15.538117 37.8694404,18.1284482 C35.7836697,19.4576544 33.5747064,20.8717956 31.2161284,22.3760321 C31.3773853,19.5921106 31.5411193,16.7308279 31.6935,13.7651346 C34.1509128,12.4678051 36.4494633,11.2516237 38.6062431,10.0935776" id="Fill-333" fill="#262626"></path>
                        <path d="M37.8026422,18.8852897 C37.5767753,21.3933075 37.3488027,23.814809 37.1375504,26.1858738 C35.1316239,27.6816209 33.0028761,29.2711669 30.7514312,30.9594223 C30.8788761,28.4447045 31.0314633,25.8612397 31.1733165,23.2005802 C33.5268165,21.6692111 35.7264496,20.2416284 37.8026422,18.8852897" id="Fill-334" fill="#262626"></path>
                        <path d="M30.935023,14.1794478 C30.7740137,17.1590403 30.6244404,20.0518251 30.485766,22.8488135 C27.9337706,24.4851757 25.2009496,26.2214958 22.2885,28.1030918 C22.2969633,25.0954096 22.3161193,21.9782814 22.328422,18.7567011 C25.3940367,17.1169265 28.2615688,15.5957946 30.935023,14.1794478" id="Fill-335" fill="#262626"></path>
                        <path d="M37.0781009,26.8788788 C36.8602018,29.1592241 36.6589404,31.3890496 36.4603211,33.5458834 C34.5250734,35.1900275 32.4712569,36.918857 30.3076651,38.7322886 C30.4407248,36.4541071 30.5677982,34.1124221 30.7064725,31.6930429 C32.9533761,30.0003764 35.0682936,28.3973889 37.0781009,26.8788788" id="Fill-336" fill="#262626"></path>
                        <path d="M30.8314817,6.68198582 C32.8960321,5.77179522 34.8589404,4.90513331 36.72,4.07725603 C39.2568027,4.78907069 41.9193991,5.5342185 44.7574128,6.32963652 C42.9306193,7.27948566 41.0291835,8.28580556 39.008477,9.34959498 C36.113367,8.40989976 33.397844,7.51140282 30.8314817,6.68198582" id="Fill-337" fill="#B2DD4C"></path>
                        <path d="M0.519440367,7.44652594 C3.33887615,6.52709694 6.03854587,5.64699357 8.60519726,4.80650713 C10.3872798,5.53671536 12.268445,6.2917674 14.2444404,7.09912876 C11.6228394,8.06366779 8.85059173,9.08663346 5.9278624,10.1677761 C4.01515596,9.21334937 2.20640367,8.30632147 0.519440367,7.44652594" id="Fill-338" fill="#B2DD4C"></path>
                        <path d="M9.34092659,4.56114851 C11.748055,3.77917194 14.0398761,3.0319018 16.2296835,2.31434436 C18.0582523,2.92503597 19.976656,3.56544028 22.002977,4.23052194 C19.7846009,5.05789984 17.4507523,5.91548981 15.0107615,6.82106121 C13.0259725,6.02764067 11.1362202,5.28191027 9.34092659,4.56114851" id="Fill-339" fill="#9AC03E"></path>
                        <path d="M16.8680642,2.10764553 C18.9293945,1.43419937 20.906422,0.785555408 22.7940688,0.139117006 C24.6341973,0.67665047 26.568289,1.22117516 28.5790459,1.79553738 C26.6970137,2.4965739 24.7132156,3.23185909 22.6407798,4.00106003 C20.619,3.33601998 18.7007202,2.704646 16.8680642,2.10764553" id="Fill-340" fill="#829F3D"></path>
                        <path d="M14.3171422,32.7177564 C14.4244404,35.1448342 14.516422,37.4948838 14.607,39.7858408 C16.8223211,41.6247404 19.1834587,43.5874013 21.6810413,45.646899 C21.6952018,43.2533208 21.6980092,40.7599512 21.7033761,38.1846012 C19.0881743,36.2462431 16.6274587,34.4224495 14.3171422,32.7177564" id="Fill-341" fill="#B2DD4C"></path>
                        <path d="M0.272311927,7.94843746 C0.525055045,10.4812159 0.803353212,12.9586472 1.06691284,15.3819381 C2.7262156,16.3925027 4.47225688,17.4784726 6.30875229,18.616835 C6.09085319,16.0467701 5.88430732,13.3901471 5.6538991,10.6658175 C3.74106881,9.70677155 1.94565137,8.79504122 0.272311927,7.94843746" id="Fill-342" fill="#B2DD4C"></path>
                        <path d="M7.5856376,27.7264397 C7.76526603,30.0061608 7.94349084,32.2222119 8.11577062,34.3791705 C9.96642659,35.9221084 11.9126973,37.5308803 13.973078,39.2461434 C13.8694954,36.9737464 13.759844,34.6332266 13.6528761,32.2152623 C11.5062523,30.6295032 9.49574313,29.1359617 7.5856376,27.7264397" id="Fill-343" fill="#9AC03E"></path>
                        <path d="M1.97281651,23.5542195 C2.20731193,25.7006913 2.44069266,27.7969761 2.673,29.8478596 C4.22719266,31.1341197 5.85916514,32.4957851 7.58691743,33.9370173 C7.40576145,31.7848027 7.22344955,29.57799 7.03081653,27.3168705 C5.25690827,25.9996077 3.56953211,24.7483869 1.97281651,23.5542195" id="Fill-344" fill="#829F3D"></path>
                        <path d="M30.002078,32.3181332 C29.881445,34.7415489 29.7638257,37.1058306 29.6354725,39.3976199 C27.3102523,41.3604889 24.8362018,43.4544433 22.1993257,45.6525585 C22.2136101,43.2634747 22.234211,40.765153 22.248867,38.2031196 C24.9953532,36.1070429 27.5844633,34.1559508 30.002078,32.3181332" id="Fill-345" fill="#B2DD4C"></path>
                        <path d="M44.9221789,6.86246755 C44.5900459,9.41401411 44.2829725,11.892028 43.9837431,14.3199381 C42.2498807,15.4221792 40.410578,16.5952897 38.4830092,17.8205847 C38.7208073,15.2486471 38.9744174,12.5944794 39.2352523,9.8627424 C41.2247064,8.79966042 43.1173899,7.80274538 44.9221789,6.86246755" id="Fill-346" fill="#B2DD4C"></path>
                        <path d="M43.8889541,15.0274665 C43.605289,17.3593305 43.3203027,19.6412156 43.0519541,21.8680864 C41.3663119,23.1193072 39.5888119,24.450178 37.7190826,25.8424716 C37.944,23.4846402 38.1720963,21.0677163 38.4075413,18.5868726 C40.3299496,17.3343202 42.1646697,16.1567154 43.8889541,15.0274665" id="Fill-347" fill="#9AC03E"></path>
                        <path d="M42.195344,28.8228964 C40.5529679,30.2005834 38.8363211,31.6437299 37.0319037,33.1617823 C37.2308532,31.01839 37.4460275,28.8111195 37.6550504,26.5310238 C39.515656,25.1253719 41.288367,23.7809765 42.9738027,22.5206422 C42.7079312,24.6655742 42.445445,26.7648136 42.195344,28.8228964 Z" id="Fill-348" fill="#829F3D"></path>
                    </g>
                </g>
            </g>
        </g>
    </g>
</svg>