<?xml version="1.0" encoding="UTF-8"?>
<svg width="169px" height="58px" viewBox="0 0 169 58" version="1.1" xmlns="http://www.w3.org/2000/svg" xmlns:xlink="http://www.w3.org/1999/xlink">
    <title>Logo Cuby Blog</title>
    <defs>
        <filter x="-0.8%" y="-2.6%" width="101.6%" height="105.2%" filterUnits="objectBoundingBox" id="filter-1">
            <feOffset dx="0" dy="0" in="SourceAlpha" result="shadowOffsetOuter1"></feOffset>
            <feGaussianBlur stdDeviation="2" in="shadowOffsetOuter1" result="shadowBlurOuter1"></feGaussianBlur>
            <feColorMatrix values="0 0 0 0 0   0 0 0 0 0   0 0 0 0 0  0 0 0 0.2 0" type="matrix" in="shadowBlurOuter1" result="shadowMatrixOuter1"></feColorMatrix>
            <feMerge>
                <feMergeNode in="shadowMatrixOuter1"></feMergeNode>
                <feMergeNode in="SourceGraphic"></feMergeNode>
            </feMerge>
        </filter>
    </defs>
    <g id="website" stroke="none" stroke-width="1" fill="none" fill-rule="evenodd">
        <g id="index" transform="translate(-455.000000, -33.000000)">
            <g id="Header" filter="url(#filter-1)">
                <g id="cuby_completo" transform="translate(228.000000, 37.000000)">
                    <g id="Group-5" transform="translate(231.000000, 0.000000)">
                        <path d="M40.7062859,27.9595981 C39.0034696,32.2085965 36.3480996,33 31.7930855,33 L28.124986,33 C26.6527286,33 25.4253728,32.5740634 24.4570268,31.7300915 C23.488401,30.8780812 23,29.8132398 23,28.5196732 C23,27.7782348 23.2142535,26.9184604 23.6513103,25.9324486 L27.0708178,18.2103269 C28.0222046,16.0726057 29.3334208,15 30.9875093,15 C31.7074028,15 32.3159187,15.2129684 32.8215587,15.6387679 C33.3271522,16.0569403 33.5757442,16.5775091 33.5757442,17.192756 C33.5757442,17.6581531 33.4386708,18.1866232 33.1728856,18.7862046 L32.8986451,19.4091699 L30.2589723,25.3488525 L29.9847311,26.0428834 C29.8304181,26.4451162 29.7447354,26.7449526 29.7276831,26.9421641 C29.6933912,27.636195 30.1819324,27.9833018 31.1845697,27.9833018 C33.2587085,27.9833018 34.6385093,27.7326542 35.3327079,26.1944686 L38.4693779,18.5572967 C39.4036652,16.40391 40.7319809,15.3234031 42.4375538,15.3234031 C43.1402549,15.3234031 43.7411082,15.5371478 44.2457673,15.9700722 C44.7504736,16.4031336 45,16.9167147 45,17.516159 C45,17.9972216 44.7856993,18.7308958 44.3486897,19.73271 L40.7062859,27.9595981 Z" id="Fill-318" fill="#B3DD4C"></path>
                        <path d="M10.064397,15.0127791 C5.3626855,14.8064361 3.5978141,17.1023896 1.86571923,21.6497806 L0.471022194,25.3117758 C-0.0888681663,26.7816732 -0.14922609,28.1980692 0.287871182,29.543586 C0.73247801,30.8927517 1.56274992,31.8581487 2.79710677,32.4385454 C3.50463261,32.7711846 4.40640854,32.9430002 5.51343821,32.949112 L14.1819898,32.9999224 C16.5834507,33.009227 18.105616,32.1814833 18.7345542,30.530192 C19.0083365,29.8113667 19.0364372,29.1082771 18.8223518,28.4125764 C18.6156812,27.7200686 18.2134854,27.2383279 17.6264859,26.9622917 C17.1823984,26.7534857 16.6260028,26.6533246 15.9529062,26.6495388 L15.2540703,26.6438831 L8.58294239,26.6142362 L7.81633373,26.5766529 C7.37389955,26.5501075 7.05525074,26.5011215 6.86062311,26.4297407 C6.1853538,26.1525642 6.03984395,25.5092247 6.42111738,24.5081146 C7.2098758,22.4375237 7.97365074,21.1724186 9.70532103,21.1694539 L18.1852429,21.4645098 C20.5951573,21.497988 22.1313501,20.6566979 22.7798409,18.9539577 C23.0470582,18.2524189 23.0715693,17.5565814 22.8503996,16.8585091 C22.6291352,16.1602542 22.2339296,15.6808397 21.6619956,15.4117819 C21.2029374,15.1959975 20.4214991,15.0807848 19.2993569,15.0676033 L10.064397,15.0127791 Z" id="Fill-319" fill="#B3DD4C"></path>
                        <path d="M62.0350399,28.4585193 C60.4642633,32.5054318 57.9211323,33.1612824 53.5367201,32.9707697 L50.0059742,32.8171922 C48.5887346,32.7556791 47.400451,32.2915268 46.4547101,31.4328518 C45.5086893,30.5666985 45.0213721,29.5141821 45.0005284,28.2603916 C44.9885248,27.5418423 45.1809576,26.7174577 45.5858298,25.7800788 L48.7528331,18.4386376 C48.9051602,18.0876164 49.0682819,17.7676937 49.2422437,17.4791887 L55.3741394,3.07760661 L55.6219391,2.49439519 C56.3200206,0.877271787 57.4913216,0.0486009073 59.1276069,0.00145152731 C59.8086602,-0.0182016445 60.4043834,0.161595265 60.898587,0.548320504 C61.4010714,0.93490894 61.656641,1.40152365 61.6738089,1.95541487 C61.6871157,2.3851856 61.5692176,2.87729015 61.3289092,3.43838599 L61.0812492,4.02893885 C59.0035215,8.85773758 56.9434269,13.6967505 54.888404,18.5367666 C54.8283851,18.7633482 54.7439864,19.0015574 54.635859,19.2520784 L54.3818248,19.844592 L51.9949761,25.3565095 L51.9258379,25.5193436 L51.6838543,26.1520756 C51.541949,26.5354265 51.46425,26.8225179 51.4509432,27.0129394 C51.429169,27.6842936 51.9049008,28.0410147 52.8701372,28.083057 C54.8664901,28.1697863 56.1906305,27.9845631 56.8340904,26.5227955 L59.7303099,19.2519416 C60.5948162,17.2038619 61.8560528,16.2122201 63.4977817,16.283537 C64.1740889,16.3130395 64.7559481,16.5454121 65.2488016,16.986081 C65.7416557,17.4269779 65.9900133,17.9351789 65.9997839,18.5162015 C66.0074142,18.9824514 65.8130269,19.684585 65.4085267,20.6370572 L62.0350399,28.4585193 Z" id="Fill-320" fill="#B2DD4C"></path>
                        <path d="M76.1716091,32.8714247 C75.9643803,32.8663513 75.7528714,32.8588553 75.5368032,32.8493939 L72.0059633,32.6926187 C70.588863,32.6297714 69.4004402,32.1558347 68.4548382,31.2793557 C67.5086776,30.3949237 67.0213603,29.3203503 67.0005165,28.0403692 C66.9886525,27.3066792 67.1810854,26.465029 67.5859577,25.5080599 L70.7529152,18.0128302 C71.6341714,15.9382772 72.8790775,14.9328586 74.4711634,15.0034761 C75.1642667,15.0342827 75.7533837,15.2709996 76.2468885,15.7141298 C76.7403939,16.1493069 76.9881003,16.6750754 76.9979636,17.2838937 C77.0055012,17.7444839 76.8820669,18.2615681 76.6359423,18.8433278 L76.3819544,19.4481239 L73.9367614,25.2127922 L73.6839371,25.8879314 C73.5419384,26.2793669 73.464379,26.5723035 73.4510259,26.7667872 C73.429298,27.4521648 73.9049836,27.8163589 74.8701269,27.8592321 C76.7976682,27.94475 78.0983125,27.7712917 78.7648492,26.4163053 L79.1379443,25.4877203 L81.7303008,18.8433278 C82.594947,16.7523203 83.8561838,15.7399086 85.4977741,15.8127199 C86.1742211,15.8427495 86.7560797,16.0800149 87.2487936,16.5299554 C87.7416478,16.9799416 87.9901451,17.4988541 87.9997761,18.0919948 C88.007546,18.5679884 87.8131587,19.2848582 87.4085188,20.2575049 L84.9273605,26.130636 C82.1527606,33.0060321 79.3996087,39.8958258 76.6434792,46.7773009 C75.7735762,48.932344 74.5181548,50.0065518 72.8691673,49.9999699 C72.1868115,49.9972275 71.6110006,49.7789305 71.1417361,49.3453988 C70.6803805,48.9202773 70.4470974,48.3962 70.449703,47.7735324 C70.451703,47.3086457 70.5838384,46.7612577 70.8381049,46.1479144 L71.1008395,45.4930691 L76.1716091,32.8714247 Z" id="Fill-321" fill="#B3DD4C"></path>
                        <g id="serviços-digitais" transform="translate(90.000000, 8.000000)" fill="#444" font-family="IstokWeb-Italic, Istok Web" font-size="22" font-style="italic" font-weight="normal">
                            <text id="serviços">
                                <tspan x="7" y="24">blog</tspan>
                            </text>
                        </g>
                    </g>
                </g>
            </g>
        </g>
    </g>
</svg>