<?xml version="1.0" encoding="UTF-8"?>
<svg viewBox="0 0 320 251" version="1.1" xmlns="http://www.w3.org/2000/svg" xmlns:xlink="http://www.w3.org/1999/xlink">
    <title>Megafone</title>
    <desc>Vamos trabalhar juntos?</desc>
    <g id="website" stroke="none" stroke-width="1" fill="none" fill-rule="evenodd">
        <g id="index" transform="translate(-98.000000, -1651.000000)">
            <g id="Contato" transform="translate(67.000000, 1493.000000)">
                <g id="Megafone" transform="translate(191.000000, 283.500000) scale(-1, 1) translate(-191.000000, -283.500000) translate(31.000000, 158.000000)">
                    <path d="M175.697466,178 C152.413859,178 141.117781,159.28926 136.316338,148.556909 C133.697044,142.693859 134.886982,135.051061 140.784861,132.444472 C146.684526,129.839067 148.807119,139.29535 153.961732,145.009249 C156.477398,147.795174 163.986279,154.767977 175.697466,154.767977 C188.243634,154.767977 199.54805,148.726775 199.65942,148.664037 C205.303588,145.549033 212.399147,147.582101 215.531818,153.188872 C218.666871,158.79801 216.613364,165.879125 210.969792,168.995904 C210.305737,169.364046 194.448824,178 175.697466,178 Z" id="Path" fill="#FFFFFF"></path>
                    <path d="M238.419447,214 L198.934246,206.475266 C198.934246,206.475266 186.856108,186.818673 191.408415,163.346655 C197.272465,133.117757 164.115625,113.907688 172.310259,71.6602009 C180.810424,27.837659 221.707808,1.95774968 260.146502,9.21182667 C260.168154,9.21599979 260.191008,9.21957675 260.209653,9.22434603 C260.233711,9.22911531 260.255964,9.23388459 260.277014,9.23746156 C298.68744,16.63104 326.985238,55.6998008 318.482667,99.5229389 C310.288034,141.766253 270.289804,145.76291 264.42395,175.992404 C259.871643,199.466211 238.419447,214 238.419447,214 Z" id="Path" fill="#FFFFFF"></path>
                    <path d="M239.83151,251 C253.933153,251 258.918405,184.724497 258.918405,184.724497 C259.720967,177.445732 254.51252,170.891718 247.284784,170.082639 C240.053532,169.271791 233.543414,174.519601 232.74261,181.794238 C232.74261,181.794238 225.732795,251 239.83151,251 Z" id="Path" fill="#FFFFFF"></path>
                    <path d="M211.802013,251 C228.005189,251 217.869048,180.900721 217.869048,180.900721 C217.145202,173.629117 210.781131,168.328475 203.658608,169.069058 C196.534932,169.804931 191.344009,176.298864 192.067278,183.572824 C192.067278,183.572824 196.888492,251 211.802013,251 Z" id="Path" fill="#FFFFFF"></path>
                    <path d="M262.314158,14 C262.314158,14 270.799478,13.9671006 274.994792,9.20207741 C279.30656,4.30067138 268.616833,2.8106296 264.277421,6.4869832 C262.370621,8.10204254 261.457803,9.59926237 261.457803,9.59926237 C261.457803,9.59926237 261.24842,2.20528143 257.860056,0.47716793 C254.473456,-1.24735655 251.867927,2.04437366 253.327141,4.89884151 C254.785767,7.75330936 254.785767,7.75330936 254.785767,7.75330936 C254.785767,7.75330936 252.260815,4.12540754 247.808477,2.69219191 C244.195438,1.5269565 240.979991,1.51618944 242.303929,4.6547881 C243.195573,6.76872133 251.156259,12.3233291 251.156259,12.3233291 L262.314158,14 Z" id="Path" fill="#FFFFFF"></path>
                    <path d="M186.855471,40.8236795 C188.512072,42.0304153 190.232984,43.1335766 191.958659,44.2042559 C193.690884,45.2669679 195.468961,46.2457171 197.26907,47.1570508 C198.60888,47.8495909 199.987991,48.4937145 201.357575,49.0802286 C202.363921,47.2796243 203.375031,45.4826972 204.409364,43.704769 L204.487371,43.5834212 C205.091774,42.6947635 206.285098,42.4839372 207.143768,43.1096748 L207.252739,43.1881218 C209.037366,44.4812719 210.851171,45.7266184 212.696536,46.916194 C214.549642,48.0971894 216.389648,49.2941193 218.281459,50.4021835 C220.167912,51.5200536 222.077588,52.5858299 224.012869,53.5933839 C224.477336,53.8305636 224.952522,54.0714204 225.426517,54.309213 L224.756612,50.1987116 C224.633945,49.3995325 224.84891,48.537841 225.427113,47.8980075 C226.417977,46.7936205 228.094228,46.7274308 229.169649,47.7515322 L229.200613,47.7815627 C233.264703,51.6499815 237.862336,55.07162 242.742222,58.0605741 C247.579233,61.1408455 252.68778,63.8221402 257.865997,66.3912802 C260.457487,67.6795274 263.085897,68.8911662 265.734552,70.0715487 C268.370703,71.280736 271.037818,72.4366039 273.725179,73.5428295 C279.083824,75.8196317 284.518093,77.9193153 290,80 C284.206662,79.1566945 278.51098,77.7483253 272.852218,76.1824492 C270.036236,75.3569168 267.228589,74.4835809 264.436425,73.5452809 C261.656766,72.5781762 258.897948,71.5369146 256.158186,70.4300761 C250.675683,68.2163992 245.326566,65.6061971 240.134654,62.6135657 C237.039395,60.7510618 233.976887,58.7537271 231.06682,56.5136969 L231.355028,58.4620022 L231.364555,58.5300305 C231.436607,59.0123571 231.380633,59.521037 231.172218,60.001525 C230.598779,61.3351244 229.080328,61.9320572 227.786965,61.3400274 C225.605159,60.339215 223.637127,59.3034691 221.650039,58.1463755 C219.675457,57.007668 217.733626,55.8119637 215.828714,54.5672301 C213.928566,53.3145292 212.037349,52.0465067 210.225331,50.663265 C208.952809,49.7053533 207.705892,48.7161854 206.469099,47.7135344 C205.468707,49.1936091 204.470698,50.6767481 203.445297,52.1384368 L203.333348,52.2983951 C202.902822,52.913714 202.094173,53.1337334 201.414145,52.7893019 C199.460404,51.7958439 197.705551,50.7263904 195.931642,49.577264 C194.186912,48.4115903 192.495178,47.1637924 190.86061,45.8596106 C189.217705,44.5572675 187.664717,43.1446082 186.176039,41.6767909 C184.674856,40.2175537 183.306464,38.6253242 182,37 C183.557157,38.3709843 185.206612,39.6114278 186.855471,40.8236795 Z" id="Path" fill="#231F20"></path>
                    <g id="Group" transform="translate(165.000000, 59.000000)" fill="#231F20">
                        <path d="M31.535772,28.2847097 C30.0896788,32.2705645 25.6630466,34.3324194 21.6493264,32.8971774 C17.6368083,31.4595484 15.5548187,27.0660968 17.0039171,23.0808387 C18.4482073,19.0949839 22.8766425,17.0295484 26.8891606,18.468371 C30.9028808,19.9036129 32.9842694,24.2976613 31.535772,28.2847097 Z" id="Path"></path>
                        <path d="M20.615544,13.4489032 C23.2462798,14.0940161 25.4574922,14.6138065 27.4132642,15.5835645 C28.3851399,16.0639677 29.2939067,16.6374677 30.1672124,17.3607581 C31.0585492,18.0739032 31.883171,18.949371 32.8556477,19.9203226 C33.0365596,17.1972419 31.2310466,14.4186613 28.6093264,13.1803548 C27.3183005,12.5459839 25.8908394,12.2666935 24.5108601,12.3066774 C23.1362902,12.3645645 21.7737409,12.6742903 20.615544,13.4489032 Z" id="Path"></path>
                        <path d="M83.8704041,47.0192419 C82.4243109,51.0027097 84.5044974,55.3949677 88.5206218,56.8331935 C92.5337409,58.2666452 96.9585699,56.2053871 98.4046632,52.2213226 C99.8555648,48.2330806 97.7705699,43.8366452 93.7592539,42.4025968 C89.7443316,40.9661613 85.3164974,43.0298065 83.8704041,47.0192419 Z" id="Path"></path>
                        <path d="M101.812539,42.513 C101.423067,41.1833871 100.570798,40.0817419 99.5466321,39.1656935 C98.5128497,38.2615806 97.2332435,37.5735 95.8316269,37.2446774 C93.015772,36.5357097 89.8398964,37.5305323 88.2309223,39.7439677 C89.6072953,39.6102903 90.7997513,39.4610968 91.9459275,39.4754194 C93.0830881,39.4706452 94.1487254,39.6067097 95.2053472,39.8519839 C97.3366218,40.3443226 99.3729326,41.3451129 101.812539,42.513 Z" id="Path"></path>
                        <path d="M66.7462798,40.2542097 C71.4505907,27.3054032 85.8874819,20.5678226 98.9293679,25.2369839 C111.973658,29.9055484 118.758756,44.2406613 114.058653,57.1900645 C109.356145,70.1418548 94.9168497,76.8812258 81.8725596,72.2096774 C68.8306736,67.5446935 62.0449741,53.2077903 66.7462798,40.2542097 Z M71.8310466,42.0749677 C68.1370777,52.2434032 73.4652642,63.5003548 83.7063212,67.1633548 C93.9473782,70.8305323 105.280518,65.5377419 108.973285,55.3693065 C112.664249,45.2038548 107.339067,33.9475 97.0938031,30.2839032 C86.8569534,26.6173226 75.5214093,31.9065323 71.8310466,42.0749677 Z" id="Shape" fill-rule="nonzero"></path>
                        <path d="M1.63241451,16.946 C6.33432124,3.99898387 20.7736166,-2.73859677 33.8179067,1.93116129 C46.8603938,6.59733871 53.6448912,20.9330484 48.9447876,33.8842419 C44.2422798,46.8360323 29.8029845,53.5724194 16.7610984,48.9056452 C3.71740933,44.2340968 -3.06829016,29.9007742 1.63241451,16.946 Z M6.71778238,18.7655645 C3.02501554,28.9357903 8.35139896,40.1879677 18.5948601,43.8557419 C28.8359171,47.5229194 40.1666528,42.2277419 43.8594197,32.0616935 C47.5503834,21.8956452 42.2252021,10.6404839 31.9847461,6.97390323 C21.7430881,3.30791935 10.407544,8.59951613 6.71778238,18.7655645 Z" id="Shape" fill-rule="nonzero"></path>
                        <path d="M68.1064249,38.8583548 L72.6334301,35.9258065 C69.848829,31.6916935 65.8393161,28.5455 61.0376373,26.8267903 C56.2690155,25.1188226 51.1902591,24.9929032 46.3561244,26.4615645 L47.9368497,31.5950161 C51.6464456,30.4659194 55.5429637,30.5625968 59.2062798,31.8749032 C62.8948394,33.1937742 65.970943,35.6107097 68.1064249,38.8583548 Z" id="Path"></path>
                    </g>
                    <path d="M229,110.645377 L217.717953,106.856626 L217.513961,106.787011 L206.231301,103 C206.231301,103 203.926742,109.051793 202.369541,116.413492 C200.978352,122.998994 203.611871,128.702716 208.641838,130.484258 L208.641838,130.488319 C208.661441,130.495861 208.677368,130.506303 208.695746,130.511524 C208.709835,130.517905 208.728825,130.520806 208.743527,130.523126 C208.755779,130.530088 208.769869,130.537629 208.783346,130.54285 C208.804174,130.550392 208.823164,130.550392 208.843992,130.556193 L208.846442,130.553873 C213.938893,132.170082 219.777476,129.308939 223.076267,123.365628 C226.764664,116.718634 229,110.645377 229,110.645377 Z" id="Path" fill="#231F20"></path>
                    <path d="M223.090492,125.904949 C223.780343,124.587216 224.41562,123.297782 225,122.062485 C222.940258,120.338728 215.941183,116.093317 202.000059,122.133847 C201.985956,127.524739 204.495174,131.897494 208.641025,133.452689 L208.641025,133.456996 C208.660648,133.464993 208.676591,133.476067 208.694987,133.481603 C208.709091,133.48837 208.7281,133.491446 208.742817,133.493907 C208.755081,133.501289 208.769184,133.509287 208.782675,133.514823 C208.803524,133.522821 208.822533,133.522821 208.843382,133.528973 L208.845834,133.526512 C213.943374,135.241041 219.787792,132.208164 223.090492,125.904949 Z" id="Path" fill="#B2DD4C"></path>
                    <path d="M264.993136,165.040561 C258.207337,158.977261 248.050718,162.473716 245.320501,171.18123 C243.411056,177.268932 250.518335,181.509314 253.834986,185.527709 C258.316852,190.956589 262.204629,197.412088 262.490781,204.665076 C262.768101,211.683578 260.611365,221.559355 266.654112,223.638184 C272.171658,225.53609 275.527758,219.545396 277.485484,215.482366 C280.270458,209.693426 281.45157,203.735465 280.844528,197.275205 C280.390571,192.43373 278.86855,187.816623 276.83075,183.432216 C274.606892,178.647874 270.404112,169.873705 264.993136,165.040561 Z" id="Path" fill="#FFFFFF"></path>
                    <g id="Group" transform="translate(201.000000, 152.000000)" fill="#231F20">
                        <polygon id="Path" points="15.9888 11.7268148 15.912 11.7084444 12.8742 10.9001481 11.7864 3.06488889 16.539 0.0865185185 18.912 0.71762963 18.9846 0.736 21.3594 1.36888889 23.9496 6.30281481 19.0266 12.5351111"></polygon>
                        <polygon id="Path" points="6.0564 47.8388148 0.1284 37.4980741 12.4896 12.736 15.417 13.5164444 15.417 13.5164444 15.4566 13.5253333 15.4938 13.5348148 15.4938 13.5348148 18.4242 14.3146667 16.5204 41.8613333 6.1314 47.8565926 6.1128 47.9354074 6.0828 47.8862222 6.036 47.9134815"></polygon>
                    </g>
                    <path d="M150.762034,107.103666 C147.025322,106.408695 142.329368,109.282447 140.319292,113.491387 L127.810157,139.684892 C125.798843,143.892027 127.664105,148.019736 131.949132,148.853702 C136.237253,149.688871 141.229025,146.862052 143.047872,142.574288 L154.240679,116.161762 C156.061382,111.873397 154.493176,107.795629 150.762034,107.103666 Z" id="Path" fill="#231F20"></path>
                    <path d="M174.13378,102.88327 L163.975292,100 L159,116.856084 L169.155484,119.736998 C172.730123,120.753652 176.467,118.732713 177.502918,115.22979 L178.732921,111.063628 C179.767036,107.561294 177.706616,103.897568 174.13378,102.88327 Z" id="Path" fill="#231F20"></path>
                    <path d="M143,84.3041432 C127.568496,73.300026 113.849341,58.8089486 109.165088,46.4949876 C101.48078,26.2993291 90.0076228,23 90.0076228,23 L55,143.3037 C55,143.3037 66.1688991,147.643637 83.5115975,134.653609 C93.9168572,126.856494 112.842535,121.923881 131.501089,120.714703 C139.925678,107.485221 142.377709,93.360471 143,84.3041432 Z" id="Path" fill="#B2DD4C"></path>
                    <path d="M172.815539,98.9404513 C170.086195,98.1822066 167.252888,97.18303 164.368852,96 C162.659098,108.231652 159.694272,116.173995 157,121.192109 C160.018061,121.666162 162.890197,122.262183 165.554407,123 C165.554407,123 169.493105,121.910699 172.565652,111.72126 C175.640078,101.528817 172.815539,98.9404513 172.815539,98.9404513 Z" id="Path" fill="#231F20"></path>
                    <path d="M165,96.3001481 C157.919734,93.3011033 150.491492,89.0213823 143.420743,84 C142.803309,92.955309 140.367479,106.92552 132,120.007977 C141.075922,119.420656 150.080464,119.720502 158.001821,121 C160.560186,116.079941 163.374923,108.293971 165,96.3001481 Z" id="Path" fill="#FFFFFF"></path>
                    <path d="M89.5602021,87.3128588 C79.9634138,120.620064 64.7726102,145.464163 55.6281696,142.804961 C46.4819459,140.146356 46.8469151,110.991878 56.4407314,77.6852702 C66.0351421,44.379857 81.2253513,19.5363549 90.3709807,22.1949596 C99.5172044,24.855953 99.1540185,54.00864 89.5602021,87.3128588 Z" id="Path" fill="#9FD323"></path>
                    <path d="M70.2630472,78.4831726 L68.4197328,84.7148883 C66.7952567,90.2121704 70.0294624,95.9583054 75.6455251,97.5490009 L84.3023192,100 C85.7864085,95.9432934 87.1979449,91.6908532 88.5021267,87.2802096 C89.8552669,82.7009696 91.0167024,78.2106469 92,73.8560096 L83.3732888,71.4113618 C77.7560463,69.8200889 71.8875232,72.9858905 70.2630472,78.4831726 Z" id="Path" fill="#F6F6F8"></path>
                    <g id="Group" transform="translate(0.000000, 22.000000)" fill="#B2DD4C">
                        <path d="M19.8236234,81.0747083 C16.6605844,75.2882222 15.1394935,68.6524861 14.7616623,62.0227222 C14.4088571,55.3607083 15.2481429,48.6861528 17.0243766,42.2248056 C18.7664286,35.8548333 21.5644545,29.5619028 25.4532468,24.0889583 C29.3505844,18.6016806 34.1512987,13.926625 39.5031948,10.0279583 C35.8426883,15.5009028 32.1138182,20.7451111 29.2047013,26.3094306 C26.2424805,31.8498611 24.0670519,37.6279861 22.3927532,43.6909861 C20.7483636,49.6673889 19.5886234,55.8349028 19.1308312,62.0603472 C18.633974,68.3025139 18.8866753,74.6061944 19.8236234,81.0747083 Z" id="Path"></path>
                        <path d="M7.82702597,85.7294583 C5.30916883,82.5379028 3.86498701,78.6356528 2.71257143,74.7680417 C1.63462338,70.8580278 0.952818182,66.8387222 0.671428571,62.7901528 C0.0494415584,54.6864444 0.868584416,46.4877778 3.03668831,38.5614444 C5.21822078,30.6852778 8.83538961,23.1829722 13.5683506,16.5329028 C15.9098052,13.1878611 18.5747662,10.067375 21.4979221,7.20966667 C24.4766234,4.44034722 27.6695714,1.71343056 31.4832857,0.166625 C28.3684675,2.72572222 25.8927273,5.79843056 23.5744675,8.95475 C21.2458312,12.0979306 19.1808831,15.4125139 17.263039,18.7784583 C13.4932727,25.5587222 10.4486494,32.6328194 8.40750649,40.0150833 C6.38223377,47.3495694 5.27681818,55.0035694 5.00275325,62.6969861 C4.90753247,66.5436944 4.97162338,70.4196667 5.38668831,74.2759306 C5.7748961,78.1381667 6.41519481,81.9920417 7.82702597,85.7294583 Z" id="Path"></path>
                        <path d="M33.5201558,72.2053611 C31.8611169,68.12275 31.1890779,63.7301806 31.1133896,59.3423889 C31.0615065,54.9396667 31.6468701,50.5697917 32.8371299,46.2614306 C33.995039,42.06475 35.7865325,37.926 38.0992987,34.1772361 C40.4358701,30.43325 43.2949351,26.9795139 46.844961,24.2878333 C45.1535714,28.3447639 43.4951429,32.1729583 42.0454675,36.0525139 C40.5793117,39.9314722 39.3115325,43.7620556 38.1994026,47.7473194 C37.1214545,51.6191111 36.2046494,55.6348333 35.4660779,59.6816111 C34.7061429,63.7457083 34.158013,67.8671389 33.5201558,72.2053611 Z" id="Path"></path>
                    </g>
                </g>
            </g>
        </g>
    </g>
</svg>