<?xml version="1.0" encoding="UTF-8"?>
<svg width="267px" height="131px" viewBox="0 0 267 131" version="1.1" xmlns="http://www.w3.org/2000/svg" xmlns:xlink="http://www.w3.org/1999/xlink">
    <title>Plane</title>
    <desc>Plane - Cuby Digital</desc>
    <g id="website" stroke="none" stroke-width="1" fill="none" fill-rule="evenodd">
        <g id="index" transform="translate(-757.000000, -1336.000000)">
            <g id="Plane-Central" transform="translate(408.111328, 1321.814959) scale(-1, 1) rotate(140.000000) translate(-408.111328, -1321.814959) translate(-140.388672, 914.314959)">
                <g id="plane" transform="translate(949.339451, 660.794711) rotate(-17.000000) translate(-949.339451, -660.794711) translate(833.339451, 535.794711)">
                    <g transform="translate(62.070082, 56.550747) scale(1, -1) rotate(-26.000000) translate(-62.070082, -56.550747) translate(12.070082, 19.050747)" id="Path">
                        <polygon fill="#B3D451" points="85.6324387 25.5118817 98 58 1 19"></polygon>
                        <polygon fill="#FFFFFF" points="3.41060513e-13 20.4788271 100 -2.27373675e-13 84.5790536 27"></polygon>
                        <polygon fill="#A0CC3A" points="99 59 80.44333 39.2302676 2 20"></polygon>
                        <polygon fill="#FFFFFF" points="1 19 66.3198212 75 79 38.2012446"></polygon>
                    </g>
                    <path d="M125.80116,62.1489956 C125.933917,62.2292395 126.079557,62.2882424 126.23528,62.3277743 C128.117958,62.793307 130.038166,63.3314132 131.94157,63.9297024 C132.788523,64.1946253 133.679728,63.6877906 133.932358,62.7956671 C134.184987,61.9035436 133.708856,60.9624478 132.856301,60.6981149 C130.892401,60.0803547 128.910016,59.5251377 126.965721,59.0448543 C126.105324,58.8324439 125.243807,59.3947413 125.042712,60.3022056 C124.877466,61.0438717 125.204596,61.787308 125.80116,62.1489956 Z" id="Path" fill="#E6E6E6"></path>
                    <path d="M122.859642,195.503585 C122.133463,194.994312 121.978058,194.022014 122.513407,193.330469 C123.049328,192.637836 124.073177,192.49093 124.795927,193.000203 C128.004025,195.250037 131.584068,197.156546 135.324658,198.602751 C136.165105,198.925943 136.562189,199.832406 136.223382,200.627329 C135.884575,201.422252 134.932144,201.805839 134.096839,201.482646 C131.904592,200.63549 129.756909,199.638708 127.714353,198.520048 C126.036887,197.601072 124.403414,196.586334 122.859642,195.503585 Z M113.5633,186.996658 C110.847702,183.744601 108.645741,180.176425 107.017981,176.39442 C106.675746,175.600585 107.076259,174.690858 107.910421,174.365489 C108.744012,174.04012 109.698728,174.420987 110.039821,175.21591 C111.549884,178.726956 113.595867,182.039407 116.119494,185.062944 C116.679983,185.735445 116.562286,186.713184 115.857819,187.246941 C115.317898,187.656101 114.590006,187.687114 114.026661,187.378613 C113.852972,187.283396 113.695281,187.154989 113.5633,186.996658 Z M145.137494,202.894573 C145.259191,202.043609 146.081926,201.44728 146.975509,201.563173 C148.541563,201.76612 150.130471,201.89235 151.697097,201.941319 C154.103599,202.01586 156.555808,201.886909 158.984592,201.564261 C159.877032,201.444016 160.702624,202.035991 160.82832,202.8875 C160.953444,203.737921 160.33125,204.524138 159.438239,204.643295 C156.824911,204.99206 154.18473,205.128084 151.592541,205.048102 C149.913932,204.998045 148.212469,204.860933 146.535002,204.644383 C146.319034,204.616634 146.119064,204.549711 145.941376,204.452862 C145.383172,204.146536 145.046079,203.539326 145.137494,202.894573 Z M104.089843,164.364477 C103.810455,160.331644 104.183543,156.201962 105.197108,152.093499 C105.404505,151.256137 106.282662,150.738702 107.160246,150.934033 C108.036688,151.130451 108.581751,151.967813 108.375495,152.804632 C107.435063,156.614386 107.0894,160.434478 107.348218,164.159353 C107.407067,165.015759 106.726025,165.756816 105.826158,165.812858 C105.493064,165.834078 105.175396,165.758448 104.906293,165.610999 C104.449218,165.360171 104.128123,164.904219 104.089843,164.364477 Z M169.715007,200.535377 C169.368773,199.74263 169.762429,198.831815 170.594877,198.503726 C174.229769,197.062962 177.797813,195.180937 181.199025,192.908795 C181.938345,192.415845 182.955909,192.586691 183.472975,193.289118 C183.990042,193.991545 183.811782,194.961666 183.074177,195.454072 C179.479279,197.85462 175.702694,199.847097 171.849549,201.374372 C171.362764,201.566981 170.832556,201.518013 170.408048,201.28514 C170.107521,201.120823 169.858986,200.863466 169.715007,200.535377 Z M227.691587,230.227736 C228.233793,226.564888 228.584598,222.631624 228.736004,218.537308 C228.768,217.679814 229.522745,217.007857 230.424327,217.03887 C231.32705,217.068796 232.030946,217.788089 231.998951,218.646671 C231.843545,222.849806 231.482456,226.890801 230.924253,230.66138 C230.797986,231.512345 229.972393,232.10432 229.079382,231.984619 C228.866271,231.955782 228.669157,231.889947 228.493755,231.793098 C227.933266,231.486228 227.595601,230.875209 227.691587,230.227736 Z M190.480512,187.565237 C189.832607,186.967821 189.81661,185.984097 190.443946,185.366549 C193.249246,182.607986 195.832293,179.570847 198.121098,176.340011 C198.625023,175.62779 199.631732,175.442254 200.387049,175.920513 C201.135509,176.400949 201.332052,177.366718 200.826984,178.078939 C198.43248,181.46049 195.728308,184.640182 192.788742,187.530415 C192.258535,188.052202 191.436371,188.14361 190.803321,187.797022 C190.689052,187.733907 190.579926,187.656645 190.480512,187.565237 Z M228.646303,206.766898 C228.461188,202.969658 228.124095,199.013543 227.64588,195.009547 C227.543609,194.157494 228.186943,193.388143 229.083382,193.290206 C229.978678,193.192269 230.787701,193.805464 230.889401,194.659149 C231.376757,198.732246 231.719564,202.756917 231.908107,206.623801 C231.950387,207.480207 231.253918,208.208206 230.352908,208.247381 C230.03067,208.260984 229.725001,208.186987 229.464468,208.043346 C228.99768,207.788165 228.673157,207.317523 228.646303,206.766898 Z M109.770718,140.621253 C110.036393,140.146258 110.310067,139.674528 110.592882,139.206606 C112.442323,136.142806 114.643141,133.242779 117.134202,130.582698 C117.733542,129.942842 118.762533,129.890609 119.439004,130.457556 C120.111476,131.0294 120.170325,132.012036 119.570413,132.651892 C117.229045,135.152553 115.160207,137.879014 113.423321,140.756189 C113.158217,141.195274 112.901113,141.637079 112.650864,142.084325 C112.227498,142.841162 111.23793,143.1279 110.442047,142.724181 C110.42605,142.716564 110.411195,142.709491 110.395768,142.700785 C109.635309,142.28292 109.355351,141.363943 109.770718,140.621253 Z M225.882712,183.317486 C225.22738,179.679666 224.446924,175.915072 223.567054,172.12545 L223.473353,171.736422 C223.266527,170.901236 223.811018,170.064961 224.688031,169.867999 C225.566758,169.670492 226.445486,170.187927 226.651169,171.025289 L226.754583,171.453492 C227.646451,175.290995 228.435477,179.105102 229.100522,182.791346 C229.253071,183.637414 228.656016,184.440499 227.767576,184.587405 C227.377348,184.651064 226.996833,184.576523 226.678594,184.402412 C226.272368,184.179333 225.968413,183.792482 225.882712,183.317486 Z M204.044223,166.180666 C205.71769,162.610858 207.044922,158.916996 207.99164,155.201915 C208.20418,154.367817 209.086335,153.855279 209.963348,154.057139 C210.83979,154.260086 211.377425,155.099625 211.164885,155.933723 C210.173032,159.830532 208.779523,163.705033 207.026639,167.446776 C206.659265,168.230817 205.693693,168.583934 204.870958,168.232993 C204.818965,168.211773 204.768687,168.187289 204.720123,168.160628 C204.003086,167.769424 203.699702,166.915195 204.044223,166.180666 Z M126.359125,124.641179 C125.850057,123.933312 126.039172,122.966455 126.784205,122.481666 C130.414526,120.113764 134.282526,118.244797 138.282507,116.922646 C139.13381,116.642981 140.064529,117.07064 140.358772,117.88243 C140.655299,118.69422 140.203937,119.579462 139.351492,119.861304 C135.626328,121.092047 132.01886,122.836416 128.627933,125.047074 C128.093155,125.395295 127.418397,125.399104 126.891618,125.110734 C126.685362,124.99865 126.501961,124.841951 126.359125,124.641179 Z M219.10257,161.03407 C217.31312,157.78419 215.108874,154.471739 212.55268,151.19139 C212.016188,150.500389 212.167594,149.527003 212.892059,149.015009 C213.615381,148.504648 214.639229,148.648289 215.17515,149.338202 C217.832472,152.749678 220.12699,156.198697 221.994714,159.590042 C222.412938,160.350687 222.104984,161.290339 221.307387,161.688617 C220.793178,161.945974 220.201836,161.91496 219.733905,161.658692 C219.473372,161.516683 219.251691,161.30503 219.10257,161.03407 Z M149.418576,116.242527 C149.37744,115.385577 150.074479,114.658666 150.976061,114.620579 C155.136589,114.443204 159.450238,114.782176 163.798167,115.627155 C164.67918,115.79909 165.250524,116.620673 165.071122,117.4613 C164.890006,118.304104 164.028419,118.846022 163.144549,118.674088 C159.060009,117.878621 155.014893,117.56087 151.122896,117.726274 C150.800658,117.740421 150.496703,117.664248 150.236741,117.521695 C149.76881,117.265426 149.444287,116.794784 149.418576,116.242527 Z M204.614424,142.255715 C201.770273,139.431317 198.733007,136.755458 195.587186,134.304853 C194.889003,133.760758 194.786733,132.780843 195.357506,132.117047 C195.928279,131.452706 196.955555,131.358034 197.654881,131.89832 C200.902401,134.428363 204.037367,137.190734 206.97179,140.106539 C207.595698,140.726264 207.573987,141.711076 206.923226,142.30414 C206.387305,142.792737 205.592565,142.865102 204.980656,142.530483 C204.848104,142.457575 204.724694,142.366167 204.614424,142.255715 Z M209.703958,143.736742 C209.874219,139.846462 209.617685,135.968696 208.941785,132.208455 C208.788665,131.362387 209.38572,130.559302 210.274731,130.414573 C211.163743,130.267667 212.007047,130.837335 212.159024,131.684491 C212.874347,135.658018 213.145164,139.756686 212.966334,143.866237 C212.928625,144.723731 212.168166,145.390247 211.267156,145.353793 C210.995767,145.343999 210.743233,145.27109 210.522123,145.149757 C210.011913,144.870636 209.677676,144.336335 209.703958,143.736742 Z M173.874393,120.098529 C174.223484,119.306871 175.180486,118.93471 176.01122,119.266608 C179.788948,120.77756 183.630095,122.678084 187.319836,124.852288 C188.08658,125.303887 188.324259,126.261495 187.850043,126.992759 C187.375827,127.721846 186.361691,127.954175 185.602946,127.497679 C182.056613,125.41053 178.369158,123.584003 174.747407,122.134533 C174.683416,122.108961 174.622282,122.07958 174.564005,122.048022 C173.860681,121.661715 173.552155,120.829793 173.874393,120.098529 Z M205.61142,121.099664 C204.155063,117.638675 202.301623,114.148849 200.099091,110.727035 C199.627161,109.995771 199.868839,109.038163 200.637297,108.589829 C201.405755,108.141495 202.41075,108.371103 202.88268,109.101823 C205.180626,112.672719 207.118626,116.319789 208.642401,119.943462 C208.977208,120.740562 208.570411,121.645936 207.733963,121.964776 C207.251178,122.149224 206.730683,122.098623 206.311888,121.869015 C206.004505,121.700889 205.752542,121.436459 205.61142,121.099664 Z M192.963574,101.225501 C190.442803,98.2982697 187.634075,95.400419 184.614521,92.614652 C183.967188,92.0172355 183.950619,91.0340556 184.577955,90.4175958 C185.205862,89.8000479 186.238852,89.7864455 186.886757,90.3827737 C189.994869,93.2512433 192.888156,96.2361491 195.488343,99.2547889 C196.059688,99.9196732 195.957988,100.8985 195.260377,101.442595 C194.7216,101.863181 193.982852,101.901268 193.411507,101.588957 C193.244675,101.497005 193.092126,101.376216 192.963574,101.225501 Z M175.330749,84.8776192 C172.144934,82.4727187 168.772289,80.1624908 165.308801,78.0084182 C164.553484,77.5399523 164.340944,76.5758157 164.834014,75.856522 C165.326513,75.1377723 166.337792,74.9424422 167.093109,75.404923 C170.640013,77.6101406 174.093789,79.9774985 177.35845,82.4411612 C178.064631,82.9738304 178.183471,83.9521134 177.624125,84.6240709 C177.115057,85.236722 176.220903,85.3858041 175.531862,85.0087461 C175.463301,84.9701154 175.395882,84.9260437 175.330749,84.8776192 Z M142.64929,64.9566642 C142.996668,64.1639176 143.952526,63.7895802 144.784975,64.12039 C148.607839,65.6400477 152.452414,67.3762553 156.211859,69.2805882 C157.024881,69.6843068 157.309982,70.6250473 156.887188,71.3824277 C156.46325,72.1403522 155.474825,72.4292667 154.678942,72.0255482 C151.009199,70.1663751 147.25661,68.4720629 143.526304,66.9894036 C143.461742,66.9638312 143.400037,66.9339059 143.340045,66.9012602 C142.637863,66.516585 142.328766,65.6868399 142.64929,64.9566642 Z" id="Shape" fill="#E6E6E6" fill-rule="nonzero"></path>
                </g>
            </g>
        </g>
    </g>
</svg>