<?xml version="1.0" encoding="UTF-8"?> <!-- Generator: Adobe Illustrator 16.0.0, SVG Export Plug-In . SVG Version: 6.00 Build 0) --> <svg xmlns="http://www.w3.org/2000/svg" xmlns:xlink="http://www.w3.org/1999/xlink" id="Layer_1" x="0px" y="0px" width="1200px" height="1200px" viewBox="0 0 1200 1200" xml:space="preserve"> <g id="bg"> <rect x="0" fill="#FFFFFF" width="1200" height="1200"></rect> </g> <rect x="0" fill="none" width="1200" height="1200"></rect> <path fill="#F6F6F8" d="M863.613,990.586c-39.095,0-58.062-31.613-66.124-49.746c-4.398-9.906-2.4-22.819,7.503-27.223 c9.906-4.402,13.47,11.575,22.125,21.229c4.224,4.707,16.832,16.488,36.496,16.488c21.066,0,40.047-10.207,40.234-10.313 c9.477-5.263,21.391-1.828,26.651,7.645c5.264,9.477,1.816,21.441-7.66,26.707C921.723,975.995,895.098,990.586,863.613,990.586z"></path> <path fill="#F6F6F8" d="M968.484,1051.055l-65.651-12.622c0,0-20.082-32.972-12.513-72.344 c9.75-50.706-45.379-82.929-31.754-153.795c14.133-73.508,82.132-116.919,146.043-104.751l0,0c0.036,0.007,0.074,0.013,0.105,0.021 c0.04,0.008,0.077,0.016,0.112,0.022l0,0c63.864,12.402,110.914,77.936,96.777,151.445c-13.625,70.859-80.129,77.563-89.882,128.27 C1004.152,1026.676,968.484,1051.055,968.484,1051.055z"></path> <path fill="#F6F6F8" d="M971.414,1113.18c24.072,0,32.582-112.387,32.582-112.387c1.37-12.343-7.521-23.457-19.859-24.829 c-12.344-1.375-23.457,7.524-24.824,19.86C959.313,995.824,947.347,1113.18,971.414,1113.18z"></path> <path fill="#F6F6F8" d="M924.677,1112.247c28.093,0,10.519-119.075,10.519-119.075c-1.255-12.352-12.289-21.356-24.638-20.098 c-12.351,1.25-21.351,12.281-20.097,24.637C890.461,997.711,898.82,1112.247,924.677,1112.247z"></path> <path fill="#F6F6F8" d="M1009.964,715.324c0,0,14.427-0.055,21.56-8.021c7.331-8.194-10.844-10.685-18.222-4.539 c-3.242,2.7-4.794,5.203-4.794,5.203s-0.356-12.361-6.117-15.25c-5.758-2.883-10.188,2.62-7.707,7.392 c2.48,4.772,2.48,4.772,2.48,4.772s-4.293-6.065-11.863-8.461c-6.143-1.948-11.61-1.966-9.359,3.281 c1.516,3.534,15.051,12.82,15.051,12.82L1009.964,715.324z"></path> <path fill="#231F20" d="M880.23,761.575c2.782,1.969,5.672,3.769,8.57,5.516c2.909,1.734,5.895,3.331,8.918,4.818 c2.25,1.13,4.566,2.181,6.866,3.138c1.69-2.938,3.388-5.87,5.125-8.771l0.131-0.198c1.015-1.45,3.019-1.794,4.461-0.773l0.183,0.128 c2.997,2.11,6.043,4.142,9.142,6.083c3.112,1.927,6.202,3.88,9.379,5.688c3.168,1.824,6.375,3.563,9.625,5.207 c0.78,0.387,1.578,0.78,2.374,1.168l-1.125-6.707c-0.206-1.304,0.155-2.71,1.126-3.754c1.664-1.802,4.479-1.91,6.285-0.239 l0.052,0.049c6.825,6.312,14.546,11.895,22.741,16.772c8.123,5.026,16.702,9.401,25.398,13.593 c4.352,2.102,8.766,4.079,13.214,6.005c4.427,1.973,8.906,3.859,13.419,5.664c8.999,3.715,18.125,7.141,27.331,10.536 c-9.729-1.376-19.294-3.674-28.797-6.229c-4.729-1.347-9.444-2.772-14.133-4.303c-4.668-1.578-9.301-3.277-13.902-5.083 c-9.207-3.612-18.19-7.871-26.909-12.754c-5.198-3.039-10.341-6.298-15.228-9.953l0.484,3.179l0.016,0.111 c0.121,0.787,0.027,1.617-0.323,2.401c-0.963,2.176-3.513,3.15-5.685,2.184c-3.664-1.633-6.969-3.323-10.306-5.211 c-3.316-1.858-6.577-3.809-9.776-5.84c-3.191-2.044-6.367-4.113-9.41-6.37c-2.137-1.563-4.231-3.177-6.308-4.813 c-1.68,2.415-3.356,4.835-5.078,7.22l-0.188,0.261c-0.723,1.004-2.081,1.363-3.223,0.801c-3.281-1.621-6.228-3.366-9.207-5.241 c-2.93-1.902-5.771-3.938-8.516-6.066c-2.759-2.125-5.367-4.43-7.867-6.825c-2.521-2.381-4.819-4.979-7.013-7.631 C874.691,757.573,877.461,759.597,880.23,761.575z"></path> <g> <path fill="#231F20" d="M897.469,837.396c-2.406,6.679-9.771,10.134-16.449,7.729c-6.676-2.409-10.14-9.771-7.729-16.449 c2.403-6.679,9.771-10.14,16.447-7.729C896.416,823.352,899.879,830.715,897.469,837.396z"></path> <g> <path fill="#231F20" d="M879.3,812.536c4.377,1.081,8.056,1.952,11.31,3.577c1.617,0.805,3.129,1.766,4.582,2.978 c1.483,1.195,2.855,2.662,4.473,4.289c0.301-4.563-2.703-9.219-7.065-11.294c-2.148-1.063-4.523-1.531-6.819-1.464 C883.494,810.719,881.227,811.238,879.3,812.536z"></path> </g> <path fill="#231F20" d="M984.543,868.789c-2.406,6.675,1.055,14.035,7.737,16.445c6.677,2.402,14.039-1.052,16.445-7.728 c2.414-6.683-1.055-14.05-7.729-16.453C994.316,858.646,986.949,862.104,984.543,868.789z"></path> <g> <path fill="#231F20" d="M1014.395,861.238c-0.648-2.228-2.066-4.074-3.77-5.609c-1.72-1.515-3.849-2.668-6.181-3.219 c-4.685-1.188-9.969,0.479-12.646,4.188c2.29-0.224,4.274-0.474,6.181-0.45c1.892-0.008,3.665,0.22,5.423,0.631 C1006.948,857.604,1010.336,859.281,1014.395,861.238z"></path> </g> <path fill="#231F20" d="M956.052,857.453c7.827-21.698,31.847-32.988,53.546-25.164c21.703,7.823,32.992,31.844,25.172,53.543 c-7.824,21.703-31.848,32.996-53.551,25.168C959.52,903.183,948.23,879.159,956.052,857.453z M964.512,860.504 c-6.146,17.039,2.719,35.902,19.758,42.04c17.039,6.145,35.895-2.724,42.039-19.763c6.141-17.034-2.719-35.896-19.765-42.035 C989.512,834.602,970.652,843.465,964.512,860.504z"></path> <path fill="#231F20" d="M847.716,818.396c7.823-21.695,31.847-32.985,53.55-25.16c21.7,7.819,32.988,31.841,25.168,53.543 c-7.824,21.703-31.848,32.991-53.547,25.171C851.185,864.122,839.895,840.104,847.716,818.396z M856.177,821.445 c-6.144,17.042,2.718,35.897,19.761,42.043c17.039,6.145,35.891-2.728,42.035-19.763c6.141-17.035-2.719-35.895-19.757-42.039 C881.176,795.543,862.316,804.41,856.177,821.445z"></path> <path fill="#231F20" d="M958.315,855.114l7.532-4.914c-4.633-7.095-11.304-12.367-19.293-15.247 c-7.934-2.862-16.384-3.073-24.427-0.612l2.63,8.602c6.172-1.892,12.655-1.73,18.75,0.469 C949.644,845.622,954.762,849.672,958.315,855.114z"></path> </g> <path fill="#231F20" d="M954.063,879.387l-18.417-6.531l-0.333-0.12l-18.418-6.528c0,0-3.762,10.432-6.304,23.122 c-2.271,11.352,2.028,21.184,10.239,24.255v0.007c0.032,0.013,0.058,0.031,0.088,0.04c0.023,0.011,0.054,0.016,0.078,0.02 c0.02,0.012,0.043,0.025,0.065,0.034c0.034,0.013,0.065,0.013,0.099,0.023l0.004-0.004c8.313,2.786,17.844-2.146,23.229-12.391 C950.414,889.856,954.063,879.387,954.063,879.387z"></path> <path fill="#B2DD4C" d="M944.394,901.313c1.125-2.142,2.161-4.238,3.114-6.246c-3.359-2.802-14.773-9.703-37.508,0.116 c-0.023,8.763,4.069,15.871,10.83,18.399v0.007c0.032,0.013,0.058,0.031,0.088,0.04c0.023,0.011,0.054,0.016,0.078,0.02 c0.02,0.012,0.043,0.025,0.065,0.034c0.034,0.013,0.065,0.013,0.099,0.023l0.004-0.004 C929.477,916.489,939.008,911.559,944.394,901.313z"></path> <path fill="#F6F6F8" d="M1013.83,968.238c-11.525-10.188-28.775-4.313-33.412,10.318c-3.243,10.229,8.828,17.354,14.461,24.106 c7.612,9.122,14.215,19.969,14.701,32.156c0.471,11.793-3.192,28.387,7.071,31.88c9.371,3.189,15.071-6.877,18.396-13.704 c4.73-9.727,6.736-19.738,5.705-30.593c-0.771-8.135-3.356-15.893-6.817-23.26C1030.158,991.102,1023.02,976.359,1013.83,968.238z"></path> <g> <polygon fill="#231F20" points="933.648,965.789 933.52,965.758 928.457,964.394 926.644,951.172 934.565,946.146 938.52,947.211 938.641,947.242 942.599,948.31 946.916,956.636 938.711,967.153 "></polygon> <polygon fill="#231F20" points="917.094,1026.728 907.214,1009.278 927.816,967.492 932.695,968.809 932.695,968.809 932.761,968.824 932.823,968.84 932.823,968.84 937.707,970.156 934.534,1016.641 917.219,1026.758 917.188,1026.891 917.138,1026.808 917.06,1026.854 "></polygon> </g> <path fill="#231F20" d="M822.909,872.979c-6.038-1.155-13.626,3.621-16.874,10.616l-20.213,43.532 c-3.25,6.992-0.236,13.852,6.688,15.238c6.929,1.388,14.995-3.31,17.934-10.436l18.086-43.896 C831.472,880.906,828.938,874.129,822.909,872.979z"></path> <path fill="#231F20" d="M861.816,864.984l-16.906-4.895l-8.28,28.617l16.901,4.891c5.949,1.726,12.168-1.705,13.892-7.652 l2.047-7.073C871.191,872.926,867.762,866.706,861.816,864.984z"></path> <path fill="#B2DD4C" d="M809.198,831.859c-25.765-18.474-48.671-42.802-56.492-63.475c-12.83-33.905-31.986-39.444-31.986-39.444 L662.27,930.909c0,0,18.648,7.286,47.604-14.522c17.373-13.09,48.972-21.371,80.125-23.401 C804.065,870.776,808.159,847.063,809.198,831.859z"></path> <path fill="#231F20" d="M858.964,857.633c-4.358-1.262-8.882-2.925-13.487-4.894c-2.73,20.358-7.464,33.577-11.766,41.929 c4.819,0.789,9.405,1.781,13.659,3.009c0,0,6.289-1.813,11.195-18.772C863.474,861.941,858.964,857.633,858.964,857.633z"></path> <path fill="#F6F6F8" d="M845.477,852.739c-11.903-5.091-24.391-12.356-36.278-20.88c-1.038,15.202-5.133,38.917-19.2,61.125 c15.258-0.997,30.396-0.488,43.713,1.684C838.013,886.316,842.745,873.099,845.477,852.739z"></path> <path fill="#9FD323" d="M719.354,837.984c-16.145,55.775-41.701,97.378-57.085,92.925c-15.387-4.452-14.773-53.273,1.367-109.047 c16.141-55.772,41.696-97.374,57.082-92.922C736.105,733.396,735.494,782.214,719.354,837.984z"></path> <path fill="#F6F6F8" d="M688.434,822.75l-3.125,10.793c-2.754,9.521,2.729,19.473,12.25,22.228l14.676,4.245 c2.516-7.026,4.909-14.391,7.12-22.03c2.294-7.931,4.263-15.708,5.93-23.25l-14.625-4.234 C701.137,807.746,691.188,813.229,688.434,822.75z"></path> <g> <path fill="#F6F6F8" d="M603.477,865.753c-5.182-9.689-7.674-20.8-8.293-31.901c-0.578-11.155,0.797-22.331,3.707-33.15 c2.854-10.666,7.438-21.203,13.809-30.367c6.385-9.188,14.25-17.016,23.018-23.544c-5.997,9.164-12.106,17.945-16.872,27.262 c-4.853,9.277-8.417,18.952-11.16,29.104c-2.694,10.007-4.594,20.334-5.344,30.758 C601.528,844.367,601.942,854.922,603.477,865.753z"></path> <path fill="#F6F6F8" d="M583.823,873.547c-4.125-5.344-6.491-11.878-8.379-18.354c-1.766-6.547-2.883-13.277-3.344-20.056 c-1.019-13.569,0.323-27.297,3.875-40.569c3.574-13.188,9.5-25.75,17.254-36.885c3.836-5.601,8.202-10.826,12.991-15.611 c4.88-4.637,10.111-9.203,16.359-11.793c-5.103,4.285-9.159,9.43-12.957,14.715c-3.815,5.263-7.198,10.813-10.34,16.449 c-6.176,11.353-11.164,23.198-14.508,35.559c-3.318,12.281-5.129,25.097-5.578,37.979c-0.156,6.441-0.051,12.931,0.629,19.388 C580.461,860.836,581.51,867.289,583.823,873.547z"></path> <path fill="#F6F6F8" d="M625.916,850.902c-2.718-6.836-3.819-14.191-3.943-21.538c-0.085-7.372,0.874-14.689,2.824-21.903 c1.897-7.027,4.832-13.957,8.621-20.234c3.828-6.269,8.512-12.052,14.328-16.559c-2.771,6.793-5.488,13.203-7.863,19.699 c-2.402,6.495-4.479,12.909-6.301,19.582c-1.766,6.483-3.268,13.207-4.478,19.983C627.859,836.737,626.961,843.638,625.916,850.902 z"></path> </g> </svg> 