<?xml version="1.0" encoding="UTF-8"?>
<svg width="115px" height="65px" viewBox="0 0 115 65" version="1.1" xmlns="http://www.w3.org/2000/svg" xmlns:xlink="http://www.w3.org/1999/xlink">
    <!-- Generator: Sketch 52.6 (67491) - http://www.bohemiancoding.com/sketch -->
    <title>logo</title>
    <desc>Created with Sketch.</desc>
    <g id="Page-1" stroke="none" stroke-width="1" fill="none" fill-rule="evenodd">
        <g id="index" transform="translate(-455.000000, -28.000000)" fill="#B2DD4C">
            <g id="Header">
                <g id="logo" transform="translate(455.000000, 28.000000)">
                    <path d="M99.7923161,42.9779118 C99.5255198,42.9714475 99.253938,42.9614573 98.975776,42.9491164 L94.4366507,42.7475483 C92.61454,42.6670386 91.0861445,42.0576331 89.8706064,40.9304974 C88.653872,39.7933714 88.0275588,38.411778 88.0006399,36.7663243 C87.985685,35.8231268 88.2327407,34.7406534 88.7531728,33.5106768 L92.8251056,23.8736074 C93.9580924,21.2067972 95.5588699,19.9139408 97.6059029,20.0044407 C98.4972177,20.0444018 99.2545362,20.3488107 99.8892241,20.9182552 C100.523314,21.4777094 100.842153,22.1541084 100.854715,22.9368742 C100.864287,23.5286498 100.705764,24.1938832 100.389318,24.9413893 L100.062702,25.7194538 L96.9185736,33.1310471 L96.5937521,33.9990239 C96.4113018,34.5020626 96.3114028,34.878754 96.294055,35.129098 C96.2665379,36.0100033 96.8778961,36.47837 98.1191567,36.5336102 C100.596892,36.643503 102.269453,36.4201914 103.126671,34.6783612 L103.605827,33.484232 L106.938986,24.9413893 C108.051036,22.2534233 109.672152,20.9517519 111.783192,21.0451902 C112.652972,21.0839759 113.400719,21.3889724 114.034211,21.9672319 C114.6683,22.546079 114.987738,23.2130753 114.999702,23.9758606 C115.009871,24.5876168 114.759825,25.5090708 114.239991,26.7596156 L111.049802,34.3110725 C107.48215,43.1506844 103.942613,52.0091016 100.398889,60.8569409 C99.2802587,63.6271796 97.6663209,65.008773 95.5463077,64.9999581 C94.6687514,64.9964321 93.9287807,64.7161173 93.3251991,64.1584261 C92.7317868,63.6119004 92.4320897,62.9384397 92.4356788,62.1374564 C92.4380716,61.5398042 92.6079598,60.8357851 92.9345759,60.0477303 L93.2725576,59.2056106 L99.7923161,42.9779118" id="Fill-4"></path>
                    <path d="M81.9018965,37.0826016 C79.8823819,42.3558263 76.6126345,43.2102372 70.9758196,42.9618758 L66.436099,42.7616418 C64.6139895,42.6814293 63.0861931,42.0771624 61.8700577,40.9583475 C60.6539222,39.8294318 60.0270113,38.4580963 60.0006906,36.8241394 C59.9851374,35.8877335 60.232193,34.8134811 60.753223,33.5924696 L64.824555,24.0263945 C65.0207638,23.5688866 65.2307311,23.1517819 65.4538587,22.7762689 L73.3381015,4.01071919 L73.6563425,3.25078068 C74.5542369,1.14327332 76.0599,0.0636734145 78.1637605,0.00188013423 C79.0395216,-0.0236690105 79.8052144,0.211026621 80.4410983,0.714879522 C81.0871516,1.21873242 81.415562,1.8265644 81.4376953,2.54847628 C81.4544448,3.1081808 81.3031009,3.74928609 80.994431,4.48070462 L80.6755917,5.2501498 C78.0040418,11.5423694 75.3558216,17.8476607 72.7135833,24.1541402 C72.6364158,24.4494408 72.5275439,24.7595956 72.3887621,25.0863869 L72.0621463,25.8582088 L68.9933932,33.0404893 L68.9042618,33.2526066 L68.5931991,34.0773092 C68.4107489,34.5764088 68.3108499,34.9507335 68.2941004,35.1985008 C68.2659851,36.0737075 68.8773429,36.5383454 70.1186027,36.5930087 C72.685468,36.7059003 74.387938,36.4646688 75.2152452,34.5603663 L78.9390244,25.0857928 C80.0504753,22.4173926 81.6721887,21.1250812 83.7826294,21.2183653 C84.6524085,21.2563919 85.4001554,21.5594166 86.0342447,22.1333811 C86.6677358,22.7079398 86.9871733,23.3704351 86.9997354,24.1274028 C87.0093066,24.7346406 86.75926,25.6496565 86.2394264,26.8908696 L81.9018965,37.0826016" id="Fill-3"></path>
                    <path d="M53.3402918,36.5594631 C51.0955,41.9886326 47.5949797,43 41.5910085,43 L36.7553144,43 C34.814755,43 33.1969037,42.4560909 31.9202361,41.3776103 C30.6435686,40.288625 30,38.9282688 30,37.2749486 C30,36.3277765 30.2820616,35.2288701 30.858502,33.9694755 L35.3659453,24.1020781 C36.6198263,21.3702773 38.3485315,20 40.5286585,20 C41.4776912,20 42.2801504,20.2719545 42.9465056,20.8158636 C43.6128608,21.3504352 43.9404957,22.0157316 43.9404957,22.801832 C43.9404957,23.3965137 43.7600501,24.0717312 43.4096286,24.8379894 L43.0481216,25.6340108 L39.5685404,33.2236431 L39.2070335,34.1101215 C39.0038013,34.6242673 38.890484,35.0076882 38.8683132,35.259217 C38.8227399,36.146279 39.4669243,36.58981 40.7885493,36.58981 C43.5229459,36.58981 45.341566,36.2694172 46.2567266,34.3038746 L50.3915777,24.5450255 C51.6232878,21.7939662 53.3741638,20.4131841 55.6226507,20.4131841 C56.5488968,20.4131841 57.3408864,20.6863059 58.0060099,21.2395524 C58.6711334,21.792799 59,22.448758 59,23.2150161 C59,23.82954 58.7179384,24.7673746 58.141498,26.0471949 L53.3402918,36.5594631" id="Fill-1"></path>
                    <path d="M13.1274867,20.0163036 C6.99498396,19.7528747 4.69290835,22.6861442 2.43333828,28.4967336 L0.61422421,33.176094 C-0.115762303,35.0544821 -0.194613167,36.864099 0.375207529,38.5833808 C0.955500605,40.307325 2.03846794,41.5411282 3.6481344,42.2824591 C4.57155194,42.7079085 5.74753865,42.9276269 7.19149509,42.9352034 L18.4985858,42.999895 C21.6304435,43.012134 23.6158836,41.9543386 24.4364254,39.8445759 C24.7937184,38.9254887 24.8300637,38.0273825 24.5510056,37.1386013 C24.2811878,36.2533169 23.7569527,35.6378723 22.9912369,35.2852739 C22.4121759,35.0183481 21.6858855,34.8907133 20.8080536,34.885468 L19.8963405,34.8784743 L11.1950245,34.8405918 L10.1952202,34.7922188 C9.61800722,34.758416 9.20280814,34.6960556 8.9483909,34.6045549 C8.06809493,34.2507908 7.87774402,33.4284496 8.37549009,32.1491874 C9.40424746,29.5038248 10.4003556,27.8871171 12.6593097,27.8830375 L23.7199914,28.2601138 C26.8635536,28.3032416 28.8668583,27.227962 29.712657,25.0523421 C30.0613257,24.1559844 30.0933589,23.2666203 29.8050604,22.374925 C29.5161459,21.482647 29.0005352,20.8701164 28.2551481,20.5262601 C27.6563744,20.2505922 26.6368573,20.1031419 25.1731882,20.0862405 L13.1274867,20.0163036" id="Fill-2"></path>
                </g>
            </g>
        </g>
    </g>
</svg>