<?xml version="1.0" encoding="UTF-8"?> <!-- Generator: Adobe Illustrator 16.0.0, SVG Export Plug-In . SVG Version: 6.00 Build 0) --> <svg xmlns="http://www.w3.org/2000/svg" xmlns:xlink="http://www.w3.org/1999/xlink" id="Layer_1" x="0px" y="0px" width="1920px" height="1400px" viewBox="0 0 1920 1400" xml:space="preserve"> <rect fill="#F5F5F5" width="1920" height="1400"></rect> <g> <polygon fill="#E7E6E7" points="987.593,1136.743 843.21,1136.743 864.083,1039.331 966.718,1039.331 "></polygon> <path fill="#BBBDBF" d="M1017.844,1147.97H812.959c-10.871,0-12.545-14.388-12.545-14.388h229.976 C1030.39,1133.582,1028.716,1147.97,1017.844,1147.97z"></path> <path fill="#FFFFFF" d="M1186.374,1019.846c0,13.213-10.705,23.925-23.92,23.925H668.35c-13.215,0-23.924-10.712-23.924-23.925 V732.753c0-13.214,10.708-23.928,23.924-23.928h494.104c13.215,0,23.92,10.714,23.92,23.928V1019.846z"></path> <path fill="#BBBDBF" d="M644.426,1013.368v47.076c0,13.215,10.708,23.925,23.924,23.925h494.104c13.215,0,23.92-10.71,23.92-23.925 v-47.076H644.426z"></path> <rect x="661.912" y="731.426" fill="#B3D451" width="506.979" height="260.487"></rect> <circle fill="#FFFFFF" cx="915.401" cy="1047.615" r="17.316"></circle> <g opacity="0.1"> <path fill="#FFFFFF" d="M1162.454,709.194H819.483l226.715,283.087h116.256c13.215,0,23.92-8.071,23.92-18.034v-30.604v-4.884 V727.229C1186.374,717.268,1175.669,709.194,1162.454,709.194z"></path> </g> <path fill="#FFFFFF" d="M563.859,1168.886c-6.586,0-11.918-5.333-11.918-11.919V916.95c0-6.581,5.332-11.919,11.918-11.919h160.521 c6.583,0,11.921,5.338,11.921,11.919v240.017c0,6.586-5.337,11.919-11.921,11.919H563.859z"></path> <rect x="564.503" y="930.703" fill="#B3D451" width="159.234" height="212.511"></rect> <path fill="#E6E6E6" d="M638.548,1156.727c0,2.415-1.957,4.369-4.369,4.369h-13.728c-2.416,0-4.367-1.954-4.367-4.369l0,0 c0-2.411,1.951-4.366,4.367-4.366h13.728C636.592,1152.36,638.548,1154.315,638.548,1156.727L638.548,1156.727z"></path> <path opacity="0.1" fill="#FFFFFF" d="M718.523,1168.884h5.856c6.583,0,11.921-5.335,11.921-11.917V916.95 c0-6.582-5.337-11.919-11.921-11.919H563.859c-1.466,0-2.865,0.276-4.16,0.761L718.523,1168.884z"></path> <path fill="#FFFFFF" d="M573.154,1206.917c0,5.826-4.722,10.547-10.549,10.547h-85.92c-5.825,0-10.542-4.721-10.542-10.547 v-164.303c0-5.822,4.718-10.547,10.542-10.547h85.92c5.827,0,10.549,4.725,10.549,10.547V1206.917z"></path> <rect x="472.73" y="1055.372" fill="#B3D451" width="93.83" height="136.088"></rect> <circle fill="#414042" cx="519.645" cy="1044.96" r="3.941"></circle> <path fill="#E6E6E6" d="M537.805,1204.592c0,2.396-1.943,4.335-4.339,4.335h-13.639c-2.399,0-4.342-1.938-4.342-4.335l0,0 c0-2.396,1.943-4.337,4.342-4.337h13.639C535.862,1200.255,537.805,1202.195,537.805,1204.592L537.805,1204.592z"></path> <path opacity="0.1" fill="#FFFFFF" d="M571.602,1211.737c0.745-1.444,1.175-3.08,1.175-4.82v-164.303 c0-5.822-4.722-10.547-10.547-10.547h-85.92c-4.212,0-7.837,2.479-9.524,6.047L571.602,1211.737z"></path> <path fill="#FFFFFF" d="M1431.298,1200.231v-246.94c0-11.766-9.533-21.306-21.301-21.306h-355.585 c-11.767,0-21.304,9.54-21.304,21.306v246.94H1431.298z"></path> <path fill="#BBBDBF" d="M1470.056,1214.763h-461.707c-9.572,0-11.049-12.678-11.049-12.678h483.809 C1481.108,1202.085,1479.636,1214.763,1470.056,1214.763z"></path> <rect x="997.3" y="1197.133" fill="#E7E6E7" width="483.809" height="7.11"></rect> <rect x="1192.519" y="1197.133" fill="#E6E6E6" width="93.367" height="4.033"></rect> <rect x="1048.679" y="952.112" fill="#B3D451" width="367.049" height="231.954"></rect> <path opacity="0.1" fill="#FFFFFF" d="M1431.433,1196.271V953.291c0-11.766-9.531-21.306-21.299-21.306h-244.857l159.543,264.285 H1431.433z"></path> <radialGradient id="SVGID_1_" cx="230.1602" cy="694.2998" r="142.8589" gradientTransform="matrix(-0.932 -0.3624 -0.2355 0.6058 634.2633 380.1173)" gradientUnits="userSpaceOnUse"> <stop offset="0" style="stop-color:#D2D3D4"></stop> <stop offset="0.3042" style="stop-color:#DBDCDD;stop-opacity:0.6958"></stop> <stop offset="0.7987" style="stop-color:#F3F3F4;stop-opacity:0.2013"></stop> <stop offset="1" style="stop-color:#FFFFFF;stop-opacity:0"></stop> </radialGradient> <path fill="url(#SVGID_1_)" d="M123.073,665.547c-18.587,47.799,25.958,109.725,99.492,138.319 c73.535,28.593,148.212,13.026,166.798-34.772c18.585-47.797-25.959-109.723-99.492-138.316 C216.335,602.184,141.659,617.752,123.073,665.547z"></path> <polygon fill="#B3D451" points="305.722,622.51 328.934,683.576 146.88,610.27 "></polygon> <polygon fill="#FFFFFF" points="144.88,610.27 332.683,571.832 303.722,622.51 "></polygon> <polygon fill="#A0CC3A" points="328.934,683.576 294.106,646.416 146.88,610.27 "></polygon> <polygon fill="#FFFFFF" points="146.88,610.27 270.172,715.689 294.106,646.416 "></polygon> <g> <path fill="#E6E6E6" d="M350.367,688.48c0.237,0.136,0.497,0.236,0.775,0.303c3.361,0.789,6.789,1.701,10.187,2.715 c1.512,0.449,3.103-0.41,3.554-1.922c0.451-1.512-0.399-3.107-1.921-3.555c-3.506-1.047-7.045-1.988-10.516-2.802 c-1.536-0.36-3.074,0.593-3.433,2.131C348.718,686.607,349.302,687.867,350.367,688.48z"></path> <path fill="#E6E6E6" d="M345.459,934.969c-1.271-0.936-1.543-2.723-0.606-3.994c0.938-1.273,2.73-1.543,3.995-0.607 c5.615,4.135,11.881,7.639,18.428,10.297c1.471,0.594,2.166,2.26,1.573,3.721c-0.593,1.461-2.26,2.166-3.722,1.572 c-3.837-1.557-7.596-3.389-11.171-5.445C351.02,938.824,348.161,936.959,345.459,934.969z M329.188,919.334 c-4.753-5.977-8.607-12.535-11.456-19.486c-0.599-1.459,0.102-3.131,1.562-3.729c1.459-0.598,3.13,0.102,3.727,1.563 c2.643,6.453,6.224,12.541,10.641,18.098c0.981,1.236,0.775,3.033-0.458,4.014c-0.945,0.752-2.219,0.809-3.205,0.242 C329.695,919.861,329.419,919.625,329.188,919.334z M384.451,948.553c0.213-1.564,1.653-2.66,3.217-2.447 c2.741,0.373,5.522,0.605,8.264,0.695c4.212,0.137,8.504-0.1,12.755-0.693c1.562-0.221,3.007,0.867,3.227,2.432 c0.219,1.563-0.87,3.008-2.433,3.227c-4.574,0.641-9.195,0.891-13.732,0.744c-2.938-0.092-5.916-0.344-8.852-0.742 c-0.378-0.051-0.728-0.174-1.039-0.352C384.881,950.854,384.291,949.738,384.451,948.553z M312.607,877.738 c-0.489-7.412,0.164-15.002,1.938-22.553c0.363-1.539,1.9-2.49,3.436-2.131c1.534,0.361,2.488,1.9,2.127,3.438 c-1.646,7.002-2.251,14.023-1.798,20.869c0.103,1.574-1.089,2.936-2.664,3.039c-0.583,0.039-1.139-0.1-1.61-0.371 C313.236,879.568,312.674,878.73,312.607,877.738z M427.468,944.217c-0.606-1.457,0.083-3.131,1.54-3.734 c6.362-2.648,12.607-6.107,18.56-10.283c1.294-0.906,3.075-0.592,3.98,0.699s0.593,3.074-0.698,3.979 c-6.292,4.412-12.902,8.074-19.646,10.881c-0.852,0.354-1.78,0.264-2.523-0.164C428.155,945.293,427.72,944.82,427.468,944.217z M528.942,998.789c0.949-6.732,1.563-13.961,1.828-21.486c0.056-1.576,1.377-2.811,2.955-2.754 c1.58,0.055,2.812,1.377,2.756,2.955c-0.272,7.725-0.904,15.152-1.881,22.082c-0.221,1.564-1.666,2.652-3.229,2.432 c-0.373-0.053-0.718-0.174-1.025-0.352C529.365,1001.102,528.774,999.979,528.942,998.789z M463.813,920.379 c-1.134-1.098-1.162-2.906-0.064-4.041c4.91-5.07,9.431-10.652,13.437-16.59c0.882-1.309,2.644-1.65,3.966-0.771 c1.31,0.883,1.654,2.658,0.77,3.967c-4.191,6.215-8.924,12.059-14.069,17.371c-0.928,0.959-2.367,1.127-3.475,0.49 C464.178,920.689,463.987,920.547,463.813,920.379z M530.613,955.67c-0.324-6.979-0.914-14.25-1.751-21.609 c-0.179-1.566,0.947-2.98,2.516-3.16c1.567-0.18,2.983,0.947,3.161,2.516c0.853,7.486,1.453,14.883,1.783,21.99 c0.074,1.574-1.145,2.912-2.722,2.984c-0.564,0.025-1.099-0.111-1.555-0.375C531.228,957.547,530.66,956.682,530.613,955.67z M322.55,834.1c0.465-0.873,0.944-1.74,1.439-2.6c3.237-5.631,7.089-10.961,11.449-15.85c1.049-1.176,2.85-1.272,4.034-0.23 c1.177,1.051,1.28,2.857,0.23,4.033c-4.098,4.596-7.719,9.607-10.759,14.895c-0.464,0.807-0.914,1.619-1.352,2.441 c-0.741,1.391-2.473,1.918-3.866,1.176c-0.028-0.014-0.054-0.027-0.081-0.043C322.313,837.154,321.823,835.465,322.55,834.1z M525.776,912.572c-1.147-6.686-2.513-13.605-4.053-20.57l-0.164-0.715c-0.362-1.535,0.591-3.072,2.126-3.434 c1.538-0.363,3.076,0.588,3.436,2.127l0.181,0.787c1.561,7.053,2.942,14.063,4.106,20.838c0.267,1.555-0.778,3.031-2.333,3.301 c-0.683,0.117-1.349-0.02-1.906-0.34C526.458,914.156,525.926,913.445,525.776,912.572z M487.553,881.076 c2.929-6.561,5.252-13.35,6.909-20.178c0.372-1.533,1.916-2.475,3.451-2.104c1.534,0.373,2.475,1.916,2.103,3.449 c-1.736,7.162-4.175,14.283-7.243,21.16c-0.643,1.441-2.333,2.09-3.773,1.445c-0.091-0.039-0.179-0.084-0.264-0.133 C487.481,883.996,486.95,882.426,487.553,881.076z M351.584,804.73c-0.891-1.301-0.56-3.078,0.744-3.969 c6.354-4.352,13.124-7.787,20.125-10.217c1.49-0.514,3.119,0.272,3.634,1.764c0.519,1.492-0.271,3.119-1.763,3.637 c-6.52,2.262-12.834,5.468-18.769,9.531c-0.936,0.64-2.117,0.647-3.039,0.117C352.155,805.387,351.834,805.099,351.584,804.73z M513.909,871.617c-3.132-5.973-6.99-12.061-11.464-18.09c-0.939-1.27-0.674-3.059,0.594-4c1.266-0.938,3.058-0.674,3.996,0.594 c4.651,6.27,8.667,12.609,11.936,18.842c0.732,1.398,0.193,3.125-1.203,3.857c-0.9,0.473-1.935,0.416-2.754-0.055 C514.558,872.504,514.17,872.115,513.909,871.617z M391.944,789.294c-0.072-1.575,1.148-2.911,2.726-2.981 c7.282-0.326,14.832,0.297,22.442,1.85c1.542,0.316,2.542,1.826,2.228,3.371c-0.317,1.549-1.825,2.545-3.372,2.229 c-7.149-1.462-14.229-2.046-21.041-1.742c-0.564,0.026-1.096-0.114-1.551-0.376C392.557,791.174,391.989,790.309,391.944,789.294z M488.551,837.104c-4.978-5.191-10.294-10.109-15.8-14.613c-1.222-1-1.401-2.801-0.402-4.021c0.999-1.221,2.797-1.395,4.021-0.402 c5.684,4.65,11.171,9.727,16.307,15.086c1.092,1.139,1.054,2.949-0.085,4.039c-0.938,0.898-2.329,1.031-3.4,0.416 C488.96,837.475,488.744,837.307,488.551,837.104z M497.459,839.826c0.298-7.15-0.151-14.277-1.334-21.188 c-0.268-1.555,0.777-3.031,2.333-3.297c1.556-0.27,3.032,0.777,3.298,2.334c1.252,7.303,1.726,14.836,1.413,22.389 c-0.066,1.576-1.397,2.801-2.974,2.734c-0.475-0.018-0.917-0.152-1.304-0.375C497.998,841.91,497.413,840.928,497.459,839.826z M434.748,796.381c0.611-1.455,2.286-2.139,3.74-1.529c6.612,2.777,13.335,6.27,19.793,10.266c1.342,0.83,1.758,2.59,0.928,3.934 c-0.83,1.34-2.605,1.767-3.933,0.928c-6.207-3.836-12.661-7.193-19-9.857c-0.112-0.047-0.219-0.101-0.321-0.159 C434.724,799.254,434.184,797.725,434.748,796.381z M490.296,798.221c-2.549-6.361-5.793-12.775-9.648-19.064 c-0.826-1.344-0.403-3.104,0.942-3.928c1.345-0.824,3.104-0.402,3.93,0.941c4.022,6.563,7.414,13.266,10.081,19.926 c0.586,1.465-0.126,3.129-1.59,3.715c-0.845,0.339-1.756,0.246-2.489-0.176C490.984,799.326,490.543,798.84,490.296,798.221z M468.159,761.694c-4.412-5.38-9.328-10.706-14.613-15.826c-1.133-1.098-1.162-2.905-0.064-4.038 c1.099-1.135,2.907-1.16,4.041-0.064c5.44,5.272,10.504,10.758,15.055,16.306c1,1.222,0.822,3.021-0.399,4.021 c-0.943,0.773-2.236,0.843-3.236,0.269C468.651,762.193,468.384,761.971,468.159,761.694z M437.297,731.648 c-5.576-4.42-11.479-8.666-17.541-12.625c-1.322-0.861-1.694-2.633-0.831-3.955c0.862-1.321,2.632-1.68,3.954-0.83 c6.208,4.053,12.253,8.404,17.967,12.932c1.236,0.979,1.444,2.777,0.465,4.012c-0.891,1.126-2.456,1.4-3.662,0.707 C437.529,731.818,437.411,731.737,437.297,731.648z M380.096,695.035c0.608-1.457,2.281-2.145,3.738-1.537 c6.691,2.793,13.42,5.984,20,9.484c1.423,0.742,1.922,2.471,1.182,3.863c-0.742,1.393-2.472,1.924-3.865,1.182 c-6.423-3.417-12.991-6.531-19.52-9.256c-0.113-0.047-0.221-0.102-0.326-0.162C380.076,697.902,379.535,696.377,380.096,695.035z"></path> <path fill="#E6E6E6" d="M521.724,1033.074c0.027,0.016,0.054,0.031,0.084,0.047c1.394,0.74,3.123,0.211,3.865-1.184 c0.99-1.861,2.516-5.182,4.16-10.424c0.474-1.506-0.364-3.109-1.87-3.584c-1.505-0.471-3.109,0.367-3.582,1.873 c-1.182,3.766-2.516,7.123-3.755,9.453C519.901,1030.621,520.393,1032.309,521.724,1033.074z"></path> </g> <radialGradient id="SVGID_2_" cx="1276.3418" cy="1246.3809" r="153.5986" gradientTransform="matrix(0.9527 -0.5372 0.3193 0.5662 -57.4518 721.2839)" gradientUnits="userSpaceOnUse"> <stop offset="0" style="stop-color:#CCCCCC"></stop> <stop offset="0.2582" style="stop-color:#D2D2D2;stop-opacity:0.7418"></stop> <stop offset="0.596" style="stop-color:#E2E2E2;stop-opacity:0.404"></stop> <stop offset="0.9766" style="stop-color:#FDFDFD;stop-opacity:0.0234"></stop> <stop offset="1" style="stop-color:#FFFFFF;stop-opacity:0"></stop> </radialGradient> <path fill="url(#SVGID_2_)" d="M1702.729,658.889c27.084,48.031-16.471,123.908-97.285,169.477 c-80.812,45.568-168.28,43.571-195.363-4.461s16.473-123.909,97.284-169.477C1588.18,608.859,1675.646,610.856,1702.729,658.889z"></path> <polygon fill="#FFFFFF" points="1702.534,597.719 1448.988,565.4 1502.489,629.757 "></polygon> <polygon fill="#B3D451" points="1502.489,629.757 1467.813,713.396 1702.534,597.719 "></polygon> <polygon fill="#A0CC3A" points="1467.813,713.396 1519.891,664.996 1702.534,597.719 "></polygon> <polygon fill="#FFFFFF" points="1702.534,597.719 1550.41,748.635 1519.891,664.996 "></polygon> <path fill="#E6E6E6" d="M1089.578,1060.264c-0.012,0.002-0.024,0.003-0.037,0.004c-6.978,0.715-14.22,1.246-21.527,1.578 c-1.578,0.072-2.913-1.147-2.984-2.725c-0.073-1.574,1.163-2.9,2.724-2.982c7.2-0.33,14.335-0.852,21.207-1.556 c1.569-0.16,2.973,0.982,3.133,2.55C1092.251,1058.691,1091.129,1060.084,1089.578,1060.264z M1110.803,1057.42 c-1.502,0.172-2.891-0.859-3.144-2.368c-0.261-1.557,0.79-3.028,2.347-3.29c7.077-1.183,14.071-2.607,20.785-4.232 c1.552-0.361,3.078,0.573,3.448,2.105c0.372,1.534-0.571,3.078-2.104,3.449c-6.848,1.656-13.975,3.108-21.187,4.314 C1110.899,1057.406,1110.852,1057.414,1110.803,1057.42z M1046.793,1062.256c-0.112,0.014-0.228,0.02-0.346,0.018 c-7.007-0.03-14.257-0.229-21.545-0.589c-1.576-0.079-2.79-1.419-2.712-2.994c0.078-1.577,1.423-2.791,2.994-2.713 c7.203,0.356,14.367,0.552,21.291,0.584c1.578,0.008,2.851,1.291,2.843,2.869 C1049.312,1060.894,1048.209,1062.093,1046.793,1062.256z M1152.386,1047.291c-1.319,0.152-2.608-0.636-3.04-1.945 c-0.493-1.499,0.322-3.115,1.823-3.607c6.778-2.23,13.436-4.751,19.786-7.491c1.45-0.623,3.129,0.042,3.755,1.49 c0.625,1.449-0.042,3.13-1.491,3.755c-6.506,2.809-13.324,5.389-20.265,7.674 C1152.765,1047.228,1152.574,1047.268,1152.386,1047.291z M1004.001,1060.176c-0.191,0.022-0.386,0.024-0.586,0.01 c-6.963-0.624-14.164-1.399-21.404-2.311c-1.566-0.197-2.676-1.625-2.479-3.19c0.199-1.565,1.627-2.677,3.191-2.479 c7.172,0.901,14.305,1.671,21.201,2.285c1.571,0.143,2.731,1.528,2.592,3.101 C1006.395,1058.966,1005.319,1060.023,1004.001,1060.176z M1191.642,1030.282c-1.115,0.13-2.252-0.412-2.829-1.457 c-0.763-1.379-0.264-3.117,1.118-3.883c6.188-3.423,12.215-7.183,17.915-11.17c1.293-0.904,3.073-0.587,3.979,0.704 c0.904,1.295,0.59,3.075-0.704,3.979c-5.861,4.102-12.062,7.967-18.424,11.487 C1192.359,1030.129,1192.002,1030.24,1191.642,1030.282z M961.485,1054.857c-0.254,0.029-0.514,0.025-0.777-0.017 c-6.927-1.1-14.057-2.34-21.191-3.686c-1.551-0.294-2.571-1.787-2.279-3.339c0.293-1.549,1.786-2.568,3.336-2.277 c7.083,1.337,14.157,2.568,21.029,3.658c1.558,0.247,2.621,1.713,2.374,3.27C963.771,1053.761,962.727,1054.715,961.485,1054.857z M1226.667,1005.739c-0.901,0.104-1.836-0.222-2.48-0.955c-1.039-1.187-0.921-2.991,0.266-4.032 c5.246-4.596,10.322-9.563,15.09-14.76c1.066-1.165,2.874-1.239,4.036-0.173c1.163,1.065,1.24,2.872,0.175,4.035 c-4.907,5.35-10.133,10.461-15.534,15.195C1227.767,1005.446,1227.224,1005.675,1226.667,1005.739z M1255.618,974.248 c-0.698,0.08-1.427-0.095-2.035-0.55c-1.266-0.943-1.523-2.732-0.581-3.998c0.714-0.956,1.406-1.901,2.081-2.829 c3.552-4.908,6.807-9.848,9.671-14.678c0.805-1.357,2.557-1.808,3.915-1c1.356,0.805,1.805,2.558,0.999,3.914 c-2.952,4.979-6.303,10.064-9.958,15.118c-0.692,0.952-1.4,1.914-2.129,2.893C1257.092,973.773,1256.374,974.161,1255.618,974.248z M1277.237,937.451c-0.478,0.055-0.978-0.009-1.451-0.213c-1.45-0.623-2.122-2.304-1.499-3.752 c2.638-6.142,4.896-12.44,7.11-19.819c0.453-1.511,2.045-2.369,3.557-1.914c1.512,0.452,2.369,2.046,1.916,3.556 c-2.278,7.594-4.607,14.085-7.332,20.432C1279.12,936.717,1278.223,937.337,1277.237,937.451z M1290.054,896.68 c-0.339,0.039-0.692,0.017-1.042-0.074c-1.528-0.395-2.446-1.955-2.051-3.482c1.763-6.818,3.532-13.534,5.765-20.743 c0.467-1.506,2.065-2.349,3.574-1.883c1.509,0.468,2.352,2.067,1.885,3.575c-2.196,7.088-3.947,13.733-5.691,20.482 C1292.188,895.731,1291.192,896.547,1290.054,896.68z M1302.991,855.934c-0.464,0.055-0.948-0.006-1.413-0.195 c-1.458-0.6-2.154-2.271-1.554-3.73c2.725-6.62,5.72-13.036,9.158-19.613c0.731-1.396,2.458-1.937,3.856-1.208 c1.397,0.731,1.938,2.456,1.208,3.855c-3.356,6.42-6.281,12.682-8.939,19.141C1304.898,855.18,1303.99,855.818,1302.991,855.934z M1322.699,818.01c-0.62,0.07-1.269-0.059-1.84-0.418c-1.337-0.834-1.744-2.598-0.907-3.937 c3.646-5.831,7.688-11.858,12.013-17.918c0.918-1.287,2.702-1.583,3.987-0.665c1.283,0.915,1.583,2.701,0.663,3.984 c-4.257,5.967-8.233,11.897-11.819,17.628C1324.317,817.452,1323.533,817.914,1322.699,818.01z M1347.7,783.275 c-0.767,0.088-1.566-0.133-2.198-0.678c-1.192-1.031-1.324-2.836-0.29-4.029c4.598-5.318,9.702-10.561,15.172-15.583 c1.164-1.068,2.971-0.989,4.036,0.173c1.068,1.161,0.991,2.97-0.171,4.034c-5.31,4.876-10.26,9.96-14.716,15.112 C1349.046,782.868,1348.388,783.196,1347.7,783.275z M1379.133,754.246c-0.973,0.114-1.979-0.278-2.613-1.117 c-0.948-1.263-0.696-3.052,0.565-4.002c5.598-4.214,11.601-8.347,17.844-12.285c1.334-0.838,3.102-0.443,3.941,0.891 c0.842,1.336,0.441,3.101-0.892,3.943c-6.111,3.854-11.985,7.896-17.456,12.017C1380.101,754.01,1379.62,754.19,1379.133,754.246z M1415.313,731.332c-1.13,0.131-2.277-0.427-2.847-1.491c-0.745-1.39-0.222-3.121,1.17-3.866c6.2-3.323,12.716-6.549,19.365-9.595 c1.44-0.657,3.13-0.024,3.787,1.41c0.654,1.433,0.025,3.13-1.41,3.787c-6.539,2.994-12.947,6.167-19.047,9.433 C1416.006,731.186,1415.659,731.291,1415.313,731.332z M1454.254,713.45c-1.256,0.146-2.502-0.563-2.985-1.797 c-0.575-1.468,0.148-3.126,1.619-3.701c2.708-1.062,5.313-2.046,7.793-2.959c1.476-0.554,3.122,0.21,3.668,1.693 c0.545,1.48-0.213,3.123-1.694,3.667c-2.445,0.901-5.013,1.873-7.684,2.919C1454.736,713.364,1454.496,713.422,1454.254,713.45z"></path> <radialGradient id="SVGID_3_" cx="1347.9492" cy="1533.4424" r="142.8628" gradientTransform="matrix(0.2873 -0.9578 0.6226 0.1867 347.9861 2038.2202)" gradientUnits="userSpaceOnUse"> <stop offset="0" style="stop-color:#D2D3D4"></stop> <stop offset="0.3042" style="stop-color:#DBDCDD;stop-opacity:0.6958"></stop> <stop offset="0.7987" style="stop-color:#F3F3F4;stop-opacity:0.2013"></stop> <stop offset="1" style="stop-color:#FFFFFF;stop-opacity:0"></stop> </radialGradient> <path fill="url(#SVGID_3_)" d="M1730.925,896.594c49.123,14.733,70.57,87.938,47.904,163.511 c-22.664,75.572-80.859,124.892-129.982,110.159c-49.121-14.732-70.568-87.938-47.902-163.51 C1623.608,931.182,1681.804,881.86,1730.925,896.594z"></path> <polygon fill="#FFFFFF" points="1685.12,870.147 1517.528,1001.602 1585.63,1007.358 "></polygon> <polygon fill="#B3D451" points="1585.63,1007.358 1616.323,1077.075 1685.12,870.147 "></polygon> <polygon fill="#A0CC3A" points="1616.323,1077.075 1617.622,1015.199 1685.12,870.147 "></polygon> <polygon fill="#FFFFFF" points="1685.12,870.147 1685.776,1050.386 1617.622,1015.199 "></polygon> <g> <path fill="#E6E6E6" d="M1241.423,1217.265c-0.803,0.189-1.682,0.033-2.389-0.504c-2.969-2.257-5.814-4.588-8.455-6.93 c-1.182-1.047-1.289-2.852-0.242-4.034c1.047-1.177,2.854-1.288,4.033-0.239c2.535,2.246,5.266,4.484,8.119,6.652 c1.258,0.954,1.502,2.747,0.547,4.003C1242.62,1216.762,1242.044,1217.116,1241.423,1217.265z"></path> <path fill="#E6E6E6" d="M1385.522,1249.223c-1.441,0.342-2.924-0.481-3.379-1.915c-0.479-1.504,0.354-3.11,1.857-3.588 c2.588-0.822,5.152-1.756,7.625-2.773c4.014-1.654,8.006-3.564,11.863-5.673c1.389-0.763,3.121-0.249,3.879,1.136 c0.756,1.385,0.248,3.121-1.137,3.876c-4.041,2.211-8.223,4.21-12.43,5.944c-2.617,1.078-5.332,2.067-8.07,2.936 C1385.661,1249.188,1385.593,1249.206,1385.522,1249.223z M1364.21,1253.698c-0.111,0.026-0.227,0.047-0.342,0.061 c-7.127,0.807-14.611,1.033-22.244,0.672c-1.576-0.076-2.795-1.415-2.719-2.988c0.074-1.578,1.418-2.8,2.988-2.721 c7.33,0.35,14.506,0.134,21.332-0.642c1.566-0.177,2.982,0.948,3.16,2.517C1366.55,1252.049,1365.597,1253.369,1364.21,1253.698z M1423.669,1228.497c-1.045,0.248-2.186-0.105-2.898-1.003c-0.98-1.234-0.775-3.031,0.461-4.013 c2.688-2.137,5.303-4.394,7.828-6.755c-2.818-0.114-5.619-0.297-8.395-0.542c-1.572-0.14-2.732-1.526-2.594-3.097 s1.527-2.739,3.098-2.594c4.443,0.393,8.959,0.614,13.502,0.663c0.711-0.75,1.414-1.51,2.107-2.276 c1.057-1.174,2.863-1.267,4.033-0.205c0.705,0.636,1.018,1.541,0.928,2.419c0.299-0.009,0.598-0.02,0.896-0.029 c1.578-0.054,2.898,1.184,2.953,2.761c0.053,1.575-1.176,2.89-2.76,2.952c-1.914,0.064-3.83,0.098-5.742,0.104 c-3.881,3.946-8.002,7.657-12.301,11.071C1424.446,1228.225,1424.065,1228.403,1423.669,1228.497z M1320.755,1251.827 c-0.375,0.089-0.771,0.103-1.174,0.029c-7.119-1.307-14.354-3.088-21.506-5.29c-1.506-0.466-2.354-2.065-1.889-3.573 c0.463-1.507,2.064-2.353,3.572-1.889c6.938,2.139,13.955,3.865,20.854,5.131c1.553,0.285,2.578,1.774,2.295,3.325 C1322.694,1250.713,1321.823,1251.574,1320.755,1251.827z M1474.663,1212.709c-3.164,0.75-6.41,1.396-9.746,1.939 c-1.559,0.255-3.027-0.8-3.283-2.357c-0.252-1.556,0.797-2.999,2.359-3.281c3.205-0.524,6.318-1.143,9.25-1.836 c3.928-0.935,7.773-2.006,11.531-3.206c1.514-0.489,3.111,0.349,3.592,1.853s-0.35,3.11-1.854,3.591 C1482.62,1210.655,1478.632,1211.764,1474.663,1212.709z M1506.565,1201.447c-1.283,0.304-2.646-0.314-3.236-1.554 c-0.678-1.425-0.072-3.128,1.354-3.807c6.357-3.023,12.656-6.538,18.723-10.441c1.324-0.856,3.094-0.473,3.947,0.856 c0.855,1.324,0.473,3.094-0.855,3.946c-6.27,4.038-12.783,7.67-19.361,10.799 C1506.95,1201.336,1506.759,1201.401,1506.565,1201.447z M1400.024,1212.746c-0.414,0.099-0.855,0.104-1.299,0.003 c-7.525-1.734-14.67-4.019-21.232-6.788c-1.455-0.613-2.135-2.288-1.521-3.742s2.289-2.135,3.742-1.522 c6.26,2.642,13.088,4.824,20.297,6.485c1.537,0.354,2.494,1.887,2.143,3.426 C1401.901,1211.701,1401.05,1212.503,1400.024,1212.746z M1543.204,1177.939c-1.025,0.243-2.146-0.093-2.863-0.96 c-1.006-1.216-0.832-3.017,0.385-4.021c5.416-4.473,10.736-9.377,15.811-14.577c1.104-1.126,2.912-1.149,4.041-0.049 c1.129,1.104,1.15,2.911,0.049,4.041c-5.217,5.345-10.689,10.388-16.264,14.991 C1544.015,1177.653,1543.616,1177.842,1543.204,1177.939z M1279.118,1239.05c-0.578,0.137-1.205,0.095-1.793-0.159 c-6.83-2.963-13.488-6.299-19.787-9.917c-1.369-0.786-1.842-2.532-1.055-3.899c0.787-1.369,2.531-1.841,3.9-1.056 c6.115,3.513,12.58,6.753,19.213,9.63c1.449,0.626,2.113,2.31,1.486,3.757C1280.71,1238.265,1279.966,1238.849,1279.118,1239.05z M1452.802,1196.264c-0.729,0.173-1.523,0.061-2.203-0.375c-1.328-0.853-1.713-2.62-0.859-3.949 c3.885-6.048,7.236-12.384,9.957-18.833c0.613-1.456,2.289-2.134,3.744-1.521c1.453,0.613,2.135,2.29,1.52,3.742 c-2.846,6.751-6.352,13.377-10.414,19.702C1454.132,1195.678,1453.497,1196.099,1452.802,1196.264z M1573.694,1146.812 c-0.826,0.196-1.734,0.021-2.449-0.551c-1.23-0.987-1.428-2.785-0.441-4.017c4.441-5.533,8.717-11.395,12.715-17.419 c0.869-1.314,2.643-1.675,3.959-0.801c1.316,0.871,1.674,2.645,0.801,3.959c-4.088,6.167-8.469,12.168-13.016,17.836 C1574.849,1146.335,1574.292,1146.67,1573.694,1146.812z M1360.228,1195.556c-0.777,0.185-1.627,0.043-2.326-0.46 c-6.27-4.499-11.775-9.699-16.367-15.455c-0.984-1.234-0.781-3.03,0.451-4.016c1.232-0.982,3.031-0.782,4.016,0.453 c4.264,5.344,9.391,10.183,15.232,14.378c1.283,0.92,1.574,2.703,0.654,3.985 C1361.472,1195.024,1360.874,1195.402,1360.228,1195.556z M1469.55,1156.222c-0.396,0.095-0.82,0.104-1.248,0.016 c-1.545-0.327-2.531-1.843-2.205-3.386c1.504-7.121,2.201-14.195,2.078-21.023c-0.029-1.579,1.234-2.882,2.805-2.907 c1.578-0.028,2.881,1.227,2.908,2.804c0.133,7.259-0.607,14.763-2.201,22.307 C1471.452,1155.148,1470.593,1155.975,1469.55,1156.222z M1333.468,1161.888c-1.34,0.318-2.752-0.375-3.297-1.688 c-1.814-4.387-3.281-8.91-4.355-13.446c-0.648-2.733-1.164-5.515-1.535-8.264c-0.209-1.562,0.883-3.007,2.449-3.212 c1.564-0.211,3.004,0.886,3.215,2.449c0.344,2.564,0.824,5.156,1.43,7.708c1.006,4.241,2.379,8.472,4.076,12.577 c0.605,1.459-0.088,3.129-1.545,3.733C1333.761,1161.807,1333.614,1161.853,1333.468,1161.888z M1468.435,1113.058 c-1.461,0.347-2.957-0.505-3.395-1.965c-2.023-6.776-5.027-13.12-8.93-18.847c-0.887-1.303-0.551-3.081,0.754-3.971 c1.297-0.884,3.082-0.552,3.971,0.755c4.232,6.213,7.49,13.086,9.682,20.429c0.451,1.513-0.406,3.104-1.922,3.555 C1468.542,1113.03,1468.489,1113.045,1468.435,1113.058z M1327.854,1119.146c-0.34,0.081-0.703,0.101-1.072,0.046 c-1.561-0.228-2.641-1.678-2.414-3.24c1.105-7.559,3.297-14.83,6.516-21.614c0.678-1.428,2.383-2.031,3.805-1.357 c1.426,0.678,2.033,2.381,1.357,3.807c-2.975,6.27-5,12.995-6.023,19.993C1329.849,1117.971,1328.962,1118.884,1327.854,1119.146z M1444.394,1077.419c-0.844,0.2-1.766,0.016-2.484-0.581c-5.43-4.502-11.4-8.323-17.744-11.356 c-1.424-0.68-2.025-2.387-1.346-3.811c0.684-1.423,2.387-2.026,3.811-1.344c6.768,3.235,13.137,7.311,18.926,12.113 c1.215,1.006,1.385,2.807,0.375,4.022C1445.521,1076.96,1444.978,1077.28,1444.394,1077.419z M1346.341,1080.375 c-0.9,0.213-1.887-0.014-2.613-0.692c-1.152-1.078-1.213-2.886-0.137-4.039c5.113-5.469,11.082-10.169,17.742-13.971 c1.373-0.785,3.115-0.305,3.896,1.064c0.783,1.371,0.307,3.117-1.064,3.899c-6.16,3.517-11.678,7.86-16.398,12.909 C1347.366,1079.972,1346.868,1080.249,1346.341,1080.375z M1405.353,1059.007c-0.363,0.086-0.746,0.102-1.137,0.035 c-7.188-1.221-14.145-1.2-20.68,0.058c-1.549,0.3-3.047-0.716-3.344-2.265c-0.301-1.551,0.672-3.021,2.264-3.346 c7.209-1.389,14.852-1.415,22.715-0.081c1.557,0.265,2.604,1.74,2.34,3.295C1407.313,1057.869,1406.435,1058.75,1405.353,1059.007 z"></path> <path fill="#E6E6E6" d="M1597.843,1110.356c-0.654,0.155-1.367,0.081-2.008-0.263c-1.391-0.748-1.914-2.48-1.166-3.868 c1.74-3.239,3.295-6.323,4.752-9.427c0.668-1.432,2.369-2.046,3.799-1.373c1.43,0.669,2.043,2.372,1.373,3.8 c-1.502,3.198-3.1,6.373-4.891,9.702C1599.3,1109.678,1598.61,1110.175,1597.843,1110.356z"></path> </g> <radialGradient id="SVGID_4_" cx="1450.709" cy="553.8569" r="142.8621" gradientTransform="matrix(0.2873 -0.9578 0.6226 0.1867 347.9861 2038.2202)" gradientUnits="userSpaceOnUse"> <stop offset="0" style="stop-color:#D2D3D4"></stop> <stop offset="0.3042" style="stop-color:#DBDCDD;stop-opacity:0.6958"></stop> <stop offset="0.7987" style="stop-color:#F3F3F4;stop-opacity:0.2013"></stop> <stop offset="1" style="stop-color:#FFFFFF;stop-opacity:0"></stop> </radialGradient> <path fill="url(#SVGID_4_)" d="M1150.584,615.278c49.123,14.733,70.57,87.938,47.904,163.511 c-22.664,75.572-80.859,124.892-129.982,110.159c-49.121-14.732-70.568-87.938-47.902-163.51 C1043.268,649.866,1101.463,600.545,1150.584,615.278z"></path> <polygon fill="#FFFFFF" points="1104.779,588.832 937.188,720.286 1005.289,726.043 "></polygon> <polygon fill="#B3D451" points="1005.289,726.043 1035.982,795.76 1104.779,588.832 "></polygon> <polygon fill="#A0CC3A" points="1035.982,795.76 1037.281,733.884 1104.779,588.832 "></polygon> <polygon fill="#FFFFFF" points="1104.779,588.832 1105.436,769.07 1037.281,733.884 "></polygon> <g> <path fill="#E6E6E6" d="M661.082,935.949c-0.803,0.189-1.682,0.033-2.389-0.504c-2.969-2.257-5.814-4.588-8.455-6.93 c-1.182-1.047-1.289-2.852-0.242-4.034c1.047-1.177,2.854-1.288,4.033-0.239c2.535,2.246,5.266,4.484,8.119,6.652 c1.258,0.954,1.502,2.747,0.547,4.003C662.279,935.446,661.703,935.801,661.082,935.949z"></path> <path fill="#E6E6E6" d="M805.182,967.907c-1.441,0.342-2.924-0.481-3.379-1.915c-0.479-1.504,0.354-3.11,1.857-3.588 c2.588-0.822,5.152-1.756,7.625-2.773c4.014-1.654,8.006-3.564,11.863-5.673c1.389-0.763,3.121-0.249,3.879,1.136 c0.756,1.385,0.248,3.121-1.137,3.876c-4.041,2.211-8.223,4.21-12.43,5.944c-2.617,1.078-5.332,2.067-8.07,2.936 C805.32,967.872,805.252,967.891,805.182,967.907z M783.869,972.383c-0.111,0.026-0.227,0.047-0.342,0.061 c-7.127,0.807-14.611,1.033-22.244,0.672c-1.576-0.076-2.795-1.415-2.719-2.988c0.074-1.578,1.418-2.8,2.988-2.721 c7.33,0.35,14.506,0.134,21.332-0.642c1.566-0.177,2.982,0.948,3.16,2.517C786.209,970.733,785.256,972.054,783.869,972.383z M843.328,947.182c-1.045,0.248-2.186-0.105-2.898-1.003c-0.98-1.234-0.775-3.031,0.461-4.013 c2.688-2.137,5.303-4.394,7.828-6.755c-2.818-0.114-5.619-0.297-8.395-0.542c-1.572-0.14-2.732-1.526-2.594-3.097 s1.527-2.739,3.098-2.594c4.443,0.393,8.959,0.614,13.502,0.663c0.711-0.75,1.414-1.51,2.107-2.276 c1.057-1.174,2.863-1.267,4.033-0.205c0.705,0.636,1.018,1.541,0.928,2.419c0.299-0.009,0.598-0.02,0.896-0.029 c1.578-0.054,2.898,1.184,2.953,2.761c0.053,1.575-1.176,2.89-2.76,2.952c-1.914,0.064-3.83,0.098-5.742,0.104 c-3.881,3.946-8.002,7.657-12.301,11.071C844.105,946.909,843.725,947.088,843.328,947.182z M740.414,970.512 c-0.375,0.089-0.771,0.103-1.174,0.029c-7.119-1.307-14.354-3.088-21.506-5.29c-1.506-0.466-2.354-2.065-1.889-3.573 c0.463-1.507,2.064-2.353,3.572-1.889c6.938,2.139,13.955,3.865,20.854,5.131c1.553,0.285,2.578,1.774,2.295,3.325 C742.354,969.397,741.482,970.259,740.414,970.512z M894.322,931.394c-3.164,0.75-6.41,1.396-9.746,1.939 c-1.559,0.255-3.027-0.8-3.283-2.357c-0.252-1.556,0.797-2.999,2.359-3.281c3.205-0.524,6.318-1.143,9.25-1.836 c3.928-0.935,7.773-2.006,11.531-3.206c1.514-0.489,3.111,0.349,3.592,1.853s-0.35,3.11-1.854,3.591 C902.279,929.34,898.291,930.448,894.322,931.394z M926.225,920.132c-1.283,0.304-2.646-0.314-3.236-1.554 c-0.678-1.425-0.072-3.128,1.354-3.807c6.357-3.023,12.656-6.538,18.723-10.441c1.324-0.856,3.094-0.473,3.947,0.856 c0.855,1.324,0.473,3.094-0.855,3.946c-6.27,4.038-12.783,7.67-19.361,10.799C926.609,920.021,926.418,920.086,926.225,920.132z M819.684,931.431c-0.414,0.099-0.855,0.104-1.299,0.003c-7.525-1.734-14.67-4.019-21.232-6.788 c-1.455-0.613-2.135-2.288-1.521-3.742s2.289-2.135,3.742-1.522c6.26,2.642,13.088,4.824,20.297,6.485 c1.537,0.354,2.494,1.887,2.143,3.426C821.561,930.386,820.709,931.188,819.684,931.431z M962.863,896.624 c-1.025,0.243-2.146-0.093-2.863-0.96c-1.006-1.216-0.832-3.017,0.385-4.021c5.416-4.473,10.736-9.377,15.811-14.577 c1.104-1.126,2.912-1.149,4.041-0.049c1.129,1.104,1.15,2.911,0.049,4.041c-5.217,5.345-10.689,10.388-16.264,14.991 C963.674,896.338,963.275,896.526,962.863,896.624z M698.777,957.734c-0.578,0.137-1.205,0.095-1.793-0.159 c-6.83-2.963-13.488-6.299-19.787-9.917c-1.369-0.786-1.842-2.532-1.055-3.899c0.787-1.369,2.531-1.841,3.9-1.056 c6.115,3.513,12.58,6.753,19.213,9.63c1.449,0.626,2.113,2.31,1.486,3.757C700.369,956.949,699.625,957.533,698.777,957.734z M872.461,914.948c-0.729,0.173-1.523,0.061-2.203-0.375c-1.328-0.853-1.713-2.62-0.859-3.949 c3.885-6.048,7.236-12.384,9.957-18.833c0.613-1.456,2.289-2.134,3.744-1.521c1.453,0.613,2.135,2.29,1.52,3.742 c-2.846,6.751-6.352,13.377-10.414,19.702C873.791,914.362,873.156,914.783,872.461,914.948z M993.354,865.496 c-0.826,0.196-1.734,0.021-2.449-0.551c-1.23-0.987-1.428-2.785-0.441-4.017c4.441-5.533,8.717-11.395,12.715-17.419 c0.869-1.314,2.643-1.675,3.959-0.801c1.316,0.871,1.674,2.645,0.801,3.959c-4.088,6.167-8.469,12.168-13.016,17.836 C994.508,865.02,993.951,865.354,993.354,865.496z M779.887,914.24c-0.777,0.185-1.627,0.043-2.326-0.46 c-6.27-4.499-11.775-9.699-16.367-15.455c-0.984-1.234-0.781-3.03,0.451-4.016c1.232-0.982,3.031-0.782,4.016,0.453 c4.264,5.344,9.391,10.183,15.232,14.378c1.283,0.92,1.574,2.703,0.654,3.985C781.131,913.709,780.533,914.087,779.887,914.24z M889.209,874.906c-0.396,0.095-0.82,0.104-1.248,0.016c-1.545-0.327-2.531-1.843-2.205-3.386 c1.504-7.121,2.201-14.195,2.078-21.023c-0.029-1.579,1.234-2.882,2.805-2.907c1.578-0.028,2.881,1.227,2.908,2.804 c0.133,7.259-0.607,14.763-2.201,22.307C891.111,873.833,890.252,874.659,889.209,874.906z M753.127,880.572 c-1.34,0.318-2.752-0.375-3.297-1.688c-1.814-4.387-3.281-8.91-4.355-13.446c-0.648-2.733-1.164-5.515-1.535-8.264 c-0.209-1.562,0.883-3.007,2.449-3.212c1.564-0.211,3.004,0.886,3.215,2.449c0.344,2.564,0.824,5.156,1.43,7.708 c1.006,4.241,2.379,8.472,4.076,12.577c0.605,1.459-0.088,3.129-1.545,3.733C753.42,880.491,753.273,880.537,753.127,880.572z M888.094,831.742c-1.461,0.347-2.957-0.505-3.395-1.965c-2.023-6.776-5.027-13.12-8.93-18.847 c-0.887-1.303-0.551-3.081,0.754-3.971c1.297-0.884,3.082-0.552,3.971,0.755c4.232,6.213,7.49,13.086,9.682,20.429 c0.451,1.513-0.406,3.104-1.922,3.555C888.201,831.715,888.148,831.729,888.094,831.742z M747.514,837.83 c-0.34,0.081-0.703,0.101-1.072,0.046c-1.561-0.228-2.641-1.678-2.414-3.24c1.105-7.559,3.297-14.83,6.516-21.614 c0.678-1.428,2.383-2.031,3.805-1.357c1.426,0.678,2.033,2.381,1.357,3.807c-2.975,6.27-5,12.995-6.023,19.993 C749.508,836.655,748.621,837.568,747.514,837.83z M864.053,796.104c-0.844,0.2-1.766,0.016-2.484-0.581 c-5.43-4.502-11.4-8.323-17.744-11.356c-1.424-0.68-2.025-2.387-1.346-3.811c0.684-1.423,2.387-2.026,3.811-1.344 c6.768,3.235,13.137,7.311,18.926,12.113c1.215,1.006,1.385,2.807,0.375,4.022C865.18,795.645,864.637,795.965,864.053,796.104z M766,799.06c-0.9,0.213-1.887-0.014-2.613-0.692c-1.152-1.078-1.213-2.886-0.137-4.039c5.113-5.469,11.082-10.169,17.742-13.971 c1.373-0.785,3.115-0.305,3.896,1.064c0.783,1.371,0.307,3.117-1.064,3.899c-6.16,3.517-11.678,7.86-16.398,12.909 C767.025,798.656,766.527,798.934,766,799.06z M825.012,777.691c-0.363,0.086-0.746,0.102-1.137,0.035 c-7.188-1.221-14.145-1.2-20.68,0.058c-1.549,0.3-3.047-0.716-3.344-2.265c-0.301-1.551,0.672-3.021,2.264-3.346 c7.209-1.389,14.852-1.415,22.715-0.081c1.557,0.265,2.604,1.74,2.34,3.295C826.973,776.554,826.094,777.435,825.012,777.691z"></path> <path fill="#E6E6E6" d="M1017.502,829.041c-0.654,0.155-1.367,0.081-2.008-0.263c-1.391-0.748-1.914-2.48-1.166-3.868 c1.74-3.239,3.295-6.323,4.752-9.427c0.668-1.432,2.369-2.046,3.799-1.373c1.43,0.669,2.043,2.372,1.373,3.8 c-1.502,3.198-3.1,6.373-4.891,9.702C1018.959,828.362,1018.27,828.859,1017.502,829.041z"></path> </g> <circle fill="#E6E6E6" cx="638.549" cy="916.522" r="7.5"></circle> <circle fill="#E6E6E6" cx="519.646" cy="1043.428" r="7.5"></circle> </g> </svg> 