<?xml version="1.0" encoding="UTF-8"?> <!-- Generator: Adobe Illustrator 16.0.0, SVG Export Plug-In . SVG Version: 6.00 Build 0) --> <svg xmlns="http://www.w3.org/2000/svg" xmlns:xlink="http://www.w3.org/1999/xlink" x="0px" y="0px" width="1600px" height="800px" viewBox="0 0 1600 800" xml:space="preserve"> <g id="BACKGROUND" display="none"> <rect x="393.919" y="-6" display="inline" fill="#5BDCCA" width="814.918" height="816.455"></rect> </g> <g id="OBJECTS"> <g> <linearGradient id="SVGID_1_" gradientUnits="userSpaceOnUse" x1="1364.252" y1="309.4409" x2="1348.9266" y2="193.4064"> <stop offset="0" style="stop-color:#FFFFFF;stop-opacity:0"></stop> <stop offset="1" style="stop-color:#B0B0B0"></stop> </linearGradient> <polygon fill="url(#SVGID_1_)" points="1650.381,490.027 1334.021,509.731 1088.815,209.792 1422.69,208.318 "></polygon> <linearGradient id="SVGID_2_" gradientUnits="userSpaceOnUse" x1="1321.498" y1="142.4429" x2="1317.1176" y2="109.2759"> <stop offset="0" style="stop-color:#FFFFFF;stop-opacity:0"></stop> <stop offset="1" style="stop-color:#B0B0B0"></stop> </linearGradient> <polygon fill="url(#SVGID_2_)" points="1364.308,199.209 1293.479,197.661 1293.521,107.257 1316.142,106.879 "></polygon> <linearGradient id="SVGID_3_" gradientUnits="userSpaceOnUse" x1="1321.498" y1="142.4429" x2="1317.1176" y2="109.2759"> <stop offset="0" style="stop-color:#FFFFFF;stop-opacity:0"></stop> <stop offset="1" style="stop-color:#B0B0B0"></stop> </linearGradient> <polygon fill="url(#SVGID_3_)" points="1364.308,199.209 1293.479,197.661 1293.521,107.257 1316.142,106.879 "></polygon> <linearGradient id="SVGID_4_" gradientUnits="userSpaceOnUse" x1="1380.6621" y1="220.7349" x2="1328.1055" y2="141.1283"> <stop offset="0" style="stop-color:#FFFFFF;stop-opacity:0"></stop> <stop offset="1" style="stop-color:#B0B0B0"></stop> </linearGradient> <polygon fill="url(#SVGID_4_)" points="1407.364,199.209 1324.13,197.661 1324.171,107.257 1346.792,106.879 "></polygon> <linearGradient id="SVGID_5_" gradientUnits="userSpaceOnUse" x1="1293.7646" y1="142.4434" x2="1289.3842" y2="109.2764"> <stop offset="0" style="stop-color:#FFFFFF;stop-opacity:0"></stop> <stop offset="1" style="stop-color:#B0B0B0"></stop> </linearGradient> <polygon fill="url(#SVGID_5_)" points="1336.575,199.209 1265.747,197.661 1265.788,107.257 1288.409,106.879 "></polygon> <linearGradient id="SVGID_6_" gradientUnits="userSpaceOnUse" x1="1281.3096" y1="198.4697" x2="1244.0909" y2="153.9534"> <stop offset="0" style="stop-color:#FFFFFF;stop-opacity:0"></stop> <stop offset="1" style="stop-color:#B0B0B0"></stop> </linearGradient> <polygon fill="url(#SVGID_6_)" points="1309.209,199.209 1230.029,199.209 1238.421,107.257 1262.121,113.442 "></polygon> <linearGradient id="SVGID_7_" gradientUnits="userSpaceOnUse" x1="1036.9521" y1="403.2227" x2="897.2112" y2="185.7226"> <stop offset="0" style="stop-color:#FFFFFF;stop-opacity:0"></stop> <stop offset="1" style="stop-color:#B0B0B0"></stop> </linearGradient> <polygon fill="url(#SVGID_7_)" points="1168.217,419.521 1054.368,536.625 809.162,236.686 940.525,137.813 "></polygon> <linearGradient id="SVGID_8_" gradientUnits="userSpaceOnUse" x1="881.9707" y1="702.8828" x2="811.912" y2="636.1081"> <stop offset="0" style="stop-color:#FFFFFF;stop-opacity:0"></stop> <stop offset="1" style="stop-color:#B0B0B0"></stop> </linearGradient> <polygon fill="url(#SVGID_8_)" points="1061.449,839.227 1050.502,962.925 805.296,662.985 833.758,557.519 "></polygon> <rect x="805.296" y="558.991" fill="#3F3F3F" width="27.003" height="105.089"></rect> <linearGradient id="SVGID_9_" gradientUnits="userSpaceOnUse" x1="818.7979" y1="615.1846" x2="818.7979" y2="585.9848"> <stop offset="0" style="stop-color:#FFFFFF;stop-opacity:0"></stop> <stop offset="1" style="stop-color:#B0B0B0"></stop> </linearGradient> <rect x="805.296" y="558.991" fill="url(#SVGID_9_)" width="27.003" height="105.089"></rect> <linearGradient id="SVGID_10_" gradientUnits="userSpaceOnUse" x1="1427.1162" y1="702.8828" x2="1357.0577" y2="636.1083"> <stop offset="0" style="stop-color:#FFFFFF;stop-opacity:0"></stop> <stop offset="1" style="stop-color:#B0B0B0"></stop> </linearGradient> <polygon fill="url(#SVGID_10_)" points="1606.595,839.227 1595.647,962.925 1350.442,662.985 1378.903,557.519 "></polygon> <rect x="1350.442" y="558.991" fill="#3F3F3F" width="27.002" height="105.089"></rect> <linearGradient id="SVGID_11_" gradientUnits="userSpaceOnUse" x1="1363.9434" y1="615.1846" x2="1363.9434" y2="585.9848"> <stop offset="0" style="stop-color:#FFFFFF;stop-opacity:0"></stop> <stop offset="1" style="stop-color:#B0B0B0"></stop> </linearGradient> <rect x="1350.442" y="558.991" fill="url(#SVGID_11_)" width="27.002" height="105.089"></rect> <g id="Clock"> <circle fill="#E9E8E8" cx="874.104" cy="185.984" r="81.98"></circle> <g> <rect x="872.302" y="124.899" fill="#3F3F3F" width="3.605" height="24.615"></rect> <rect x="872.302" y="224.144" fill="#3F3F3F" width="3.605" height="24.615"></rect> <rect x="911.419" y="185.027" fill="#3F3F3F" width="24.617" height="3.606"></rect> <rect x="812.176" y="185.027" fill="#3F3F3F" width="24.614" height="3.606"></rect> <rect x="907.39" y="139.434" transform="matrix(0.7072 0.707 -0.707 0.7072 373.5217 -598.4012)" fill="#3F3F3F" width="3.606" height="24.613"></rect> <rect x="837.213" y="209.61" transform="matrix(-0.7072 -0.707 0.707 -0.7072 1275.4424 972.0694)" fill="#3F3F3F" width="3.606" height="24.615"></rect> <rect x="896.886" y="220.115" transform="matrix(-0.7071 -0.7071 0.7071 -0.7071 1395.147 1021.7482)" fill="#3F3F3F" width="24.614" height="3.606"></rect> <rect x="826.709" y="149.938" transform="matrix(-0.7071 -0.7071 0.7071 -0.7071 1325.0225 852.2916)" fill="#3F3F3F" width="24.615" height="3.606"></rect> </g> </g> <polyline fill="none" stroke="#B2DD4C" stroke-width="4" stroke-linecap="round" stroke-miterlimit="10" points="851.272,138.638 875.746,186.804 897.796,186.804 "></polyline> <path fill="#E9E8E8" d="M1422.69,207.603c0,5.441-4.411,9.852-9.853,9.852h-314.17c-5.441,0-9.853-4.411-9.853-9.852l0,0 c0-5.441,4.411-9.852,9.853-9.852h314.17C1418.279,197.75,1422.69,202.161,1422.69,207.603L1422.69,207.603z"></path> <rect x="972.78" y="538.74" fill="#DBDBDA" width="240.828" height="7.115"></rect> <path fill="#E9E8E8" d="M1190.619,545.126c0-10.479,12.415-18.975,27.731-18.975c15.315,0,27.73,8.495,27.73,18.975H1190.619z"></path> <polygon fill="#E9E8E8" points="1057.74,527.151 1049.539,538.081 1143.023,538.081 1134.236,527.151 "></polygon> <rect x="1049.539" y="538.081" fill="#DBDBDA" width="93.484" height="7.651"></rect> <rect x="958.886" y="311.211" fill="#B2DD4C" width="273.148" height="164.006"></rect> <polygon fill="#DBDBDA" points="1060.567,501.229 1057.74,527.151 1134.236,527.151 1129.087,501.229 "></polygon> <path fill="#3F3F3F" d="M1236.351,300.28H954.571c-3.655,0-6.62,2.938-6.62,6.559v168.149h10.935V311.211h273.148v163.777h10.935 V306.839C1242.969,303.218,1240.003,300.28,1236.351,300.28z"></path> <g> <path fill="#E9E8E8" d="M947.951,474.988v19.682c0,3.622,2.939,6.559,6.562,6.559h281.895c3.621,0,6.562-2.937,6.562-6.559 v-19.682H947.951z"></path> </g> <linearGradient id="SVGID_12_" gradientUnits="userSpaceOnUse" x1="1425.9404" y1="639.6816" x2="1313.9729" y2="465.4094"> <stop offset="0" style="stop-color:#FFFFFF;stop-opacity:0"></stop> <stop offset="1" style="stop-color:#B0B0B0"></stop> </linearGradient> <polygon fill="url(#SVGID_12_)" points="1504.654,622.098 1440.552,746.147 1271.376,539.209 1347.563,427.737 "></polygon> <rect x="1276.826" y="438.269" fill="#B2DD4C" width="66.924" height="94.318"></rect> <g> <path fill="#3F3F3F" d="M1339.46,424.48h-58.342c-5.688,0-10.298,4.611-10.298,10.296v3.492v94.318h6.006v-94.318h66.924v94.318 h6.006v-94.318v-3.492C1349.756,429.092,1345.146,424.48,1339.46,424.48z"></path> </g> <g> <path fill="#3F3F3F" d="M1270.82,535.974c0,5.686,4.61,10.295,10.298,10.295h58.342c5.686,0,10.296-4.609,10.296-10.295v-3.491 h-78.936V535.974z"></path> </g> <circle fill="#DBDBDA" cx="1310.287" cy="539.376" r="4.433"></circle> <path fill="#3F3F3F" d="M1208.503,187.72c-0.393,1.085,0.174,2.293,1.258,2.686l19.724,7.131c1.085,0.392,2.294-0.175,2.685-1.259 l29.952-82.835c0.393-1.084-0.175-2.293-1.259-2.685l-19.723-7.131c-1.085-0.393-2.293,0.173-2.686,1.259L1208.503,187.72z"></path> <rect x="1214.591" y="178.026" transform="matrix(-0.9404 -0.3401 0.3401 -0.9404 2314.2961 767.2305)" fill="#E9E8E8" width="19.574" height="5.593"></rect> <rect x="1234.557" y="117.21" transform="matrix(-0.9404 -0.34 0.34 -0.9404 2371.8418 666.8195)" fill="#B2DD4C" width="19.575" height="16.778"></rect> <path fill="#3F3F3F" d="M1264.304,195.563c0,1.154,0.944,2.097,2.098,2.097h20.973c1.152,0,2.098-0.943,2.098-2.097v-88.084 c0-1.153-0.945-2.097-2.098-2.097h-20.973c-1.153,0-2.098,0.943-2.098,2.097V195.563z"></path> <rect x="1267.101" y="116.567" fill="#B2DD4C" width="19.574" height="27.964"></rect> <path fill="#3F3F3F" d="M1321.304,195.563c0,1.154,0.944,2.097,2.098,2.097h20.973c1.153,0,2.098-0.943,2.098-2.097v-88.084 c0-1.153-0.944-2.097-2.098-2.097h-20.973c-1.153,0-2.098,0.943-2.098,2.097V195.563z"></path> <rect x="1324.101" y="116.567" fill="#B2DD4C" width="19.574" height="27.964"></rect> <rect x="1324.101" y="179.082" fill="#E9E8E8" width="19.574" height="11.795"></rect> <path fill="#3F3F3F" d="M1292.268,195.563c0,1.154,0.943,2.097,2.097,2.097h20.973c1.153,0,2.097-0.943,2.097-2.097v-88.084 c0-1.153-0.943-2.097-2.097-2.097h-20.973c-1.153,0-2.097,0.943-2.097,2.097V195.563z"></path> <rect x="1295.063" y="116.567" fill="#E9E8E8" width="19.574" height="2.797"></rect> <rect x="1295.063" y="178.086" fill="#B2DD4C" width="19.574" height="2.797"></rect> <rect x="1295.063" y="183.679" fill="#E9E8E8" width="19.574" height="2.797"></rect> <rect x="1295.063" y="122.16" fill="#B2DD4C" width="19.574" height="2.797"></rect> <linearGradient id="SVGID_13_" gradientUnits="userSpaceOnUse" x1="902.5596" y1="563.2871" x2="849.3677" y2="482.7184"> <stop offset="0" style="stop-color:#FFFFFF;stop-opacity:0"></stop> <stop offset="1" style="stop-color:#B0B0B0"></stop> </linearGradient> <polygon fill="url(#SVGID_13_)" points="921.332,546.95 853.098,545.401 853.138,443.32 860.76,442.943 "></polygon> <linearGradient id="SVGID_14_" gradientUnits="userSpaceOnUse" x1="888.3066" y1="563.208" x2="835.1474" y2="482.6888"> <stop offset="0" style="stop-color:#FFFFFF;stop-opacity:0"></stop> <stop offset="1" style="stop-color:#B0B0B0"></stop> </linearGradient> <polyline fill="url(#SVGID_14_)" points="907.102,546.857 838.866,545.308 838.907,443.32 846.529,442.943 "></polyline> <linearGradient id="SVGID_15_" gradientUnits="userSpaceOnUse" x1="876.9014" y1="564.7666" x2="822.8008" y2="482.8216"> <stop offset="0" style="stop-color:#FFFFFF;stop-opacity:0"></stop> <stop offset="1" style="stop-color:#B0B0B0"></stop> </linearGradient> <polyline fill="url(#SVGID_15_)" points="896.154,548.045 827.919,546.496 825.771,443.32 833.394,442.943 "></polyline> <g> <g> <g> <g> <path fill="#DBDBDA" d="M828.892,526.602c-2.707,0-4.9-2.586-4.9-5.776V445.15c0-3.191,2.193-5.777,4.9-5.777 c2.706,0,4.9,2.586,4.9,5.777v75.675C833.792,524.016,831.598,526.602,828.892,526.602z"></path> </g> </g> <path fill="#3F3F3F" d="M828.892,438.393c-0.83,0-1.619,0.176-2.337,0.488v-6.772c0-0.778,1.047-1.407,2.337-1.407 s2.337,0.629,2.337,1.407v6.772C830.511,438.568,829.722,438.393,828.892,438.393z"></path> </g> <g> <g> <g> <path fill="#DBDBDA" d="M842.849,526.602c-2.707,0-4.9-2.586-4.9-5.776V445.15c0-3.191,2.193-5.777,4.9-5.777 c2.706,0,4.9,2.586,4.9,5.777v75.675C847.749,524.016,845.555,526.602,842.849,526.602z"></path> </g> </g> <path fill="#3F3F3F" d="M842.849,438.393c-0.83,0-1.619,0.176-2.337,0.488v-6.772c0-0.778,1.047-1.407,2.337-1.407 s2.337,0.629,2.337,1.407v6.772C844.468,438.568,843.679,438.393,842.849,438.393z"></path> </g> <g> <g> <g> <path fill="#DBDBDA" d="M856.806,526.602c-2.707,0-4.9-2.586-4.9-5.776V445.15c0-3.191,2.193-5.777,4.9-5.777 c2.706,0,4.9,2.586,4.9,5.777v75.675C861.706,524.016,859.512,526.602,856.806,526.602z"></path> </g> </g> <path fill="#3F3F3F" d="M856.806,438.393c-0.83,0-1.619,0.176-2.337,0.488v-6.772c0-0.778,1.047-1.407,2.337-1.407 s2.337,0.629,2.337,1.407v6.772C858.425,438.568,857.637,438.393,856.806,438.393z"></path> </g> <path fill="#3F3F3F" d="M867.692,472.513v59.112c0,7.254-5.882,13.136-13.136,13.136h-22.988 c-7.254,0-13.136-5.882-13.136-13.136v-59.112H867.692z"></path> </g> <path fill="#E9E8E8" d="M1435.826,554.065c0,5.139-4.166,9.305-9.305,9.305H767.53c-5.139,0-9.305-4.166-9.305-9.305l0,0 c0-5.139,4.166-9.305,9.305-9.305h658.991C1431.66,544.761,1435.826,548.927,1435.826,554.065L1435.826,554.065z"></path> <path fill="#B2DD4C" d="M850.726,494.953c0,4.535-3.676,8.21-8.211,8.21l0,0c-4.534,0-8.21-3.675-8.21-8.21l0,0 c0-4.535,3.676-8.21,8.21-8.21l0,0C847.05,486.743,850.726,490.418,850.726,494.953L850.726,494.953z"></path> </g> </g> </svg> 