<?xml version="1.0" encoding="UTF-8"?> <!-- Generator: Adobe Illustrator 16.0.0, SVG Export Plug-In . SVG Version: 6.00 Build 0) --> <svg xmlns="http://www.w3.org/2000/svg" xmlns:xlink="http://www.w3.org/1999/xlink" id="Layer_1" x="0px" y="0px" width="800px" height="800px" viewBox="0 0 800 800" xml:space="preserve"> <rect x="2" y="0.177" fill="#F6F6F8" width="798" height="799.823"></rect> <path fill="#B2DD4C" d="M467.173,254.995c0,0-3.45,7.076-4.352,16.393c0,0,0.441,3.406,8.878,6.259 c9.632,1.293,27.658,0.203,27.658,0.203v-4.152c0,0-16.257-0.098-20.182-2.953c-0.642-1.923,0-5.169,1.579-8.091L467.173,254.995z"></path> <path fill="#0C0C0C" d="M473.235,252.472c0,0,7.768-23.915,8.25-26.486c0,0,7.806-0.986,13.306,4.139 c0,0-11.395,22.854-13.851,26.067C480.94,256.192,477.357,253.616,473.235,252.472"></path> <path fill="#2D2D2D" d="M465.404,256.562c0,0,1.469-5.44,4.959-7.085c1.018-0.48,12.639,6.109,14.217,8.497 c0,0-2.789,7.126-3.936,7.409C480.645,265.383,466.14,258.456,465.404,256.562"></path> <path fill="#747474" d="M548.285,283.602c0,0-8.536,16.616-9.188,17.658c-0.651,1.043,10.165,0,10.165,0s-4.082,16.681-4.589,19.809 c0,0,6.951-4.691,11.024-6.255c0,0,9.269,33.956,13.439,40.733c0,0,23.745-42.007,22.674-45.135c0,0,5.019,1.795,7.104,2.317 c2.085,0.521-6.777-17.203-6.777-17.203s8.862,0.522,11.989,0l-8.731-15.052C595.396,280.474,557.082,282.103,548.285,283.602"></path> <path fill="#B2DD4C" d="M591.065,176.657c-4.943-8.276-12.048-11.114-22.697-9.625c-7.416,1.037-12.481,6.741-15.878,14.986 C562.407,183.882,576.631,184.218,591.065,176.657"></path> <path fill="#FFFFFF" d="M591.065,176.657c-14.435,7.561-28.658,7.225-38.575,5.361c-11.939,28.98-3.235,89.409-3.235,89.409 c38.281,5.568,54.753-5.568,54.753-5.568C601.451,218.284,599.149,190.191,591.065,176.657"></path> <path fill="#FFFFFF" d="M619.5,468.027c-18.367-3.769-30.618-25.243-15.492-35.527c0,0-30.81-4.985-16.69-35.102 c0,0-20.234-10.579-4.133-26.339c0,0-22.141-28.204,0.792-43.629c0,0,8.704-13.314,25.364,19.007c0,0,56.278-24.99,26.21,42.603 c16.16-6.611,18.364,13.222,8.814,19.1c25.71,3.672,28.987,36.727,5.68,48.847c7.542,4.774,9.165,28.277-6.781,27.543 c0,0,36.36,6.614,22.477,36.363c28.208-14.324,38.124,12.119,31.513,26.443c0,0,49.582,23.139-4.407,58.396 c38.564,19.833,30.852,83.738-23.139,80.434c31.953,16.527,8.814,55.091-18.731,36.36c7.714,14.324-12.27,39.665-36.435,38.563 s-33.442-28.647-35.415-39.666c-12.99,15.427-27.256-6.61-19.572-16.526c-20.964,7.712-34.952-28.648-11.98-40.769 c-36.528,3.307-56-57.295,2.216-68.313c-20.013-18.731-8.217-57.668,30.509-49.218c-8.653-12.484,12.885-17.816,20.835-15.612 c0,0-17.077-23.563,11.688-33.486C612.82,497.5,599.901,472.643,619.5,468.027"></path> <path fill="#747474" d="M582.6,302.547c0,0-12.027,23.414-12.945,24.883c-0.919,1.469,14.322,0,14.322,0s-5.752,23.505-6.467,27.913 c0,0,9.795-6.611,15.535-8.815c0,0,21.967,49.949,27.843,59.499c0,0,24.555-61.294,23.046-65.701c0,0,7.071,2.529,10.01,3.264 c2.938,0.734-9.55-24.24-9.55-24.24s12.487,0.734,16.896,0l-12.304-21.21C648.985,298.14,594.996,300.435,582.6,302.547"></path> <path fill="#16171D" d="M593.462,301.792c0,0-8.052,15.673-8.666,16.656c-0.615,0.983,9.588,0,9.588,0s-3.852,15.734-4.329,18.684 c0,0,6.556-4.425,10.398-5.9c0,0,14.704,33.435,18.638,39.826c0,0,16.436-41.028,15.426-43.978c0,0,4.732,1.693,6.7,2.185 c1.967,0.492-6.393-16.226-6.393-16.226s8.359,0.492,11.31,0l-8.236-14.197C637.897,298.842,601.759,300.378,593.462,301.792"></path> <path fill="#FFFFFF" d="M631.349,174.878c-17.138,8.977-34.026,8.578-45.8,6.365c-14.176,34.408-3.842,106.154-3.842,106.154 c45.451,6.611,65.008-6.611,65.008-6.611C643.68,224.302,640.947,190.948,631.349,174.878"></path> <path fill="#B2DD4C" d="M581.708,282.99l-2.479,3.352c0,0,0.964,14.828,1.103,16.205c0,0,48.479,10.468,71.343-6.611 c0,0-0.908-14.678-3.03-16.251l-2.122-1.574C646.521,278.111,620.547,288.775,581.708,282.99"></path> <path fill="#B2DD4C" d="M578.902,267.869c0,0,28.374,5.564,67.835-4.72l-0.022-11.805c0,0-23.056,7.398-67.813,4.46V267.869z"></path> <path fill="#FFFFFF" d="M612.819,169.033c0,0,14.436-0.635,20.261,19.583c5.809,20.156,8.56,69.32,9.477,86.616l-6.018,1.702 C636.539,276.935,635.525,170.562,612.819,169.033"></path> <path fill="#B2DD4C" d="M631.349,174.878c-5.869-9.826-20.109-13.181-26.948-11.427c-8.612,2.207-14.818,8.003-18.852,17.792 C597.322,183.456,614.211,183.855,631.349,174.878"></path> <path fill="#464B4C" d="M531.988,188.484c5.808-1.35,20.958,10.623,10.764,54.92c-8.294,36.034-61.663,9.049-61.663,9.049 s9.446-10.092,6.294-15.975c0,0,26.258,27.127,43.25,7.252c2.926-3.421,5.774-21.459,2.07-33.581 C528.61,196.75,525.156,190.073,531.988,188.484"></path> <path fill="#9FD323" d="M481.089,251.604c0,0,0.107,0.07,0.304,0.168c1.369,0.688,7.061,2.743,10.548-8.368 C491.94,243.404,478.006,242.707,481.089,251.604"></path> <path fill="#9FD323" d="M495.728,234.432c-2.195-0.738-4.509-0.786-7.265,5.746c-2.754,6.532-0.777,6.985,2.509,5.185 C494.258,243.562,498.633,235.409,495.728,234.432"></path> <path fill="#B2DD4C" d="M484.005,231.249c-6.354-1.906-13.916,1.349-1.867,7.563C494.187,245.027,498.55,235.613,484.005,231.249"></path> <path fill="#B2DD4C" d="M480.845,237.279c-3.736-1.121-7.377-1.709-8.533,1.349c-0.864,2.287,1.072,3.715,6.581,6.557 c5.87,3.027,9.607,3.107,11.187,0.624C491.448,243.657,488.961,239.714,480.845,237.279"></path> <path fill="#B2DD4C" d="M478.552,244.173c-5.193-1.558-11.373,1.104-1.526,6.181c4.854,2.503,8.467,1.778,9.271,0.146 C487.772,247.507,484.581,245.982,478.552,244.173"></path> <path fill="#464B4C" d="M606.254,145.019c0,0,2.135,6.886,0,8.539c-2.135,1.653-7.644-2.951-8.746-4.781c0,0,1.378,5.21-1.102,5.133 c-2.479-0.076-6.61-8.891-6.61-8.891S595.167,135.652,606.254,145.019"></path> <path fill="#FFFFFF" d="M538.01,74.226c0,0-14.324,38.013-18.73,49.031c-4.407,11.018-7.162,31.402,9.365,36.36 c16.527,4.959,46.102,6.611,56.193-4.407c10.091-11.018,12.12-20.384,12.12-20.384s16.526-39.114,5.509-54.54 C591.448,64.861,546.273,57.699,538.01,74.226"></path> <path fill="#464B4C" d="M542.968,94.426c0,0-2.57,5.142-4.407,5.142s-9.182,1.836-3.673,5.876c5.51,4.04,10.651,1.837,10.651,1.837 s-9.68-1.798-9.917-4.408c-0.236-2.61,3.673-0.134,5.51-1.72C542.968,99.568,542.968,94.426,542.968,94.426"></path> <path fill="#464B4C" d="M565.641,95.281c-0.672,2.234-2.215,3.744-3.448,3.374c-1.232-0.371-1.687-2.482-1.014-4.716 c0.672-2.234,2.216-3.744,3.447-3.374C565.858,90.936,566.313,93.047,565.641,95.281"></path> <path fill="#464B4C" d="M540.028,93.444c-0.673,2.234-2.216,3.744-3.448,3.374c-1.232-0.371-1.687-2.482-1.014-4.716 c0.672-2.234,2.216-3.744,3.447-3.374C540.246,89.1,540.7,91.21,540.028,93.444"></path> <path fill="#464B4C" d="M545.539,73.4c0,0,7.07,9.641,10.1,9.366c3.03-0.276,0-5.785,0-5.785s8.539,7.437,14.6,8.539 c6.06,1.102,0-6.06,0-6.06s5.233,2.043,7.438,0.058C579.879,77.532,557.2,67.065,545.539,73.4"></path> <path fill="#464B4C" d="M525.89,118.85c0,0-1.89,28.096,13.222,32.504c0.188,0.054,0.369,0.083,0.556,0.132 c4.439-18.96,26.049-22.505,35.491-23.143c1.627-2.71,2.518-4.535,2.518-4.535C556.189,109.484,525.89,118.85,525.89,118.85"></path> <path fill="#B2DD4C" d="M539.667,151.486c16.7,4.375,30.134-14.223,35.491-23.143C565.716,128.981,544.106,132.527,539.667,151.486"></path> <path fill="#B2DD4C" d="M526.573,104.394c0,0,3.962-9.721,6.574-16.773c-1.17-0.652-2.277-1.294-3.316-1.918 C528.188,91.291,527.062,97.502,526.573,104.394"></path> <path fill="#B2DD4C" d="M633.375,75.75c-1.457-3.584-3.457-7.056-6.117-10.339c-23.343-28.805-82.387-30.845-97.427,20.291 c1.039,0.624,2.146,1.266,3.315,1.918c1-2.701,1.805-5.012,2.109-6.232c0,0,22.587-14.875,56.192,3.856c0,0,3.473,4.218,4.332,13.52 C608.294,95.699,621.156,88.736,633.375,75.75"></path> <path fill="#B2DD4C" d="M595.781,98.764c0.816,8.83-0.72,22.24-9.842,41.021c0,0,19.281,10.467,25.342,8.814 c5.437-1.483,34.814-41.549,22.094-72.849C621.156,88.736,608.294,95.7,595.781,98.764"></path> <path fill="#FFFFFF" d="M615.426,123.536c1.793-6.664,0.57-12.865-2.706-14.429c-4.374-0.495-9.131,4.098-10.924,10.763 c-1.794,6.664,0.018,13.023,4.05,14.79C609.465,134.952,613.633,130.2,615.426,123.536"></path> <path fill="#464B4C" d="M559.282,83.614c0,0,9.028,0.981,14.169,8.57C573.451,92.185,566.782,78.105,559.282,83.614"></path> <path fill="#464B4C" d="M546.215,83.438c0,0-3.494-1.849-10.959,4.924C535.256,88.362,540.676,77.752,546.215,83.438"></path> <path fill="#B2DD4C" d="M546.824,467.577c0,0-5.509,16.527-9.916,23.689c-4.408,7.162-1.652,18.73,4.958,19.282 c6.611,0.551,28.655-31.225,30.852-35.259c2.195-4.034-10.441-11.031-10.441-11.031S550.681,465.373,546.824,467.577"></path> <path fill="#B2DD4C" d="M569.137,464.259c0,0,2.108,12.681,2.66,23.148c0.551,10.468-1.339,25.896,6.649,28.65 c7.988,2.754,11.183-1.652,11.183-1.652s9.861-37.047,8.87-42.213c-0.99-5.166-11.183-12.327-11.183-12.327L569.137,464.259z"></path> <path fill="#464B4C" d="M497.242,298.998c0,0,8.815,110.733,45.727,170.783c0,0,15.976,9.365,26.168-8.814 c0,0-12.212-25.343-23.598-67.763s-16.895-81.535-17.721-88.146L497.242,298.998z"></path> <path fill="#464B4C" d="M501.563,304.478c0,0,11.159,20.414,17.743,30.881c6.584,10.467,33.819,119.548,46.646,134.974 c0,0,14.808,4.959,32.548-7.713c0,0-32.269-70.264-39.217-149.997C559.282,312.623,518.002,296.734,501.563,304.478"></path> <path fill="#232728" d="M506.928,314.148c0,0,9.283,11.572,13.561,23.605c4.276,12.034,29.699,99.363,38.794,118.111 c0,0-20.25-50.25-29.216-79.129C521.099,347.857,521.927,342.428,506.928,314.148"></path> <path fill="#FFFFFF" d="M722.034,546.599c0,0-10.598-8.404,0-13.295c0,0-13.042-14.475,0-20.688s17.933,10.905,17.933,10.905 s3.261-7.336,11.412-2.445c8.152,4.892,4.891,15.841,0,19.333c0,0,9.931,6.22,4.966,14.638c-4.966,8.418-14.747,0-14.747,0 C738.337,565.095,716.328,559.894,722.034,546.599"></path> <path fill="#464B4C" d="M579.589,183.307c0,0,11.033,2.356,15.716,5.31c0,0-26.169,75.858-28.097,125.532 c0,0-24.919-5.414-46.314-8.31c-0.15-1.083-0.391-1.699-1.588-1.847c-9.594-1.185-20.15-0.37-24.82,0.464 c0,0,19.101-91.767,38.39-115.839c0,0,5.135-0.724,10.506-2.329C548.753,184.684,579.589,183.307,579.589,183.307"></path> <path fill="#676B6B" d="M546.611,185.137c0,0-11.783,10.116-20.797,9.652c0,0,3.381,9.728,10.543,15.788 c0,0-15.097,6.886-17.052,8.263v61.922c0,0,9.057-30.151,9.799-36.83C529.845,237.253,544.522,191.854,546.611,185.137"></path> <path fill="#FFFFFF" d="M575.472,158.791c0,0-5.233,26.168-6.06,28.372c-16.358,16.527-18.547,7.727-17.667,0 c-1.34-1.653,4.444-20.659,4.444-26.995C564.729,158.791,575.472,158.791,575.472,158.791"></path> <path fill="#232728" d="M519.287,282.645c0.268-0.471-2.383,12.469-2.588,17.322C516.699,299.967,517.085,286.517,519.287,282.645"></path> <path fill="#232728" d="M516.278,284.321c-0.134,0.824-0.735,1.412-1.348,1.314c-0.61-0.099-0.999-0.846-0.865-1.67 c0.132-0.824,0.734-1.412,1.346-1.314C516.023,282.75,516.411,283.498,516.278,284.321"></path> <path fill="#232728" d="M515.146,293.492c-0.133,0.824-0.735,1.412-1.347,1.314c-0.611-0.099-0.999-0.846-0.866-1.67 c0.132-0.824,0.734-1.412,1.346-1.314C514.891,291.921,515.278,292.668,515.146,293.492"></path> <path fill="#676B6B" d="M582.019,185.137c0,0-1.038,15.799,5.298,23.787c0,0-21.835,7.566-31.085,9.09c0,0,9.875,8.264,19.24,14.048 c0,0-50.657,26.939-56.166,48.7c0,0,5.706-26.719,9.188-35.534C531.977,236.415,575.758,190.171,582.019,185.137"></path> <path fill="#E5E5E5" d="M561.794,187.337c-0.839,0.616-1.911,1.529-3.023,2.539l-0.879-2.713l-2.704,5.602 c-0.597,0.617-0.881,1.531-1.341,2.062l-0.793-6.976l-1.207,1.303c-0.1-0.502-0.201-0.931-0.303-1.232 c-4.188,0.354-6.005,0.694-6.005,0.694c-5.143,11.37-17.045,56.612-17.045,56.612c8.638-16.527,51.095-58.065,51.095-58.065 C572.401,187.083,566.521,187.172,561.794,187.337"></path> <path fill="#676B6B" d="M574.095,177.247c0,0-13.993,8.794-16.203,9.916c0,0,2.146,9.09,2.976,11.294 c0,0,20.39-11.294,22.317-14.324L574.095,177.247z"></path> <path fill="#676B6B" d="M552.49,179.915c0,0-0.746,4.049,0.563,7.937c0,0-3.475,7.851-5.403,9.228c0,0-2.479-8.216-2.756-11.246 L552.49,179.915z"></path> <path fill="#9FD323" d="M559.998,196.541c0,0-10.718-1.456-11.023-0.982c-0.307,0.474,1.482,10.52,1.482,10.52 s3.742,2.394,4.222,1.525C555.158,206.733,559.998,196.541,559.998,196.541"></path> <path fill="#B2DD4C" d="M550.451,205.919c0,0-6.556,16.858-31.084,26.969c-14.198,5.853-38.102,30.576-33.144,52.613 c0,0,11.294,13.221,14.601,13.497c0,0,9.916-10.192,12.119-13.497c0,0-9.796-29.4,13.629-43.798 c27.47-16.883,27.957-33.91,27.957-33.91L550.451,205.919z"></path> <path fill="#A0A3A3" d="M557.892,187.163c0,0-3.453,6.424-4.055,7.576c0,0-0.511-5.489-0.783-6.887c0,0,0.274,6.695,0.587,8.023 C553.641,195.875,555.8,192.123,557.892,187.163"></path> <path fill="#232728" d="M504.064,302.758c-0.516,0.067,11.634-0.562,13.621-0.256l1.032,1.223c0,0,19.833,3.374,28.45,6.306 c0,0-16.399-4.613-28.729-4.967l-1.223-1.577C517.217,303.487,507.317,302.334,504.064,302.758"></path> <path fill="#464B4C" d="M583.16,184.165c0,0,58.311,6.868,61.102,48.25c3.747,55.565-86.37,44.251-86.37,44.251 s9.594-16.81,4.479-22.686c0,0,62.222,18.073,65.805-17.32c2.204-21.768-28.441-31.42-36.748-32.97 C583.12,202.141,581.962,188.497,583.16,184.165"></path> <path fill="#B2DD4C" d="M551.745,284.144c-1.714,7.668,0,10.673,0,10.673c2.328,1.573,37.13-5.352,59.177-13.648 c3.697-1.391,7.958-6.763,10.543-8.183c0,0,5.188,0.698,5.808,4.628c0.221,1.398,0.012,2.861-3.204,5.811 c0,0-55.567,17.143-80.173,19.21c-3.902,0.327-7.465-1.827-9.646-2.667c-1.43-2.65,0.125-18.592,0.125-18.592 S547.279,282.014,551.745,284.144"></path> <path fill="#0C0C0C" d="M546.824,238.187c0,0-6.604,36.665-7.618,39.924c-1.013,3.259,7.971,4.728,10.824,3.81 c2.854-0.919,12.885-36.189,13.379-39.2C563.409,242.72,555.455,237.607,546.824,238.187"></path> <path fill="#2D2D2D" d="M535.652,274.391c0,0,17.232,3.673,19.436,5.876c0,0-1.177,6.944-3.343,8.981 c-2.166,2.038-17.316-4.573-18.556-5.675S533.195,278.134,535.652,274.391"></path> <path fill="#B2DD4C" d="M567.063,255.624c0,0-1.531-4.033-4.431-9.719c-1.489,4.644-2.814,7.191-2.814,7.191 s-15.069-8.116-16.988-5.229c-1.919,2.886-0.752,8.086-0.752,8.086s-4.557,0.417-4.531,4.034c0.026,3.617,0.423,5.393,0.423,5.393 s-3.607,2.834,0.14,5.269c3.746,2.434,16.3,7.505,19.782,6.018S567.471,263.813,567.063,255.624"></path> </svg> 