<?xml version="1.0" encoding="UTF-8"?> <!-- Generator: Adobe Illustrator 16.0.0, SVG Export Plug-In . SVG Version: 6.00 Build 0) --> <svg xmlns="http://www.w3.org/2000/svg" xmlns:xlink="http://www.w3.org/1999/xlink" id="Layer_1" x="0px" y="0px" width="1200px" height="942px" viewBox="0 0 1200 942" xml:space="preserve"> <rect fill="#F6F6F8" width="1200" height="979"></rect> <path fill="#E2E2E2" d="M1200,721.406c-20.467,0.123-39.499,6.263-55.443,16.726c-15.996-10.354-35.049-16.388-55.521-16.388 c-33.094,0-62.501,15.721-81.21,40.085c-11.291-4.288-23.527-6.656-36.322-6.656c-17.262,0-33.515,4.292-47.78,11.838 c-18.382-27.304-49.573-45.267-84.963-45.267c-16.272,0-31.648,3.814-45.31,10.572c-18.709-20.38-45.563-33.163-75.41-33.163 c-13.911,0-27.167,2.787-39.258,7.813c-17.237-32.22-51.202-54.146-90.298-54.146c-32.769,0-61.917,15.417-80.651,39.373 c-17.474-13.895-39.576-22.217-63.635-22.217c-33.714,0-63.614,16.306-82.262,41.455c-16.792-12.058-37.367-19.181-59.618-19.181 c-32.841,0-62.048,15.486-80.777,39.534c-17.402-13.678-39.328-21.858-63.179-21.858c-13.44,0-26.261,2.616-38.019,7.325 c-17.849-29.985-50.57-50.086-87.999-50.086c-11.308,0-22.174,1.861-32.344,5.247v194.212c10.17,3.387,21.036,5.247,32.344,5.247 c13.439,0,26.261-2.616,38.019-7.325c17.849,29.985,50.57,50.086,87.999,50.086c32.842,0,62.048-15.486,80.777-39.534 c17.402,13.678,39.328,21.858,63.179,21.858c33.714,0,63.614-16.306,82.263-41.455c16.792,12.058,37.367,19.181,59.618,19.181 c32.769,0,61.918-15.418,80.651-39.374c17.474,13.895,39.576,22.217,63.635,22.217c13.91,0,27.167-2.787,39.258-7.813 c17.237,32.221,51.202,54.147,90.298,54.147c16.272,0,31.648-3.814,45.31-10.572c18.709,20.381,45.563,33.163,75.41,33.163 c17.262,0,33.516-4.292,47.781-11.838c18.381,27.304,49.572,45.267,84.962,45.267c33.094,0,62.501-15.721,81.211-40.085 c11.29,4.288,23.526,6.656,36.321,6.656c20.705,0,39.96-6.167,56.067-16.737c15.833,10.247,34.662,16.254,54.897,16.376V721.406z"></path> <path fill="#EFEFEF" d="M0.502,979H1200V750.923c-2.25-0.092-4.512-0.156-6.8-0.156c-41.826,0-77.77,15.74-93.648,38.283 c-16.553-7.214-36.648-11.454-58.333-11.454c-33.156,0-62.613,9.894-81.318,25.22c-17.168-8.161-38.563-13.011-61.769-13.011 c-12.776,0-24.996,1.48-36.273,4.162c-18.772-14.313-47.229-23.443-79.091-23.443c-18.994,0-36.768,3.256-52.013,8.909 c-15.747-22.736-51.858-38.644-93.908-38.644c-16.631,0-32.32,2.504-46.204,6.917c-18.481-16.695-49.257-27.636-84.123-27.636 c-34.832,0-65.581,10.919-84.068,27.587c-18.554-11.769-44.305-19.065-72.781-19.065c-42.704,0-79.284,16.405-94.629,39.707 c-18.333-10.86-43.045-17.532-70.257-17.532c-24.239,0-46.494,5.296-64.028,14.125c-17.751-19.05-50.687-31.857-88.413-31.857 c-11.307,0-22.173,1.167-32.343,3.29v121.778c0.168,0.035,0.333,0.075,0.502,0.109v20.906V979z"></path> <path fill="#FFFFFF" d="M1189.553,832.766c-31.171,0-59.067,11.356-77.84,29.246c-18.773-17.89-46.67-29.246-77.841-29.246 c-34.631,0-65.222,14.012-83.742,35.436c-18.128-13.261-42.097-21.338-68.39-21.338c-26.471,0-50.594,8.18-68.765,21.604 c-18.765-17.54-46.379-28.641-77.197-28.641c-13.546,0-26.464,2.161-38.297,6.052c-18.353-14.183-43.14-22.903-70.444-22.903 c-13.588,0-26.545,2.175-38.409,6.089c-18.562-21.153-48.953-34.96-83.326-34.96c-25.351,0-48.53,7.516-66.408,19.941 c-15.917-8.303-34.826-13.136-55.133-13.136c-25.494,0-48.791,7.604-66.708,20.153c-14.517-6.429-31.156-10.083-48.844-10.083 c-13.834,0-27.019,2.248-39.056,6.297c-18.386-14.343-43.314-23.173-70.792-23.173c-20.618,0-39.797,4.979-55.863,13.516 c-18.628-15.807-44.82-25.665-73.856-25.665c-9.946,0-19.549,1.177-28.642,3.329v116.098v43.858V1066h1200v-67.046v-97.573v-68.187 C1196.565,832.911,1193.08,832.766,1189.553,832.766z"></path> <g> <path fill="#FFFFFF" d="M347.068,398.042c-0.051,0-0.101-0.002-0.151-0.005c-0.05,0.003-0.099,0.005-0.149,0.005l-0.553-0.001 c-1.193-0.008-2.154-0.98-2.147-2.172c0.007-1.189,0.972-2.148,2.159-2.148c0.005,0,0.01,0,0.014,0l0.527,0.002 c0.051,0,0.1,0.002,0.149,0.005c0.051-0.003,0.101-0.005,0.151-0.005l0.527-0.002c0.004,0,0.008,0,0.012,0 c1.188,0,2.153,0.958,2.16,2.146c0.008,1.193-0.954,2.166-2.146,2.173L347.068,398.042z M337.598,397.795 c-0.039,0-0.076,0-0.115-0.003l-0.563-0.032c-1.19-0.076-2.094-1.104-2.019-2.293c0.078-1.189,1.121-2.074,2.295-2.018l0.514,0.029 c1.192,0.063,2.107,1.08,2.044,2.271C339.691,396.902,338.738,397.795,337.598,397.795z M356.24,397.778 c-1.141,0-2.094-0.894-2.154-2.046c-0.063-1.191,0.852-2.209,2.043-2.271l0.525-0.029c1.153-0.111,2.213,0.838,2.283,2.029 s-0.839,2.213-2.029,2.283l-0.552,0.031C356.317,397.777,356.278,397.778,356.24,397.778z M328.451,397.051 c-0.075,0-0.151-0.004-0.229-0.012l-0.55-0.061c-1.186-0.133-2.039-1.203-1.905-2.389c0.133-1.187,1.206-2.041,2.388-1.904 l0.523,0.057c1.186,0.125,2.046,1.189,1.92,2.377C330.48,396.227,329.543,397.051,328.451,397.051z M365.383,397.02 c-1.084,0-2.02-0.816-2.144-1.919c-0.134-1.186,0.72-2.255,1.905-2.388l0.539-0.061c1.184-0.135,2.254,0.722,2.385,1.907 c0.133,1.185-0.721,2.254-1.906,2.386l-0.535,0.061C365.545,397.015,365.463,397.02,365.383,397.02z M319.362,395.809 c-0.118,0-0.238-0.009-0.358-0.029l-0.531-0.088c-1.176-0.194-1.972-1.307-1.776-2.484c0.194-1.176,1.302-1.975,2.483-1.777 l0.535,0.09c1.176,0.195,1.971,1.309,1.775,2.485C321.313,395.061,320.399,395.809,319.362,395.809z M374.472,395.76 c-1.038,0-1.953-0.75-2.128-1.807c-0.195-1.178,0.6-2.289,1.776-2.484l0.519-0.087c1.177-0.208,2.293,0.587,2.496,1.761 c0.203,1.176-0.586,2.293-1.762,2.496l-0.546,0.092C374.707,395.75,374.589,395.76,374.472,395.76z M310.352,394.07 c-0.155,0-0.313-0.016-0.47-0.051l-0.542-0.123c-1.163-0.266-1.89-1.424-1.623-2.586c0.267-1.165,1.43-1.895,2.587-1.623 l0.513,0.113c1.165,0.258,1.899,1.412,1.642,2.576C312.235,393.385,311.342,394.07,310.352,394.07z M383.479,394.004 c-0.996,0-1.891-0.691-2.109-1.705c-0.251-1.166,0.49-2.315,1.656-2.566l0.5-0.111c1.168-0.273,2.32,0.461,2.587,1.623 s-0.46,2.32-1.624,2.586l-0.552,0.125C383.782,393.988,383.629,394.004,383.479,394.004z M301.451,391.84 c-0.193,0-0.39-0.025-0.584-0.08l-0.528-0.148c-1.147-0.328-1.812-1.522-1.486-2.67c0.327-1.148,1.518-1.813,2.669-1.486 l0.512,0.145c1.148,0.322,1.818,1.515,1.497,2.663C303.262,391.217,302.395,391.84,301.451,391.84z M392.376,391.758 c-0.944,0-1.812-0.624-2.079-1.577c-0.321-1.149,0.348-2.341,1.496-2.663l0.508-0.145c1.137-0.329,2.343,0.333,2.672,1.482 c0.328,1.146-0.334,2.342-1.482,2.671l-0.529,0.151C392.766,391.732,392.568,391.758,392.376,391.758z M292.686,389.121 c-0.23,0-0.464-0.037-0.694-0.115l-0.39-0.133c-1.128-0.389-1.794-1.641-1.406-2.768s1.553-1.748,2.678-1.363l0.506,0.174 c1.129,0.383,1.735,1.609,1.351,2.738C294.426,388.555,293.585,389.121,292.686,389.121z M401.137,389.022 c-0.906,0-1.748-0.573-2.05-1.478c-0.378-1.132,0.233-2.355,1.366-2.732l0.483-0.166c1.126-0.396,2.358,0.203,2.749,1.33 c0.393,1.127-0.203,2.357-1.329,2.75l-0.537,0.184C401.593,388.986,401.361,389.022,401.137,389.022z M284.063,385.918 c-0.268,0-0.541-0.051-0.806-0.158l-0.513-0.207c-1.104-0.451-1.634-1.713-1.183-2.817c0.454-1.103,1.714-1.63,2.817-1.183 l0.492,0.199c1.106,0.445,1.643,1.703,1.197,2.812C285.729,385.404,284.92,385.918,284.063,385.918z M409.715,385.819 c-0.854,0-1.663-0.511-2.003-1.351c-0.448-1.104,0.085-2.365,1.19-2.813l0.494-0.2c1.104-0.456,2.364,0.079,2.814,1.185 c0.451,1.104-0.08,2.365-1.184,2.814l-0.502,0.205C410.26,385.768,409.984,385.819,409.715,385.819z M275.637,382.244 c-0.309,0-0.623-0.065-0.92-0.206l-0.49-0.231c-1.079-0.508-1.542-1.795-1.034-2.875c0.508-1.08,1.798-1.543,2.875-1.033l0.49,0.23 c1.079,0.509,1.542,1.795,1.034,2.875C277.224,381.787,276.446,382.244,275.637,382.244z M418.104,382.146 c-0.81,0-1.587-0.457-1.955-1.24c-0.508-1.079-0.045-2.365,1.035-2.874l0.48-0.228c1.076-0.508,2.365-0.052,2.877,1.027 c0.511,1.078,0.051,2.365-1.027,2.877l-0.491,0.232C418.725,382.082,418.412,382.146,418.104,382.146z M267.424,378.116 c-0.345,0-0.694-0.083-1.019-0.256l-0.491-0.266c-1.047-0.573-1.433-1.885-0.86-2.931c0.573-1.047,1.886-1.434,2.931-0.86 l0.462,0.249c1.051,0.564,1.446,1.873,0.883,2.925C268.939,377.704,268.194,378.116,267.424,378.116z M426.286,378.023 c-0.767,0-1.509-0.408-1.899-1.128c-0.57-1.048-0.183-2.359,0.865-2.929l0.473-0.256c1.051-0.571,2.361-0.182,2.93,0.866 c0.57,1.048,0.182,2.359-0.866,2.929l-0.473,0.256C426.987,377.939,426.634,378.023,426.286,378.023z M259.453,373.546 c-0.383,0-0.771-0.101-1.123-0.315l-0.471-0.289c-1.016-0.625-1.331-1.957-0.705-2.972c0.627-1.014,1.958-1.331,2.972-0.705 l0.452,0.276c1.019,0.621,1.341,1.95,0.721,2.969C260.892,373.178,260.181,373.546,259.453,373.546z M434.23,373.457 c-0.727,0-1.436-0.366-1.842-1.03c-0.625-1.017-0.307-2.347,0.711-2.97l0.459-0.282c1.016-0.626,2.348-0.306,2.969,0.711 c0.625,1.017,0.307,2.347-0.71,2.97l-0.459,0.282C435.006,373.354,434.615,373.457,434.23,373.457z M251.746,368.551 c-0.422,0-0.848-0.124-1.223-0.381l-0.45-0.311c-0.981-0.679-1.226-2.025-0.545-3.005c0.678-0.981,2.027-1.226,3.005-0.545 l0.44,0.303c0.983,0.676,1.23,2.021,0.555,3.004C253.108,368.224,252.434,368.551,251.746,368.551z M441.918,368.462 c-0.688,0-1.364-0.328-1.783-0.938c-0.675-0.984-0.424-2.328,0.561-3.003l0.434-0.299c0.979-0.681,2.326-0.437,3.006,0.545 c0.68,0.979,0.436,2.325-0.545,3.004l-0.452,0.313C442.764,368.34,442.34,368.462,441.918,368.462z M244.324,363.145 c-0.461,0-0.924-0.146-1.317-0.449l-0.443-0.343c-0.938-0.737-1.101-2.095-0.365-3.034c0.736-0.938,2.096-1.102,3.033-0.365 l0.412,0.32c0.945,0.728,1.121,2.084,0.392,3.029C245.611,362.854,244.971,363.145,244.324,363.145z M449.323,363.057 c-0.646,0-1.286-0.289-1.712-0.841c-0.729-0.945-0.553-2.302,0.393-3.029l0.42-0.325c0.938-0.731,2.296-0.563,3.031,0.38 c0.732,0.94,0.563,2.298-0.38,3.031l-0.435,0.335C450.248,362.911,449.784,363.057,449.323,363.057z M237.207,357.346 c-0.499,0-1-0.172-1.408-0.523l-0.415-0.359c-0.901-0.781-0.997-2.146-0.214-3.047c0.779-0.899,2.145-0.998,3.047-0.214 l0.401,0.347c0.904,0.777,1.006,2.141,0.228,3.046C238.418,357.092,237.814,357.346,237.207,357.346z M456.431,357.258 c-0.61,0-1.217-0.258-1.644-0.759c-0.774-0.908-0.667-2.271,0.241-3.044l0.394-0.34c0.901-0.784,2.264-0.686,3.047,0.214 c0.782,0.9,0.687,2.265-0.215,3.047l-0.422,0.365C457.424,357.088,456.927,357.258,456.431,357.258z M230.417,351.172 c-0.538,0-1.077-0.199-1.496-0.601l-0.401-0.387c-0.854-0.833-0.871-2.2-0.038-3.055c0.834-0.854,2.203-0.871,3.054-0.038 l0.375,0.362c0.861,0.826,0.889,2.194,0.063,3.055C231.552,350.95,230.984,351.172,230.417,351.172z M463.213,351.079 c-0.568,0-1.135-0.222-1.559-0.665c-0.826-0.86-0.798-2.228,0.063-3.054l0.383-0.368c0.857-0.829,2.224-0.806,3.055,0.051 c0.828,0.857,0.807,2.225-0.051,3.054l-0.396,0.381C464.289,350.88,463.75,351.079,463.213,351.079z M223.971,344.641 c-0.579,0-1.158-0.232-1.583-0.691l-0.367-0.396c-0.812-0.875-0.761-2.241,0.114-3.052c0.871-0.813,2.239-0.763,3.052,0.114 l0.367,0.396c0.813,0.875,0.761,2.241-0.114,3.052C225.024,344.45,224.497,344.641,223.971,344.641z M469.654,344.543 c-0.532,0-1.064-0.195-1.482-0.588c-0.867-0.82-0.907-2.187-0.089-3.054l0.356-0.381c0.811-0.876,2.18-0.925,3.053-0.114 c0.874,0.811,0.926,2.178,0.113,3.052l-0.38,0.408C470.801,344.315,470.229,344.543,469.654,344.543z M217.891,337.771 c-0.616,0-1.228-0.263-1.655-0.771l-0.352-0.422c-0.764-0.918-0.638-2.279,0.278-3.042c0.916-0.765,2.277-0.639,3.042,0.278 l0.34,0.407c0.768,0.914,0.648,2.276-0.265,3.043C218.874,337.606,218.381,337.771,217.891,337.771z M475.734,337.666 c-0.491,0-0.984-0.166-1.389-0.506c-0.914-0.767-1.033-2.129-0.265-3.043l0.339-0.407c0.764-0.917,2.125-1.042,3.043-0.278 c0.916,0.763,1.041,2.125,0.277,3.042l-0.352,0.422C476.961,337.403,476.35,337.666,475.734,337.666z M212.191,330.586 c-0.657,0-1.306-0.299-1.73-0.864l-0.332-0.445c-0.709-0.958-0.506-2.312,0.453-3.021c0.96-0.71,2.311-0.507,3.021,0.454 l0.313,0.419c0.716,0.955,0.523,2.309-0.431,3.024C213.096,330.446,212.642,330.586,212.191,330.586z M481.43,330.468 c-0.453,0-0.912-0.143-1.301-0.438c-0.951-0.72-1.14-2.075-0.419-3.026l0.313-0.418c0.711-0.957,2.065-1.155,3.022-0.443 c0.956,0.713,1.155,2.066,0.442,3.022l-0.334,0.446C482.729,330.172,482.084,330.468,481.43,330.468z M206.892,323.103 c-0.697,0-1.381-0.336-1.797-0.959l-0.184-0.275c-0.66-0.992-0.45-2.422,0.542-3.083c0.993-0.664,2.272-0.483,2.935,0.51 c0.001,0.001,0.121,0.18,0.121,0.182l0.176,0.264c0.663,0.991,0.397,2.333-0.594,2.996 C207.722,322.985,207.304,323.103,206.892,323.103z M486.73,322.855c-0.395,0-0.787-0.106-1.131-0.335 c-0.994-0.659-1.324-1.911-0.664-2.905l0.298-0.447c0.657-0.997,1.999-1.269,2.993-0.61c0.995,0.659,1.268,1.999,0.609,2.993 l-0.184,0.275C488.221,322.476,487.473,322.855,486.73,322.855z M202.005,315.346c-0.736,0-1.454-0.376-1.857-1.055l-0.285-0.482 c-0.6-1.031-0.25-2.353,0.781-2.953c1.03-0.6,2.353-0.251,2.953,0.78l0.261,0.444c0.611,1.024,0.275,2.35-0.75,2.96 C202.762,315.248,202.38,315.346,202.005,315.346z M491.619,315.194c-0.372,0-0.749-0.096-1.093-0.297 c-1.028-0.605-1.372-1.929-0.768-2.958l0.279-0.472c0.607-1.027,1.934-1.366,2.958-0.758c1.027,0.607,1.367,1.932,0.759,2.958 l-0.271,0.461C493.081,314.813,492.359,315.194,491.619,315.194z M197.552,307.338c-0.778,0-1.53-0.422-1.917-1.159l-0.167-0.321 c-0.549-1.058-0.178-2.443,0.879-2.992c1.055-0.55,2.319-0.22,2.87,0.838l0.246,0.473c0.553,1.057,0.145,2.361-0.914,2.915 C198.231,307.259,197.89,307.338,197.552,307.338z M496.077,307.158c-0.335,0-0.676-0.078-0.993-0.244 c-1.059-0.55-1.472-1.854-0.921-2.912l0.243-0.472c0.546-1.059,1.848-1.48,2.908-0.935c1.061,0.544,1.48,1.847,0.936,2.908 l-0.254,0.49C497.611,306.734,496.857,307.158,496.077,307.158z M193.541,299.1c-0.822,0-1.608-0.472-1.969-1.271l-0.224-0.496 c-0.487-1.088-0.001-2.367,1.088-2.854c1.088-0.488,2.363-0.002,2.854,1.088l0.217,0.483c0.492,1.087,0.008,2.367-1.079,2.857 C194.14,299.039,193.839,299.1,193.541,299.1z M500.09,298.891c-0.298,0-0.601-0.063-0.89-0.193 c-1.087-0.491-1.569-1.771-1.078-2.858l0.221-0.488c0.488-1.088,1.77-1.576,2.854-1.086c1.089,0.488,1.576,1.767,1.088,2.854 l-0.226,0.501C501.697,298.418,500.912,298.891,500.09,298.891z M189.99,290.663c-0.864,0-1.679-0.523-2.012-1.376l-0.2-0.514 c-0.427-1.114,0.129-2.364,1.243-2.791c1.114-0.429,2.363,0.13,2.791,1.243l0.191,0.493c0.434,1.112-0.116,2.363-1.228,2.797 C190.518,290.614,190.252,290.663,189.99,290.663z M503.642,290.412c-0.26,0-0.523-0.047-0.779-0.147 c-1.113-0.431-1.664-1.682-1.234-2.795l0.191-0.496c0.426-1.114,1.671-1.671,2.788-1.249c1.114,0.425,1.674,1.674,1.249,2.789 l-0.199,0.517C505.325,289.887,504.508,290.412,503.642,290.412z M186.901,282.021c-0.909,0-1.755-0.579-2.052-1.489l-0.172-0.529 c-0.363-1.136,0.265-2.351,1.401-2.714c1.139-0.363,2.351,0.265,2.714,1.402l0.162,0.498c0.371,1.134-0.247,2.354-1.381,2.724 C187.349,281.986,187.124,282.021,186.901,282.021z M506.712,281.677c-0.21,0-0.423-0.032-0.632-0.1 c-1.135-0.367-1.778-1.521-1.411-2.657l0.164-0.508c0.363-1.136,1.573-1.766,2.714-1.401c1.137,0.363,1.765,1.578,1.401,2.714 l-0.128,0.398C508.521,281.049,507.641,281.677,506.712,281.677z M184.292,273.224c-0.956,0-1.829-0.638-2.086-1.604l-0.141-0.535 c-0.301-1.154,0.391-2.334,1.546-2.635c1.153-0.304,2.334,0.392,2.635,1.546l0.135,0.509c0.307,1.153-0.377,2.336-1.53,2.644 C184.663,273.2,184.475,273.224,184.292,273.224z M509.318,272.94c-0.188,0-0.378-0.025-0.569-0.077 c-1.15-0.314-1.828-1.502-1.516-2.653l0.132-0.498c0.3-1.156,1.482-1.847,2.635-1.546c1.155,0.301,1.847,1.481,1.546,2.635 l-0.144,0.546C511.14,272.309,510.27,272.94,509.318,272.94z M182.17,264.295c-1.001,0-1.898-0.698-2.112-1.717l-0.113-0.54 c-0.237-1.17,0.517-2.31,1.686-2.548c1.172-0.242,2.309,0.518,2.548,1.686l0.106,0.517c0.245,1.167-0.503,2.312-1.67,2.557 C182.465,264.28,182.316,264.295,182.17,264.295z M511.425,264.01c-0.146,0-0.294-0.015-0.442-0.045 c-1.168-0.244-1.918-1.387-1.674-2.556l0.106-0.52c0.239-1.167,1.377-1.921,2.548-1.685c1.169,0.238,1.923,1.378,1.686,2.548 l-0.111,0.539C513.326,263.31,512.427,264.01,511.425,264.01z M180.543,255.266c-1.047,0-1.967-0.764-2.131-1.833l-0.072-0.475 c-0.175-1.18,0.634-2.314,1.814-2.489c1.176-0.172,2.272,0.604,2.449,1.785l0.078,0.523c0.181,1.179-0.627,2.281-1.807,2.463 C180.764,255.257,180.653,255.266,180.543,255.266z M513.036,254.976c-0.104,0-0.212-0.007-0.319-0.023 c-1.18-0.175-1.994-1.273-1.82-2.453l0.079-0.535c0.177-1.181,1.272-1.993,2.453-1.821c1.181,0.175,1.995,1.273,1.82,2.454 l-0.079,0.535C515.011,254.205,514.089,254.976,513.036,254.976z M179.415,246.159c-1.103,0-2.043-0.838-2.148-1.958l-0.051-0.536 c-0.112-1.188,0.759-2.241,1.947-2.354c1.207-0.104,2.241,0.76,2.354,1.947l0.051,0.538c0.112,1.188-0.76,2.242-1.948,2.353 C179.551,246.155,179.482,246.159,179.415,246.159z M514.148,245.869c-0.067,0-0.137-0.003-0.205-0.01 c-1.188-0.112-2.06-1.165-1.948-2.353l0.051-0.538c0.112-1.188,1.153-2.068,2.354-1.948c1.188,0.112,2.06,1.166,1.948,2.354 l-0.051,0.538C516.191,245.03,515.25,245.869,514.148,245.869z M178.785,237.006c-1.153,0-2.109-0.909-2.157-2.072l-0.022-0.548 c-0.042-1.193,0.89-2.194,2.082-2.236c1.224-0.065,2.193,0.89,2.236,2.082l0.02,0.525c0.049,1.192-0.877,2.198-2.069,2.247 C178.845,237.005,178.815,237.006,178.785,237.006z M514.762,236.713c-0.029,0-0.06-0.001-0.089-0.002 c-1.192-0.049-2.119-1.055-2.069-2.247l0.02-0.527c0.042-1.192,1.008-2.136,2.235-2.083c1.191,0.042,2.124,1.042,2.083,2.235 l-0.022,0.553C516.871,235.804,515.915,236.713,514.762,236.713z M178.651,227.832c-0.009,0-0.017,0-0.025,0 c-1.193-0.014-2.148-0.993-2.135-2.186l0.007-0.553c0.021-1.195,1.08-2.15,2.198-2.122c1.193,0.021,2.143,1.005,2.122,2.198 l-0.007,0.527C180.797,226.881,179.833,227.832,178.651,227.832z M514.879,227.538c-1.18,0-2.146-0.95-2.158-2.135l-0.009-0.526 c-0.021-1.193,0.929-2.177,2.122-2.198c1.174-0.012,2.177,0.928,2.197,2.122l0.009,0.552c0.014,1.193-0.941,2.171-2.135,2.185 C514.897,227.538,514.889,227.538,514.879,227.538z M179.013,218.663c-0.046,0-0.093-0.001-0.141-0.004 c-1.19-0.077-2.093-1.105-2.016-2.295l0.036-0.516c0.083-1.191,1.146-2.119,2.307-2.021c1.19,0.083,2.088,1.098,2.005,2.287 l-0.036,0.528C181.093,217.786,180.143,218.663,179.013,218.663z M514.503,218.37c-1.13,0-2.08-0.878-2.154-2.022l-0.035-0.525 c-0.085-1.189,0.813-2.222,2.003-2.307c1.191-0.07,2.222,0.813,2.306,2.003l0.038,0.553c0.076,1.189-0.826,2.217-2.018,2.294 C514.597,218.369,514.549,218.37,514.503,218.37z M179.871,209.527c-0.09,0-0.179-0.005-0.27-0.017 c-1.184-0.146-2.024-1.226-1.876-2.41l0.065-0.534c0.148-1.183,1.236-2.01,2.409-1.879c1.185,0.146,2.025,1.226,1.88,2.409 l-0.068,0.538C181.875,208.727,180.944,209.527,179.871,209.527z M513.628,209.235c-1.074,0-2.005-0.802-2.141-1.895l-0.065-0.534 c-0.147-1.184,0.693-2.263,1.876-2.41c1.177-0.149,2.264,0.692,2.41,1.876l0.067,0.538c0.146,1.184-0.694,2.262-1.879,2.409 C513.807,209.23,513.717,209.235,513.628,209.235z M181.225,200.453c-0.125,0-0.253-0.011-0.382-0.034 c-1.174-0.21-1.956-1.332-1.747-2.506l0.095-0.531c0.209-1.174,1.316-1.969,2.506-1.747c1.174,0.21,1.957,1.332,1.747,2.506 l-0.095,0.532C183.162,199.719,182.252,200.453,181.225,200.453z M512.259,200.163c-1.026,0-1.937-0.734-2.124-1.78l-0.094-0.519 c-0.216-1.174,0.56-2.3,1.732-2.517c1.177-0.218,2.3,0.56,2.516,1.732l0.099,0.544c0.21,1.174-0.573,2.296-1.747,2.506 C512.513,200.152,512.385,200.163,512.259,200.163z M183.076,191.465c-0.164,0-0.33-0.018-0.496-0.057 c-1.162-0.273-1.882-1.436-1.609-2.597l0.126-0.536c0.278-1.16,1.447-1.873,2.604-1.598c1.16,0.279,1.875,1.444,1.598,2.604 l-0.122,0.517C184.942,190.794,184.056,191.465,183.076,191.465z M510.393,191.179c-0.979,0-1.867-0.671-2.101-1.667L508.169,189 c-0.279-1.16,0.435-2.327,1.594-2.606c1.16-0.28,2.327,0.434,2.606,1.594l0.129,0.538c0.271,1.162-0.447,2.324-1.609,2.597 C510.723,191.161,510.556,191.179,510.393,191.179z M185.418,182.594c-0.199,0-0.403-0.029-0.604-0.087 c-1.146-0.333-1.804-1.532-1.47-2.677l0.128-0.436c0.338-1.143,1.554-1.841,2.7-1.504c1.143,0.34,1.809,1.494,1.469,2.637 l-0.151,0.51C187.216,181.98,186.354,182.594,185.418,182.594z M508.035,182.313c-0.934,0-1.794-0.61-2.071-1.55l-0.149-0.505 c-0.344-1.143,0.304-2.348,1.445-2.69c1.146-0.345,2.348,0.305,2.691,1.446l0.157,0.528c0.337,1.144-0.317,2.345-1.462,2.683 C508.442,182.283,508.237,182.313,508.035,182.313z M188.252,173.842c-0.238,0-0.479-0.04-0.717-0.124 c-1.125-0.396-1.716-1.629-1.321-2.754l0.149-0.417c0.403-1.122,1.66-1.757,2.781-1.357c1.123,0.402,1.726,1.585,1.324,2.708 l-0.178,0.501C189.978,173.287,189.143,173.842,188.252,173.842z M505.194,173.588c-0.889,0-1.721-0.551-2.035-1.436l-0.18-0.501 c-0.404-1.122,0.178-2.359,1.3-2.765c1.125-0.404,2.359,0.178,2.765,1.301l0.185,0.516c0.4,1.123-0.186,2.359-1.31,2.759 C505.679,173.547,505.435,173.588,505.194,173.588z M191.564,165.265c-0.277,0-0.559-0.054-0.832-0.168 c-1.101-0.459-1.621-1.725-1.161-2.825l0.215-0.512c0.465-1.099,1.735-1.611,2.832-1.144c1.098,0.465,1.61,1.733,1.144,2.832 l-0.205,0.489C193.212,164.765,192.41,165.265,191.564,165.265z M501.884,165.051c-0.842,0-1.643-0.496-1.99-1.32l-0.209-0.495 c-0.466-1.099,0.048-2.366,1.147-2.831c1.095-0.463,2.365,0.048,2.831,1.147l0.208,0.495c0.466,1.099-0.048,2.366-1.147,2.831 C502.448,164.995,502.164,165.051,501.884,165.051z M195.339,156.883c-0.316,0-0.639-0.07-0.944-0.218 c-1.073-0.522-1.518-1.815-0.996-2.888l0.237-0.487c0.521-1.073,1.815-1.518,2.888-0.996c1.073,0.522,1.518,1.815,0.996,2.888 l-0.237,0.487C196.91,156.437,196.14,156.883,195.339,156.883z M498.108,156.705c-0.804,0-1.577-0.452-1.948-1.225l-0.228-0.468 c-0.524-1.071-0.082-2.365,0.989-2.89c1.075-0.525,2.365-0.081,2.891,0.989l0.242,0.498c0.517,1.076,0.063,2.366-1.012,2.882 C498.741,156.636,498.423,156.705,498.108,156.705z M199.57,148.726c-0.354,0-0.712-0.086-1.044-0.27 c-1.043-0.578-1.422-1.892-0.844-2.936l0.269-0.483c0.582-1.04,1.9-1.41,2.94-0.829c1.041,0.583,1.412,1.899,0.829,2.94 l-0.258,0.464C201.067,148.324,200.33,148.726,199.57,148.726z M493.883,148.574c-0.761,0-1.497-0.402-1.891-1.113l-0.257-0.459 c-0.585-1.041-0.213-2.357,0.827-2.94c1.043-0.582,2.359-0.212,2.939,0.827l0.268,0.479c0.578,1.044,0.201,2.358-0.842,2.936 C494.596,148.488,494.236,148.574,493.883,148.574z M204.238,140.812c-0.392,0-0.789-0.107-1.146-0.33 c-1.01-0.635-1.315-1.968-0.681-2.979l0.298-0.473c0.642-1.002,1.979-1.297,2.984-0.657c1.005,0.642,1.299,1.977,0.657,2.983 l-0.279,0.443C205.66,140.453,204.956,140.812,204.238,140.812z M489.219,140.686c-0.719,0-1.42-0.358-1.83-1.01l-0.285-0.451 c-0.638-1.008-0.336-2.342,0.672-2.979c1.005-0.64,2.343-0.338,2.98,0.672l0.289,0.458c0.635,1.01,0.332,2.344-0.678,2.979 C490.01,140.579,489.612,140.686,489.219,140.686z M209.329,133.168c-0.431,0-0.866-0.128-1.245-0.396 c-0.974-0.688-1.205-2.037-0.517-3.01l0.313-0.442c0.688-0.975,2.037-1.206,3.01-0.517c0.975,0.689,1.206,2.037,0.517,3.01 l-0.313,0.442C210.673,132.851,210.007,133.168,209.329,133.168z M484.13,133.06c-0.681,0-1.349-0.319-1.77-0.917l-0.303-0.428 c-0.692-0.972-0.466-2.32,0.506-3.012c0.972-0.694,2.323-0.465,3.013,0.506l0.319,0.449c0.686,0.977,0.45,2.323-0.525,3.009 C484.992,132.933,484.559,133.06,484.13,133.06z M214.828,125.813c-0.469,0-0.941-0.152-1.339-0.466 c-0.936-0.739-1.094-2.099-0.353-3.035l0.347-0.437c0.75-0.928,2.107-1.073,3.038-0.329c0.929,0.748,1.077,2.107,0.329,3.037 l-0.326,0.409C216.097,125.533,215.465,125.813,214.828,125.813z M478.633,125.719c-0.641,0-1.273-0.283-1.7-0.826l-0.325-0.411 c-0.744-0.933-0.59-2.292,0.344-3.036c0.931-0.74,2.29-0.59,3.035,0.344l0.345,0.434c0.735,0.939,0.572,2.296-0.365,3.033 C479.57,125.569,479.1,125.719,478.633,125.719z M220.714,118.77c-0.507,0-1.018-0.178-1.428-0.541 c-0.895-0.789-0.98-2.153-0.19-3.048l0.37-0.418c0.794-0.889,2.16-0.962,3.05-0.164c0.888,0.796,0.962,2.162,0.165,3.05 l-0.347,0.39C221.908,118.523,221.312,118.77,220.714,118.77z M472.746,118.686c-0.598,0-1.193-0.247-1.619-0.731l-0.353-0.397 c-0.793-0.891-0.713-2.256,0.179-3.049c0.893-0.792,2.254-0.712,3.049,0.178l0.363,0.41c0.789,0.895,0.704,2.259-0.19,3.048 C473.765,118.507,473.254,118.686,472.746,118.686z M226.974,112.055c-0.547,0-1.094-0.207-1.515-0.62 c-0.851-0.836-0.862-2.205-0.025-3.055l0.386-0.39c0.838-0.848,2.208-0.854,3.054-0.013c0.847,0.839,0.854,2.208,0.013,3.055 l-0.373,0.377C228.09,111.84,227.533,112.055,226.974,112.055z M466.484,111.977c-0.563,0-1.123-0.218-1.547-0.652l-0.365-0.371 c-0.841-0.847-0.834-2.215,0.012-3.055c0.849-0.838,2.217-0.834,3.055,0.013l0.392,0.396c0.833,0.854,0.816,2.221-0.038,3.055 C467.572,111.772,467.028,111.977,466.484,111.977z M233.584,105.692c-0.586,0-1.171-0.237-1.597-0.703 c-0.804-0.882-0.741-2.248,0.14-3.052l0.413-0.375c0.886-0.799,2.253-0.724,3.05,0.165s0.724,2.254-0.165,3.05l-0.386,0.351 C234.625,105.505,234.103,105.692,233.584,105.692z M459.868,105.617c-0.521,0-1.041-0.187-1.456-0.564l-0.393-0.359 c-0.885-0.8-0.951-2.167-0.151-3.051c0.8-0.881,2.165-0.951,3.052-0.151l0.406,0.369c0.88,0.805,0.942,2.171,0.139,3.052 C461.039,105.38,460.455,105.617,459.868,105.617z M240.527,99.696c-0.625,0-1.246-0.27-1.673-0.792 c-0.755-0.924-0.619-2.285,0.304-3.04l0.433-0.353c0.931-0.746,2.29-0.599,3.037,0.329c0.748,0.93,0.6,2.29-0.329,3.038 l-0.405,0.329C241.492,99.536,241.008,99.696,240.527,99.696z M452.916,99.623c-0.481,0-0.965-0.161-1.367-0.488l-0.412-0.336 c-0.926-0.752-1.068-2.113-0.315-3.039c0.755-0.926,2.113-1.064,3.038-0.315l0.426,0.347c0.922,0.755,1.059,2.115,0.303,3.04 C454.161,99.353,453.541,99.623,452.916,99.623z M247.783,94.086c-0.665,0-1.321-0.306-1.745-0.884 c-0.705-0.963-0.495-2.315,0.467-3.02l0.438-0.319c0.964-0.704,2.315-0.491,3.018,0.472c0.704,0.963,0.493,2.314-0.472,3.018 l-0.432,0.316C248.672,93.951,248.226,94.086,247.783,94.086z M445.648,94.012c-0.442,0-0.891-0.136-1.275-0.419l-0.428-0.311 c-0.966-0.699-1.182-2.05-0.48-3.017c0.697-0.964,2.048-1.183,3.016-0.481l0.449,0.326c0.961,0.706,1.168,2.058,0.463,3.02 C446.969,93.706,446.313,94.012,445.648,94.012z M255.331,88.879c-0.707,0-1.398-0.346-1.813-0.982 c-0.651-1.001-0.367-2.338,0.632-2.989l0.455-0.295c1.001-0.651,2.34-0.362,2.988,0.638c0.648,1.002,0.363,2.339-0.638,2.988 l-0.448,0.291C256.143,88.767,255.735,88.879,255.331,88.879z M438.086,88.801c-0.402,0-0.809-0.111-1.17-0.346l-0.455-0.294 c-1.002-0.646-1.289-1.984-0.642-2.986c0.646-1.002,1.988-1.289,2.985-0.642l0.455,0.294c1.002,0.647,1.29,1.984,0.643,2.986 C439.489,88.454,438.795,88.801,438.086,88.801z M263.147,84.091c-0.746,0-1.471-0.386-1.872-1.079 c-0.597-1.033-0.244-2.354,0.789-2.951l0.476-0.273c1.038-0.591,2.355-0.231,2.947,0.804c0.592,1.036,0.232,2.355-0.804,2.947 l-0.457,0.263C263.885,83.999,263.514,84.091,263.147,84.091z M430.247,84.01c-0.362,0-0.73-0.09-1.068-0.284l-0.47-0.269 c-1.036-0.592-1.396-1.91-0.807-2.947c0.592-1.037,1.91-1.401,2.947-0.806l0.471,0.269c1.035,0.592,1.396,1.91,0.805,2.947 C431.727,83.619,430.998,84.01,430.247,84.01z M271.21,79.739c-0.789,0-1.548-0.433-1.929-1.185 c-0.539-1.064-0.114-2.364,0.95-2.902l0.327-0.165c1.067-0.535,2.444-0.145,2.979,0.919c0.536,1.065,0.187,2.324-0.878,2.859 l-0.476,0.239C271.871,79.664,271.538,79.739,271.21,79.739z M422.158,79.653c-0.326,0-0.657-0.074-0.97-0.231l-0.474-0.237 c-1.068-0.53-1.504-1.827-0.973-2.895c0.53-1.067,1.826-1.508,2.895-0.973l0.494,0.248c1.066,0.536,1.495,1.834,0.959,2.9 C423.711,79.218,422.949,79.653,422.158,79.653z M279.495,75.834c-0.833,0-1.627-0.485-1.981-1.298 c-0.477-1.092,0.023-2.365,1.117-2.842l0.487-0.213c1.092-0.481,2.367,0.018,2.845,1.109c0.48,1.093-0.017,2.367-1.109,2.846 l-0.498,0.217C280.076,75.776,279.783,75.834,279.495,75.834z M413.84,75.746c-0.29,0-0.586-0.059-0.868-0.184l-0.486-0.212 c-1.095-0.474-1.598-1.746-1.123-2.84c0.473-1.097,1.745-1.598,2.841-1.123l0.507,0.22c1.091,0.48,1.589,1.755,1.108,2.847 C415.463,75.262,414.671,75.746,413.84,75.746z M287.976,72.391c-0.874,0-1.697-0.536-2.023-1.403 c-0.418-1.117,0.148-2.361,1.265-2.781l0.523-0.194c1.123-0.407,2.361,0.167,2.77,1.289c0.409,1.121-0.169,2.36-1.289,2.77 l-0.487,0.182C288.485,72.345,288.228,72.391,287.976,72.391z M405.318,72.3c-0.252,0-0.509-0.045-0.759-0.138l-0.493-0.184 c-1.121-0.41-1.695-1.651-1.285-2.771c0.41-1.119,1.647-1.693,2.771-1.285l0.523,0.194c1.117,0.42,1.684,1.665,1.265,2.781 C407.016,71.764,406.192,72.3,405.318,72.3z M296.655,69.41c-0.918,0-1.771-0.593-2.061-1.516 c-0.355-1.139,0.279-2.351,1.417-2.708l0.527-0.163c1.141-0.348,2.351,0.291,2.699,1.431c0.35,1.141-0.292,2.349-1.431,2.699 l-0.504,0.157C297.086,69.377,296.869,69.41,296.655,69.41z M396.615,69.327c-0.213,0-0.43-0.032-0.643-0.098l-0.508-0.157 c-1.141-0.348-1.784-1.554-1.437-2.695c0.347-1.143,1.555-1.79,2.696-1.437l0.53,0.164c1.14,0.354,1.774,1.565,1.422,2.704 C398.389,68.733,397.535,69.327,396.615,69.327z M305.484,66.912c-0.965,0-1.844-0.651-2.092-1.628 c-0.294-1.156,0.405-2.332,1.561-2.626l0.535-0.135c1.155-0.286,2.33,0.417,2.617,1.576c0.287,1.158-0.417,2.33-1.575,2.618 l-0.512,0.128C305.839,66.889,305.66,66.912,305.484,66.912z M387.777,66.841c-0.176,0-0.355-0.021-0.533-0.066l-0.51-0.127 c-1.158-0.286-1.865-1.457-1.578-2.615c0.284-1.159,1.458-1.867,2.613-1.579l0.539,0.134c1.156,0.294,1.855,1.47,1.562,2.626 C389.621,66.191,388.742,66.841,387.777,66.841z M314.436,64.902c-1.01,0-1.913-0.712-2.117-1.741 c-0.231-1.171,0.529-2.307,1.7-2.538l0.468-0.091c1.163-0.226,2.34,0.535,2.565,1.708c0.225,1.172-0.508,2.297-1.68,2.521 l-0.516,0.1C314.715,64.89,314.574,64.902,314.436,64.902z M378.822,64.85c-0.139,0-0.279-0.013-0.421-0.041l-0.516-0.099 c-1.172-0.224-1.94-1.354-1.718-2.526c0.223-1.171,1.357-1.938,2.525-1.718l0.545,0.105c1.172,0.231,1.932,1.367,1.701,2.538 C380.735,64.138,379.832,64.85,378.822,64.85z M323.485,63.389c-1.058,0-1.981-0.778-2.136-1.856 c-0.168-1.182,0.654-2.275,1.835-2.443l0.548-0.075c1.164-0.165,2.268,0.666,2.431,1.849c0.161,1.183-0.667,2.271-1.849,2.431 l-0.522,0.073C323.689,63.382,323.586,63.389,323.485,63.389z M369.77,63.351c-0.097,0-0.193-0.006-0.293-0.02l-0.537-0.073 c-1.182-0.161-2.01-1.249-1.849-2.431c0.159-1.183,1.238-2.011,2.431-1.849l0.535,0.072c1.182,0.16,2.01,1.248,1.852,2.43 C371.76,62.564,370.834,63.351,369.77,63.351z M332.605,62.374c-1.113,0-2.059-0.854-2.15-1.982 c-0.099-1.189,0.786-2.232,1.975-2.33l0.538-0.044c1.188-0.103,2.231,0.787,2.33,1.975c0.098,1.189-0.787,2.232-1.976,2.33 l-0.537,0.044C332.725,62.372,332.664,62.374,332.605,62.374z M360.648,62.351c-0.059,0-0.117-0.002-0.178-0.007l-0.527-0.042 c-1.189-0.09-2.08-1.128-1.989-2.318c0.091-1.188,1.126-2.085,2.318-1.989l0.509,0.041c1.19,0.097,2.096,1.142,1.998,2.331 C362.687,61.495,361.761,62.351,360.648,62.351z M341.768,61.857c-1.162,0-2.123-0.926-2.157-2.097 c-0.035-1.192,0.903-2.188,2.096-2.222l0.55-0.015c1.199-0.062,2.182,0.916,2.21,2.108c0.028,1.192-0.915,2.182-2.108,2.209 l-0.525,0.015C341.812,61.857,341.789,61.857,341.768,61.857z M351.486,61.85c-0.025,0-0.053,0-0.077-0.001l-0.515-0.015 c-1.193-0.028-2.137-1.017-2.108-2.21c0.027-1.191,0.974-2.234,2.21-2.108l0.564,0.015c1.193,0.042,2.125,1.043,2.084,2.235 C353.603,60.933,352.645,61.85,351.486,61.85z"></path> <path fill="#FFFFFF" d="M346.768,370.425l-0.531-0.001c-1.145-0.007-2.066-0.94-2.06-2.084c0.007-1.141,0.933-2.061,2.072-2.061 c0.005,0,0.009,0,0.013,0l0.506,0.001c0.396,0,0.766,0.111,1.08,0.304c0.311-0.196,0.678-0.314,1.072-0.321l0.518-0.009 c1.079-0.01,2.088,0.891,2.108,2.036c0.021,1.145-0.892,2.089-2.036,2.109l-0.518,0.009c-0.406-0.011-0.793-0.105-1.117-0.303 C347.555,370.307,347.176,370.425,346.768,370.425z M337.971,370.152c-0.047,0-0.091-0.001-0.137-0.004l-0.516-0.034 c-1.143-0.074-2.009-1.06-1.936-2.201c0.073-1.142,1.073-1.998,2.201-1.936l0.518,0.033c1.143,0.074,2.009,1.061,1.936,2.202 C339.966,369.311,339.054,370.152,337.971,370.152z M357.748,370c-1.078,0-1.988-0.835-2.065-1.927 c-0.081-1.142,0.78-2.132,1.922-2.213l0.492-0.038c1.144-0.114,2.142,0.755,2.235,1.895c0.094,1.141-0.755,2.142-1.896,2.235 l-0.54,0.043C357.847,369.998,357.797,370,357.748,370z M329.206,369.333c-0.086,0-0.172-0.005-0.259-0.016l-0.466-0.059 c-1.134-0.148-1.965-1.19-1.818-2.326c0.146-1.135,1.148-1.952,2.292-1.793l0.504,0.064c1.136,0.141,1.942,1.176,1.801,2.313 C331.13,368.565,330.236,369.333,329.206,369.333z M366.498,369.043c-1.016,0-1.901-0.747-2.049-1.781 c-0.161-1.133,0.627-2.183,1.76-2.344l0.514-0.073c1.137-0.161,2.183,0.627,2.344,1.761s-0.627,2.183-1.761,2.344l-0.513,0.073 C366.693,369.037,366.596,369.043,366.498,369.043z M320.508,367.965c-0.129,0-0.259-0.012-0.389-0.036l-0.512-0.099 c-1.124-0.214-1.861-1.301-1.646-2.424c0.216-1.125,1.309-1.854,2.425-1.646l0.507,0.096c1.124,0.214,1.862,1.299,1.648,2.423 C322.354,367.274,321.484,367.965,320.508,367.965z M375.174,367.541c-0.965,0-1.828-0.677-2.029-1.659 c-0.228-1.122,0.496-2.216,1.617-2.445l0.496-0.103c1.124-0.237,2.219,0.484,2.453,1.603c0.234,1.12-0.482,2.218-1.604,2.453 l-0.518,0.108C375.45,367.527,375.311,367.541,375.174,367.541z M311.913,366.053c-0.169,0-0.341-0.021-0.512-0.064l-0.408-0.105 c-1.107-0.288-1.824-1.432-1.537-2.54c0.287-1.107,1.36-1.792,2.475-1.5l0.493,0.128c1.109,0.282,1.78,1.411,1.498,2.52 C313.682,365.428,312.839,366.053,311.913,366.053z M383.816,365.47c-0.918,0-1.78-0.595-2.031-1.513 c-0.304-1.104,0.302-2.232,1.406-2.535l0.487-0.134c1.101-0.311,2.245,0.333,2.556,1.436c0.309,1.102-0.334,2.246-1.437,2.556 l-0.422,0.116C384.189,365.446,384.002,365.47,383.816,365.47z M303.456,363.601c-0.211,0-0.428-0.033-0.641-0.102l-0.506-0.166 c-1.087-0.36-1.676-1.532-1.316-2.619c0.358-1.087,1.526-1.68,2.62-1.315l0.483,0.158c1.089,0.354,1.684,1.524,1.331,2.612 C305.142,363.043,304.331,363.601,303.456,363.601z M392.156,362.91c-0.869,0-1.678-0.55-1.967-1.418 c-0.361-1.086,0.225-2.26,1.311-2.622l0.465-0.159c1.085-0.381,2.262,0.195,2.639,1.276c0.376,1.082-0.195,2.263-1.277,2.638 l-0.515,0.177C392.594,362.875,392.373,362.91,392.156,362.91z M295.155,360.614c-0.254,0-0.512-0.047-0.762-0.146l-0.491-0.194 c-1.063-0.426-1.58-1.631-1.155-2.695c0.426-1.062,1.626-1.579,2.695-1.155l0.477,0.19c1.064,0.422,1.585,1.626,1.164,2.69 C296.76,360.118,295.98,360.614,295.155,360.614z M400.486,359.752c-0.824,0-1.624-0.462-1.953-1.252 c-0.439-1.057-0.01-2.241,1.047-2.68l0.469-0.197c1.064-0.442,2.271,0.054,2.715,1.107c0.443,1.055-0.053,2.271-1.107,2.714 l-0.344,0.144C401.045,359.699,400.764,359.752,400.486,359.752z M287.062,357.11c-0.297,0-0.597-0.063-0.882-0.197l-0.48-0.228 c-1.033-0.493-1.47-1.73-0.978-2.763c0.493-1.033,1.733-1.471,2.763-0.978l0.461,0.218c1.035,0.488,1.479,1.722,0.992,2.759 C288.585,356.671,287.839,357.11,287.062,357.11z M408.392,356.189c-0.765,0-1.5-0.424-1.861-1.156 c-0.506-1.026-0.085-2.269,0.942-2.776l0.463-0.228c1.026-0.504,2.268-0.084,2.775,0.942c0.506,1.026,0.085,2.269-0.942,2.776 l-0.462,0.228C409.012,356.12,408.699,356.189,408.392,356.189z M279.208,353.104c-0.335,0-0.677-0.082-0.992-0.254l-0.469-0.259 c-1-0.557-1.359-1.819-0.802-2.819c0.557-0.998,1.818-1.358,2.819-0.802l0.439,0.243c1.005,0.549,1.374,1.808,0.825,2.813 C280.652,352.715,279.941,353.104,279.208,353.104z M416.162,352.076c-0.725,0-1.43-0.381-1.809-1.059 c-0.561-0.999-0.205-2.262,0.793-2.821l0.432-0.246c0.991-0.571,2.258-0.226,2.828,0.765c0.57,0.993,0.229,2.26-0.764,2.83 l-0.469,0.266C416.854,351.991,416.506,352.076,416.162,352.076z M271.624,348.616c-0.382,0-0.768-0.105-1.114-0.326l-0.437-0.279 c-0.965-0.616-1.247-1.898-0.63-2.863c0.618-0.963,1.897-1.245,2.863-0.63l0.437,0.279c0.964,0.616,1.247,1.897,0.63,2.863 C272.977,348.278,272.308,348.616,271.624,348.616z M423.666,347.485c-0.679,0-1.343-0.332-1.74-0.942 c-0.625-0.96-0.352-2.243,0.607-2.868l0.418-0.275c0.952-0.631,2.24-0.373,2.873,0.585c0.631,0.954,0.37,2.24-0.585,2.872 l-0.445,0.293C424.445,347.376,424.053,347.485,423.666,347.485z M264.336,343.665c-0.421,0-0.847-0.127-1.214-0.395l-0.427-0.311 c-0.923-0.676-1.125-1.973-0.449-2.897c0.674-0.923,1.973-1.126,2.897-0.448l0.411,0.3c0.927,0.671,1.133,1.967,0.461,2.895 C265.612,343.367,264.978,343.665,264.336,343.665z M430.869,342.433c-0.633,0-1.258-0.289-1.664-0.835 c-0.684-0.918-0.493-2.216,0.425-2.9l0.401-0.301c0.91-0.694,2.212-0.512,2.902,0.402c0.691,0.912,0.512,2.212-0.401,2.903 l-0.427,0.321C431.734,342.299,431.3,342.433,430.869,342.433z M257.373,338.269c-0.464,0-0.932-0.156-1.318-0.475l-0.405-0.336 c-0.879-0.732-1-2.038-0.267-2.918c0.733-0.88,2.038-1,2.919-0.268l0.393,0.326c0.882,0.729,1.007,2.035,0.278,2.917 C258.562,338.011,257.97,338.269,257.373,338.269z M437.747,336.941c-0.589,0-1.173-0.249-1.583-0.734 c-0.739-0.874-0.63-2.182,0.243-2.92l0.381-0.325c0.869-0.747,2.178-0.649,2.923,0.218c0.746,0.868,0.648,2.177-0.219,2.923 l-0.407,0.347C438.695,336.78,438.22,336.941,437.747,336.941z M250.761,332.453c-0.508,0-1.016-0.185-1.417-0.56l-0.383-0.36 c-0.832-0.786-0.871-2.098-0.085-2.931c0.786-0.831,2.098-0.868,2.93-0.085l0.372,0.35c0.836,0.782,0.879,2.094,0.097,2.93 C251.866,332.232,251.313,332.453,250.761,332.453z M444.271,331.031c-0.548,0-1.095-0.215-1.502-0.644 c-0.788-0.83-0.756-2.142,0.074-2.931l0.353-0.341c0.818-0.797,2.132-0.781,2.932,0.037c0.799,0.82,0.783,2.131-0.037,2.931 l-0.391,0.377C445.298,330.842,444.783,331.031,444.271,331.031z M244.522,326.239c-0.551,0-1.1-0.219-1.508-0.651l-0.366-0.39 c-0.779-0.839-0.729-2.15,0.109-2.929c0.836-0.779,2.15-0.731,2.929,0.109l0.343,0.364c0.785,0.833,0.747,2.145-0.085,2.931 C245.544,326.052,245.033,326.239,244.522,326.239z M450.417,324.727c-0.501,0-1.005-0.181-1.402-0.547 c-0.842-0.775-0.896-2.087-0.122-2.929l0.345-0.376c0.772-0.842,2.081-0.906,2.929-0.133c0.846,0.772,0.904,2.083,0.134,2.928 l-0.356,0.389C451.534,324.502,450.977,324.727,450.417,324.727z M238.684,319.652c-0.594,0-1.184-0.254-1.594-0.747l-0.341-0.412 c-0.724-0.886-0.594-2.192,0.292-2.917c0.887-0.726,2.191-0.593,2.917,0.292l0.319,0.386c0.733,0.88,0.612,2.187-0.267,2.918 C239.621,319.495,239.151,319.652,238.684,319.652z M456.162,318.053c-0.459,0-0.921-0.152-1.305-0.463 c-0.889-0.722-1.024-2.027-0.303-2.916l0.319-0.397c0.72-0.892,2.022-1.032,2.915-0.316c0.891,0.718,1.033,2.022,0.315,2.915 l-0.332,0.411C457.362,317.791,456.765,318.053,456.162,318.053z M233.268,312.716c-0.637,0-1.264-0.292-1.67-0.843l-0.314-0.431 c-0.672-0.927-0.466-2.224,0.461-2.895c0.929-0.672,2.224-0.463,2.894,0.461l0.294,0.405c0.68,0.921,0.484,2.218-0.438,2.897 C234.125,312.584,233.694,312.716,233.268,312.716z M461.482,311.032c-0.416,0-0.836-0.125-1.2-0.384 c-0.933-0.664-1.149-1.958-0.485-2.89l0.289-0.409c0.656-0.937,1.95-1.165,2.886-0.51c0.938,0.657,1.166,1.949,0.511,2.886 l-0.311,0.437C462.769,310.729,462.13,311.032,461.482,311.032z M228.292,305.459c-0.682,0-1.349-0.335-1.745-0.952l-0.288-0.45 c-0.612-0.967-0.323-2.248,0.645-2.859c0.963-0.614,2.248-0.325,2.859,0.645l0.269,0.422c0.619,0.962,0.341,2.245-0.622,2.864 C229.064,305.353,228.676,305.459,228.292,305.459z M466.357,303.691c-0.373,0-0.751-0.1-1.092-0.312 c-0.972-0.604-1.271-1.881-0.668-2.854l0.271-0.436c0.601-0.974,1.877-1.278,2.852-0.676c0.975,0.6,1.277,1.877,0.676,2.852 l-0.276,0.446C467.728,303.344,467.051,303.691,466.357,303.691z M223.781,297.907c-0.728,0-1.433-0.383-1.813-1.063l-0.165-0.297 c-0.554-1.001-0.235-2.342,0.766-2.896c1.003-0.556,2.216-0.272,2.772,0.729l0.248,0.448c0.558,1,0.199,2.263-0.801,2.819 C224.468,297.823,224.122,297.907,223.781,297.907z M470.764,296.059c-0.332,0-0.666-0.079-0.979-0.246 c-1.008-0.542-1.387-1.797-0.847-2.806l0.24-0.449c0.536-1.012,1.787-1.4,2.802-0.861c1.012,0.536,1.396,1.79,0.861,2.802 l-0.25,0.468C472.218,295.663,471.502,296.059,470.764,296.059z M219.751,290.092c-0.773,0-1.516-0.435-1.871-1.18l-0.226-0.476 c-0.488-1.035-0.042-2.27,0.993-2.757c1.034-0.49,2.27-0.045,2.757,0.993l0.216,0.455c0.493,1.033,0.056,2.27-0.978,2.763 C220.354,290.027,220.051,290.092,219.751,290.092z M474.685,288.165c-0.287,0-0.579-0.061-0.856-0.188 c-1.043-0.475-1.503-1.703-1.028-2.744l0.216-0.474c0.473-1.042,1.701-1.5,2.744-1.028c1.042,0.475,1.502,1.703,1.027,2.745 l-0.215,0.474C476.225,287.714,475.473,288.165,474.685,288.165z M216.223,282.043c-0.82,0-1.596-0.49-1.922-1.295l-0.155-0.386 c-0.423-1.063,0.074-2.321,1.137-2.745c1.062-0.421,2.249,0.041,2.671,1.104l0.188,0.47c0.43,1.061-0.082,2.27-1.142,2.699 C216.745,281.994,216.481,282.043,216.223,282.043z M478.103,280.035c-0.245,0-0.493-0.043-0.735-0.136 c-1.069-0.406-1.608-1.602-1.203-2.672l0.187-0.491c0.409-1.068,1.604-1.602,2.676-1.198c1.068,0.408,1.606,1.606,1.198,2.676 l-0.184,0.483C479.727,279.523,478.938,280.035,478.103,280.035z M213.201,273.772c-0.872,0-1.684-0.556-1.969-1.429l-0.161-0.492 c-0.356-1.088,0.237-2.259,1.325-2.614c1.088-0.361,2.258,0.237,2.614,1.325l0.161,0.492c0.356,1.088-0.236,2.259-1.325,2.614 C213.631,273.739,213.414,273.772,213.201,273.772z M481,271.702c-0.205,0-0.412-0.03-0.617-0.094 c-1.092-0.34-1.703-1.502-1.363-2.595l0.154-0.498c0.34-1.095,1.505-1.706,2.595-1.364c1.093,0.34,1.703,1.502,1.364,2.595 l-0.154,0.498C482.701,271.132,481.883,271.702,481,271.702z M210.708,265.329c-0.921,0-1.762-0.619-2.004-1.552l-0.133-0.512 c-0.282-1.109,0.389-2.238,1.498-2.52c1.105-0.287,2.236,0.388,2.52,1.498l0.126,0.49c0.289,1.107-0.375,2.239-1.483,2.528 C211.056,265.306,210.88,265.329,210.708,265.329z M483.363,263.215c-0.166,0-0.332-0.019-0.5-0.061 c-1.111-0.274-1.789-1.397-1.515-2.509l0.12-0.493c0.268-1.113,1.386-1.796,2.5-1.529c1.112,0.268,1.797,1.387,1.529,2.5 l-0.126,0.515C485.14,262.584,484.293,263.215,483.363,263.215z M208.752,256.743c-0.969,0-1.836-0.683-2.031-1.671l-0.087-0.449 c-0.215-1.124,0.515-2.246,1.639-2.461c1.118-0.219,2.203,0.485,2.418,1.611l0.096,0.496c0.222,1.124-0.508,2.213-1.631,2.435 C209.02,256.73,208.885,256.743,208.752,256.743z M485.182,254.603c-0.12,0-0.242-0.01-0.365-0.033 c-1.127-0.201-1.878-1.278-1.676-2.404l0.088-0.498c0.193-1.127,1.254-1.887,2.395-1.69c1.128,0.194,1.885,1.267,1.689,2.395 l-0.092,0.522C487.041,253.898,486.168,254.603,485.182,254.603z M207.342,248.053c-1.025,0-1.917-0.761-2.052-1.805l-0.068-0.527 c-0.14-1.136,0.667-2.171,1.804-2.312c1.14-0.132,2.17,0.668,2.311,1.803l0.064,0.501c0.147,1.134-0.653,2.175-1.789,2.323 C207.522,248.048,207.433,248.053,207.342,248.053z M486.457,245.891c-0.078,0-0.156-0.004-0.234-0.013 c-1.138-0.127-1.957-1.154-1.828-2.291l0.059-0.513c0.127-1.138,1.154-1.96,2.289-1.83c1.139,0.126,1.957,1.151,1.829,2.289 l-0.058,0.517C488.396,245.109,487.498,245.891,486.457,245.891z M206.482,239.292c-1.083,0-1.996-0.842-2.066-1.939l-0.033-0.519 c-0.073-1.141,0.793-2.127,1.936-2.201c1.146-0.07,2.128,0.794,2.201,1.936l0.033,0.516c0.074,1.142-0.792,2.128-1.935,2.202 C206.572,239.291,206.527,239.292,206.482,239.292z M487.182,237.118c-0.037,0-0.074-0.001-0.111-0.003 c-1.143-0.06-2.021-1.035-1.96-2.179l0.024-0.506c0.055-1.144,1.045-1.979,2.168-1.973c1.143,0.053,2.026,1.024,1.973,2.167 l-0.025,0.53C489.191,236.26,488.275,237.118,487.182,237.118z M206.17,230.492c-1.14,0-2.065-0.92-2.072-2.061l-0.001-0.53 c0-1.145,0.928-2.072,2.073-2.072s2.073,0.928,2.073,2.072l0.001,0.506c0.007,1.145-0.916,2.078-2.061,2.085 C206.179,230.492,206.175,230.492,206.17,230.492z M487.359,228.315c-1.134,0-2.06-0.912-2.072-2.048l-0.007-0.517 c-0.013-1.145,0.903-2.083,2.048-2.097c1.069-0.015,2.084,0.902,2.098,2.048l0.006,0.517c0.014,1.145-0.904,2.084-2.049,2.097 C487.375,228.315,487.367,228.315,487.359,228.315z M206.404,221.692c-0.042,0-0.082-0.001-0.124-0.004 c-1.143-0.067-2.015-1.047-1.947-2.19l0.03-0.517c0.065-1.143,1.021-2.022,2.19-1.948c1.142,0.068,2.015,1.047,1.948,2.191 l-0.031,0.517C208.406,220.842,207.493,221.692,206.404,221.692z M486.99,219.518c-1.08,0-1.989-0.835-2.066-1.927l-0.037-0.504 c-0.087-1.142,0.768-2.137,1.908-2.225c1.139-0.091,2.138,0.768,2.225,1.909l0.039,0.528c0.082,1.142-0.779,2.132-1.921,2.213 C487.088,219.516,487.038,219.518,486.99,219.518z M207.184,212.922c-0.082,0-0.164-0.004-0.247-0.014 c-1.136-0.134-1.949-1.165-1.814-2.302l0.058-0.467c0.141-1.138,1.179-1.986,2.314-1.831c1.135,0.139,1.946,1.146,1.807,2.282 l-0.062,0.504C209.114,212.147,208.219,212.922,207.184,212.922z M486.076,210.762c-1.021,0-1.91-0.754-2.051-1.793l-0.07-0.501 c-0.16-1.133,0.628-2.183,1.762-2.344c1.133-0.157,2.183,0.628,2.344,1.761l0.071,0.525c0.155,1.134-0.64,2.179-1.773,2.333 C486.264,210.756,486.169,210.762,486.076,210.762z M208.508,204.22c-0.124,0-0.25-0.011-0.378-0.034 c-1.125-0.208-1.87-1.289-1.662-2.415l0.097-0.521c0.215-1.125,1.304-1.856,2.424-1.648c1.125,0.215,1.862,1.299,1.648,2.424 l-0.093,0.499C210.36,203.522,209.489,204.22,208.508,204.22z M484.615,202.08c-0.965,0-1.828-0.677-2.029-1.659l-0.103-0.507 c-0.228-1.122,0.495-2.216,1.617-2.445c1.122-0.23,2.216,0.497,2.444,1.617l0.104,0.507c0.229,1.122-0.496,2.216-1.617,2.445 C484.892,202.067,484.752,202.08,484.615,202.08z M210.379,195.618c-0.168,0-0.339-0.021-0.509-0.064 c-1.11-0.28-1.782-1.408-1.5-2.517l0.127-0.503c0.279-1.11,1.406-1.785,2.517-1.5c1.11,0.28,1.782,1.408,1.501,2.517l-0.127,0.503 C212.15,194.992,211.306,195.618,210.379,195.618z M482.568,193.46c-0.9,0-1.713-0.571-1.959-1.487l-0.133-0.492 c-0.301-1.104,0.35-2.244,1.454-2.545c1.108-0.302,2.243,0.351,2.545,1.455l0.108,0.404c0.297,1.105-0.346,2.294-1.451,2.59 C482.943,193.436,482.754,193.46,482.568,193.46z M212.79,187.15c-0.208,0-0.42-0.032-0.629-0.099 c-1.091-0.348-1.693-1.514-1.345-2.604l0.161-0.504c0.352-1.087,1.512-1.683,2.61-1.334c1.089,0.352,1.687,1.521,1.334,2.61 l-0.157,0.488C214.483,186.587,213.668,187.15,212.79,187.15z M480.066,185.081c-0.866,0-1.674-0.547-1.965-1.415l-0.163-0.484 c-0.368-1.084,0.212-2.261,1.296-2.628c1.086-0.369,2.262,0.212,2.629,1.296l0.168,0.498c0.363,1.085-0.221,2.26-1.306,2.624 C480.507,185.045,480.285,185.081,480.066,185.081z M215.737,178.835c-0.25,0-0.503-0.045-0.749-0.141 c-1.067-0.414-1.597-1.614-1.184-2.682l0.153-0.39c0.419-1.064,1.643-1.641,2.709-1.222c1.064,0.42,1.609,1.57,1.19,2.635 l-0.186,0.475C217.351,178.332,216.567,178.835,215.737,178.835z M477.004,176.844c-0.821,0-1.6-0.493-1.924-1.302l-0.188-0.456 c-0.438-1.058,0.065-2.27,1.123-2.707c1.057-0.438,2.27,0.064,2.707,1.122l0.205,0.497c0.426,1.063-0.091,2.269-1.152,2.696 C477.522,176.795,477.262,176.844,477.004,176.844z M219.202,170.726c-0.292,0-0.59-0.062-0.872-0.193 c-1.039-0.481-1.489-1.714-1.006-2.752l0.228-0.487c0.49-1.035,1.726-1.478,2.761-0.984c1.034,0.49,1.475,1.727,0.984,2.761 l-0.214,0.457C220.732,170.281,219.983,170.726,219.202,170.726z M473.338,168.754c-0.734,0-1.425-0.389-1.773-1.106l-0.225-0.458 c-0.504-1.027-0.078-2.269,0.949-2.772c1.031-0.504,2.268-0.078,2.773,0.949l0.156,0.318c0.499,1.029,0.106,2.345-0.922,2.845 C473.984,168.681,473.658,168.754,473.338,168.754z M223.168,162.854c-0.336,0-0.676-0.081-0.992-0.254 c-1.005-0.549-1.375-1.808-0.825-2.812l0.249-0.456c0.549-1.004,1.811-1.371,2.813-0.825c1.005,0.549,1.374,1.809,0.825,2.812 l-0.249,0.456C224.612,162.464,223.901,162.854,223.168,162.854z M469.354,161.023c-0.728,0-1.434-0.383-1.813-1.063l-0.246-0.436 c-0.564-0.996-0.217-2.261,0.779-2.826c0.996-0.565,2.262-0.216,2.826,0.779l0.262,0.464c0.558,1,0.198,2.263-0.802,2.82 C470.041,160.939,469.695,161.023,469.354,161.023z M227.621,155.247c-0.376,0-0.757-0.102-1.1-0.317 c-0.969-0.609-1.262-1.888-0.654-2.857l0.291-0.458c0.618-0.962,1.898-1.245,2.864-0.622c0.962,0.62,1.241,1.902,0.622,2.864 l-0.264,0.419C228.985,154.903,228.31,155.247,227.621,155.247z M464.8,153.499c-0.679,0-1.342-0.332-1.739-0.942l-0.279-0.428 c-0.627-0.958-0.359-2.243,0.599-2.869c0.958-0.627,2.243-0.357,2.869,0.598l0.286,0.438c0.625,0.96,0.353,2.244-0.607,2.868 C465.579,153.39,465.188,153.499,464.8,153.499z M232.539,147.936c-0.419,0-0.842-0.126-1.208-0.391 c-0.929-0.668-1.141-1.963-0.472-2.892l0.312-0.431c0.674-0.926,1.971-1.127,2.895-0.453c0.925,0.675,1.127,1.972,0.453,2.896 l-0.296,0.409C233.818,147.636,233.184,147.936,232.539,147.936z M459.78,146.27c-0.637,0-1.265-0.292-1.67-0.843l-0.298-0.401 c-0.688-0.916-0.502-2.215,0.413-2.901c0.919-0.687,2.216-0.498,2.901,0.414l0.319,0.429c0.68,0.921,0.483,2.218-0.438,2.897 C460.639,146.138,460.207,146.27,459.78,146.27z M237.901,140.947c-0.461,0-0.926-0.154-1.312-0.469 c-0.885-0.725-1.016-2.03-0.292-2.917l0.34-0.413c0.731-0.882,2.038-1.001,2.918-0.268c0.879,0.732,1,2.038,0.267,2.919 l-0.318,0.386C239.097,140.688,238.501,140.947,237.901,140.947z M454.322,139.367c-0.592,0-1.179-0.252-1.588-0.74l-0.33-0.39 c-0.739-0.875-0.63-2.182,0.244-2.921c0.875-0.742,2.182-0.63,2.92,0.243l0.339,0.402c0.737,0.876,0.622,2.184-0.254,2.919 C455.265,139.208,454.792,139.367,454.322,139.367z M243.688,134.306c-0.505,0-1.011-0.183-1.41-0.554 c-0.839-0.778-0.889-2.09-0.109-2.929l0.364-0.391c0.787-0.834,2.098-0.87,2.93-0.086c0.833,0.786,0.872,2.098,0.086,2.931 l-0.342,0.365C244.799,134.083,244.244,134.306,243.688,134.306z M448.443,132.813c-0.548,0-1.095-0.216-1.502-0.644l-0.353-0.369 c-0.792-0.826-0.765-2.138,0.062-2.931c0.825-0.792,2.137-0.765,2.93,0.061l0.365,0.381c0.787,0.83,0.756,2.141-0.073,2.931 C449.471,132.624,448.956,132.813,448.443,132.813z M249.872,128.039c-0.547,0-1.094-0.215-1.501-0.644 c-0.789-0.83-0.756-2.141,0.073-2.931l0.382-0.362c0.832-0.784,2.146-0.747,2.931,0.086c0.786,0.832,0.747,2.144-0.085,2.93 l-0.37,0.351C250.899,127.85,250.385,128.039,249.872,128.039z M442.168,126.635c-0.506,0-1.012-0.183-1.41-0.554l-0.368-0.339 c-0.845-0.772-0.905-2.083-0.134-2.929c0.77-0.844,2.084-0.904,2.929-0.134l0.393,0.363c0.839,0.778,0.889,2.09,0.109,2.929 C443.279,126.413,442.723,126.635,442.168,126.635z M256.433,122.168c-0.589,0-1.173-0.249-1.583-0.734 c-0.74-0.875-0.63-2.182,0.243-2.92l0.41-0.343c0.879-0.734,2.186-0.614,2.918,0.267c0.733,0.88,0.612,2.187-0.267,2.919 l-0.384,0.32C257.381,122.007,256.906,122.168,256.433,122.168z M435.52,120.858c-0.463,0-0.927-0.154-1.313-0.469l-0.389-0.316 c-0.891-0.717-1.033-2.022-0.315-2.915c0.719-0.892,2.022-1.032,2.915-0.315l0.414,0.338c0.886,0.725,1.016,2.03,0.292,2.917 C436.714,120.599,436.119,120.858,435.52,120.858z M263.345,116.718c-0.636,0-1.264-0.292-1.669-0.843 c-0.68-0.921-0.484-2.218,0.438-2.897l0.422-0.312c0.925-0.678,2.221-0.475,2.897,0.448c0.676,0.924,0.475,2.222-0.448,2.897 l-0.412,0.302C264.203,116.586,263.772,116.718,263.345,116.718z M428.525,115.504c-0.42,0-0.842-0.126-1.209-0.391l-0.414-0.296 c-0.932-0.664-1.149-1.958-0.485-2.89c0.661-0.934,1.956-1.152,2.89-0.486l0.431,0.308c0.929,0.668,1.141,1.963,0.472,2.893 C429.805,115.205,429.17,115.504,428.525,115.504z M270.579,111.709c-0.678,0-1.342-0.332-1.74-0.942 c-0.625-0.96-0.352-2.244,0.607-2.868l0.449-0.29c0.97-0.614,2.248-0.331,2.863,0.63c0.616,0.965,0.334,2.247-0.63,2.863 l-0.421,0.271C271.358,111.601,270.966,111.709,270.579,111.709z M421.207,110.595c-0.379,0-0.764-0.104-1.107-0.323l-0.424-0.264 c-0.973-0.603-1.271-1.881-0.668-2.854c0.604-0.975,1.883-1.273,2.854-0.668l0.458,0.287c0.966,0.613,1.253,1.894,0.64,2.86 C422.564,110.255,421.893,110.595,421.207,110.595z M278.109,107.163c-0.726,0-1.43-0.382-1.81-1.059 c-0.561-0.999-0.205-2.262,0.793-2.821l0.461-0.258c1.007-0.554,2.263-0.19,2.817,0.81c0.555,1.002,0.191,2.263-0.81,2.817 l-0.441,0.246C278.8,107.078,278.452,107.163,278.109,107.163z M413.596,106.151c-0.334,0-0.672-0.081-0.986-0.251l-0.448-0.242 c-1.009-0.542-1.388-1.797-0.847-2.806c0.541-1.008,1.799-1.388,2.806-0.847l0.467,0.252c1.006,0.546,1.38,1.804,0.833,2.811 C415.044,105.76,414.332,106.151,413.596,106.151z M285.904,103.095c-0.77,0-1.509-0.43-1.867-1.17 c-0.498-1.031-0.067-2.27,0.963-2.769l0.475-0.228c1.029-0.495,2.27-0.058,2.763,0.978c0.493,1.033,0.056,2.27-0.978,2.763 l-0.455,0.219C286.514,103.029,286.208,103.095,285.904,103.095z M405.691,102.188c-0.279,0-0.563-0.06-0.838-0.187l-0.463-0.213 c-1.042-0.474-1.502-1.703-1.027-2.744c0.475-1.043,1.705-1.501,2.744-1.028l0.37,0.17c1.04,0.481,1.548,1.738,1.069,2.777 C407.193,101.727,406.466,102.188,405.691,102.188z M293.938,99.529c-0.818,0-1.593-0.487-1.92-1.291 c-0.432-1.06,0.077-2.27,1.137-2.701l0.492-0.199c1.067-0.43,2.27,0.095,2.693,1.157c0.424,1.063-0.094,2.269-1.157,2.693 l-0.463,0.187C294.463,99.479,294.198,99.529,293.938,99.529z M397.608,98.738c-0.249,0-0.503-0.046-0.749-0.141l-0.485-0.188 c-1.067-0.414-1.597-1.614-1.185-2.682c0.414-1.068,1.619-1.595,2.682-1.184l0.486,0.188c1.067,0.414,1.598,1.614,1.184,2.682 C399.223,98.234,398.438,98.738,397.608,98.738z M302.174,96.476c-0.868,0-1.677-0.549-1.966-1.417 c-0.362-1.086,0.225-2.26,1.311-2.622l0.488-0.163c1.088-0.36,2.26,0.221,2.624,1.307c0.363,1.085-0.221,2.26-1.306,2.624 l-0.494,0.165C302.612,96.441,302.391,96.476,302.174,96.476z M389.277,95.798c-0.201,0-0.407-0.03-0.613-0.096l-0.485-0.153 c-1.093-0.34-1.704-1.502-1.364-2.595c0.34-1.095,1.508-1.704,2.596-1.364l0.411,0.131c1.091,0.346,1.743,1.526,1.396,2.617 C390.938,95.223,390.148,95.798,389.277,95.798z M310.606,93.942c-0.917,0-1.755-0.611-2.002-1.538 c-0.294-1.106,0.362-2.242,1.468-2.537l0.513-0.136c1.113-0.286,2.24,0.376,2.528,1.483c0.288,1.107-0.375,2.24-1.484,2.528 l-0.489,0.13C310.962,93.919,310.782,93.942,310.606,93.942z M380.82,93.396c-0.166,0-0.334-0.019-0.502-0.061l-0.5-0.125 c-1.111-0.274-1.789-1.397-1.516-2.508c0.274-1.111,1.396-1.791,2.509-1.515l0.506,0.125c1.111,0.276,1.787,1.4,1.513,2.512 C382.595,92.767,381.748,93.396,380.82,93.396z M319.178,91.945c-0.969,0-1.835-0.683-2.03-1.671 c-0.222-1.124,0.508-2.213,1.632-2.435l0.51-0.101c1.12-0.222,2.212,0.512,2.434,1.634c0.221,1.124-0.512,2.213-1.635,2.434 l-0.506,0.099C319.446,91.933,319.311,91.945,319.178,91.945z M372.215,91.535c-0.129,0-0.26-0.011-0.39-0.036l-0.487-0.089 c-1.126-0.201-1.877-1.278-1.676-2.404s1.264-1.889,2.404-1.676l0.533,0.097c1.125,0.214,1.863,1.299,1.648,2.423 C374.06,90.844,373.19,91.535,372.215,91.535z M327.861,90.493c-1.02,0-1.908-0.754-2.051-1.793 c-0.154-1.134,0.641-2.179,1.774-2.333l0.536-0.071c1.127-0.152,2.173,0.664,2.313,1.8c0.142,1.136-0.664,2.171-1.801,2.312 l-0.489,0.065C328.05,90.487,327.955,90.493,327.861,90.493z M363.511,90.219c-0.082,0-0.164-0.004-0.247-0.014l-0.514-0.061 c-1.137-0.133-1.949-1.164-1.816-2.3c0.135-1.137,1.166-1.949,2.301-1.816l0.518,0.061c1.136,0.134,1.949,1.165,1.814,2.302 C365.441,89.444,364.546,90.219,363.511,90.219z M336.619,89.59c-1.079,0-1.988-0.835-2.065-1.927 c-0.081-1.142,0.78-2.132,1.922-2.213l0.516-0.037c1.149-0.072,2.134,0.78,2.214,1.922s-0.781,2.132-1.922,2.213l-0.517,0.036 C336.717,89.588,336.668,89.59,336.619,89.59z M354.738,89.451c-0.04,0-0.082-0.001-0.123-0.004l-0.505-0.027 c-1.144-0.061-2.021-1.037-1.96-2.179c0.061-1.144,1.048-2.024,2.178-1.96l0.53,0.028c1.142,0.068,2.015,1.047,1.948,2.191 C356.741,88.601,355.828,89.451,354.738,89.451z M345.418,89.234c-1.133,0-2.059-0.912-2.071-2.048 c-0.013-1.145,0.903-2.084,2.048-2.097l0.527-0.004c0.004,0,0.008,0,0.012,0c1.139,0,2.064,0.92,2.072,2.06 c0.008,1.145-0.916,2.078-2.061,2.085l-0.502,0.004C345.436,89.234,345.428,89.234,345.418,89.234z"></path> <path fill="#FFFFFF" d="M346.769,339.451l-0.485-0.001c-1.049-0.007-1.895-0.861-1.888-1.909c0.007-1.045,0.854-1.888,1.898-1.888 c0.004,0,0.007,0,0.011,0l0.464,0.001c0.912,0,1.675,0.644,1.856,1.501c0.154-0.862,0.893-1.53,1.803-1.562l0.473-0.017 c1.023-0.055,1.927,0.782,1.964,1.831c0.037,1.047-0.782,1.927-1.831,1.964l-0.473,0.017c-0.931,0.054-1.735-0.616-1.924-1.5 C348.479,338.776,347.703,339.451,346.769,339.451z M338.713,339.159c-0.044,0-0.09-0.002-0.135-0.005l-0.45-0.033 c-1.046-0.08-1.846-0.993-1.767-2.038c0.08-1.046,0.965-1.838,2.021-1.75l0.464,0.035c1.045,0.074,1.834,0.981,1.76,2.027 C340.535,338.394,339.701,339.159,338.713,339.159z M358.533,338.824c-0.959,0-1.783-0.723-1.885-1.697 c-0.111-1.043,0.643-1.979,1.686-2.088l0.463-0.051c1.041-0.12,1.979,0.634,2.096,1.676c0.117,1.042-0.633,1.981-1.676,2.097 l-0.48,0.053C358.668,338.82,358.6,338.824,358.533,338.824z M330.699,338.277c-0.093,0-0.187-0.006-0.281-0.02l-0.48-0.073 c-1.035-0.159-1.746-1.128-1.587-2.164c0.159-1.037,1.14-1.743,2.164-1.588l0.46,0.069c1.037,0.154,1.753,1.119,1.6,2.156 C332.435,337.6,331.625,338.277,330.699,338.277z M366.514,337.672c-0.896,0-1.695-0.638-1.864-1.552 c-0.191-1.031,0.489-2.021,1.521-2.213l0.468-0.086c1.033-0.196,2.021,0.491,2.212,1.522c0.189,1.032-0.492,2.022-1.522,2.212 l-0.464,0.086C366.745,337.662,366.629,337.672,366.514,337.672z M322.77,336.808c-0.136,0-0.273-0.014-0.412-0.045l-0.4-0.09 c-1.023-0.233-1.699-1.259-1.467-2.281c0.233-1.021,1.22-1.667,2.235-1.438l0.454,0.102c1.022,0.227,1.668,1.241,1.443,2.265 C324.426,336.206,323.641,336.808,322.77,336.808z M374.388,335.934c-0.844,0-1.614-0.566-1.837-1.421 c-0.264-1.014,0.344-2.051,1.359-2.315l0.447-0.118c1.016-0.27,2.055,0.333,2.324,1.345c0.27,1.013-0.332,2.053-1.345,2.324 l-0.47,0.123C374.707,335.914,374.546,335.934,374.388,335.934z M314.971,334.758c-0.183,0-0.37-0.027-0.554-0.083l-0.457-0.139 c-1.003-0.306-1.568-1.366-1.262-2.369c0.305-1.004,1.363-1.57,2.369-1.263l0.456,0.139c1.003,0.306,1.568,1.366,1.262,2.369 C316.537,334.23,315.783,334.758,314.971,334.758z M382.113,333.617c-0.791,0-1.53-0.499-1.798-1.29 c-0.337-0.993,0.194-2.071,1.188-2.407l0.435-0.149c0.99-0.35,2.072,0.18,2.416,1.169c0.346,0.99-0.179,2.073-1.168,2.417 l-0.463,0.159C382.521,333.583,382.314,333.617,382.113,333.617z M307.333,332.13c-0.229,0-0.46-0.042-0.686-0.129l-0.448-0.174 c-0.977-0.381-1.459-1.481-1.079-2.458c0.381-0.976,1.482-1.459,2.458-1.079l0.44,0.17c0.978,0.379,1.462,1.479,1.084,2.457 C308.812,331.668,308.093,332.13,307.333,332.13z M389.635,330.738c-0.738,0-1.439-0.433-1.748-1.154 c-0.41-0.964,0.037-2.08,1.002-2.492l0.431-0.185c0.958-0.415,2.079,0.032,2.493,0.996c0.414,0.963-0.032,2.079-0.995,2.493 l-0.438,0.188C390.137,330.689,389.883,330.738,389.635,330.738z M299.912,328.943c-0.271,0-0.547-0.058-0.809-0.181l-0.442-0.211 c-0.945-0.454-1.343-1.589-0.889-2.533c0.455-0.945,1.592-1.339,2.534-0.889l0.416,0.198c0.948,0.447,1.355,1.578,0.909,2.527 C301.307,328.541,300.624,328.943,299.912,328.943z M396.926,327.313c-0.688,0-1.352-0.375-1.689-1.027 c-0.48-0.931-0.115-2.076,0.816-2.558l0.412-0.213c0.93-0.484,2.074-0.126,2.562,0.803c0.485,0.929,0.127,2.076-0.803,2.562 l-0.429,0.223C397.517,327.245,397.219,327.313,396.926,327.313z M292.75,325.221c-0.316,0-0.636-0.079-0.931-0.245l-0.43-0.246 c-0.908-0.524-1.218-1.686-0.694-2.594c0.526-0.907,1.687-1.219,2.594-0.693l0.395,0.226c0.913,0.514,1.236,1.672,0.721,2.586 C294.057,324.874,293.413,325.221,292.75,325.221z M403.945,323.359c-0.639,0-1.262-0.321-1.619-0.905 c-0.549-0.894-0.269-2.063,0.625-2.61l0.395-0.244c0.889-0.555,2.061-0.281,2.614,0.612c0.554,0.891,0.278,2.061-0.612,2.614 l-0.411,0.253C404.627,323.269,404.284,323.359,403.945,323.359z M285.882,320.984c-0.362,0-0.729-0.104-1.054-0.321l-0.407-0.273 c-0.866-0.59-1.09-1.771-0.5-2.638c0.59-0.868,1.771-1.089,2.638-0.5l0.381,0.257c0.872,0.583,1.105,1.762,0.522,2.633 C287.095,320.688,286.495,320.984,285.882,320.984z M410.66,318.901c-0.593,0-1.178-0.277-1.548-0.797 c-0.608-0.854-0.409-2.04,0.444-2.647l0.372-0.268c0.85-0.617,2.038-0.426,2.651,0.423c0.615,0.849,0.426,2.036-0.423,2.651 l-0.397,0.287C411.426,318.788,411.041,318.901,410.66,318.901z M279.345,316.256c-0.408,0-0.818-0.131-1.164-0.399l-0.387-0.303 c-0.822-0.651-0.961-1.844-0.311-2.667c0.649-0.822,1.844-0.961,2.667-0.31l0.36,0.282c0.828,0.645,0.977,1.837,0.333,2.664 C280.471,316.004,279.911,316.256,279.345,316.256z M417.033,313.963c-0.547,0-1.09-0.236-1.466-0.691 c-0.667-0.809-0.552-2.006,0.257-2.672l0.345-0.288c0.801-0.68,1.999-0.578,2.675,0.222c0.678,0.801,0.578,1.999-0.223,2.675 l-0.381,0.32C417.886,313.821,417.459,313.963,417.033,313.963z M273.17,311.065c-0.454,0-0.91-0.162-1.273-0.491l-0.357-0.324 c-0.774-0.708-0.829-1.908-0.123-2.683c0.708-0.774,1.908-0.829,2.683-0.122l0.346,0.315c0.777,0.704,0.836,1.904,0.133,2.682 C274.204,310.854,273.688,311.065,273.17,311.065z M423.03,308.574c-0.499,0-0.997-0.196-1.37-0.584 c-0.726-0.756-0.701-1.959,0.056-2.685l0.329-0.319c0.75-0.732,1.952-0.716,2.685,0.033c0.732,0.751,0.718,1.952-0.033,2.685 l-0.352,0.341C423.977,308.398,423.503,308.574,423.03,308.574z M267.392,305.439c-0.499,0-0.998-0.196-1.37-0.584l-0.343-0.361 c-0.715-0.766-0.675-1.967,0.09-2.684c0.765-0.715,1.963-0.676,2.683,0.09l0.31,0.326c0.726,0.756,0.701,1.959-0.056,2.685 C268.338,305.264,267.864,305.439,267.392,305.439z M428.619,302.761c-0.453,0-0.91-0.162-1.273-0.491 c-0.776-0.704-0.836-1.904-0.132-2.682l0.3-0.335c0.693-0.788,1.895-0.861,2.68-0.167c0.785,0.693,0.86,1.893,0.166,2.679 l-0.332,0.373C429.653,302.551,429.138,302.761,428.619,302.761z M262.04,299.41c-0.55,0-1.095-0.237-1.47-0.696l-0.3-0.367 c-0.664-0.812-0.544-2.008,0.267-2.671c0.812-0.662,2.007-0.543,2.671,0.267l0.3,0.367c0.664,0.812,0.544,2.008-0.267,2.671 C262.888,299.269,262.462,299.41,262.04,299.41z M433.773,296.556c-0.404,0-0.813-0.129-1.158-0.395 c-0.83-0.639-0.984-1.832-0.344-2.662l0.284-0.371c0.637-0.832,1.831-0.991,2.661-0.355c0.833,0.637,0.992,1.829,0.355,2.661 l-0.295,0.382C434.904,296.301,434.342,296.556,433.773,296.556z M257.141,293.007c-0.593,0-1.178-0.277-1.548-0.797l-0.283-0.4 c-0.601-0.858-0.392-2.042,0.467-2.644c0.859-0.6,2.042-0.392,2.644,0.467l0.264,0.375c0.608,0.854,0.409,2.04-0.445,2.647 C257.906,292.894,257.521,293.007,257.141,293.007z M438.461,289.99c-0.359,0-0.724-0.102-1.045-0.315 c-0.875-0.58-1.115-1.757-0.536-2.631l0.259-0.392c0.575-0.875,1.754-1.119,2.629-0.543s1.119,1.753,0.543,2.629l-0.265,0.401 C439.681,289.692,439.076,289.99,438.461,289.99z M252.724,286.267c-0.643,0-1.272-0.327-1.628-0.918l-0.248-0.414 c-0.537-0.9-0.242-2.065,0.659-2.602c0.898-0.538,2.065-0.242,2.602,0.659l0.239,0.398c0.542,0.898,0.252,2.064-0.646,2.605 C253.395,286.179,253.057,286.267,252.724,286.267z M442.657,283.098c-0.315,0-0.636-0.079-0.931-0.245 c-0.913-0.515-1.235-1.672-0.721-2.586l0.224-0.402c0.509-0.917,1.661-1.249,2.581-0.742c0.916,0.508,1.249,1.663,0.741,2.581 l-0.239,0.428C443.965,282.75,443.32,283.098,442.657,283.098z M248.812,279.222c-0.693,0-1.361-0.38-1.695-1.041l-0.218-0.431 c-0.469-0.938-0.089-2.078,0.849-2.547c0.94-0.469,2.079-0.088,2.547,0.849l0.208,0.415c0.474,0.934,0.099,2.077-0.836,2.551 C249.393,279.156,249.1,279.222,248.812,279.222z M446.339,275.913c-0.268,0-0.54-0.057-0.799-0.177 c-0.951-0.441-1.363-1.57-0.921-2.521l0.199-0.431c0.44-0.951,1.572-1.364,2.521-0.921c0.951,0.441,1.363,1.57,0.922,2.521 l-0.201,0.431C447.74,275.506,447.055,275.913,446.339,275.913z M245.429,271.912c-0.742,0-1.446-0.438-1.751-1.163l-0.186-0.447 c-0.401-0.969,0.06-2.079,1.028-2.479c0.967-0.401,2.079,0.059,2.48,1.028l0.178,0.426c0.406,0.967-0.048,2.08-1.014,2.486 C245.923,271.864,245.673,271.912,245.429,271.912z M449.479,268.476c-0.225,0-0.452-0.04-0.673-0.124 c-0.98-0.372-1.475-1.467-1.103-2.448l0.165-0.439c0.369-0.98,1.463-1.476,2.444-1.111c0.981,0.369,1.479,1.463,1.112,2.444 l-0.172,0.453C450.967,268.008,450.245,268.476,449.479,268.476z M242.597,264.377c-0.796,0-1.536-0.503-1.801-1.299l-0.151-0.457 c-0.328-0.996,0.213-2.069,1.21-2.396c0.996-0.332,2.068,0.214,2.396,1.209l0.147,0.442c0.332,0.995-0.206,2.07-1.2,2.402 C242.998,264.346,242.795,264.377,242.597,264.377z M452.063,260.823c-0.18,0-0.363-0.026-0.544-0.081 c-1.005-0.299-1.575-1.358-1.275-2.362l0.131-0.445c0.292-1.007,1.345-1.591,2.353-1.292c1.007,0.292,1.585,1.346,1.292,2.353 l-0.138,0.471C453.635,260.291,452.881,260.823,452.063,260.823z M240.324,256.638c-0.848,0-1.62-0.571-1.839-1.43l-0.119-0.47 c-0.252-1.018,0.367-2.047,1.385-2.3c1.014-0.251,2.047,0.367,2.301,1.385l0.113,0.45c0.258,1.016-0.356,2.049-1.372,2.308 C240.636,256.62,240.479,256.638,240.324,256.638z M454.068,253.01c-0.133,0-0.268-0.014-0.402-0.043 c-1.025-0.22-1.676-1.23-1.455-2.256l0.1-0.464c0.221-1.024,1.223-1.679,2.256-1.456c1.024,0.221,1.676,1.231,1.455,2.256 l-0.1,0.464C455.73,252.402,454.943,253.01,454.068,253.01z M238.633,248.754c-0.903,0-1.703-0.645-1.867-1.564l-0.083-0.479 c-0.179-1.032,0.515-2.015,1.548-2.193c1.03-0.177,2.014,0.515,2.193,1.548l0.08,0.456c0.185,1.032-0.503,2.018-1.535,2.203 C238.856,248.745,238.744,248.754,238.633,248.754z M455.49,245.073c-0.088,0-0.179-0.005-0.27-0.019 c-1.038-0.147-1.76-1.108-1.613-2.146l0.064-0.459c0.141-1.039,1.099-1.769,2.137-1.625c1.039,0.141,1.767,1.098,1.625,2.137 l-0.066,0.481C457.233,244.389,456.42,245.073,455.49,245.073z M237.526,240.768c-0.963,0-1.788-0.73-1.886-1.709l-0.047-0.482 c-0.098-1.043,0.667-1.97,1.711-2.068c1.061-0.103,1.969,0.667,2.069,1.711l0.045,0.461c0.104,1.044-0.657,1.974-1.7,2.078 C237.654,240.765,237.59,240.768,237.526,240.768z M456.322,237.053c-0.041,0-0.082-0.001-0.123-0.004 c-1.047-0.068-1.84-0.97-1.773-2.016l0.03-0.475c0.067-1.045,0.973-1.835,2.017-1.772c1.047,0.067,1.84,0.971,1.773,2.017 l-0.031,0.473C458.15,236.281,457.314,237.053,456.322,237.053z M237.012,232.721c-1.022,0-1.866-0.813-1.896-1.842l-0.012-0.484 c-0.025-1.049,0.805-1.918,1.853-1.942c0.992-0.068,1.917,0.805,1.942,1.853l0.012,0.462c0.031,1.047-0.793,1.922-1.841,1.953 C237.05,232.721,237.031,232.721,237.012,232.721z M456.564,228.991c-1.043,0-1.892-0.843-1.898-1.887l-0.003-0.46 c-0.013-1.048,0.827-1.909,1.876-1.92c0.008,0,0.015,0,0.021,0c1.039,0,1.887,0.835,1.898,1.876l0.004,0.482 c0.007,1.048-0.838,1.903-1.887,1.91C456.572,228.991,456.568,228.991,456.564,228.991z M237.085,224.659 c-0.031,0-0.061,0-0.091-0.001c-1.048-0.049-1.857-0.938-1.808-1.986l0.022-0.475c0.05-1.047,0.948-1.812,1.986-1.807 c1.047,0.049,1.856,0.938,1.807,1.985l-0.022,0.475C238.932,223.867,238.093,224.659,237.085,224.659z M456.222,220.937 c-0.982,0-1.815-0.757-1.891-1.754l-0.037-0.461c-0.086-1.045,0.691-1.961,1.736-2.048c1.046-0.096,1.962,0.691,2.048,1.736 l0.039,0.484c0.079,1.045-0.703,1.958-1.749,2.037C456.319,220.935,456.27,220.937,456.222,220.937z M237.743,216.624 c-0.074,0-0.149-0.004-0.225-0.013c-1.042-0.123-1.786-1.066-1.664-2.107l0.057-0.483c0.13-1.041,1.091-1.771,2.117-1.652 c1.041,0.129,1.78,1.077,1.652,2.117l-0.056,0.461C239.511,215.913,238.692,216.624,237.743,216.624z M455.277,212.896 c-0.915,0-1.714-0.644-1.858-1.578l-0.071-0.46c-0.166-1.036,0.539-2.009,1.574-2.174c1.039-0.164,2.01,0.541,2.174,1.575 l0.065,0.416c0.16,1.036-0.544,2.037-1.581,2.198C455.479,212.889,455.377,212.896,455.277,212.896z M238.987,208.656 c-0.122,0-0.244-0.011-0.368-0.035c-1.029-0.202-1.699-1.2-1.497-2.229l0.092-0.466c0.202-1.028,1.197-1.697,2.229-1.497 c1.029,0.202,1.699,1.2,1.497,2.229l-0.092,0.466C240.671,208.029,239.876,208.656,238.987,208.656z M453.777,205.008 c-0.866,0-1.648-0.595-1.85-1.475l-0.105-0.452c-0.238-1.021,0.394-2.042,1.415-2.282c1.017-0.243,2.042,0.393,2.282,1.415 l0.109,0.472c0.234,1.022-0.404,2.04-1.427,2.273C454.06,204.993,453.917,205.008,453.777,205.008z M240.818,200.804 c-0.165,0-0.333-0.022-0.5-0.067c-1.011-0.276-1.607-1.32-1.332-2.332l0.13-0.471c0.284-1.009,1.326-1.601,2.34-1.315 c1.01,0.284,1.598,1.331,1.315,2.34l-0.122,0.445C242.418,200.249,241.653,200.804,240.818,200.804z M451.68,197.224 c-0.807,0-1.555-0.519-1.811-1.33l-0.143-0.455c-0.313-1.001,0.245-2.066,1.245-2.379c1.004-0.306,2.067,0.245,2.38,1.245 l0.14,0.45c0.315,1-0.24,2.066-1.24,2.38C452.061,197.195,451.869,197.224,451.68,197.224z M243.224,193.109 c-0.209,0-0.422-0.035-0.63-0.108c-0.989-0.349-1.508-1.432-1.161-2.421l0.131-0.366c0.353-0.986,1.46-1.545,2.444-1.193 c0.986,0.354,1.516,1.393,1.163,2.379l-0.157,0.44C244.74,192.621,244.007,193.109,243.224,193.109z M449.01,189.615 c-0.76,0-1.477-0.459-1.77-1.209l-0.17-0.433c-0.387-0.974,0.091-2.077,1.066-2.464c0.973-0.387,2.076,0.091,2.463,1.066 l0.178,0.451c0.382,0.977-0.102,2.077-1.078,2.458C449.473,189.573,449.239,189.615,449.01,189.615z M246.197,185.602 c-0.255,0-0.515-0.052-0.763-0.161c-0.959-0.422-1.396-1.542-0.974-2.502l0.201-0.452c0.431-0.956,1.555-1.381,2.511-0.948 c0.956,0.431,1.38,1.555,0.948,2.511l-0.185,0.417C247.624,185.177,246.927,185.602,246.197,185.602z M445.789,182.23 c-0.706,0-1.385-0.396-1.712-1.076l-0.204-0.422c-0.455-0.944-0.061-2.079,0.883-2.536c0.944-0.454,2.079-0.062,2.536,0.882 l0.208,0.431c0.453,0.945,0.057,2.079-0.89,2.533C446.346,182.17,446.065,182.23,445.789,182.23z M249.718,178.335 c-0.3,0-0.604-0.07-0.887-0.221c-0.926-0.491-1.279-1.64-0.789-2.566l0.232-0.432c0.497-0.922,1.651-1.267,2.572-0.769 c0.922,0.498,1.266,1.65,0.769,2.572l-0.217,0.406C251.056,177.969,250.398,178.335,249.718,178.335z M442.034,175.102 c-0.658,0-1.297-0.342-1.647-0.953l-0.234-0.405c-0.524-0.907-0.214-2.069,0.693-2.593c0.908-0.526,2.068-0.216,2.594,0.693 l0.239,0.414c0.522,0.909,0.208,2.07-0.7,2.592C442.68,175.021,442.355,175.102,442.034,175.102z M253.761,171.351 c-0.345,0-0.693-0.094-1.007-0.29c-0.888-0.558-1.156-1.73-0.599-2.618l0.263-0.414c0.565-0.882,1.737-1.14,2.622-0.578 c0.883,0.564,1.142,1.738,0.578,2.623l-0.246,0.388C255.01,171.036,254.392,171.351,253.761,171.351z M437.766,168.269 c-0.611,0-1.209-0.294-1.576-0.838l-0.261-0.384c-0.589-0.867-0.366-2.048,0.501-2.638c0.868-0.588,2.048-0.366,2.638,0.5 l0.271,0.4c0.586,0.87,0.355,2.048-0.514,2.635C438.499,168.164,438.13,168.269,437.766,168.269z M258.304,164.684 c-0.388,0-0.781-0.119-1.12-0.366c-0.845-0.619-1.03-1.808-0.411-2.654l0.292-0.394c0.626-0.842,1.816-1.014,2.657-0.389 c0.84,0.626,1.015,1.816,0.389,2.657l-0.273,0.37C259.466,164.415,258.889,164.684,258.304,164.684z M433.005,161.762 c-0.563,0-1.12-0.249-1.495-0.728l-0.284-0.36c-0.653-0.819-0.519-2.014,0.302-2.667c0.818-0.651,2.014-0.52,2.668,0.302 l0.303,0.384c0.647,0.825,0.502,2.018-0.323,2.665C433.827,161.63,433.414,161.762,433.005,161.762z M263.322,158.366 c-0.436,0-0.874-0.149-1.232-0.454c-0.797-0.681-0.892-1.88-0.211-2.677l0.321-0.372c0.684-0.793,1.883-0.877,2.678-0.188 c0.792,0.687,0.876,1.886,0.188,2.678l-0.299,0.347C264.391,158.14,263.858,158.366,263.322,158.366z M427.783,155.618 c-0.516,0-1.028-0.208-1.402-0.618l-0.311-0.338c-0.713-0.769-0.668-1.97,0.101-2.683c0.767-0.713,1.97-0.669,2.683,0.1 l0.332,0.361c0.706,0.774,0.651,1.975-0.123,2.682C428.698,155.454,428.24,155.618,427.783,155.618z M268.787,152.433 c-0.483,0-0.967-0.184-1.337-0.551c-0.744-0.738-0.75-1.94-0.011-2.684l0.34-0.342c0.742-0.741,1.943-0.741,2.685,0 c0.741,0.742,0.741,1.943,0,2.685l-0.329,0.331C269.764,152.246,269.275,152.433,268.787,152.433z M422.127,149.869 c-0.468,0-0.936-0.171-1.303-0.517l-0.34-0.321c-0.766-0.716-0.805-1.918-0.088-2.684c0.715-0.767,1.916-0.805,2.684-0.088 l0.351,0.33c0.763,0.72,0.798,1.921,0.078,2.684C423.135,149.669,422.632,149.869,422.127,149.869z M274.667,146.912 c-0.528,0-1.054-0.219-1.43-0.648c-0.69-0.79-0.61-1.988,0.178-2.679l0.37-0.32c0.795-0.685,1.994-0.596,2.677,0.2 c0.684,0.795,0.594,1.994-0.2,2.677l-0.346,0.3C275.556,146.757,275.11,146.912,274.667,146.912z M416.065,144.547 c-0.426,0-0.853-0.142-1.207-0.434l-0.351-0.284c-0.816-0.658-0.946-1.852-0.289-2.67c0.659-0.815,1.854-0.944,2.67-0.289 l0.385,0.314c0.809,0.667,0.925,1.863,0.258,2.672C417.155,144.311,416.612,144.547,416.065,144.547z M280.932,141.836 c-0.578,0-1.147-0.262-1.521-0.759c-0.629-0.839-0.459-2.029,0.379-2.658l0.391-0.292c0.844-0.625,2.032-0.444,2.655,0.399 s0.445,2.032-0.398,2.655l-0.369,0.275C281.728,141.713,281.328,141.836,280.932,141.836z M409.633,139.678 c-0.376,0-0.756-0.111-1.087-0.343l-0.382-0.267c-0.861-0.597-1.077-1.78-0.479-2.641c0.596-0.86,1.781-1.076,2.641-0.479 l0.396,0.276c0.859,0.601,1.068,1.785,0.467,2.644C410.82,139.396,410.231,139.678,409.633,139.678z M287.547,137.232 c-0.625,0-1.235-0.307-1.598-0.872c-0.567-0.881-0.313-2.056,0.569-2.623l0.417-0.267c0.892-0.554,2.061-0.288,2.618,0.599 c0.557,0.888,0.289,2.06-0.599,2.617l-0.382,0.243C288.255,137.135,287.899,137.232,287.547,137.232z M402.859,135.292 c-0.332,0-0.668-0.087-0.974-0.27l-0.399-0.238c-0.902-0.534-1.202-1.698-0.668-2.6c0.535-0.902,1.699-1.201,2.601-0.667 l0.417,0.248c0.899,0.539,1.192,1.704,0.654,2.604C404.135,134.963,403.504,135.292,402.859,135.292z M294.48,133.126 c-0.674,0-1.325-0.359-1.669-0.992c-0.501-0.921-0.16-2.074,0.761-2.574l0.421-0.228c0.923-0.499,2.075-0.154,2.572,0.769 c0.498,0.922,0.154,2.074-0.769,2.572l-0.412,0.222C295.097,133.052,294.786,133.126,294.48,133.126z M395.781,131.415 c-0.287,0-0.578-0.065-0.852-0.203l-0.416-0.208c-0.939-0.466-1.322-1.605-0.855-2.544c0.465-0.938,1.602-1.325,2.544-0.855 l0.435,0.217c0.937,0.471,1.313,1.612,0.842,2.549C397.146,131.033,396.477,131.415,395.781,131.415z M301.693,129.539 c-0.723,0-1.414-0.415-1.731-1.117c-0.432-0.956-0.007-2.08,0.948-2.511l0.446-0.2c0.957-0.424,2.079,0.008,2.504,0.969 c0.423,0.958-0.009,2.079-0.969,2.504l-0.418,0.187C302.219,129.485,301.954,129.539,301.693,129.539z M388.436,128.069 c-0.24,0-0.485-0.046-0.721-0.144l-0.438-0.179c-0.971-0.397-1.436-1.505-1.039-2.476c0.398-0.971,1.504-1.433,2.477-1.04 l0.443,0.183c0.97,0.399,1.432,1.508,1.033,2.478C389.891,127.625,389.182,128.069,388.436,128.069z M309.147,126.496 c-0.772,0-1.498-0.476-1.781-1.242c-0.363-0.984,0.141-2.075,1.124-2.438l0.46-0.167c0.986-0.355,2.073,0.157,2.429,1.143 c0.355,0.986-0.156,2.073-1.143,2.429l-0.432,0.158C309.587,126.458,309.366,126.496,309.147,126.496z M380.859,125.272 c-0.195,0-0.393-0.03-0.587-0.093l-0.453-0.148c-0.997-0.324-1.542-1.396-1.219-2.392c0.325-0.997,1.394-1.542,2.393-1.219 l0.453,0.147c0.997,0.325,1.542,1.396,1.219,2.393C382.404,124.761,381.659,125.272,380.859,125.272z M316.816,124.008 c-0.826,0-1.585-0.543-1.824-1.376c-0.288-1.008,0.294-2.059,1.303-2.348l0.466-0.131c1.011-0.283,2.058,0.305,2.341,1.315 c0.283,1.01-0.307,2.057-1.315,2.341l-0.446,0.126C317.166,123.983,316.99,124.008,316.816,124.008z M373.109,123.047 c-0.151,0-0.305-0.018-0.457-0.056l-0.451-0.11c-1.02-0.246-1.646-1.271-1.4-2.291c0.244-1.019,1.266-1.647,2.29-1.4l0.472,0.116 c1.018,0.251,1.639,1.28,1.388,2.298C374.736,122.469,373.961,123.047,373.109,123.047z M324.648,122.094 c-0.884,0-1.674-0.62-1.857-1.52c-0.209-1.028,0.453-2.03,1.48-2.239l0.465-0.095c1.033-0.208,2.029,0.455,2.239,1.481 c0.209,1.028-0.454,2.03-1.481,2.239l-0.464,0.095C324.902,122.082,324.774,122.094,324.648,122.094z M365.215,121.405 c-0.105,0-0.213-0.008-0.322-0.027l-0.459-0.078c-1.034-0.172-1.732-1.15-1.561-2.185c0.172-1.033,1.143-1.735,2.186-1.56 l0.476,0.08c1.034,0.178,1.728,1.16,1.551,2.192C366.926,120.752,366.123,121.405,365.215,121.405z M332.6,120.764 c-0.939,0-1.756-0.697-1.88-1.653c-0.136-1.039,0.598-1.992,1.638-2.127l0.482-0.062c1.036-0.122,1.988,0.612,2.117,1.652 s-0.61,1.988-1.651,2.117l-0.458,0.059C332.765,120.76,332.682,120.764,332.6,120.764z M357.221,120.348 c-0.06,0-0.119-0.002-0.18-0.008l-0.462-0.042c-1.044-0.092-1.815-1.013-1.724-2.058c0.092-1.042,1.017-1.806,2.058-1.724 l0.483,0.044c1.044,0.099,1.811,1.024,1.713,2.068C359.016,119.611,358.189,120.348,357.221,120.348z M340.631,120.024 c-1.002,0-1.84-0.785-1.895-1.798c-0.055-1.046,0.748-1.94,1.796-1.996l0.474-0.025c1.043-0.075,1.941,0.748,1.996,1.795 c0.055,1.048-0.75,1.941-1.796,1.996l-0.474,0.025C340.698,120.023,340.664,120.024,340.631,120.024z M349.171,119.881 c-0.015,0-0.03,0-0.045-0.001l-0.464-0.008c-1.049-0.019-1.883-0.883-1.865-1.932c0.02-1.037,0.865-1.865,1.898-1.865 c0.012,0,0.022,0,0.033,0l0.486,0.01c1.049,0.024,1.878,0.894,1.854,1.942C351.043,119.061,350.199,119.881,349.171,119.881z"></path> <path fill="#FFFFFF" d="M344.647,306.121c-0.016,0-0.031,0-0.048,0l-0.4-0.012c-0.887-0.025-1.584-0.766-1.559-1.651 c0.027-0.886,0.78-1.607,1.652-1.557l0.4,0.012c0.887,0.026,1.584,0.765,1.559,1.651 C346.227,305.433,345.512,306.121,344.647,306.121z M351.063,306.033c-0.844,0-1.551-0.659-1.602-1.511 c-0.052-0.886,0.624-1.645,1.509-1.697l0.401-0.022c0.872-0.071,1.643,0.622,1.695,1.508c0.053,0.885-0.623,1.644-1.508,1.696 l-0.4,0.024C351.126,306.032,351.094,306.033,351.063,306.033z M337.849,305.637c-0.063,0-0.126-0.003-0.189-0.011l-0.399-0.047 c-0.881-0.104-1.51-0.902-1.406-1.782c0.104-0.88,0.91-1.517,1.781-1.407l0.398,0.047c0.881,0.104,1.511,0.901,1.407,1.782 C339.344,305.036,338.651,305.637,337.849,305.637z M357.846,305.357c-0.781,0-1.467-0.572-1.586-1.369 c-0.13-0.876,0.476-1.693,1.353-1.824l0.397-0.059c0.885-0.125,1.693,0.476,1.823,1.353c0.129,0.877-0.476,1.693-1.353,1.823 l-0.396,0.059C358.004,305.352,357.925,305.357,357.846,305.357z M331.117,304.553c-0.109,0-0.22-0.011-0.331-0.035l-0.392-0.082 c-0.868-0.181-1.426-1.03-1.244-1.899c0.18-0.868,1.023-1.425,1.899-1.244l0.396,0.083c0.867,0.182,1.423,1.033,1.241,1.9 C332.527,304.033,331.861,304.553,331.117,304.553z M364.545,304.083c-0.724,0-1.381-0.492-1.559-1.227 c-0.209-0.862,0.32-1.73,1.182-1.938l0.392-0.095c0.86-0.208,1.729,0.322,1.937,1.185c0.208,0.862-0.322,1.729-1.184,1.937 l-0.389,0.093C364.797,304.069,364.67,304.083,364.545,304.083z M324.508,302.875c-0.154,0-0.313-0.023-0.469-0.07l-0.385-0.118 c-0.848-0.259-1.326-1.155-1.068-2.003c0.258-0.849,1.154-1.331,2.004-1.067l0.386,0.117c0.849,0.259,1.326,1.155,1.067,2.003 C325.832,302.429,325.195,302.875,324.508,302.875z M371.102,302.217c-0.668,0-1.293-0.421-1.52-1.09 c-0.285-0.839,0.165-1.751,1.004-2.036l0.381-0.128c0.84-0.286,1.751,0.165,2.036,1.004c0.285,0.839-0.165,1.751-1.005,2.036 l-0.38,0.128C371.447,302.188,371.273,302.217,371.102,302.217z M318.068,300.608c-0.199,0-0.402-0.038-0.599-0.117l-0.384-0.156 c-0.82-0.337-1.211-1.275-0.874-2.095c0.336-0.82,1.272-1.211,2.095-0.874l0.362,0.147c0.822,0.331,1.22,1.266,0.89,2.088 C319.307,300.227,318.704,300.608,318.068,300.608z M377.465,299.772c-0.619,0-1.21-0.36-1.473-0.965 c-0.354-0.813,0.018-1.758,0.83-2.112l0.354-0.156c0.811-0.358,1.759,0.004,2.12,0.814c0.359,0.81-0.004,1.759-0.814,2.119 l-0.377,0.166C377.896,299.729,377.679,299.772,377.465,299.772z M311.86,297.775c-0.246,0-0.497-0.057-0.731-0.177l-0.365-0.188 c-0.787-0.408-1.093-1.378-0.684-2.164c0.407-0.786,1.379-1.094,2.164-0.685l0.351,0.181c0.789,0.404,1.1,1.372,0.695,2.161 C313.006,297.457,312.444,297.775,311.86,297.775z M383.583,296.77c-0.566,0-1.115-0.3-1.407-0.832 c-0.428-0.776-0.145-1.752,0.633-2.18l0.35-0.192c0.777-0.428,1.754-0.144,2.18,0.632c0.428,0.777,0.145,1.753-0.633,2.18 l-0.35,0.193C384.109,296.707,383.845,296.77,383.583,296.77z M305.931,294.403c-0.292,0-0.586-0.079-0.852-0.245l-0.351-0.222 c-0.747-0.477-0.966-1.47-0.488-2.217c0.477-0.745,1.47-0.963,2.217-0.488l0.329,0.208c0.75,0.472,0.977,1.463,0.506,2.214 C306.987,294.136,306.465,294.403,305.931,294.403z M389.41,293.236c-0.518,0-1.025-0.25-1.336-0.712 c-0.492-0.737-0.295-1.734,0.441-2.227l0.328-0.22c0.736-0.498,1.732-0.301,2.229,0.434c0.495,0.735,0.301,1.732-0.435,2.228 l-0.337,0.227C390.027,293.148,389.717,293.236,389.41,293.236z M300.323,290.518c-0.337,0-0.678-0.106-0.967-0.326l-0.33-0.252 c-0.702-0.541-0.833-1.549-0.292-2.251c0.54-0.703,1.547-0.833,2.251-0.292l0.308,0.235c0.707,0.535,0.846,1.542,0.312,2.249 C301.289,290.298,300.809,290.518,300.323,290.518z M394.902,289.199c-0.471,0-0.938-0.207-1.255-0.604 c-0.554-0.693-0.44-1.703,0.253-2.256l0.297-0.24c0.688-0.561,1.697-0.46,2.259,0.226c0.562,0.687,0.46,1.698-0.226,2.259 l-0.327,0.264C395.607,289.084,395.254,289.199,394.902,289.199z M295.084,286.153c-0.386,0-0.773-0.139-1.082-0.419l-0.301-0.276 c-0.652-0.6-0.695-1.616-0.094-2.268c0.6-0.651,1.616-0.695,2.269-0.094l0.292,0.267c0.654,0.598,0.701,1.613,0.104,2.269 C295.954,285.977,295.52,286.153,295.084,286.153z M400.019,284.693c-0.422,0-0.843-0.166-1.159-0.494 c-0.613-0.64-0.592-1.656,0.048-2.27l0.278-0.27c0.634-0.618,1.652-0.606,2.271,0.028c0.619,0.635,0.606,1.651-0.028,2.27 l-0.297,0.289C400.818,284.544,400.418,284.693,400.019,284.693z M290.25,281.343c-0.433,0-0.865-0.174-1.182-0.518l-0.275-0.3 c-0.597-0.655-0.551-1.67,0.104-2.268c0.658-0.598,1.672-0.548,2.269,0.104l0.266,0.291c0.601,0.653,0.558,1.668-0.094,2.269 C291.028,281.203,290.638,281.343,290.25,281.343z M404.718,279.751c-0.373,0-0.748-0.129-1.052-0.394 c-0.67-0.581-0.741-1.595-0.159-2.265l0.258-0.297c0.577-0.67,1.591-0.748,2.264-0.169c0.672,0.578,0.747,1.591,0.169,2.264 l-0.268,0.309C405.613,279.564,405.167,279.751,404.718,279.751z M285.859,276.127c-0.481,0-0.957-0.214-1.272-0.625l-0.252-0.329 c-0.535-0.707-0.396-1.714,0.311-2.249c0.705-0.536,1.713-0.396,2.249,0.311l0.235,0.307c0.542,0.703,0.411,1.71-0.292,2.251 C286.546,276.019,286.202,276.127,285.859,276.127z M408.963,274.414c-0.328,0-0.659-0.101-0.944-0.309 c-0.716-0.522-0.874-1.527-0.351-2.242l0.229-0.317c0.519-0.718,1.521-0.883,2.24-0.365c0.721,0.517,0.884,1.521,0.365,2.24 l-0.241,0.334C409.947,274.186,409.458,274.414,408.963,274.414z M281.948,270.545c-0.532,0-1.053-0.264-1.358-0.748l-0.214-0.338 c-0.474-0.75-0.25-1.741,0.499-2.214c0.748-0.476,1.742-0.251,2.214,0.499l0.214,0.339c0.474,0.749,0.25,1.741-0.5,2.214 C282.538,270.465,282.241,270.545,281.948,270.545z M412.721,268.722c-0.281,0-0.564-0.074-0.823-0.228 c-0.761-0.456-1.008-1.441-0.553-2.202l0.202-0.338c0.45-0.764,1.436-1.016,2.198-0.563c0.763,0.451,1.016,1.436,0.563,2.199 l-0.209,0.353C413.799,268.444,413.266,268.722,412.721,268.722z M278.546,264.639c-0.582,0-1.143-0.317-1.428-0.869l-0.185-0.36 c-0.404-0.789-0.093-1.756,0.695-2.161c0.787-0.409,1.756-0.093,2.161,0.695l0.182,0.352c0.407,0.788,0.098,1.756-0.689,2.164 C279.045,264.582,278.793,264.639,278.546,264.639z M415.959,262.717c-0.233,0-0.47-0.051-0.693-0.159 c-0.801-0.384-1.137-1.343-0.752-2.142l0.172-0.359c0.382-0.8,1.342-1.141,2.141-0.757c0.8,0.382,1.139,1.34,0.757,2.14 l-0.176,0.367C417.131,262.382,416.557,262.717,415.959,262.717z M275.683,258.457c-0.632,0-1.23-0.375-1.485-0.996l-0.156-0.383 c-0.331-0.823,0.068-1.758,0.89-2.089c0.824-0.332,1.757,0.069,2.089,0.89l0.146,0.361c0.337,0.82-0.054,1.758-0.874,2.095 C276.093,258.418,275.886,258.457,275.683,258.457z M418.65,256.447c-0.188,0-0.378-0.034-0.563-0.103 c-0.83-0.312-1.251-1.237-0.94-2.067l0.141-0.374c0.31-0.831,1.236-1.252,2.064-0.944c0.831,0.31,1.254,1.234,0.944,2.064 l-0.142,0.38C419.912,256.049,419.301,256.447,418.65,256.447z M273.38,252.038c-0.687,0-1.322-0.444-1.534-1.135l-0.119-0.387 c-0.258-0.848,0.22-1.745,1.068-2.004c0.846-0.261,1.745,0.22,2.003,1.068l0.117,0.381c0.26,0.848-0.216,1.746-1.064,2.006 C273.695,252.015,273.536,252.038,273.38,252.038z M420.77,249.964c-0.145,0-0.291-0.02-0.437-0.061 c-0.854-0.241-1.35-1.128-1.108-1.98l0.102-0.373c0.234-0.855,1.116-1.358,1.973-1.126c0.854,0.233,1.358,1.116,1.126,1.971 l-0.11,0.4C422.114,249.501,421.471,249.964,420.77,249.964z M271.662,245.439c-0.74,0-1.405-0.514-1.567-1.267l-0.084-0.402 c-0.182-0.868,0.374-1.718,1.241-1.9c0.875-0.184,1.719,0.375,1.9,1.242l0.081,0.383c0.187,0.867-0.364,1.721-1.23,1.908 C271.888,245.427,271.774,245.439,271.662,245.439z M422.301,243.32c-0.096,0-0.193-0.009-0.293-0.027 c-0.871-0.161-1.447-0.998-1.287-1.87l0.07-0.386c0.155-0.873,0.984-1.462,1.862-1.298c0.872,0.156,1.454,0.99,1.298,1.862 l-0.072,0.405C423.736,242.779,423.061,243.32,422.301,243.32z M270.539,238.714c-0.798,0-1.49-0.595-1.59-1.407l-0.049-0.409 c-0.104-0.88,0.526-1.678,1.407-1.782c0.872-0.109,1.678,0.527,1.782,1.407l0.046,0.387c0.109,0.88-0.515,1.682-1.395,1.791 C270.672,238.71,270.605,238.714,270.539,238.714z M423.233,236.567c-0.05,0-0.101-0.002-0.151-0.007 c-0.883-0.083-1.531-0.866-1.448-1.749l0.035-0.39c0.078-0.883,0.854-1.533,1.74-1.458c0.884,0.078,1.535,0.857,1.458,1.74 l-0.037,0.409C424.752,235.944,424.053,236.567,423.233,236.567z M270.018,231.918c-0.861,0-1.573-0.682-1.604-1.549l-0.013-0.409 c-0.026-0.886,0.671-1.626,1.558-1.652c0.879-0.022,1.625,0.672,1.651,1.558l0.013,0.391c0.031,0.885-0.662,1.629-1.548,1.661 C270.056,231.918,270.037,231.918,270.018,231.918z M423.564,229.758c-0.002,0-0.006,0-0.009,0 c-0.887-0.006-1.602-0.729-1.596-1.615l0.001-0.392c0-0.887,0.719-1.605,1.605-1.605c0.886,0,1.604,0.719,1.604,1.605l-0.001,0.411 C425.164,229.045,424.447,229.758,423.564,229.758z M270.095,225.101c-0.029,0-0.058,0-0.086-0.002 c-0.885-0.046-1.565-0.802-1.518-1.688l0.021-0.389c0.052-0.885,0.818-1.557,1.697-1.519c0.885,0.051,1.562,0.8,1.51,1.686 l-0.022,0.392C271.651,224.436,270.942,225.101,270.095,225.101z M423.422,224.631c-0.839,0-1.545-0.652-1.6-1.503l-0.026-0.399 c-0.058-0.884,0.614-1.648,1.499-1.706c0.901-0.055,1.648,0.614,1.705,1.499l0.025,0.401c0.057,0.884-0.613,1.647-1.498,1.705 C423.492,224.63,423.457,224.631,423.422,224.631z M270.767,218.316c-0.075,0-0.151-0.005-0.228-0.016 c-0.878-0.125-1.489-0.938-1.364-1.815l0.06-0.407c0.131-0.876,0.952-1.481,1.823-1.353c0.877,0.13,1.482,0.946,1.353,1.823 l-0.056,0.388C272.24,217.737,271.553,218.316,270.767,218.316z M422.708,217.851c-0.777,0-1.461-0.567-1.584-1.36l-0.062-0.398 c-0.135-0.876,0.467-1.695,1.344-1.83c0.865-0.133,1.694,0.465,1.83,1.343l0.061,0.395c0.136,0.876-0.465,1.696-1.341,1.832 C422.873,217.845,422.791,217.851,422.708,217.851z M272.038,211.618c-0.122,0-0.245-0.014-0.368-0.042 c-0.864-0.203-1.398-1.067-1.196-1.93l0.096-0.4c0.208-0.861,1.072-1.395,1.937-1.185c0.861,0.208,1.392,1.075,1.184,1.937 l-0.091,0.381C273.425,211.12,272.766,211.618,272.038,211.618z M421.396,211.16c-0.724,0-1.381-0.492-1.559-1.227l-0.094-0.383 c-0.213-0.86,0.313-1.731,1.173-1.943c0.859-0.214,1.731,0.312,1.943,1.173l0.097,0.396c0.21,0.862-0.319,1.73-1.181,1.938 C421.648,211.146,421.521,211.16,421.396,211.16z M273.899,205.061c-0.167,0-0.337-0.026-0.505-0.082 c-0.842-0.279-1.298-1.187-1.019-2.029l0.132-0.393c0.285-0.84,1.194-1.289,2.036-1.004c0.84,0.284,1.29,1.196,1.004,2.036 l-0.125,0.371C275.2,204.634,274.573,205.061,273.899,205.061z M419.494,204.616c-0.67,0-1.295-0.423-1.521-1.093l-0.125-0.366 c-0.291-0.837,0.151-1.752,0.988-2.043c0.838-0.295,1.752,0.151,2.043,0.988l0.137,0.395c0.283,0.84-0.169,1.751-1.008,2.035 C419.837,204.589,419.664,204.616,419.494,204.616z M276.344,198.689c-0.213,0-0.43-0.043-0.637-0.133 c-0.814-0.352-1.188-1.297-0.835-2.111l0.167-0.379c0.358-0.812,1.307-1.179,2.117-0.819c0.812,0.359,1.178,1.307,0.819,2.118 l-0.157,0.357C277.556,198.327,276.965,198.689,276.344,198.689z M417.014,198.269c-0.616,0-1.204-0.356-1.469-0.957l-0.158-0.354 c-0.365-0.808-0.006-1.759,0.803-2.124c0.809-0.365,1.758-0.005,2.123,0.802l0.168,0.377c0.359,0.81-0.008,1.758-0.818,2.117 C417.451,198.224,417.23,198.269,417.014,198.269z M279.347,192.562c-0.26,0-0.524-0.063-0.768-0.196 c-0.778-0.426-1.065-1.401-0.639-2.179l0.2-0.363c0.431-0.774,1.408-1.053,2.184-0.621c0.774,0.431,1.053,1.409,0.621,2.184 l-0.188,0.34C280.465,192.26,279.915,192.562,279.347,192.562z M413.979,192.168c-0.563,0-1.109-0.297-1.404-0.824l-0.192-0.346 c-0.435-0.774-0.158-1.752,0.614-2.186c0.776-0.433,1.754-0.158,2.186,0.615l0.197,0.354c0.433,0.774,0.154,1.752-0.62,2.184 C414.511,192.103,414.242,192.168,413.979,192.168z M282.883,186.729c-0.306,0-0.617-0.088-0.891-0.271 c-0.737-0.493-0.935-1.49-0.441-2.227l0.231-0.344c0.499-0.733,1.498-0.922,2.23-0.423c0.733,0.5,0.922,1.498,0.423,2.231 l-0.217,0.322C283.909,186.479,283.401,186.729,282.883,186.729z M410.412,186.36c-0.514,0-1.018-0.246-1.329-0.702l-0.226-0.332 c-0.498-0.733-0.311-1.731,0.423-2.231c0.734-0.499,1.732-0.308,2.231,0.423l0.225,0.332c0.499,0.733,0.311,1.731-0.423,2.231 C411.037,186.27,410.723,186.36,410.412,186.36z M286.922,181.232c-0.354,0-0.708-0.116-1.005-0.354 c-0.691-0.556-0.8-1.566-0.245-2.257l0.261-0.322c0.562-0.685,1.572-0.785,2.259-0.226c0.686,0.561,0.787,1.572,0.226,2.259 l-0.244,0.302C287.856,181.027,287.392,181.232,286.922,181.232z M406.343,180.889c-0.465,0-0.926-0.201-1.243-0.588l-0.254-0.311 c-0.562-0.687-0.461-1.698,0.226-2.259c0.687-0.562,1.698-0.46,2.259,0.226l0.254,0.311c0.562,0.687,0.461,1.698-0.226,2.259 C407.06,180.77,406.7,180.889,406.343,180.889z M291.43,176.114c-0.399,0-0.8-0.148-1.111-0.447c-0.64-0.614-0.661-1.63-0.047-2.27 l0.288-0.298c0.62-0.634,1.638-0.647,2.271-0.028c0.635,0.619,0.647,1.635,0.028,2.27l-0.27,0.279 C292.273,175.949,291.852,176.114,291.43,176.114z M401.807,175.798c-0.417,0-0.834-0.162-1.148-0.484l-0.275-0.282 c-0.622-0.632-0.614-1.648,0.019-2.27c0.634-0.62,1.647-0.613,2.27,0.019l0.286,0.292c0.619,0.635,0.605,1.651-0.029,2.27 C402.616,175.646,402.212,175.798,401.807,175.798z M296.371,171.414c-0.449,0-0.895-0.188-1.212-0.553 c-0.582-0.669-0.51-1.684,0.159-2.265l0.309-0.267c0.673-0.58,1.687-0.503,2.264,0.169c0.579,0.672,0.502,1.686-0.169,2.264 l-0.297,0.258C297.119,171.284,296.744,171.414,296.371,171.414z M396.839,171.125c-0.371,0-0.743-0.127-1.047-0.389l-0.3-0.257 c-0.674-0.576-0.754-1.589-0.178-2.263c0.576-0.674,1.588-0.755,2.263-0.178l0.31,0.265c0.672,0.578,0.748,1.591,0.169,2.264 C397.738,170.936,397.29,171.125,396.839,171.125z M301.707,167.168c-0.498,0-0.987-0.23-1.301-0.663 c-0.521-0.718-0.361-1.722,0.357-2.242l0.336-0.242c0.721-0.515,1.725-0.346,2.239,0.376c0.514,0.722,0.346,1.725-0.376,2.239 l-0.314,0.227C302.363,167.069,302.033,167.168,301.707,167.168z M391.477,166.91c-0.324,0-0.652-0.098-0.936-0.303l-0.321-0.229 c-0.722-0.514-0.89-1.517-0.376-2.238c0.512-0.722,1.517-0.893,2.238-0.376l0.334,0.238c0.719,0.518,0.883,1.521,0.365,2.24 C392.467,166.678,391.976,166.91,391.477,166.91z M307.395,163.412c-0.547,0-1.08-0.28-1.38-0.784 c-0.454-0.761-0.205-1.747,0.557-2.2l0.348-0.207c0.764-0.451,1.748-0.198,2.199,0.563c0.452,0.763,0.199,1.747-0.563,2.199 l-0.34,0.202C307.958,163.339,307.675,163.412,307.395,163.412z M385.763,163.184c-0.278,0-0.56-0.072-0.815-0.224l-0.336-0.197 c-0.767-0.446-1.027-1.428-0.582-2.195c0.447-0.766,1.429-1.026,2.195-0.582l0.357,0.211c0.763,0.451,1.016,1.436,0.563,2.198 C386.846,162.903,386.312,163.184,385.763,163.184z M313.392,160.176c-0.596,0-1.168-0.333-1.446-0.906 c-0.385-0.799-0.052-1.758,0.747-2.145l0.372-0.179c0.799-0.379,1.757-0.038,2.139,0.763c0.379,0.801,0.037,1.758-0.764,2.139 l-0.349,0.167C313.865,160.125,313.627,160.176,313.392,160.176z M379.74,159.979c-0.23,0-0.465-0.049-0.686-0.154l-0.361-0.17 c-0.802-0.377-1.146-1.334-0.768-2.137c0.377-0.803,1.337-1.146,2.137-0.768l0.366,0.173c0.802,0.38,1.144,1.337,0.764,2.138 C380.918,159.64,380.342,159.979,379.74,159.979z M319.65,157.489c-0.648,0-1.261-0.398-1.502-1.042 c-0.313-0.83,0.109-1.755,0.939-2.067l0.376-0.141c0.831-0.307,1.755,0.109,2.067,0.939c0.311,0.83-0.11,1.755-0.94,2.067 l-0.376,0.141C320.029,157.455,319.838,157.489,319.65,157.489z M373.455,157.325c-0.186,0-0.372-0.032-0.556-0.1l-0.374-0.138 c-0.833-0.305-1.26-1.228-0.955-2.06c0.305-0.832,1.225-1.258,2.06-0.955l0.381,0.14c0.832,0.307,1.257,1.229,0.951,2.062 C374.722,156.923,374.107,157.325,373.455,157.325z M326.131,155.368c-0.701,0-1.346-0.464-1.545-1.173 c-0.238-0.854,0.259-1.739,1.112-1.979l0.398-0.11c0.851-0.236,1.737,0.271,1.972,1.126c0.232,0.855-0.271,1.738-1.127,1.972 l-0.376,0.103C326.42,155.348,326.274,155.368,326.131,155.368z M366.962,155.245c-0.141,0-0.284-0.019-0.426-0.058l-0.376-0.101 c-0.857-0.229-1.365-1.108-1.137-1.965c0.228-0.856,1.104-1.369,1.965-1.137l0.397,0.107c0.855,0.234,1.358,1.118,1.124,1.973 C368.313,154.776,367.668,155.245,366.962,155.245z M332.773,153.834c-0.76,0-1.435-0.541-1.577-1.314 c-0.161-0.872,0.415-1.709,1.287-1.87l0.393-0.072c0.876-0.158,1.71,0.414,1.872,1.286c0.161,0.872-0.414,1.709-1.285,1.872 l-0.396,0.072C332.968,153.826,332.869,153.834,332.773,153.834z M360.311,153.75c-0.093,0-0.188-0.008-0.281-0.025l-0.389-0.067 c-0.874-0.151-1.46-0.981-1.309-1.854c0.15-0.874,0.975-1.461,1.854-1.309l0.403,0.07c0.873,0.154,1.455,0.988,1.3,1.861 C361.752,153.204,361.075,153.75,360.311,153.75z M339.527,152.898c-0.82,0-1.52-0.623-1.598-1.455 c-0.082-0.883,0.565-1.666,1.448-1.749l0.397-0.037c0.896-0.08,1.666,0.564,1.75,1.447c0.084,0.883-0.564,1.666-1.447,1.75 l-0.399,0.037C339.628,152.896,339.577,152.898,339.527,152.898z M353.553,152.857c-0.047,0-0.094-0.001-0.142-0.006l-0.392-0.033 c-0.884-0.073-1.541-0.848-1.469-1.731c0.072-0.884,0.84-1.553,1.731-1.468l0.409,0.035c0.884,0.077,1.537,0.855,1.459,1.739 C355.077,152.228,354.377,152.857,353.553,152.857z M346.338,152.563c-0.883,0-1.6-0.712-1.605-1.596 c-0.006-0.887,0.709-1.609,1.596-1.615l0.41-0.002c0.887,0,1.605,0.719,1.605,1.605c0,0.887-0.719,1.605-1.605,1.605l-0.391,0.001 C346.344,152.563,346.341,152.563,346.338,152.563z"></path> </g> <polygon fill="#FFFFFF" points="325.127,416.949 309.53,889.535 384.002,889.535 368.404,416.949 366.905,371.538 326.621,371.538 "></polygon> <g> <path fill="#EFEFEF" d="M380.304,617.978l0.038,0.809c9.526,1.463,15.482,3.541,15.482,5.846c0,2.262-5.732,4.303-14.94,5.762 c-8.829,1.396-20.854,2.26-34.118,2.26c-13.263,0-25.289-0.863-34.118-2.26c-9.208-1.459-14.939-3.5-14.939-5.762 c0-2.305,5.956-4.383,15.482-5.846l0.038-0.809c-22.69,1.967-38.156,5.863-38.156,10.355c0,4.428,15.025,8.281,37.191,10.275 c10.236,0.92,21.993,1.445,34.502,1.445c12.51,0,24.266-0.525,34.502-1.445c22.166-1.994,37.191-5.848,37.191-10.275 C418.459,623.841,402.994,619.944,380.304,617.978z"></path> <path fill="#EFEFEF" d="M377.599,560.091l0.034,0.74c8.834,1.35,14.361,3.271,14.361,5.404c0,2.09-5.32,3.979-13.859,5.322 c-8.133,1.281-19.184,2.07-31.369,2.07c-12.185,0-23.236-0.789-31.368-2.07c-8.539-1.344-13.86-3.232-13.86-5.322 c0-2.133,5.528-4.055,14.361-5.404l0.035-0.74c-20.967,1.811-35.265,5.408-35.265,9.555c0,4.09,13.891,7.646,34.374,9.482 c9.418,0.844,20.227,1.324,31.723,1.324c11.497,0,22.305-0.48,31.723-1.324c20.483-1.836,34.374-5.393,34.374-9.482 C412.862,565.499,398.564,561.901,377.599,560.091z"></path> <path fill="#EFEFEF" d="M374.926,502.901l0.035,0.762c6.599,1.137,10.65,2.674,10.65,4.365c0,1.656-3.904,3.158-10.246,4.287 c-7.101,1.266-17.268,2.064-28.6,2.064s-21.498-0.799-28.6-2.064c-6.342-1.129-10.246-2.631-10.246-4.287 c0-1.691,4.052-3.229,10.65-4.365l0.035-0.762c-17.091,1.6-28.608,4.607-28.608,8.059c0,3.398,11.184,6.369,27.858,7.986 c8.47,0.822,18.35,1.295,28.91,1.295s20.441-0.473,28.91-1.295c16.674-1.617,27.858-4.588,27.858-7.986 C403.534,507.509,392.017,504.501,374.926,502.901z"></path> </g> <polygon fill="#B2DD4C" points="321.928,362.837 346.768,451.071 371.604,362.837 "></polygon> <polygon fill="#9FD323" points="329.785,370.876 346.768,431.221 363.755,370.876 "></polygon> <rect x="334.582" y="293.902" fill="#474747" width="24.367" height="14.601"></rect> <path fill="#FFFFFF" d="M330.491,376.188c16.745,12.158,31.63,0.841,33.342-0.459c1.712-1.3,10.892-8.692,11.784-21.438 c0.893-12.745-7.939-25.265-7.939-25.265l-2.468-4.687c-0.912-1.731-1.406-3.978-1.845-5.883c-0.742-3.218-0.787-6.979-2.574-9.833 c-0.243-0.389-0.518-0.728-0.814-1.032h-27.043c-2.094,2.883-1.991,5.831-2.537,9.388c-0.634,4.139-2.519,7.891-4.52,11.488 c-0.596,1.071-5.582,10.936-6.698,13.918C318.063,345.369,313.746,364.028,330.491,376.188z"></path> <path fill="#474747" d="M353.615,307.611l2.275,39.162l-2.4-4.368c-0.15-0.27-0.398-0.43-0.66-0.41 c-0.256,0.016-0.492,0.201-0.617,0.493l-2.549,5.732l-2.631-6.067c-0.143-0.31-0.389-0.499-0.662-0.499 c-0.277,0.004-0.526,0.181-0.662,0.486l-2.663,5.902l-1.858-5.401c-0.115-0.323-0.352-0.545-0.629-0.576 c-0.268-0.032-0.537,0.123-0.689,0.416l-2.191,4.096l2.566-38.991l-1.523-0.001l-2.799,42.519c-0.031,0.446,0.175,0.86,0.503,1.009 c0.32,0.148,0.68,0,0.881-0.368l3.04-5.697l1.913,5.553c0.112,0.336,0.368,0.561,0.651,0.581c0.276,0.022,0.553-0.167,0.695-0.485 l2.748-6.081l2.643,6.08c0.133,0.308,0.385,0.497,0.661,0.5c0.284,0.01,0.521-0.187,0.657-0.494l2.619-5.896l3.299,5.992 c0.195,0.358,0.555,0.5,0.879,0.355c0.319-0.155,0.522-0.565,0.499-1.005l-2.471-42.534L353.615,307.611z"></path> <polygon fill="#B2DD4C" points="346.766,114.402 276.954,320.8 346.766,299.909 416.577,320.8 "></polygon> <polygon fill="#9FD323" points="346.768,114.402 333.73,303.81 346.766,299.909 359.799,303.809 346.768,114.403 346.768,114.402 "></polygon> </svg> 